<svg width="493" height="482" viewBox="0 0 493 482" fill="none" xmlns="http://www.w3.org/2000/svg">
<path fill-rule="evenodd" clip-rule="evenodd" d="M68.6244 99.6023H68.6172C67.7496 99.5975 67.0512 98.8919 67.0548 98.0255C67.122 84.3707 69.942 72.0107 75.4368 61.2923C79.8408 52.7015 85.956 45.1499 93.6144 38.8463C106.639 28.1267 119.458 24.7811 119.996 24.6443C120.836 24.4307 121.691 24.9383 121.904 25.7783C122.118 26.6171 121.61 27.4715 120.77 27.6851C120.61 27.7271 107.98 31.0511 95.508 41.3531C78.828 55.1315 70.3104 74.2043 70.194 98.0411C70.1892 98.9051 69.4872 99.6023 68.6244 99.6023Z" fill="#DEC5B7"/>
<path fill-rule="evenodd" clip-rule="evenodd" d="M464.702 257.938L464.4 257.909C463.549 257.742 462.995 256.919 463.162 256.068C463.217 255.784 468.529 227.221 454.56 196.973C447.31 181.272 434.083 171.068 424.267 165.274C413.593 158.974 404.58 156.394 404.49 156.367C403.657 156.132 403.171 155.266 403.406 154.432C403.642 153.598 404.51 153.112 405.342 153.347C405.726 153.455 414.841 156.065 425.862 162.57C436.064 168.593 449.82 179.221 457.41 195.658C464.939 211.962 466.943 227.657 467.298 237.952C467.683 249.128 466.3 256.367 466.241 256.669C466.094 257.419 465.438 257.938 464.702 257.938Z" fill="#DEC5B7"/>
<path fill-rule="evenodd" clip-rule="evenodd" d="M0 233.746C0 233.746 4.188 219.434 13.2636 220.482C22.3392 221.53 23.7348 225.718 31.4136 222.576C39.0924 219.434 41.8848 209.312 54.45 211.757C67.0152 214.199 68.412 228.161 82.722 227.114C97.032 226.067 101.92 225.718 107.154 233.746H0Z" fill="#FFF6F5"/>
<path fill-rule="evenodd" clip-rule="evenodd" d="M207.661 31.6103C207.661 31.6103 213.402 18.9155 229.079 22.7003C244.577 26.4407 251.252 4.24432 265.052 5.67232C278.852 7.10032 273.905 19.8443 291.512 22.7003C309.12 25.5551 314.216 18.6083 321.631 31.6103H207.661Z" fill="#FFF6F5"/>
<path fill-rule="evenodd" clip-rule="evenodd" d="M355.325 367.186C355.325 367.186 361.066 354.492 376.741 358.277C392.239 362.017 398.916 339.822 412.716 341.249C426.516 342.677 421.568 355.422 439.176 358.277C456.782 361.132 461.879 354.184 469.295 367.186H355.325Z" fill="#FFF6F5"/>
<path fill-rule="evenodd" clip-rule="evenodd" d="M478.541 469.704C478.541 476.138 382.777 481.355 264.647 481.355C146.516 481.355 50.7528 476.138 50.7528 469.704C50.7528 463.271 146.516 458.054 264.647 458.054C382.777 458.054 478.541 463.271 478.541 469.704Z" fill="#FFF6F5"/>
<path fill-rule="evenodd" clip-rule="evenodd" d="M306.607 175.436C306.607 175.436 271.499 177.19 275.848 138.548C280.198 99.9071 315.364 57.1955 342.233 55.4315C369.102 53.6675 378.326 72.8663 376.327 89.1023C374.327 105.34 306.607 175.436 306.607 175.436Z" fill="#171818"/>
<mask id="mask0_0_774" style="mask-type:alpha" maskUnits="userSpaceOnUse" x="298" y="22" width="88" height="58">
<path fill-rule="evenodd" clip-rule="evenodd" d="M378.204 27.7151C366.83 18.1571 337.28 24.1067 328.656 27.7151C314.731 33.5423 305.695 45.4931 300.626 54.3179C296.069 62.2487 298.198 72.4679 305.776 77.5907C307.811 78.9659 310.058 79.8671 312.438 79.8287C321.955 79.6691 327.51 65.0879 341.8 62.8619C347.786 61.9295 351.919 62.6483 355.622 63.3671C360.76 64.3643 365.07 65.3615 372.356 61.9535C384.896 56.0879 392.023 39.3299 378.204 27.7151Z" fill="white"/>
</mask>
<g mask="url(#mask0_0_774)">
<path fill-rule="evenodd" clip-rule="evenodd" d="M331.273 83.2799C331.273 83.2799 337.412 90.4295 343.456 86.0519C349.499 81.6755 344.972 74.2967 344.972 74.2967L331.273 83.2799Z" fill="#D6D4CE"/>
<path fill-rule="evenodd" clip-rule="evenodd" d="M339.847 47.2739C342.988 52.0631 343.657 57.7607 342.137 62.8535L342.132 62.8727C342.164 64.4111 342.385 69.5567 344.039 73.2647C344.039 73.2647 342.264 76.0715 338.041 78.8387C333.809 81.6143 330.539 82.1171 330.539 82.1171C329.452 80.9399 328.064 79.8599 326.71 78.9575L326.698 78.9647C324.145 77.2715 321.677 76.1879 321.384 76.0463L321.347 76.0391C316.278 75.2651 311.562 72.4223 308.534 67.8059C302.862 59.1539 305.274 47.5571 313.926 41.8835C314.656 41.4047 315.418 40.9715 316.193 40.6115L316.224 40.6079C324.524 36.6755 334.662 39.3635 339.847 47.2739Z" fill="#6FFFB0"/>
<path fill-rule="evenodd" clip-rule="evenodd" d="M332.977 58.8431L332.642 58.8551L331.352 58.1327L331.5 59.6039C331.513 59.7227 331.457 59.8391 331.357 59.9051L331.024 59.9159L329.732 59.1947L329.881 60.6647C329.893 60.7847 329.838 60.9011 329.737 60.9659L329.404 60.9779L328.115 60.2555L328.264 61.7267C328.276 61.8455 328.22 61.9619 328.12 62.0279L327.785 62.0387L326.496 61.3175L326.644 62.7875C326.657 62.9075 326.6 63.0239 326.501 63.0887L326.167 63.1007L324.877 62.3795L325.026 63.8495C325.037 63.9683 324.982 64.0847 324.881 64.1507L324.547 64.1615L323.258 63.4403L323.407 64.9103C323.419 65.0303 323.364 65.1467 323.263 65.2115L322.93 65.2235L321.64 64.5011L321.788 65.9723C321.8 66.0911 321.745 66.2075 321.644 66.2735L321.311 66.2843L319.482 65.2607C319.327 65.1743 319.272 64.9775 319.358 64.8227C319.445 64.6679 319.642 64.6115 319.796 64.6991L321.085 65.4215L320.938 63.9515C320.926 63.8315 320.981 63.7151 321.08 63.6503L321.415 63.6371L322.704 64.3595L322.556 62.8895C322.544 62.7707 322.6 62.6543 322.7 62.5883L323.033 62.5763L324.323 63.2987L324.175 61.8287C324.163 61.7087 324.218 61.5923 324.319 61.5275L324.652 61.5155L325.942 62.2367L325.794 60.7667C325.781 60.6479 325.836 60.5315 325.937 60.4655L326.272 60.4535L327.56 61.1759L327.413 59.7059C327.401 59.5859 327.456 59.4695 327.557 59.4047L327.889 59.3927L329.179 60.1139L329.03 58.6439C329.02 58.5251 329.075 58.4087 329.176 58.3427L329.508 58.3307L330.798 59.0531L330.65 57.5819C330.637 57.4631 330.694 57.3467 330.793 57.2807L331.128 57.2687L332.418 57.9911L332.27 56.5199C332.252 56.3435 332.381 56.1851 332.558 56.1671C332.735 56.1503 332.892 56.2787 332.91 56.4563L333.12 58.5419C333.132 58.6607 333.077 58.7771 332.977 58.8431Z" fill="#FFFFFE"/>
<path fill-rule="evenodd" clip-rule="evenodd" d="M332.351 77.1755C332.158 77.2847 331.962 77.3927 331.766 77.4983L320.956 66.4463V66.4451L320.178 65.6495L319.075 64.5239L319.24 64.2839L319.42 64.1087L319.523 64.0607L321.349 65.9291L321.444 66.0263L321.67 66.2555L332.351 77.1755Z" fill="#FFFFFE"/>
<path fill-rule="evenodd" clip-rule="evenodd" d="M321.484 64.4279C321.756 64.8419 321.78 65.3471 321.593 65.7695L321.444 66.0263L321.199 66.2855L321.079 66.3743L320.956 66.4463C320.324 66.7763 319.53 66.5795 319.13 65.9699C318.836 65.5199 318.833 64.9631 319.075 64.5239L319.24 64.2839L319.42 64.1087L319.536 64.0223L319.765 63.9011C320.378 63.6431 321.106 63.8519 321.484 64.4279Z" fill="#FFFFFE"/>
<path fill-rule="evenodd" clip-rule="evenodd" d="M333.94 56.2595C334.363 56.9039 334.187 57.7655 333.55 58.1951L333.534 58.2071C333.352 58.3271 333.151 58.3991 332.948 58.4255C332.429 58.4939 331.894 58.2695 331.588 57.8027C331.178 57.1763 331.33 56.3447 331.922 55.9043L331.992 55.8551C332.155 55.7483 332.333 55.6799 332.513 55.6463C333.052 55.5491 333.622 55.7735 333.94 56.2595Z" fill="#FFFFFE"/>
<path fill-rule="evenodd" clip-rule="evenodd" d="M332.513 55.6475L332.738 56.2031L332.933 56.6783L333.55 58.1963L339.356 72.4667C339.182 72.6011 339.007 72.7367 338.827 72.8735L333.077 58.7375L332.948 58.4255L331.922 55.9043L331.992 55.8551C332.155 55.7483 332.333 55.6799 332.513 55.6475Z" fill="#FFFFFE"/>
<path fill-rule="evenodd" clip-rule="evenodd" d="M335.489 64.8023C335.48 64.7375 335.472 64.6715 335.465 64.6067L335.536 64.7807C335.52 64.7879 335.503 64.7951 335.489 64.8023ZM336.121 64.5167L335.366 62.6615C335.365 58.7411 336.21 54.0899 333.191 47.5919C330.341 41.4323 324.431 40.2395 320.273 40.2395C318.454 40.2395 316.969 40.4675 316.224 40.6079C318.772 39.4007 321.492 38.8175 324.19 38.8175C330.281 38.8175 336.253 41.7923 339.847 47.2739C341.921 50.4347 342.917 53.9927 342.917 57.5111C342.918 59.3063 342.659 61.0919 342.15 62.8091C342.035 62.8259 341.917 62.8439 341.8 62.8619C339.738 63.1835 337.858 63.7619 336.121 64.5167Z" fill="#51E795"/>
<path fill-rule="evenodd" clip-rule="evenodd" d="M335.536 64.7807L335.465 64.6067C335.392 63.9755 335.368 63.3299 335.366 62.6615L336.121 64.5167C335.924 64.6031 335.729 64.6907 335.536 64.7807Z" fill="#D6D4CE"/>
<path fill-rule="evenodd" clip-rule="evenodd" d="M328.639 79.0199C326.716 79.8455 326.808 82.7195 328.816 83.3159C331.681 84.1667 334.715 82.7315 338.741 80.0903C342.989 77.3051 345.613 75.1691 345.791 72.1547C345.911 70.1375 343.486 69.0239 341.953 70.3403C338.903 72.9599 333.992 76.7219 328.639 79.0199Z" fill="#FFFFFE"/>
<path fill-rule="evenodd" clip-rule="evenodd" d="M342.791 63.2795C342.791 63.2795 339.499 72.1091 346.252 75.2843C353.005 78.4595 357.277 70.9307 357.277 70.9307L342.791 63.2795Z" fill="#D6D4CE"/>
<path fill-rule="evenodd" clip-rule="evenodd" d="M378.457 53.3831C375.781 58.4471 371.117 61.7867 365.924 62.9171L365.905 62.9231C364.573 63.6935 360.176 66.3755 357.728 69.6143C357.728 69.6143 354.414 69.4163 349.95 67.0583C345.474 64.6943 343.454 62.0747 343.454 62.0747C343.96 60.5543 344.233 58.8167 344.37 57.1943L344.358 57.1883C344.605 54.1355 344.362 51.4499 344.344 51.1271L344.332 51.0887C342.56 46.2791 342.77 40.7747 345.347 35.8943C350.179 26.7467 361.499 23.2523 370.646 28.0835C371.419 28.4927 372.166 28.9499 372.856 29.4551L372.874 29.4803C380.328 34.8455 382.874 45.0203 378.457 53.3831Z" fill="#6FFFB0"/>
<path fill-rule="evenodd" clip-rule="evenodd" d="M365.008 52.9595C364.901 52.9031 364.835 52.7927 364.835 52.6727L364.844 51.1943L363.629 52.0343L363.295 52.0547C363.188 51.9983 363.124 51.8879 363.124 51.7679L363.132 50.2895L361.916 51.1307L361.583 51.1511C361.477 51.0947 361.411 50.9843 361.411 50.8643L361.421 49.3859L360.205 50.2271L359.872 50.2463C359.766 50.1899 359.699 50.0807 359.7 49.9595L359.71 48.4823L358.493 49.3223L358.16 49.3427C358.054 49.2863 357.988 49.1759 357.988 49.0559L357.997 47.5787L356.782 48.4187L356.448 48.4379C356.342 48.3827 356.276 48.2723 356.278 48.1523L356.285 46.6739L355.07 47.5139L354.737 47.5343C354.63 47.4779 354.565 47.3675 354.566 47.2475L354.575 45.7703L353.359 46.6103L353.026 46.6307C352.92 46.5743 352.853 46.4639 352.854 46.3439L352.867 44.2475C352.868 44.0699 353.014 43.9271 353.19 43.9283C353.369 43.9295 353.512 44.0747 353.51 44.2523L353.502 45.7295L354.718 44.8883L355.05 44.8691C355.157 44.9255 355.223 45.0359 355.223 45.1559L355.213 46.6331L356.429 45.7931L356.762 45.7727C356.868 45.8291 356.934 45.9395 356.933 46.0595L356.924 47.5367L358.14 46.6967L358.474 46.6775C358.579 46.7327 358.645 46.8431 358.644 46.9631L358.636 48.4415L359.851 47.6015L360.185 47.5811C360.29 47.6375 360.358 47.7479 360.356 47.8679L360.347 49.3463L361.564 48.5051L361.896 48.4847C362.003 48.5411 362.069 48.6515 362.069 48.7715L362.059 50.2499L363.275 49.4087L363.608 49.3895C363.714 49.4459 363.78 49.5563 363.779 49.6763L363.772 51.1547L364.986 50.3135L365.32 50.2931C365.426 50.3495 365.491 50.4599 365.491 50.5799L365.483 52.0583L366.7 51.2183C366.846 51.1175 367.046 51.1535 367.147 51.2999C367.248 51.4463 367.212 51.6467 367.066 51.7475L365.34 52.9391L365.008 52.9595Z" fill="#FFFFFE"/>
<path fill-rule="evenodd" clip-rule="evenodd" d="M348.656 61.2731C348.467 61.1555 348.278 61.0367 348.09 60.9167L352.541 46.1099L352.862 45.0443L353.197 43.9283L353.316 43.5347L353.605 43.5635L353.845 43.6355L353.935 43.7027L353.506 45.1367L353.184 46.2047L353.146 46.3343L353.053 46.6427L348.656 61.2731Z" fill="#FFFFFE"/>
<path fill-rule="evenodd" clip-rule="evenodd" d="M354.564 45.5975C354.331 46.0355 353.903 46.3019 353.441 46.3415L353.146 46.3355C353.029 46.3211 352.913 46.2911 352.799 46.2467L352.663 46.1831L352.541 46.1099C351.947 45.7163 351.736 44.9279 352.076 44.2835C352.328 43.8083 352.813 43.5359 353.316 43.5347L353.605 43.5635L353.845 43.6355L353.977 43.6967L354.193 43.8383C354.715 44.2499 354.884 44.9879 354.564 45.5975Z" fill="#FFFFFE"/>
<path fill-rule="evenodd" clip-rule="evenodd" d="M367.734 52.5551C367.375 53.2355 366.535 53.4995 365.851 53.1491L365.834 53.1407C365.64 53.0387 365.48 52.8983 365.359 52.7327C365.048 52.3115 364.986 51.7343 365.246 51.2411C365.597 50.5787 366.398 50.3111 367.072 50.6159L367.147 50.6543C367.32 50.7455 367.466 50.8667 367.58 51.0083C367.927 51.4331 368.006 52.0391 367.734 52.5551Z" fill="#FFFFFE"/>
<path fill-rule="evenodd" clip-rule="evenodd" d="M367.58 51.0083L367.204 51.4763L366.881 51.8747L365.851 53.1491L356.165 65.1299C355.962 65.0423 355.759 64.9547 355.553 64.8635L365.36 52.7327L366.438 51.3983L367.072 50.6159L367.147 50.6543C367.32 50.7455 367.466 50.8667 367.58 51.0083Z" fill="#FFFFFE"/>
<path fill-rule="evenodd" clip-rule="evenodd" d="M362.803 64.3163C360.907 64.3163 359.142 64.0391 357.323 63.6959L362.821 56.8967C366.253 55.0007 370.732 53.4923 374.96 47.7095C380.731 39.8411 374.462 31.4015 372.874 29.4803C377.838 33.0527 380.626 38.7599 380.629 44.6435C380.63 47.5943 379.932 50.5895 378.457 53.3831C375.781 58.4471 371.117 61.7867 365.924 62.9171L365.905 62.9231C365.458 63.1823 364.664 63.6563 363.716 64.2947C363.408 64.3091 363.104 64.3163 362.803 64.3163ZM356.608 63.5591C356.281 63.4955 355.954 63.4319 355.622 63.3671C353.178 62.8931 350.548 62.4191 347.322 62.4191C346.253 62.4191 345.119 62.4707 343.906 62.5919C343.602 62.2667 343.454 62.0747 343.454 62.0747C343.96 60.5543 344.233 58.8167 344.37 57.1943C345.252 57.9095 346.697 59.0231 348.343 60.0767L348.09 60.9167C348.278 61.0367 348.467 61.1555 348.656 61.2731L348.91 60.4307C351.058 61.7483 353.465 62.8823 355.386 62.8823C356.647 62.8823 357.697 62.3939 358.326 61.1471C359.042 59.7323 360.012 58.7423 361.165 57.9215L356.608 63.5591Z" fill="#51E795"/>
<path fill-rule="evenodd" clip-rule="evenodd" d="M348.656 61.2731C348.467 61.1555 348.278 61.0367 348.09 60.9167L348.343 60.0767C348.529 60.1955 348.719 60.3143 348.91 60.4307L348.656 61.2731Z" fill="#D6D4CE"/>
<path fill-rule="evenodd" clip-rule="evenodd" d="M357.323 63.6959C357.085 63.6515 356.848 63.6059 356.608 63.5591L361.165 57.9215C361.682 57.5543 362.237 57.2195 362.821 56.8967L357.323 63.6959Z" fill="#D6D4CE"/>
<path fill-rule="evenodd" clip-rule="evenodd" d="M345.247 58.9151C343.595 57.6299 341.123 59.0999 341.572 61.1447C342.212 64.0655 344.934 66.0263 349.192 68.2763C353.683 70.6475 356.822 71.9135 359.548 70.6115C361.372 69.7415 361.175 67.0811 359.28 66.3755C355.513 64.9715 349.847 62.4899 345.247 58.9151Z" fill="#FFFFFE"/>
</g>
<path fill-rule="evenodd" clip-rule="evenodd" d="M300.054 100.67C299.933 100.67 299.813 100.634 299.707 100.56C299.436 100.368 299.374 99.9935 299.566 99.7235C308.891 86.6003 318.095 76.4495 326.922 69.5495C335.478 62.8619 343.262 61.3619 358.962 63.3755C359.026 63.3851 363.293 64.0655 365.797 63.4691C366.119 63.3911 366.443 63.5915 366.521 63.9143C366.596 64.2359 366.397 64.5599 366.076 64.6367C363.337 65.2883 358.974 64.5935 358.789 64.5623C343.487 62.6003 335.918 64.0415 327.661 70.4951C318.926 77.3231 309.802 87.3899 300.542 100.418C300.427 100.583 300.241 100.67 300.054 100.67Z" fill="#212F28"/>
<path fill-rule="evenodd" clip-rule="evenodd" d="M299.38 119.105C299.34 119.638 299.288 120.181 299.224 120.725C298.47 126.925 296.014 133.555 293.86 138.431C291.264 144.313 284.278 146.962 278.534 144.071L278.31 143.953C274.242 141.841 271.854 137.477 272.262 132.91C272.68 128.255 273.876 121.612 277.156 115.283C277.392 114.821 277.644 114.361 277.908 113.903C278.212 113.368 278.532 112.837 278.872 112.312C286.65 100.216 295.284 106.267 295.284 106.267C298.788 109.24 299.75 113.953 299.38 119.105Z" fill="#212F28"/>
<path fill-rule="evenodd" clip-rule="evenodd" d="M299.38 119.105C299.802 119.636 299.695 120.18 299.224 120.725C297.5 121.157 295.414 121.495 293.094 121.495C290.23 121.495 287.016 120.979 283.698 119.491C280.876 118.229 278.75 116.749 277.156 115.283C276.905 114.576 277.097 114.088 277.908 113.903C279.42 115.363 281.49 116.857 284.31 118.123C290.16 120.745 295.762 120.088 299.38 119.105Z" fill="#171818"/>
<path fill-rule="evenodd" clip-rule="evenodd" d="M389.891 431.9L390.032 432.654L390.218 433.633L391.151 438.598L391.164 438.666L393.286 449.956L407.603 448.584L407.928 441.808V441.8L408.376 432.358L408.428 431.28L408.503 429.71C408.503 429.71 392.683 427.789 389.891 431.9Z" fill="#EBA682"/>
<path fill-rule="evenodd" clip-rule="evenodd" d="M390.032 432.654L390.218 433.633L391.151 438.598L391.164 438.666L407.928 441.808V441.8L408.376 432.358L408.428 431.28L390.032 432.654Z" fill="#171818"/>
<path fill-rule="evenodd" clip-rule="evenodd" d="M383.642 322.478C401.149 336.352 415.974 327.432 407.893 300.749C397.542 266.576 353.029 195.912 341.59 183.38C341.59 183.38 306.984 208.465 305.048 225.461C305.048 225.461 363.78 307.009 383.642 322.478Z" fill="#171818"/>
<path fill-rule="evenodd" clip-rule="evenodd" d="M410.448 430.835L393.78 431.11L391.67 431.146L388.024 431.206L386.7 415.865C386.177 398.875 377.222 375.886 375.63 355.186C374.039 334.484 375.63 314.986 375.63 314.986C375.869 312.979 381.218 315.07 383.053 312.901C383.496 312.374 383.978 311.852 384.491 311.34C393.014 302.814 410.029 296.797 410.857 314.05C411.942 336.61 410.448 430.835 410.448 430.835Z" fill="#171818"/>
<path fill-rule="evenodd" clip-rule="evenodd" d="M392.672 431.166L394.888 431.053C394.326 419.888 391.106 400.811 388.267 383.977C386.101 371.141 384.056 359.017 383.51 352.336C382.271 337.138 386.232 316.217 386.273 316.008L386.37 315.497L386.04 315.095C378.46 305.851 323.932 233.621 323.381 232.891L321.611 234.229C322.153 234.948 375.281 305.324 383.999 316.102C383.395 319.438 380.143 338.358 381.299 352.518C381.852 359.292 383.905 371.461 386.08 384.346C388.909 401.119 392.117 420.131 392.672 431.166Z" fill="#212F28"/>
<path fill-rule="evenodd" clip-rule="evenodd" d="M386.369 437.183L411.888 435.961C413.221 432.726 413.484 429.53 412.03 426.397L386.168 427.71C384.773 430.632 384.877 433.795 386.369 437.183Z" fill="#212F28"/>
<path fill-rule="evenodd" clip-rule="evenodd" d="M445.769 470.881C444.478 473.629 387.853 470.639 387.853 470.639C387.853 470.639 386.068 453.824 387.845 448.649C389.624 443.471 397.872 449.293 403.532 447.996C403.532 447.996 406.927 443.304 409.676 443.466C410.688 443.527 414.247 445.82 418.705 448.758C419.425 449.232 420.172 449.726 420.937 450.228C421.469 450.581 422.006 450.932 422.552 451.29C423.434 451.874 424.337 452.464 425.239 453.047C425.58 453.268 425.918 453.484 426.259 453.704H426.263C427.088 454.24 427.92 454.764 428.741 455.276C433.703 458.374 438.4 460.99 441.119 461.473C448.398 462.768 447.064 468.128 445.769 470.881Z" fill="#325F9D"/>
<path fill-rule="evenodd" clip-rule="evenodd" d="M425.239 453.047C424.393 452.945 423.32 453.035 422.136 453.652C419.722 454.909 417.778 458.384 417.757 458.419C417.629 458.658 417.416 458.821 417.174 458.897C416.92 458.981 416.63 458.957 416.377 458.821C415.884 458.546 415.706 457.93 415.979 457.44C416.068 457.273 418.231 453.391 421.198 451.85C421.661 451.608 422.117 451.427 422.552 451.29C424.037 451.417 425.278 451.748 425.239 453.047Z" fill="#FFFFFE"/>
<path fill-rule="evenodd" clip-rule="evenodd" d="M420.937 450.228C420.365 450.299 419.731 450.481 419.068 450.829C416.644 452.093 414.707 455.562 414.688 455.599C414.559 455.834 414.347 456.001 414.103 456.078C413.85 456.157 413.562 456.137 413.308 455.996C412.814 455.728 412.637 455.11 412.91 454.616C412.998 454.45 415.162 450.572 418.129 449.027C418.322 448.925 418.516 448.834 418.705 448.758C419.654 448.837 420.722 448.781 420.937 450.228Z" fill="#FFFFFE"/>
<path fill-rule="evenodd" clip-rule="evenodd" d="M428.741 455.276C428.022 455.282 427.18 455.446 426.277 455.92C423.852 457.183 421.92 460.652 421.901 460.686C421.769 460.925 421.555 461.092 421.313 461.167C421.058 461.246 420.77 461.228 420.517 461.087C420.028 460.814 419.845 460.195 420.12 459.707C420.21 459.539 422.375 455.662 425.336 454.117C425.648 453.954 425.959 453.818 426.259 453.704H426.263C427.877 453.548 428.834 453.96 428.741 455.276Z" fill="#FFFFFE"/>
<path fill-rule="evenodd" clip-rule="evenodd" d="M279.089 433.474L277.88 435.634L270.482 448.874C263.405 450.358 257.683 452.128 256.67 446.782L260.963 432.967L262.256 428.382L262.706 426.779C266.738 424.614 279.089 433.474 279.089 433.474Z" fill="#EBA682"/>
<path fill-rule="evenodd" clip-rule="evenodd" d="M312.004 470.573C310.712 473.321 254.088 470.332 254.088 470.332C254.088 470.332 252.302 453.516 254.081 448.34C255.859 443.162 264.107 448.985 269.77 447.688C269.77 447.688 273.162 442.996 275.911 443.158C276.924 443.219 280.482 445.512 284.94 448.45C285.66 448.925 286.408 449.418 287.173 449.918C287.704 450.272 288.241 450.625 288.787 450.982C289.67 451.566 290.573 452.154 291.475 452.738C291.816 452.959 292.153 453.176 292.494 453.396H292.498C293.324 453.931 294.155 454.454 294.978 454.968C299.939 458.065 304.634 460.681 307.354 461.165C314.633 462.458 313.298 467.82 312.004 470.573Z" fill="#325F9D"/>
<path fill-rule="evenodd" clip-rule="evenodd" d="M291.475 452.738C290.629 452.635 289.556 452.726 288.373 453.343C285.956 454.601 284.012 458.077 283.993 458.111C283.865 458.35 283.651 458.513 283.409 458.588C283.154 458.672 282.866 458.648 282.613 458.512C282.12 458.238 281.941 457.621 282.216 457.132C282.302 456.965 284.467 453.083 287.432 451.541C287.896 451.3 288.352 451.118 288.787 450.982C290.273 451.109 291.514 451.44 291.475 452.738Z" fill="#FFFFFE"/>
<path fill-rule="evenodd" clip-rule="evenodd" d="M287.173 449.918C286.6 449.989 285.967 450.172 285.302 450.521C282.88 451.784 280.942 455.254 280.924 455.291C280.794 455.527 280.582 455.693 280.339 455.768C280.085 455.848 279.797 455.83 279.542 455.688C279.05 455.419 278.873 454.8 279.145 454.308C279.233 454.141 281.398 450.264 284.364 448.718C284.557 448.616 284.75 448.525 284.94 448.45C285.89 448.529 286.957 448.472 287.173 449.918Z" fill="#FFFFFE"/>
<path fill-rule="evenodd" clip-rule="evenodd" d="M294.978 454.968C294.257 454.975 293.414 455.136 292.512 455.61C290.088 456.876 288.155 460.343 288.136 460.378C288.004 460.616 287.791 460.782 287.548 460.859C287.293 460.938 287.005 460.919 286.752 460.78C286.264 460.505 286.081 459.887 286.355 459.398C286.446 459.232 288.61 455.353 291.572 453.809C291.883 453.646 292.194 453.509 292.494 453.396H292.498C294.112 453.24 295.07 453.652 294.978 454.968Z" fill="#FFFFFE"/>
<path fill-rule="evenodd" clip-rule="evenodd" d="M277.88 435.634L273.576 443.339L260.963 432.967L262.256 428.382L277.88 435.634Z" fill="#171818"/>
<path fill-rule="evenodd" clip-rule="evenodd" d="M280.722 199.792C290.308 186.544 330.001 181.022 330.001 181.022C334.334 197.203 341.75 278.962 335.82 313.196C331.186 339.928 311.454 345.704 302.532 325.493C302.532 325.493 301.189 319.686 296.62 296.323C294.154 283.715 284.723 247.27 281.837 231.856C279.631 220.068 275.048 207.631 280.722 199.792Z" fill="#212F28"/>
<path fill-rule="evenodd" clip-rule="evenodd" d="M266.868 410.345C273.751 395.516 274.771 370.956 282.348 352.438C289.538 334.872 299.927 320.156 300.976 318.691C302.84 318.98 304.752 319.066 306.629 319.188C311.075 319.48 315.5 319.892 319.956 320.068C324.444 320.243 328.944 320.334 333.445 320.359C333.276 321.659 332.909 323.159 332.321 324.883C323.344 351.179 280.631 434.458 280.631 434.458L268.528 427.973L266.759 427.027L261.376 424.139L266.868 410.345Z" fill="#212F28"/>
<path fill-rule="evenodd" clip-rule="evenodd" d="M266.528 426.865L264.647 425.932C268.65 417.87 273.288 400.86 277.38 385.852C280.298 375.15 283.056 365.041 285.247 359.368C290.208 346.53 305.12 321.966 307.23 318.514L282.6 214.784L284.644 214.3L309.475 318.872L309.247 319.241C309.079 319.516 292.367 346.77 287.207 360.125C285.053 365.698 282.311 375.756 279.407 386.405C275.288 401.506 270.622 418.62 266.528 426.865Z" fill="#4D5950"/>
<path fill-rule="evenodd" clip-rule="evenodd" d="M255.784 427.344L280.378 440.954C283.316 438.668 285.229 435.802 285.498 432.001L260.537 418.278C257.704 420.232 256.151 423.281 255.784 427.344Z" fill="#4D5950"/>
<path fill-rule="evenodd" clip-rule="evenodd" d="M463.753 174.582C453.833 177.074 443.515 178.8 432.978 179.364C422.447 179.944 411.727 179.338 401.196 177.548C396.87 176.812 393.494 173.814 392.081 169.969L391.55 168.504L371.339 113.116C368.156 104.388 372.648 94.7303 381.379 91.5431C390.106 88.3607 399.764 92.8523 402.95 101.582C403.187 102.23 403.398 102.976 403.552 103.63L415.01 154.157C420.892 155.446 426.888 156.294 432.976 156.68C441.877 157.255 450.959 156.846 460.111 155.662L460.169 155.657C465.454 154.972 470.29 158.704 470.972 163.986C471.608 168.892 468.436 173.411 463.753 174.582Z" fill="#BB2A49"/>
<path fill-rule="evenodd" clip-rule="evenodd" d="M354.272 245.701C344.545 247.048 287.608 244.157 277.992 232.891C275.024 229.412 274.494 215.628 280.607 196.99C280.88 196.146 281.167 195.294 281.454 194.434C282.596 191.023 283.828 187.483 285.128 183.854L285.527 182.746C286.103 181.144 286.693 179.527 287.293 177.892C287.786 176.557 288.284 175.217 288.792 173.867C289.411 172.217 290.04 170.562 290.672 168.9C290.791 168.592 290.906 168.284 291.025 167.98C291.072 167.86 291.116 167.735 291.163 167.617C291.887 165.733 292.619 163.843 293.359 161.95C294.695 158.528 296.056 155.099 297.432 151.684C297.773 150.834 298.111 149.988 298.453 149.143C300.226 144.77 302.009 140.436 303.779 136.199C303.928 135.836 304.079 135.475 304.231 135.118C304.657 134.1 305.08 133.088 305.502 132.082C305.684 131.646 305.869 131.215 306.049 130.783C306.25 130.308 306.45 129.836 306.642 129.371C306.904 128.764 307.158 128.164 307.411 127.566C307.614 127.097 307.812 126.629 308.009 126.164C308.196 125.726 308.382 125.288 308.568 124.859C309.034 123.761 309.499 122.68 309.96 121.61C310.117 121.247 310.271 120.889 310.424 120.533C318.512 101.798 325.357 87.0875 327.696 82.9571C335.326 69.5003 375.088 67.6859 375.088 67.6859L388.956 78.4223C400.87 87.6491 404.712 103.95 398.167 117.521C395.812 122.405 393.581 127.932 391.469 133.715C391.11 134.672 390.762 135.643 390.421 136.615C389.44 139.387 388.481 142.205 387.55 145.021C387.229 145.984 386.916 146.95 386.602 147.906L386.563 148.024C386.405 148.511 386.251 148.998 386.094 149.48C385.945 149.929 385.805 150.379 385.662 150.824C385.506 151.316 385.35 151.799 385.192 152.285C384.704 153.83 384.217 155.36 383.744 156.877C383.599 157.338 383.453 157.794 383.309 158.252C382.915 159.499 382.53 160.736 382.145 161.948C382.004 162.41 381.859 162.872 381.714 163.325C381.046 165.467 380.387 167.544 379.746 169.538C379.56 170.129 379.373 170.707 379.184 171.276C379.012 171.817 378.839 172.345 378.664 172.867C378.482 173.418 378.305 173.96 378.126 174.491C377.179 177.323 376.267 179.91 375.39 182.182C375.298 182.414 375.211 182.642 375.121 182.869C374.836 183.582 374.56 184.314 374.28 185.068C373.43 187.369 372.6 189.868 371.778 192.51C371.537 193.285 371.296 194.074 371.054 194.874L371.017 195C370.873 195.475 370.733 195.955 370.589 196.439C370.46 196.88 370.332 197.318 370.205 197.768C370.066 198.236 369.93 198.719 369.791 199.2C369.286 200.983 368.785 202.811 368.284 204.665C368.159 205.133 368.029 205.609 367.906 206.082C367.666 206.977 367.429 207.881 367.192 208.789C367.088 209.168 366.989 209.554 366.889 209.936C366.642 210.884 366.396 211.84 366.15 212.796C366.094 213.01 366.038 213.223 365.982 213.436C365.839 214.001 365.692 214.562 365.549 215.128C365.153 216.679 364.754 218.233 364.362 219.786C358.764 241.734 360.292 244.865 354.272 245.701Z" fill="#9060EB"/>
<path fill-rule="evenodd" clip-rule="evenodd" d="M387.99 102.859C388.379 102.469 388.357 101.831 387.936 101.476C381.996 96.4547 375.628 89.0315 372.125 78.6431C371.962 78.1571 371.435 77.8955 370.949 78.0599C370.463 78.2243 370.201 78.7511 370.366 79.2359C374.1 90.3143 380.959 98.0363 386.711 102.911C387.085 103.23 387.642 103.207 387.99 102.859Z" fill="#563933"/>
<path fill-rule="evenodd" clip-rule="evenodd" d="M350.057 71.1779C350.057 71.1779 362.154 94.3571 351.504 119.557C340.854 144.757 325.608 148.484 325.608 148.484L323.904 159.328C323.904 159.328 354.654 154.807 364.404 119.257C374.154 83.7071 366.862 68.3783 366.862 68.3783C366.862 68.3783 357.758 61.6475 350.057 71.1779Z" fill="#212F28"/>
<path fill-rule="evenodd" clip-rule="evenodd" d="M342.53 220.486C342.96 220.447 343.319 220.114 343.372 219.668C343.43 219.16 343.067 218.699 342.558 218.638C342.326 218.61 319.218 215.657 306.14 195.3C305.864 194.869 305.29 194.743 304.858 195.022C304.427 195.299 304.301 195.872 304.579 196.304C311.67 207.342 321.548 213.326 328.589 216.403C336.215 219.736 342.094 220.453 342.341 220.482L342.53 220.486Z" fill="#563933"/>
<path fill-rule="evenodd" clip-rule="evenodd" d="M395.19 84.8291L395.184 84.7595C399.274 85.8335 400.334 94.2827 400.334 94.2827C400.334 94.2827 400.386 94.9511 400.442 96.1727C400.572 98.8655 400.736 104.251 400.456 111.107C400.224 116.833 399.684 123.589 398.556 130.657C396.23 145.247 389.298 155.341 382.088 162.133L395.19 84.8291Z" fill="#212F28"/>
<path fill-rule="evenodd" clip-rule="evenodd" d="M365.549 215.128C359.81 212.987 346.015 207.762 332.165 202.007C295.219 186.665 293.897 182.644 293.402 181.129C292.044 177.006 291.434 171.806 291.163 167.617C291.887 165.733 292.619 163.843 293.359 161.95C293.393 165.608 293.7 174.376 295.675 180.38C296.119 181.733 300.652 186.326 333.083 199.795C346.717 205.458 360.298 210.606 366.15 212.796C366.094 213.01 366.038 213.223 365.982 213.436C365.839 214.001 365.692 214.562 365.549 215.128Z" fill="#563933"/>
<path fill-rule="evenodd" clip-rule="evenodd" d="M371.054 194.874C350.126 182.358 322.943 161.755 322.646 161.53C322.39 161.335 322.22 161.04 322.184 160.714C320.01 142.067 339.494 111.286 340.328 109.985C340.68 109.428 341.424 109.262 341.982 109.62C342.538 109.978 342.706 110.717 342.347 111.276C342.151 111.583 322.856 142.058 324.511 159.934C327.977 162.551 352.452 180.894 371.778 192.51C371.537 193.285 371.296 194.074 371.054 194.874Z" fill="#563933"/>
<path fill-rule="evenodd" clip-rule="evenodd" d="M336.722 120.74C336.446 120.828 336.134 120.786 335.884 120.602C335.467 120.295 335.377 119.708 335.683 119.291C337.973 116.18 343.544 113.914 343.78 113.819C344.26 113.626 344.806 113.858 345 114.34C345.192 114.82 344.96 115.366 344.479 115.559C344.428 115.58 339.166 117.722 337.194 120.402C337.073 120.568 336.905 120.683 336.722 120.74Z" fill="#563933"/>
<path fill-rule="evenodd" clip-rule="evenodd" d="M434.213 53.5691C434.213 53.5691 440.178 56.1995 448.519 47.3819C458.356 36.9851 440.06 39.3311 430.502 32.8463C420.946 26.3591 405.469 19.4867 395.91 25.4123C386.352 31.3379 385.007 42.7187 385.007 42.7187L434.213 53.5691Z" fill="#171818"/>
<path fill-rule="evenodd" clip-rule="evenodd" d="M373.88 73.9535C373.88 73.9535 372.46 69.9911 371.881 67.9727C376.787 65.7755 387.029 60.4535 391.993 52.4651L405.055 78.7091C405.055 78.7091 403.993 79.4327 402.22 80.5607L401.917 80.7527L401.855 80.7935C400.59 81.5843 399.01 82.5527 397.214 83.5955C396.565 83.9747 395.887 84.3659 395.183 84.7595C394.549 85.1135 393.896 85.4759 393.23 85.8335C389.954 87.6023 386.324 89.3807 382.79 90.7403C379.139 86.2103 373.88 73.9535 373.88 73.9535Z" fill="#EBA682"/>
<path fill-rule="evenodd" clip-rule="evenodd" d="M402.22 80.5607L401.917 80.7527L401.855 80.7935C400.59 81.5843 399.01 82.5527 397.214 83.5955C396.565 83.9747 395.887 84.3659 395.183 84.7595C394.549 85.1135 393.896 85.4759 393.23 85.8335C393.446 80.1839 396.865 72.8711 396.893 72.6851L402.22 80.5607Z" fill="#171818"/>
<path fill-rule="evenodd" clip-rule="evenodd" d="M385.303 49.0991C386.137 52.3979 387.649 56.4059 389.531 60.6275C395.341 73.6847 404.653 88.7963 408.222 91.4879C410.86 93.4739 413.789 92.9339 417.712 88.5815C418.312 87.9107 418.927 87.1979 419.543 86.4479L423.104 81.7775C423.506 81.2195 423.908 80.6459 424.3 80.0711C425.848 80.6159 429.196 81.6623 429.22 80.5547C429.254 79.1519 429.283 72.1811 429.283 71.8991L429.281 71.8931L429.286 71.8859C431.411 67.9655 433.174 63.9875 434.237 60.3443C434.608 59.0807 434.76 57.7847 434.702 56.5067C434.59 53.7875 433.559 51.1451 431.738 49.0295C426.221 42.6095 415.516 31.0859 407.744 28.4495C396.826 24.7463 381.883 35.5907 385.303 49.0991Z" fill="#EBA682"/>
<path fill-rule="evenodd" clip-rule="evenodd" d="M413.708 56.2427C413.708 56.2427 401.087 72.3863 398.904 79.7567C396.721 87.1271 405.304 95.6567 411.904 93.4571C418.504 91.2575 424.3 80.0711 424.3 80.0711C424.3 80.0711 423.242 74.4575 418.174 73.8575C413.104 73.2575 411.004 70.3607 411.804 68.1083C412.604 65.8571 415.732 57.1535 415.732 57.1535L413.708 56.2427Z" fill="#171818"/>
<path fill-rule="evenodd" clip-rule="evenodd" d="M416.533 84.0947L416.762 84.3707C416.987 84.6251 417.377 84.6479 417.63 84.4235C417.884 84.1979 417.91 83.8163 417.683 83.5559C415.834 81.4799 417.055 78.7511 417.068 78.7235C417.208 78.4139 417.068 78.0491 416.76 77.9099C416.45 77.7707 416.087 77.9087 415.946 78.2183C415.885 78.3551 414.511 81.4883 416.533 84.0947Z" fill="#4D5950"/>
<path fill-rule="evenodd" clip-rule="evenodd" d="M421.15 71.5163C420.188 72.5447 417.778 71.8535 415.764 69.9707C413.749 68.0891 412.896 65.7299 413.857 64.7015C414.818 63.6731 417.229 64.3643 419.243 66.2471C421.258 68.1287 422.111 70.4879 421.15 71.5163Z" fill="#E88071"/>
<path fill-rule="evenodd" clip-rule="evenodd" d="M425.251 66.8123C424.793 67.8539 423.955 68.4923 423.379 68.2391C422.806 67.9859 422.711 66.9371 423.169 65.8955C423.629 64.8551 424.465 64.2167 425.04 64.4699C425.615 64.7231 425.71 65.7719 425.251 66.8123Z" fill="#171818"/>
<path fill-rule="evenodd" clip-rule="evenodd" d="M424.8 60.9659C424.792 60.8207 424.816 60.6719 424.876 60.5291C425.084 60.0275 425.663 59.7899 426.164 59.9999C427.922 60.7355 431.062 63.2147 430.369 67.3355C430.279 67.8731 429.77 68.2343 429.233 68.1443C428.696 68.0543 428.335 67.5467 428.426 67.0091C429.037 63.3791 425.552 61.8803 425.404 61.8179C425.045 61.6679 424.822 61.3307 424.8 60.9659Z" fill="#171818"/>
<path fill-rule="evenodd" clip-rule="evenodd" d="M406.007 61.7483C405.739 61.5743 405.622 61.2299 405.743 60.9215C407.444 56.6159 405.743 52.7627 405.726 52.7243C405.57 52.3799 405.721 51.9743 406.066 51.8171C406.409 51.6599 406.814 51.8111 406.972 52.1555C407.053 52.3319 408.941 56.5595 407.018 61.4255C406.879 61.7771 406.481 61.9499 406.129 61.8107L406.007 61.7483Z" fill="#E88071"/>
<path fill-rule="evenodd" clip-rule="evenodd" d="M403.272 56.1467C403.069 56.0147 402.942 55.7807 402.961 55.5227C402.986 55.1459 403.314 54.8615 403.691 54.8879C403.796 54.8951 406.286 55.0823 407.647 56.3111C407.929 56.5655 407.95 56.9987 407.696 57.2795C407.442 57.5603 407.01 57.5819 406.729 57.3287C405.893 56.5727 404.183 56.2967 403.595 56.2547C403.476 56.2463 403.366 56.2067 403.272 56.1467Z" fill="#E88071"/>
<path fill-rule="evenodd" clip-rule="evenodd" d="M407.744 28.4495C415.516 31.0859 426.221 42.6095 431.738 49.0295C432.892 50.3687 433.726 51.9203 434.213 53.5691C432.107 52.2527 430.348 50.2631 428.57 48.6299C425.803 49.9943 422.639 50.6939 420.504 49.5779C418.982 52.2083 417.292 54.4571 415.732 57.1535C415.013 56.9063 414.331 56.6063 413.708 56.2427C413.708 56.2427 413.401 46.2407 404.736 47.4215C399.806 48.0923 398.156 53.3651 398.982 58.1975C395.552 61.2659 391.712 61.9403 389.531 60.6275C387.649 56.4059 386.137 52.3979 385.303 49.0991C381.883 35.5907 396.826 24.7463 407.744 28.4495Z" fill="#171818"/>
<path fill-rule="evenodd" clip-rule="evenodd" d="M341.228 197.778C341.228 197.778 320.665 222.739 339.019 240.598C357.373 258.456 379.656 238.811 379.656 238.811L341.228 197.778Z" fill="#D6D4CE"/>
<path fill-rule="evenodd" clip-rule="evenodd" d="M468.006 205.594C453.659 219.03 434.788 224.639 416.677 222.497L416.609 222.494C411.425 223.502 394.162 227.281 382.594 235.049C382.594 235.049 372.064 230.696 360.222 218.053C348.348 205.373 344.729 194.615 344.729 194.615C348.07 190.246 350.904 184.918 353.16 179.807L353.128 179.772C357.348 170.146 359.562 161.161 359.867 160.093L359.872 159.959C359.506 142.372 366.346 124.75 380.172 111.803C406.085 87.5339 446.717 88.8671 470.984 114.781C473.033 116.969 474.944 119.287 476.616 121.7L476.646 121.802C494.826 147.55 491.696 183.407 468.006 205.594Z" fill="#6FFFB0"/>
<path fill-rule="evenodd" clip-rule="evenodd" d="M424.849 189.166C424.568 188.864 424.477 188.432 424.614 188.045L426.295 183.258L421.41 184.624C421.014 184.734 420.588 184.615 420.307 184.315C420.026 184.014 419.934 183.582 420.072 183.194L421.753 178.408L416.869 179.774C416.472 179.885 416.047 179.766 415.765 179.465C415.483 179.165 415.392 178.733 415.529 178.344L417.214 173.56L412.328 174.926C411.931 175.037 411.506 174.918 411.226 174.617C410.944 174.317 410.852 173.884 410.989 173.496L412.673 168.712L407.788 170.077C407.39 170.188 406.966 170.069 406.684 169.769C406.403 169.468 406.312 169.036 406.448 168.647L408.131 163.862L403.247 165.229C402.851 165.34 402.426 165.221 402.143 164.92C401.862 164.618 401.772 164.186 401.908 163.799L403.59 159.014L398.707 160.381C398.311 160.492 397.885 160.373 397.603 160.072C397.322 159.772 397.231 159.34 397.368 158.951L399.052 154.166L394.168 155.532C393.77 155.644 393.344 155.525 393.064 155.224C392.782 154.924 392.69 154.492 392.828 154.103L395.216 147.318C395.418 146.742 396.048 146.44 396.625 146.642C397.199 146.845 397.501 147.475 397.3 148.051L395.616 152.833L400.499 151.468C400.896 151.357 401.322 151.476 401.603 151.776C401.884 152.077 401.976 152.509 401.838 152.898L400.156 157.682L405.04 156.316C405.436 156.205 405.862 156.324 406.142 156.625C406.424 156.925 406.516 157.357 406.379 157.746L404.695 162.53L409.579 161.164C409.978 161.053 410.401 161.173 410.682 161.473C410.965 161.773 411.056 162.206 410.92 162.594L409.236 167.38L414.121 166.013C414.517 165.902 414.942 166.021 415.224 166.322C415.505 166.622 415.596 167.054 415.46 167.443L413.777 172.228L418.662 170.862C419.058 170.752 419.483 170.87 419.765 171.17C420.047 171.472 420.137 171.904 420 172.292L418.318 177.076L423.202 175.71C423.598 175.598 424.024 175.718 424.306 176.018C424.586 176.32 424.678 176.752 424.541 177.139L422.858 181.926L427.744 180.559C428.14 180.449 428.566 180.568 428.846 180.868C429.128 181.169 429.22 181.601 429.082 181.99L427.4 186.776L432.287 185.411C432.876 185.249 433.483 185.591 433.648 186.179C433.812 186.766 433.47 187.374 432.881 187.538L425.952 189.474C425.556 189.584 425.13 189.467 424.849 189.166Z" fill="#FFFFFE"/>
<path fill-rule="evenodd" clip-rule="evenodd" d="M362.5 197.833C362.017 197.243 361.537 196.645 361.064 196.045L392.075 152.995L392.076 152.994L394.309 149.896L397.469 145.507C397.782 145.61 398.088 145.751 398.376 145.924C398.62 146.065 398.852 146.237 399.073 146.426C399.151 146.53 399.226 146.636 399.294 146.746L394.054 154.022L393.781 154.399L393.138 155.294L362.5 197.833Z" fill="#FFFFFE"/>
<path fill-rule="evenodd" clip-rule="evenodd" d="M399.209 153.594C397.967 154.757 396.277 155.138 394.736 154.752C394.409 154.669 394.09 154.555 393.781 154.402C393.42 154.225 393.077 153.998 392.76 153.725C392.629 153.612 392.508 153.497 392.388 153.368C392.275 153.248 392.17 153.125 392.074 152.995C390.587 151.052 390.786 148.256 392.61 146.549C393.958 145.286 395.838 144.947 397.469 145.506C397.782 145.612 398.087 145.751 398.376 145.924C398.62 146.066 398.852 146.236 399.073 146.426C399.197 146.532 399.318 146.65 399.432 146.772C399.64 146.994 399.821 147.229 399.978 147.475C401.209 149.394 400.934 151.979 399.209 153.594Z" fill="#FFFFFE"/>
<path fill-rule="evenodd" clip-rule="evenodd" d="M434.149 190.906C432.221 192.712 429.203 192.628 427.375 190.726L427.33 190.68C426.816 190.132 426.455 189.497 426.245 188.827C425.707 187.112 426.152 185.168 427.55 183.859C429.426 182.104 432.326 182.131 434.167 183.874L434.374 184.082C434.83 184.571 435.167 185.13 435.382 185.719C436.03 187.482 435.608 189.54 434.149 190.906Z" fill="#FFFFFE"/>
<path fill-rule="evenodd" clip-rule="evenodd" d="M435.382 185.719L433.634 186.811L432.142 187.746L382.541 218.75C381.982 218.242 381.422 217.727 380.855 217.202L425.263 189.442L426.245 188.828L431.237 185.705L434.167 183.874L434.374 184.082C434.83 184.571 435.167 185.13 435.382 185.719Z" fill="#FFFFFE"/>
<path fill-rule="evenodd" clip-rule="evenodd" d="M382.594 235.049C382.594 235.049 374.143 231.557 363.87 221.74C362.675 220.597 361.456 219.37 360.222 218.053C357.852 215.522 355.811 213.068 354.062 210.761C347.048 201.508 344.729 194.615 344.729 194.615C348.07 190.246 350.904 184.918 353.16 179.807C355.224 183.113 358.664 188.344 362.824 193.603L361.064 196.045C361.537 196.645 362.017 197.243 362.5 197.833L364.262 195.386C371.021 203.598 379.362 211.351 386.761 211.351C389.327 211.351 391.777 210.42 394.012 208.252C397.918 204.464 402.173 202.338 406.828 200.966L380.855 217.202C381.422 217.727 381.982 218.242 382.541 218.75L413.348 199.493C426.604 197.184 442.824 197.302 463.014 183.275C490.542 164.21 479.65 129.812 476.646 121.802C484.458 132.865 488.335 145.795 488.338 158.706C488.34 175.841 481.517 192.941 468.006 205.594C466.326 207.168 464.582 208.634 462.786 209.994C461.897 210.666 460.994 211.313 460.08 211.933C449.25 219.28 436.722 222.941 424.208 222.941C421.692 222.941 419.178 222.793 416.677 222.497L416.609 222.494C411.425 223.502 394.162 227.281 382.594 235.049Z" fill="#51E795"/>
<path fill-rule="evenodd" clip-rule="evenodd" d="M362.5 197.833C362.017 197.243 361.537 196.645 361.064 196.045L362.824 193.603C363.294 194.197 363.774 194.794 364.262 195.386L362.5 197.833Z" fill="#D6D4CE"/>
<path fill-rule="evenodd" clip-rule="evenodd" d="M382.541 218.75C381.982 218.242 381.422 217.727 380.855 217.202L406.828 200.966C408.919 200.35 411.09 199.886 413.348 199.493L382.541 218.75Z" fill="#D6D4CE"/>
<path fill-rule="evenodd" clip-rule="evenodd" d="M491.515 161.022C492.194 162.416 491.594 166.112 491.594 166.112C491.594 166.112 493.669 170.882 489.919 171.355C486.166 171.823 476.984 172.457 476.668 170.002C476.35 167.549 485.797 167.089 485.797 167.089C485.797 167.089 473.249 165.805 474.451 163.793C475.654 161.777 486.082 161.485 486.082 161.485C486.082 161.485 470.551 160.583 471.9 157.691C473.209 154.888 486.226 156.026 487.021 156.1C486.242 155.971 473.018 153.744 476.677 151.769C479.184 150.415 484.956 150.29 487.794 150.371L486.367 142.908C491.056 145.056 490.63 150.607 490.63 150.607C493.63 152.783 491.95 156.748 491.95 156.748C492.546 158.947 491.515 161.022 491.515 161.022Z" fill="#EBA682"/>
<path fill-rule="evenodd" clip-rule="evenodd" d="M354.082 186.37C350.159 180.352 340.494 182.353 339.66 189.488C338.47 199.682 345.108 209.092 356.402 221.153C368.317 233.875 377.081 241.493 387.379 240.323C394.27 239.538 396.61 230.686 391.258 226.279C380.606 217.507 365 203.118 354.082 186.37Z" fill="#FFFFFE"/>
<path fill-rule="evenodd" clip-rule="evenodd" d="M295.343 142.56C294.88 144.732 294.475 146.933 294.168 149.174C293.863 151.415 293.636 153.685 293.514 155.988C293.399 158.29 293.38 160.616 293.468 162.96C293.574 165.306 293.789 167.662 294.118 170.02L294.398 171.52C295.055 175.034 297.215 177.935 300.047 179.656L301.306 180.41L302.515 181.124L304.926 182.533L309.739 185.288C312.95 187.109 316.174 188.894 319.409 190.656C325.882 194.171 332.42 197.575 339.041 200.849C345.664 204.115 352.373 207.257 359.221 210.182C366.071 213.108 373.062 215.826 380.333 218.123C384.671 219.491 389.3 217.088 390.67 212.747C391.921 208.782 390.02 204.572 386.366 202.832L386.261 202.782C380.11 199.844 374.035 196.457 368.054 192.847C362.071 189.233 356.168 185.392 350.339 181.423C344.516 177.451 338.755 173.347 333.072 169.144C330.229 167.041 327.404 164.914 324.607 162.763L321.908 160.674C321.902 160.301 321.902 159.926 321.908 159.554C321.912 158.926 321.93 158.294 321.965 157.657L321.973 157.481C322.126 154.576 322.542 151.597 323.195 148.589C324.498 142.571 326.729 136.447 329.575 130.451C332.428 124.447 336.455 115.656 340.328 109.985C342.269 107.148 342.769 106.464 345.524 103.918C346.786 102.751 348.019 101.872 349.11 100.574C349.658 99.9275 350.21 99.2879 350.756 98.6675L351.57 97.7567L352.258 97.0079L352.56 96.6791C357.886 90.8879 357.51 81.8747 351.719 76.5491C345.959 71.2499 337.007 71.6003 331.667 77.3063L331.003 78.0203L330.444 78.6323L329.38 79.8227C328.684 80.6123 328.008 81.3971 327.341 82.1855C326.015 83.7599 324.727 85.3451 323.465 86.9519C320.944 90.1571 318.541 93.4367 316.236 96.8075C311.636 103.549 307.439 110.646 303.836 118.224C300.246 125.803 297.229 133.879 295.343 142.56Z" fill="#9060EB"/>
<path fill-rule="evenodd" clip-rule="evenodd" d="M401.692 228.091C397.178 229.807 392.467 227.087 390.73 225.916C389.56 225.126 385.044 221.832 382.222 219.767C380.489 218.5 379.643 216.35 380.041 214.241C380.599 211.28 382.364 207.199 387.558 204.259C387.558 204.259 397.65 202.975 400.944 204.472C404.238 205.968 407.102 210.158 407.068 211.469C407.032 212.778 405.82 213.905 403.64 211.657C401.462 209.41 398.528 208.687 397.168 209.455C395.808 210.222 399.203 212.605 403.934 215.706C408.668 218.807 409.592 218.275 414.388 220.027C419.184 221.78 415.639 222.94 411.834 222.952C408.029 222.964 402.936 220.678 402.936 220.678C402.936 220.678 405.778 222.498 413.954 224.196C413.954 224.196 412.802 225.996 410.218 225.738C407.632 225.481 409.824 225.888 409.824 225.888C409.824 225.888 408.138 227.443 406.156 227.863C404.173 228.282 401.692 228.091 401.692 228.091Z" fill="#EBA682"/>
<path fill-rule="evenodd" clip-rule="evenodd" d="M308.923 160.561C309.025 160.822 309.23 161.011 309.475 161.099C309.683 161.173 309.918 161.174 310.136 161.086C310.214 161.058 316.104 158.777 321.908 159.554C321.912 158.926 321.93 158.294 321.965 157.657C321.565 157.606 321.168 157.57 320.77 157.547C319.898 157.488 319.033 157.488 318.197 157.53C313.54 157.752 309.709 159.239 309.448 159.344C308.965 159.536 308.73 160.078 308.923 160.561Z" fill="#563933"/>
<path fill-rule="evenodd" clip-rule="evenodd" d="M319.964 159.35C320.237 159.449 320.55 159.419 320.808 159.245C321.236 158.954 321.349 158.371 321.059 157.943C318.893 154.745 313.414 152.263 313.181 152.159C312.71 151.948 312.156 152.159 311.942 152.632C311.731 153.104 311.942 153.658 312.415 153.871C312.467 153.894 317.64 156.239 319.506 158.994C319.622 159.164 319.784 159.286 319.964 159.35Z" fill="#563933"/>
<path fill-rule="evenodd" clip-rule="evenodd" d="M59.9772 55.7879C57.2544 54.9227 55.8348 53.5031 54.9696 50.7815C54.1032 53.5031 52.6848 54.9227 49.962 55.7879C52.6836 56.6543 54.1032 58.0739 54.9696 60.7955C55.8348 58.0739 57.2544 56.6543 59.9772 55.7879ZM54.9696 47.5139C55.8648 47.5139 56.6316 48.1259 56.8332 49.0007C57.5688 52.1771 58.5804 53.1887 61.7568 53.9243C62.6316 54.1271 63.2436 54.8927 63.2436 55.7879C63.2436 56.6831 62.6316 57.4511 61.7568 57.6539C58.5804 58.3883 57.5688 59.3999 56.8332 62.5763C56.6316 63.4511 55.8648 64.0631 54.9696 64.0631C54.0744 64.0631 53.3076 63.4511 53.1048 62.5763C52.3704 59.4011 51.3576 58.3883 48.1812 57.6539C47.3064 57.4511 46.6956 56.6831 46.6956 55.7879C46.6956 54.8927 47.3064 54.1271 48.1812 53.9243C51.3576 53.1887 52.3704 52.1771 53.1036 49.0007C53.3076 48.1259 54.0744 47.5139 54.9696 47.5139Z" fill="#F36A4E"/>
<path fill-rule="evenodd" clip-rule="evenodd" d="M28.542 41.0867C30.5412 41.0867 32.1684 39.4595 32.1684 37.4591C32.1684 35.4599 30.5412 33.8327 28.542 33.8327C26.5416 33.8327 24.9156 35.4599 24.9156 37.4591C24.9156 39.4595 26.5416 41.0867 28.542 41.0867ZM28.542 31.5659C31.7916 31.5659 34.4352 34.2095 34.4352 37.4591C34.4352 40.7099 31.7916 43.3535 28.542 43.3535C25.2924 43.3535 22.6476 40.7099 22.6476 37.4591C22.6476 34.2095 25.2924 31.5659 28.542 31.5659Z" fill="#EE9C40"/>
<path fill-rule="evenodd" clip-rule="evenodd" d="M24.9156 73.5971C25.5408 73.5971 26.0484 74.1059 26.0484 74.7311V77.7335C26.0484 78.3587 25.5408 78.8675 24.9156 78.8675C24.2892 78.8675 23.7816 78.3587 23.7816 77.7335V74.7311C23.7816 74.1059 24.2892 73.5971 24.9156 73.5971Z" fill="#1A110F"/>
<path fill-rule="evenodd" clip-rule="evenodd" d="M24.9156 65.5763C25.5408 65.5763 26.0484 66.0827 26.0484 66.7091V69.7115C26.0484 70.3379 25.5408 70.8455 24.9156 70.8455C24.2892 70.8455 23.7816 70.3379 23.7816 69.7115V66.7091C23.7816 66.0827 24.2892 65.5763 24.9156 65.5763Z" fill="#1A110F"/>
<path fill-rule="evenodd" clip-rule="evenodd" d="M27.2844 71.3459H30.2868C30.912 71.3459 31.4208 71.8535 31.4208 72.4799C31.4208 73.1063 30.912 73.6127 30.2868 73.6127H27.2844C26.658 73.6127 26.1504 73.1063 26.1504 72.4799C26.1504 71.8535 26.658 71.3459 27.2844 71.3459Z" fill="#1A110F"/>
<path fill-rule="evenodd" clip-rule="evenodd" d="M19.5444 71.3459H22.5468C23.172 71.3459 23.6808 71.8535 23.6808 72.4799C23.6808 73.1063 23.172 73.6127 22.5468 73.6127H19.5444C18.918 73.6127 18.4104 73.1063 18.4104 72.4799C18.4104 71.8535 18.918 71.3459 19.5444 71.3459Z" fill="#1A110F"/>
<path fill-rule="evenodd" clip-rule="evenodd" d="M55.122 20.8883C55.7484 20.8883 56.256 21.3959 56.256 22.0223V25.0247C56.256 25.6511 55.7484 26.1587 55.122 26.1587C54.4968 26.1587 53.988 25.6511 53.988 25.0247V22.0223C53.988 21.3959 54.4968 20.8883 55.122 20.8883Z" fill="#1A110F"/>
<path fill-rule="evenodd" clip-rule="evenodd" d="M55.122 12.8663C55.7484 12.8663 56.256 13.3739 56.256 14.0003V17.0027C56.256 17.6291 55.7484 18.1367 55.122 18.1367C54.4968 18.1367 53.988 17.6291 53.988 17.0027V14.0003C53.988 13.3739 54.4968 12.8663 55.122 12.8663Z" fill="#1A110F"/>
<path fill-rule="evenodd" clip-rule="evenodd" d="M57.4908 18.6371H60.4932C61.1196 18.6371 61.6272 19.1447 61.6272 19.7699C61.6272 20.3963 61.1196 20.9039 60.4932 20.9039H57.4908C56.8656 20.9039 56.3568 20.3963 56.3568 19.7699C56.3568 19.1447 56.8656 18.6371 57.4908 18.6371Z" fill="#1A110F"/>
<path fill-rule="evenodd" clip-rule="evenodd" d="M49.7508 18.6371H52.7532C53.3784 18.6371 53.8872 19.1447 53.8872 19.7699C53.8872 20.3963 53.3784 20.9039 52.7532 20.9039H49.7508C49.1256 20.9039 48.618 20.3963 48.618 19.7699C48.618 19.1447 49.1256 18.6371 49.7508 18.6371Z" fill="#1A110F"/>
<path fill-rule="evenodd" clip-rule="evenodd" d="M450.833 302.67C453.556 303.534 454.975 304.954 455.84 307.676C456.706 304.955 458.125 303.534 460.847 302.67C458.126 301.804 456.706 300.384 455.84 297.662C454.975 300.384 453.556 301.804 450.833 302.67ZM455.84 310.943C454.945 310.943 454.18 310.332 453.977 309.457C453.24 306.282 452.23 305.269 449.053 304.534C448.178 304.332 447.566 303.565 447.566 302.67C447.566 301.775 448.178 301.007 449.053 300.804C452.23 300.07 453.24 299.058 453.977 295.883C454.18 295.007 454.945 294.395 455.84 294.395C456.736 294.395 457.502 295.007 457.705 295.883C458.44 299.057 459.452 300.07 462.629 300.804C463.504 301.007 464.114 301.775 464.114 302.67C464.114 303.565 463.504 304.332 462.629 304.534C459.452 305.269 458.44 306.282 457.705 309.456C457.502 310.332 456.736 310.943 455.84 310.943Z" fill="#F36A4E"/>
<path fill-rule="evenodd" clip-rule="evenodd" d="M482.268 317.371C480.269 317.371 478.642 318.998 478.642 320.998C478.642 322.998 480.269 324.625 482.268 324.625C484.268 324.625 485.894 322.998 485.894 320.998C485.894 318.998 484.268 317.371 482.268 317.371ZM482.268 326.892C479.018 326.892 476.375 324.247 476.375 320.998C476.375 317.748 479.018 315.104 482.268 315.104C485.519 315.104 488.162 317.748 488.162 320.998C488.162 324.247 485.519 326.892 482.268 326.892Z" fill="#EE9C40"/>
<path fill-rule="evenodd" clip-rule="evenodd" d="M485.894 284.861C485.269 284.861 484.762 284.352 484.762 283.727V280.724C484.762 280.098 485.269 279.59 485.894 279.59C486.521 279.59 487.028 280.098 487.028 280.724V283.727C487.028 284.352 486.521 284.861 485.894 284.861Z" fill="#1A110F"/>
<path fill-rule="evenodd" clip-rule="evenodd" d="M485.894 292.883C485.269 292.883 484.762 292.375 484.762 291.748V288.745C484.762 288.12 485.269 287.612 485.894 287.612C486.521 287.612 487.028 288.12 487.028 288.745V291.748C487.028 292.375 486.521 292.883 485.894 292.883Z" fill="#1A110F"/>
<path fill-rule="evenodd" clip-rule="evenodd" d="M483.526 287.112H480.523C479.897 287.112 479.389 286.604 479.389 285.979C479.389 285.352 479.897 284.844 480.523 284.844H483.526C484.152 284.844 484.66 285.352 484.66 285.979C484.66 286.604 484.152 287.112 483.526 287.112Z" fill="#1A110F"/>
<path fill-rule="evenodd" clip-rule="evenodd" d="M491.266 287.112H488.263C487.637 287.112 487.129 286.604 487.129 285.979C487.129 285.352 487.637 284.844 488.263 284.844H491.266C491.892 284.844 492.4 285.352 492.4 285.979C492.4 286.604 491.892 287.112 491.266 287.112Z" fill="#1A110F"/>
<path fill-rule="evenodd" clip-rule="evenodd" d="M455.687 337.57C455.062 337.57 454.554 337.062 454.554 336.436V333.433C454.554 332.807 455.062 332.299 455.687 332.299C456.313 332.299 456.822 332.807 456.822 333.433V336.436C456.822 337.062 456.313 337.57 455.687 337.57Z" fill="#1A110F"/>
<path fill-rule="evenodd" clip-rule="evenodd" d="M455.687 345.59C455.062 345.59 454.554 345.083 454.554 344.458V341.455C454.554 340.83 455.062 340.322 455.687 340.322C456.313 340.322 456.822 340.83 456.822 341.455V344.458C456.822 345.083 456.313 345.59 455.687 345.59Z" fill="#1A110F"/>
<path fill-rule="evenodd" clip-rule="evenodd" d="M453.319 339.821H450.317C449.689 339.821 449.182 339.313 449.182 338.687C449.182 338.062 449.689 337.554 450.317 337.554H453.319C453.944 337.554 454.452 338.062 454.452 338.687C454.452 339.313 453.944 339.821 453.319 339.821Z" fill="#1A110F"/>
<path fill-rule="evenodd" clip-rule="evenodd" d="M461.059 339.821H458.057C457.43 339.821 456.923 339.313 456.923 338.687C456.923 338.062 457.43 337.554 458.057 337.554H461.059C461.684 337.554 462.192 338.062 462.192 338.687C462.192 339.313 461.684 339.821 461.059 339.821Z" fill="#1A110F"/>
<path fill-rule="evenodd" clip-rule="evenodd" d="M154.607 97.0499L140.609 142.608L140.242 143.813C139.262 146.976 136.662 149.538 133.201 150.313C124.775 152.198 116.147 153.136 107.622 153.108C99.0912 153.094 90.6888 152.132 82.5768 150.535C78.7476 149.785 75.9984 146.27 76.3056 142.284C76.6356 137.99 80.3832 134.776 84.6792 135.107L84.726 135.109C92.1636 135.683 99.5112 135.632 106.674 134.797C111.571 134.231 116.377 133.295 121.07 132.007C121.07 132.007 127.624 93.7367 133.43 82.4243C139.238 71.1119 158.291 77.4299 154.607 97.0499Z" fill="#7E4D44"/>
<path fill-rule="evenodd" clip-rule="evenodd" d="M61.3261 132.336C61.3261 132.336 56.6089 132.439 53.9185 134.284C51.2281 136.13 44.0101 136.908 44.8081 139.114C45.4801 140.974 56.3425 136.442 60.2509 136.47C64.3693 136.499 61.3261 132.336 61.3261 132.336Z" fill="#E46E53"/>
<path fill-rule="evenodd" clip-rule="evenodd" d="M60.8964 131.455C60.8964 131.455 54.9048 131.736 51.7404 132.529C48.576 133.324 42.5844 131.837 41.9316 133.015C41.2788 134.194 45.5232 136.567 49.6356 136.343C53.748 136.118 60.8964 131.455 60.8964 131.455Z" fill="#EBA682"/>
<path fill-rule="evenodd" clip-rule="evenodd" d="M82.7316 146.982L82.4568 147.078C81.5868 147.08 80.0088 147.244 79.5672 147.335C73.5564 148.576 65.0724 149.131 61.0752 147.283C57.228 145.502 50.9484 143.836 54.0504 142.141C57.15 140.443 66.1332 143.149 66.2892 141.407C66.4416 139.67 58.7196 136.056 50.4888 137.888C42.2592 139.726 39.7812 134.85 43.8984 135.017C48.0144 135.181 52.8792 132.3 59.1 131.477C68.664 130.21 78.7704 135.714 78.7704 135.714C78.7704 135.714 79.1808 135.836 79.9032 135.971C85.1256 136.948 86.9028 143.596 82.7796 146.945L82.7316 146.982Z" fill="#EBA682"/>
<path fill-rule="evenodd" clip-rule="evenodd" d="M178.68 258.841L190.429 436.252L171.14 435.062L148.613 331.441L129.47 213.761L174.852 215.3L178.68 258.841Z" fill="#171818"/>
<path fill-rule="evenodd" clip-rule="evenodd" d="M189.072 435.004L190.429 451.883C190.429 451.883 184.598 455.255 175.7 453.671L172.904 433.721L189.072 435.004Z" fill="#EBA682"/>
<path fill-rule="evenodd" clip-rule="evenodd" d="M168.613 431.474C167.609 435.032 168.215 438.442 169.39 441.817L192.504 440.729C193.235 437.339 193.274 433.954 192.701 430.573L168.613 431.474Z" fill="#212F28"/>
<path fill-rule="evenodd" clip-rule="evenodd" d="M135.508 471.204C136.759 473.873 191.717 471.01 191.717 471.01C191.717 471.01 193.462 454.691 191.738 449.668C190.016 444.64 182.008 450.284 176.514 449.023C176.514 449.023 173.224 444.467 170.555 444.622C169.573 444.68 166.117 446.903 161.789 449.752C161.089 450.212 160.364 450.69 159.622 451.176C159.106 451.518 158.584 451.861 158.054 452.207C157.196 452.773 156.32 453.343 155.444 453.911C155.113 454.124 154.786 454.333 154.454 454.547H154.451C153.648 455.066 152.843 455.574 152.044 456.071C147.227 459.074 142.666 461.61 140.028 462.078C132.961 463.328 134.254 468.533 135.508 471.204Z" fill="#BB2A49"/>
<path fill-rule="evenodd" clip-rule="evenodd" d="M155.444 453.911C156.265 453.811 157.306 453.899 158.454 454.499C160.799 455.722 162.683 459.096 162.702 459.13C162.827 459.361 163.033 459.52 163.268 459.593C163.514 459.674 163.795 459.652 164.041 459.52C164.52 459.254 164.693 458.654 164.428 458.18C164.344 458.018 162.245 454.249 159.367 452.752C158.918 452.516 158.477 452.339 158.054 452.207C156.612 452.329 155.407 452.65 155.444 453.911Z" fill="#FFFFFE"/>
<path fill-rule="evenodd" clip-rule="evenodd" d="M159.622 451.176C160.177 451.246 160.792 451.423 161.436 451.762C163.787 452.99 165.665 456.358 165.683 456.395C165.808 456.623 166.014 456.785 166.249 456.858C166.496 456.935 166.776 456.918 167.022 456.782C167.501 456.52 167.674 455.921 167.408 455.441C167.324 455.28 165.227 451.514 162.348 450.013C162.161 449.914 161.974 449.826 161.789 449.752C160.867 449.828 159.832 449.772 159.622 451.176Z" fill="#FFFFFE"/>
<path fill-rule="evenodd" clip-rule="evenodd" d="M152.044 456.071C152.743 456.079 153.559 456.236 154.435 456.696C156.787 457.926 158.66 461.293 158.68 461.327C158.808 461.558 159.014 461.72 159.25 461.794C159.497 461.872 159.776 461.852 160.022 461.717C160.498 461.452 160.674 460.852 160.409 460.378C160.321 460.216 158.222 456.45 155.348 454.948C155.047 454.789 154.745 454.657 154.454 454.547H154.451C152.885 454.396 151.954 454.794 152.044 456.071Z" fill="#FFFFFE"/>
<path fill-rule="evenodd" clip-rule="evenodd" d="M231.146 436.932L213.989 437.716L169.992 333.769L161.568 216.103L201.124 211.607L201.492 211.516L203.531 211.004L203.609 210.985L210.479 209.638C207.548 233.688 203.082 322.859 203.082 322.859C203.082 322.859 210.443 340.433 216.33 361.343C222.217 382.261 231.146 436.932 231.146 436.932Z" fill="#212F28"/>
<path fill-rule="evenodd" clip-rule="evenodd" d="M227.324 435.8L227.126 435.82C226.603 435.82 226.135 435.448 226.039 434.914C225.936 434.339 215.554 377.302 209.398 359.192C205.346 347.272 195.151 323.441 195.048 323.202C194.982 323.047 194.948 322.874 194.959 322.704L201.492 211.516L203.531 211.004L197.18 322.572C198.263 325.121 207.626 347.131 211.488 358.48C217.7 376.745 228.109 433.94 228.216 434.52C228.323 435.12 227.924 435.694 227.324 435.8Z" fill="#4D5950"/>
<path fill-rule="evenodd" clip-rule="evenodd" d="M228.698 434.716L233.676 451.883C233.676 451.883 227.845 455.255 218.947 453.671L213.989 433.548L228.698 434.716Z" fill="#EBA682"/>
<path fill-rule="evenodd" clip-rule="evenodd" d="M209.286 432.868C208.439 436.987 208.68 440.044 211.816 442.553L235.968 441.15C236.699 437.761 236.383 434.456 235.127 431.309L209.286 432.868Z" fill="#4D5950"/>
<path fill-rule="evenodd" clip-rule="evenodd" d="M179.821 471.204C181.073 473.873 236.03 471.01 236.03 471.01C236.03 471.01 237.775 454.691 236.053 449.668C234.33 444.64 226.322 450.284 220.828 449.023C220.828 449.023 217.537 444.467 214.87 444.622C213.887 444.68 210.431 446.903 206.102 449.752C205.404 450.212 204.679 450.69 203.935 451.176C203.42 451.518 202.897 451.861 202.367 452.207C201.509 452.773 200.634 453.343 199.758 453.911C199.427 454.124 199.099 454.333 198.768 454.547H198.764C197.962 455.066 197.155 455.574 196.357 456.071C191.539 459.074 186.979 461.61 184.342 462.078C177.275 463.328 178.567 468.533 179.821 471.204Z" fill="#DB3159"/>
<path fill-rule="evenodd" clip-rule="evenodd" d="M199.758 453.911C200.579 453.811 201.62 453.899 202.769 454.499C205.112 455.722 206.998 459.096 207.016 459.13C207.14 459.361 207.347 459.52 207.582 459.593C207.829 459.674 208.109 459.652 208.355 459.52C208.834 459.254 209.006 458.654 208.741 458.18C208.656 458.018 206.558 454.249 203.681 452.752C203.232 452.516 202.79 452.339 202.367 452.207C200.926 452.329 199.722 452.65 199.758 453.911Z" fill="#FFFFFE"/>
<path fill-rule="evenodd" clip-rule="evenodd" d="M203.935 451.176C204.491 451.246 205.105 451.423 205.75 451.762C208.102 452.99 209.978 456.358 209.996 456.395C210.121 456.623 210.328 456.785 210.563 456.858C210.81 456.935 211.09 456.918 211.336 456.782C211.814 456.52 211.987 455.921 211.722 455.441C211.638 455.28 209.54 451.514 206.662 450.013C206.474 449.914 206.286 449.826 206.102 449.752C205.181 449.828 204.145 449.772 203.935 451.176Z" fill="#FFFFFE"/>
<path fill-rule="evenodd" clip-rule="evenodd" d="M196.357 456.071C197.056 456.079 197.874 456.236 198.75 456.696C201.101 457.926 202.974 461.293 202.993 461.327C203.122 461.558 203.328 461.72 203.563 461.794C203.809 461.872 204.09 461.852 204.336 461.717C204.811 461.452 204.988 460.852 204.722 460.378C204.634 460.216 202.536 456.45 199.662 454.948C199.36 454.789 199.058 454.657 198.768 454.547H198.764C197.198 454.396 196.268 454.794 196.357 456.071Z" fill="#FFFFFE"/>
<path fill-rule="evenodd" clip-rule="evenodd" d="M129 69.2999C128.674 70.2467 128.387 72.4247 128.23 75.1835C129.671 75.2339 131.114 75.2795 132.557 75.3095C137.689 75.4211 142.81 75.3503 147.932 75.1175C147.463 69.9215 146.581 65.2403 145.23 61.7915C139.808 47.9699 126.803 43.3223 122.627 45.5315C122.627 45.5315 132.805 58.2671 129 69.2999Z" fill="#470B09"/>
<path fill-rule="evenodd" clip-rule="evenodd" d="M213.276 216.817C181.368 224.509 152.82 224.437 127.548 216.817C127.98 211.609 128.64 205.561 129.396 199.105C129.564 197.689 129.732 196.249 129.9 194.797C130.128 192.937 130.344 191.053 130.572 189.145C130.74 187.717 130.92 186.277 131.088 184.837C131.1 184.669 131.124 184.513 131.136 184.345L131.352 182.509C131.484 181.381 131.616 180.253 131.748 179.113C131.892 177.805 132.036 176.485 132.18 175.177C132.192 175.045 132.216 174.925 132.228 174.793C132.276 174.253 132.348 173.725 132.396 173.185C132.756 169.861 133.08 166.573 133.368 163.369C133.404 162.961 133.44 162.553 133.476 162.157C133.5 161.929 133.524 161.713 133.536 161.497C133.572 161.089 133.608 160.693 133.632 160.285C134.328 151.705 134.676 143.905 134.28 137.917C134.232 137.281 134.184 136.669 134.124 136.081C134.04 135.277 133.944 134.521 133.836 133.801C133.776 133.405 133.716 132.997 133.656 132.589C131.748 119.665 131.952 108.577 132.18 96.1211C132.36 86.5451 133.02 83.4251 134.244 79.5371C136.02 73.8731 147.336 59.2451 157.14 57.6011C164.268 56.4131 171.588 57.8651 177.72 61.7051C185.604 66.6251 196.032 74.5931 200.616 84.3851C202.404 88.2131 203.328 92.6411 203.724 97.4891C204.468 106.621 203.34 117.229 202.668 128.125V128.137C202.14 136.813 201.9 145.657 203.112 154.069C203.58 157.249 204.24 160.765 205.032 164.473C205.164 165.121 205.308 165.757 205.44 166.405C205.548 166.897 205.656 167.389 205.776 167.893C205.968 168.793 206.184 169.705 206.4 170.629C206.82 172.465 207.252 174.325 207.708 176.209C208.056 177.601 208.392 179.005 208.74 180.409C209.196 182.245 209.652 184.081 210.096 185.917C210.456 187.321 210.804 188.725 211.14 190.129C214.008 201.709 214.332 210.697 213.276 216.817Z" fill="#9060EB"/>
<path fill-rule="evenodd" clip-rule="evenodd" d="M172.248 152.545C172.14 152.953 171.72 153.193 171.312 153.085C171.072 153.013 152.064 147.685 134.28 137.917C134.232 137.281 134.184 136.669 134.124 136.081C151.98 146.065 171.492 151.537 171.72 151.597C172.128 151.717 172.368 152.137 172.248 152.545Z" fill="#563933"/>
<path fill-rule="evenodd" clip-rule="evenodd" d="M138.23 85.6379L138.373 85.6499C139.02 85.6247 154.279 84.9143 160.087 73.5791C160.24 73.2827 160.123 72.9203 159.827 72.7679C159.53 72.6167 159.167 72.7331 159.014 73.0295C153.53 83.7311 138.479 84.4391 138.326 84.4451C137.994 84.4571 137.735 84.7379 137.748 85.0703C137.759 85.3547 137.964 85.5851 138.23 85.6379Z" fill="#563933"/>
<path fill-rule="evenodd" clip-rule="evenodd" d="M177.24 107.496C177.137 106.999 176.651 106.679 176.154 106.782C175.654 106.885 175.332 107.371 175.435 107.868C175.517 108.251 183.172 145.748 175.852 156.305C172.298 156.707 146.201 159.629 133.589 160.855C133.556 161.257 133.525 161.616 133.493 162.02C133.474 162.238 133.45 162.487 133.43 162.704C146.801 161.416 176.128 158.128 176.462 158.09C176.71 158.06 176.938 157.932 177.089 157.733C185.292 146.968 177.571 109.102 177.24 107.496Z" fill="#563933"/>
<path fill-rule="evenodd" clip-rule="evenodd" d="M137.639 204.943C137.208 204.943 136.822 204.642 136.73 204.204C136.627 203.702 136.949 203.21 137.452 203.106C137.68 203.058 160.44 198.098 171.69 176.677C171.929 176.224 172.489 176.048 172.944 176.286C173.398 176.525 173.573 177.086 173.334 177.54C167.234 189.155 157.915 195.979 151.171 199.658C143.866 203.645 138.071 204.874 137.828 204.924L137.639 204.943Z" fill="#563933"/>
<path fill-rule="evenodd" clip-rule="evenodd" d="M148.908 87.9551C147.19 87.9551 145.886 86.9615 145.138 85.0799C142.782 79.1615 146.296 65.9315 151.507 61.0847L152.267 61.9007C147.408 66.4187 143.99 79.1843 146.173 84.6671C146.755 86.1299 147.649 86.8403 148.908 86.8403H148.937C160.396 86.7419 169.48 61.0091 169.57 60.7487L170.622 61.1147C170.242 62.2067 161.182 87.8495 148.946 87.9551H148.908Z" fill="#FFFFFE"/>
<path fill-rule="evenodd" clip-rule="evenodd" d="M134.822 54.1019C134.822 54.1019 135.514 55.0175 136.692 56.4803L136.894 56.7287L136.934 56.7815C137.778 57.8123 138.84 59.0831 140.06 60.4799C140.501 60.9851 140.963 61.5107 141.446 62.0459C141.881 62.5271 142.33 63.0191 142.792 63.5123C146.064 67.0271 149.958 70.7699 153.683 73.2611C161.868 68.1491 167.044 62.5463 167.959 56.2511C167.959 56.2511 155.954 46.6091 153.382 35.6267L134.822 54.1019Z" fill="#EBA682"/>
<path fill-rule="evenodd" clip-rule="evenodd" d="M136.692 56.4803L136.894 56.7287L136.934 56.7815C137.778 57.8123 138.84 59.0831 140.06 60.4799C140.501 60.9851 140.963 61.5107 141.446 62.0459C141.881 62.5271 142.33 63.0191 142.792 63.5123C144.224 58.6703 143.423 51.5027 143.453 51.3371L136.692 56.4803Z" fill="#E88071"/>
<path fill-rule="evenodd" clip-rule="evenodd" d="M120.347 56.5055C120.654 57.3167 120.97 58.0955 121.286 58.8347C123.36 63.6407 125.689 64.9367 128.485 64.0103C133.506 62.3471 153.251 45.1463 160.007 34.6883C166.764 24.2351 157.222 10.7831 146.921 10.7939C139.589 10.8035 127.234 17.4947 120.727 21.3491C117.571 23.2163 115.53 26.5379 115.376 30.2099C115.235 33.5987 115.589 37.4687 116.266 41.3951L116.267 41.4023L116.264 41.4071C116.183 41.6447 114.214 47.5535 113.843 48.7511C113.546 49.6955 116.68 49.7663 118.145 49.7483C118.312 50.3459 118.487 50.9471 118.668 51.5339L120.347 56.5055Z" fill="#EBA682"/>
<path fill-rule="evenodd" clip-rule="evenodd" d="M120.952 53.7203C120.952 53.7203 126.113 47.8199 130.714 53.4203L121.864 56.0195L120.952 53.7203Z" fill="#FFFFFE"/>
<path fill-rule="evenodd" clip-rule="evenodd" d="M124.511 47.0579C125.03 48.2039 127.27 48.3071 129.512 47.2907C131.755 46.2743 133.152 44.5211 132.632 43.3763C132.114 42.2315 129.875 42.1271 127.632 43.1435C125.389 44.1599 123.992 45.9131 124.511 47.0579Z" fill="#E88071"/>
<path fill-rule="evenodd" clip-rule="evenodd" d="M118.914 39.6719C119.004 40.6835 119.53 41.4635 120.09 41.4131C120.648 41.3639 121.028 40.5035 120.938 39.4907C120.848 38.4791 120.322 37.6991 119.762 37.7483C119.203 37.7987 118.824 38.6591 118.914 39.6719Z" fill="#171818"/>
<path fill-rule="evenodd" clip-rule="evenodd" d="M124.744 34.2827C124.85 34.3547 124.943 34.4531 125.011 34.5731C125.252 34.9943 125.105 35.5319 124.684 35.7731C123.205 36.6167 119.74 37.4891 117.199 34.7531C116.868 34.3967 116.89 33.8399 117.246 33.5099C117.601 33.1787 118.158 33.1991 118.489 33.5555C120.727 35.9663 123.686 34.3163 123.81 34.2443C124.112 34.0727 124.474 34.0991 124.744 34.2827Z" fill="#DB3159"/>
<path fill-rule="evenodd" clip-rule="evenodd" d="M138.868 39.4739C139.144 39.4031 139.342 39.1463 139.327 38.8499C139.118 34.7195 141.66 31.9451 141.686 31.9175C141.917 31.6715 141.904 31.2839 141.658 31.0535C141.412 30.8219 141.025 30.8339 140.795 31.0799C140.675 31.2059 137.868 34.2443 138.104 38.9111C138.121 39.2495 138.408 39.5087 138.746 39.4919L138.868 39.4739Z" fill="#E88071"/>
<path fill-rule="evenodd" clip-rule="evenodd" d="M142.784 35.5151C142.993 35.4623 143.167 35.3003 143.226 35.0771C143.311 34.7507 143.116 34.4159 142.789 34.3307C142.698 34.3067 140.536 33.7535 139.033 34.4039C138.724 34.5383 138.581 34.8995 138.715 35.2091C138.85 35.5187 139.21 35.6615 139.52 35.5271C140.444 35.1263 141.97 35.3819 142.48 35.5151H142.784Z" fill="#E88071"/>
<path fill-rule="evenodd" clip-rule="evenodd" d="M115.639 28.2635C119.708 30.9347 127.792 33.8651 133.921 32.6123C133.921 32.6123 137.042 24.2351 144.037 27.7127C151.033 31.1903 145.408 43.7855 138.629 43.6259C138.629 43.6259 137.956 51.8543 145.004 57.0707C161.921 61.9583 178.972 49.3247 178.972 49.3247C178.13 36.9107 173.291 25.7183 173.059 25.1879L173.052 25.1699C168.44 10.6175 159.007 -9.15848 131.496 4.70752C117.792 11.6159 114.452 17.1743 113.98 21.3935C113.573 25.0271 114.283 27.3755 115.639 28.2635Z" fill="#470B09"/>
<path fill-rule="evenodd" clip-rule="evenodd" d="M163.105 75.8711C177.684 71.5787 190.462 63.8987 197.285 55.2827C196.262 53.3903 192.067 51.0575 187.007 46.2011C173.305 33.0551 167.177 11.5907 167.177 11.5907C167.177 11.5907 163.412 38.5007 138.628 43.6259C138.628 43.6259 137.096 55.9535 146.572 60.4175C155.352 64.5575 161.798 66.2951 163.105 75.8711Z" fill="#470B09"/>
<path fill-rule="evenodd" clip-rule="evenodd" d="M138.06 43.3079C138.274 44.3675 139.306 45.0539 140.365 44.8415C141.425 44.6279 142.111 43.5959 141.898 42.5363C141.684 41.4767 140.653 40.7903 139.594 41.0039C138.534 41.2163 137.848 42.2483 138.06 43.3079Z" fill="#FFFFFE"/>
<path fill-rule="evenodd" clip-rule="evenodd" d="M208.086 152.251C207.434 156.419 206.484 160.609 205.166 164.755C204.506 166.828 203.744 168.886 202.906 170.926C202.055 172.962 201.097 174.968 200.063 176.942L199.363 178.16C197.088 182.116 192.935 184.328 188.678 184.328C181.62 184.318 174.635 184.262 167.621 184.192C160.61 184.122 153.6 184.027 146.59 183.905C132.568 183.652 113.08 180.841 98.9916 180.205C96.8784 179.881 96.5364 178.691 96.7344 174.229C96.9192 170.153 100.09 166.916 104.04 166.541L104.074 166.537C117.833 165.208 131.636 163.591 145.426 161.88C152.326 161.022 159.222 160.134 166.115 159.224C170.092 158.698 174.083 158.168 178.058 157.627L178.074 157.583C178.229 157.148 177.929 156.617 178.073 156.174C178.121 156.02 178.468 155.254 178.511 155.095C179.285 152.584 180.029 150.656 180.452 147.94C181.355 142.166 181.487 136.025 181.02 129.78C180.545 123.535 179.491 117.184 177.974 110.887C177.216 107.743 176.344 104.609 175.368 101.52C174.878 99.9815 174.366 98.4455 173.825 96.9467C173.556 96.1967 173.28 95.4527 173.004 94.7315L172.588 93.6659L172.238 92.8079L172.057 92.3747C169.13 85.2311 172.547 77.0639 179.694 74.1335C186.797 71.2211 194.915 74.5895 197.887 81.6563L198.254 82.5323L198.557 83.2727L199.116 84.7043C199.477 85.6475 199.82 86.5751 200.154 87.5063C200.821 89.3663 201.44 91.2179 202.032 93.0779C203.207 96.7967 204.253 100.544 205.166 104.341C206.993 111.926 208.303 119.699 208.91 127.692C209.507 135.678 209.382 143.908 208.086 152.251Z" fill="#9060EB"/>
<path fill-rule="evenodd" clip-rule="evenodd" d="M172.278 89.7719C171.818 89.7719 171.427 89.4227 171.383 88.9571C171.354 88.6439 170.722 81.2483 175.433 76.4123C178.318 73.4519 182.536 72.1355 187.974 72.5015C188.47 72.5351 188.845 72.9647 188.812 73.4603C188.778 73.9571 188.34 74.3207 187.853 74.2979C182.969 73.9643 179.23 75.0995 176.73 77.6591C172.598 81.8903 173.17 88.7219 173.176 88.7903C173.22 89.2847 172.856 89.7227 172.362 89.7683L172.278 89.7719Z" fill="#563933"/>
<path fill-rule="evenodd" clip-rule="evenodd" d="M205.774 167.892C203.564 173.562 197.548 185.849 186.836 186.251C185.695 186.29 184.307 186.313 182.724 186.313C169.002 186.313 140.591 184.852 131.14 184.346C131.213 183.736 131.282 183.125 131.353 182.513C142.008 183.084 175.861 184.814 186.767 184.409C199.105 183.949 204.93 164.777 204.989 164.582L205.03 164.479C205.166 165.115 205.302 165.76 205.446 166.408C205.553 166.898 205.66 167.395 205.774 167.892Z" fill="#563933"/>
<path fill-rule="evenodd" clip-rule="evenodd" d="M189.232 163.201C189.047 163.408 188.794 163.513 188.539 163.513C188.322 163.513 188.105 163.436 187.931 163.285C187.865 163.231 182.581 158.642 176.5 157.77C176.654 157.336 176.797 156.898 176.941 156.456C176.988 156.301 177.04 156.143 177.084 155.984C177.835 156.106 178.576 156.278 179.29 156.485C180.114 156.721 180.91 157.008 181.668 157.321C185.896 159.077 188.94 161.72 189.146 161.905C189.529 162.24 189.566 162.822 189.232 163.201Z" fill="#563933"/>
<path fill-rule="evenodd" clip-rule="evenodd" d="M179.432 158.416C179.149 158.416 178.868 158.285 178.688 158.038C178.388 157.627 178.48 157.051 178.889 156.752C181.952 154.518 187.836 154.046 188.086 154.027C188.59 153.986 189.034 154.367 189.073 154.874C189.112 155.381 188.732 155.822 188.226 155.862C188.17 155.866 182.612 156.313 179.974 158.238C179.81 158.358 179.621 158.416 179.432 158.416Z" fill="#563933"/>
<path fill-rule="evenodd" clip-rule="evenodd" d="M23.1036 103.768L49.1436 171.354L49.1508 171.35V171.354H125.225V164.568H53.4108L29.8944 103.768H23.1036Z" fill="#212F28"/>
<path fill-rule="evenodd" clip-rule="evenodd" d="M77.1576 173.807C77.8632 174.432 78.8004 175.134 80.0352 175.895C84.6564 178.73 92.85 182.407 101.882 180.306C110.915 178.205 115.746 171.274 115.746 171.274C115.746 171.274 114.802 165.601 111.335 164.341C108.373 163.261 110.495 167.911 109.654 169.382C108.814 170.854 98.1432 171.403 91.7988 170.748C88.2792 170.382 84.6312 170.378 81.6444 170.496C81.1956 170.513 80.7624 170.53 80.346 170.55C79.5648 170.592 78.8508 170.639 78.2076 170.684C77.8464 170.71 77.5308 170.832 77.2788 171.02C77.0448 171.193 76.8588 171.42 76.7328 171.677C76.4052 172.352 76.494 173.222 77.1576 173.807Z" fill="#EBA682"/>
<path fill-rule="evenodd" clip-rule="evenodd" d="M76.7328 171.677C77.9556 172.915 80.796 175.235 86.2032 176.962L86.3292 176.982C86.5056 176.982 86.6736 176.869 86.7288 176.688C86.7996 176.466 86.6784 176.231 86.4588 176.159C81.1284 174.457 78.3804 172.159 77.2788 171.02C77.0448 171.193 76.8588 171.42 76.7328 171.677Z" fill="#E88071"/>
<path fill-rule="evenodd" clip-rule="evenodd" d="M80.3459 170.55C81.8627 171.84 84.5555 173.617 88.9259 175.012L89.0519 175.033C89.2283 175.033 89.3963 174.919 89.4503 174.739C89.5223 174.521 89.3999 174.281 89.1779 174.214C85.6019 173.071 83.1815 171.652 81.6443 170.496C81.1955 170.513 80.7623 170.53 80.3459 170.55Z" fill="#E88071"/>
<path fill-rule="evenodd" clip-rule="evenodd" d="M85.1508 108.782C84.9636 105.294 87.6336 102.486 91.6968 102.269C95.7588 102.052 98.7132 104.557 98.9004 108.046C99.084 111.482 96.4236 114.446 92.3604 114.665C88.2984 114.882 85.3356 112.22 85.1508 108.782ZM83.3472 78.0635L97.4088 77.3087L96.2724 99.9335L86.8968 100.436L83.3472 78.0635Z" fill="#9060EB"/>
<path fill-rule="evenodd" clip-rule="evenodd" d="M71.1216 79.4867C75.1836 79.2683 78.1464 81.9311 78.33 85.3679C78.5184 88.8575 75.8484 91.6643 71.7864 91.8827C67.7232 92.0999 64.7688 89.5943 64.5816 86.1059C64.3968 82.6679 67.0584 79.7051 71.1216 79.4867ZM67.2096 94.2167L76.5852 93.7139L80.1348 116.088L66.0732 116.842L67.2096 94.2167Z" fill="#9060EB"/>
</svg>
