<svg width="441" height="235" viewBox="0 0 441 235" fill="none" xmlns="http://www.w3.org/2000/svg">
<path fill-rule="evenodd" clip-rule="evenodd" d="M80.8576 209.886H18.957C17.3509 209.886 16.0483 208.582 16.0483 206.976V166.093C16.0483 164.487 17.3509 163.184 18.957 163.184H80.8576C82.4644 163.184 83.7669 164.487 83.7669 166.093V206.976C83.7669 208.582 82.4644 209.886 80.8576 209.886Z" fill="#6FFFB0"/>
<path d="M80.8576 209.886H18.957C17.3509 209.886 16.0483 208.582 16.0483 206.976V166.093C16.0483 164.487 17.3509 163.184 18.957 163.184H80.8576C82.4644 163.184 83.7669 164.487 83.7669 166.093V206.976C83.7669 208.582 82.4644 209.886 80.8576 209.886" stroke="white"/>
<path fill-rule="evenodd" clip-rule="evenodd" d="M436.445 156.804H364.582C362.718 156.804 361.206 155.325 361.206 153.502V107.105C361.206 105.282 362.718 103.804 364.582 103.804H436.445C438.31 103.804 439.822 105.282 439.822 107.105V153.502C439.822 155.325 438.31 156.804 436.445 156.804Z" fill="#6FFFB0"/>
<path d="M436.445 156.804H364.582C362.718 156.804 361.206 155.325 361.206 153.502V107.105C361.206 105.282 362.718 103.804 364.582 103.804H436.445C438.31 103.804 439.822 105.282 439.822 107.105V153.502C439.822 155.325 438.31 156.804 436.445 156.804" stroke="white"/>
<path fill-rule="evenodd" clip-rule="evenodd" d="M65.4772 224.184H3.57667C1.96989 224.184 0.667969 222.881 0.667969 221.275V180.392C0.667969 178.785 1.96989 177.482 3.57667 177.482H65.4772C67.084 177.482 68.3866 178.785 68.3866 180.392V221.275C68.3866 222.881 67.084 224.184 65.4772 224.184Z" fill="#232531"/>
<path d="M65.4772 224.184H3.57667C1.96989 224.184 0.667969 222.881 0.667969 221.275V180.392C0.667969 178.785 1.96989 177.482 3.57667 177.482H65.4772C67.084 177.482 68.3866 178.785 68.3866 180.392V221.275C68.3866 222.881 67.084 224.184 65.4772 224.184" stroke="white"/>
<path fill-rule="evenodd" clip-rule="evenodd" d="M330.307 154.152C330.995 151.146 331.906 148.073 333.394 145.346L333.429 145.632C333.822 146.354 336.587 151.286 341.141 151.648C344.843 151.942 348.179 149.092 350.845 146.814C351.785 146.011 352.512 145.271 353.012 144.729C351.445 144.824 349.151 144.783 346.56 144.01C344.51 143.399 343.785 142.781 342.423 142.4C340.663 141.909 338.048 141.875 334.281 143.876C336.012 141.296 338.44 139.377 340.972 137.613C343.486 135.862 346.137 134.235 348.316 132.058C349.982 130.395 351.183 128.467 351.847 126.27C352.6 127.569 355.259 131.652 359.386 131.98C363.088 132.274 366.424 129.424 369.091 127.146C370.031 126.343 370.757 125.603 371.257 125.061C369.69 125.156 367.397 125.115 364.806 124.343C362.755 123.732 362.031 123.113 360.668 122.733C358.87 122.231 356.179 122.205 352.279 124.341C352.806 121.025 352.668 117.531 352.447 114.199C352.338 112.559 352.131 110.932 351.915 109.306C352.932 110.917 355.456 114.254 359.172 114.549C362.873 114.843 366.209 111.994 368.876 109.715C369.816 108.913 370.542 108.172 371.042 107.63C369.475 107.725 367.182 107.684 364.591 106.912C362.54 106.301 361.816 105.682 360.453 105.302C358.589 104.781 355.766 104.774 351.633 107.153C351.527 106.314 351.428 105.475 351.351 104.633C351.014 100.968 351.395 97.3015 353.771 94.356L353.845 94.9525C354.237 95.6754 357.002 100.607 361.556 100.969C365.257 101.263 368.593 98.4131 371.26 96.1349C372.2 95.3317 372.926 94.5924 373.426 94.0496C371.859 94.1444 369.566 94.1034 366.975 93.3314C364.925 92.7199 364.2 92.1018 362.838 91.7214C361.122 91.2424 358.594 91.1981 354.98 93.0482C356.906 91.2229 359.308 89.9325 361.738 88.8189L362.56 89.338C363.399 89.4995 369.188 90.5278 372.48 87.105C375.157 84.3226 375.065 79.7621 374.991 76.1165C374.965 74.8311 374.849 73.7601 374.743 73C373.787 74.3219 372.242 76.1389 369.912 77.7128C368.069 78.9589 367.095 79.1332 365.89 79.9778C364.239 81.1361 362.368 83.4081 361.558 88.3233C359.169 89.4221 356.83 90.6789 354.874 92.438C352.881 94.2309 351.553 96.4835 351.007 99.0502C350.803 97.15 350.066 93.7809 347.392 92.0761C344.491 90.2277 340.525 91.1095 337.354 91.8145C336.236 92.0633 335.321 92.3527 334.676 92.5791C335.999 93.1823 337.857 94.2119 339.641 95.9689C341.053 97.3595 341.377 98.18 342.326 99.0833C343.658 100.35 346.048 101.615 350.687 101.387L350.728 101.281C350.587 104.071 351.091 106.864 351.46 109.62C351.735 111.676 351.916 113.744 352.006 115.815L351.97 115.661C351.543 115.031 348.544 110.738 344.314 110.821C340.875 110.889 338.061 113.82 335.812 116.163C335.019 116.989 334.418 117.737 334.006 118.282C335.441 118.052 337.558 117.88 340.017 118.355C341.963 118.731 342.687 119.235 343.977 119.461C345.76 119.773 348.396 119.514 352.044 116.872C352.08 118.176 352.08 119.48 352.039 120.784C351.998 122.121 351.887 123.435 351.642 124.703C351.604 124.726 351.566 124.747 351.528 124.77L351.565 125.073C351.149 126.997 350.403 128.812 349.079 130.439C347.759 132.061 346.127 133.378 344.426 134.596L344.3 133.73C343.923 133.069 341.266 128.556 337.042 128.31C333.609 128.11 330.576 130.814 328.151 132.976C327.297 133.738 326.639 134.437 326.186 134.949C327.635 134.83 329.759 134.824 332.174 135.488C334.085 136.014 334.767 136.572 336.036 136.897C337.518 137.278 339.639 137.298 342.578 135.877C342.313 136.058 342.047 136.239 341.783 136.419C339.258 138.144 336.695 139.923 334.758 142.326C334.223 142.988 333.747 143.69 333.315 144.419L333.282 144.438L333.286 144.467C331.915 146.797 331.016 149.416 330.305 152.005C328.358 159.094 328.083 166.59 329.462 173.808C329.525 174.141 330.042 174.04 329.979 173.706C328.746 167.251 328.84 160.561 330.307 154.152Z" fill="#232531"/>
<path fill-rule="evenodd" clip-rule="evenodd" d="M124.394 173.706C125.626 167.251 125.532 160.561 124.065 154.152C123.377 151.146 122.466 148.073 120.978 145.346L120.943 145.632C120.55 146.354 117.785 151.286 113.232 151.648C109.53 151.942 106.193 149.092 103.527 146.814C102.587 146.011 101.861 145.271 101.361 144.729C102.927 144.824 105.221 144.783 107.812 144.01C109.862 143.399 110.587 142.781 111.949 142.4C113.709 141.909 116.325 141.875 120.091 143.876C118.36 141.296 115.932 139.377 113.4 137.613C110.886 135.862 108.235 134.235 106.056 132.058C104.391 130.395 103.189 128.467 102.525 126.27C101.772 127.569 99.1132 131.652 94.9857 131.98C91.2841 132.274 87.9481 129.424 85.2815 127.146C84.3413 126.343 83.6155 125.603 83.115 125.061C84.682 125.156 86.9752 125.115 89.5664 124.343C91.6173 123.732 92.3414 123.113 93.7039 122.733C95.5023 122.231 98.1929 122.205 102.093 124.341C101.566 121.025 101.704 117.531 101.925 114.199C102.034 112.559 102.241 110.932 102.458 109.306C101.441 110.917 98.9162 114.254 95.2009 114.549C91.4989 114.843 88.1629 111.994 85.4963 109.715C84.5566 108.913 83.8304 108.172 83.3299 107.63C84.8969 107.725 87.19 107.684 89.7813 106.912C91.8322 106.301 92.5563 105.682 93.9188 105.302C95.783 104.781 98.6053 104.774 102.739 107.153C102.845 106.314 102.944 105.475 103.021 104.633C103.358 100.968 102.977 97.3015 100.601 94.356L100.527 94.9525C100.135 95.6754 97.3703 100.607 92.8163 100.969C89.1147 101.263 85.7787 98.4131 83.1121 96.1349C82.1723 95.3317 81.4462 94.5924 80.9456 94.0496C82.5122 94.1444 84.8058 94.1034 87.397 93.3314C89.4476 92.7199 90.1721 92.1018 91.5345 91.7214C93.2502 91.2424 95.7776 91.1981 99.3923 93.0482C97.4659 91.2229 95.0643 89.9325 92.6345 88.8189L91.8128 89.338C90.9727 89.4995 85.1842 90.5278 81.8916 87.105C79.2147 84.3226 79.307 79.7621 79.3807 76.1165C79.4064 74.8311 79.5227 73.7601 79.6287 73C80.5859 74.3219 82.1305 76.1389 84.4597 77.7128C86.3032 78.9589 87.2774 79.1332 88.4817 79.9778C90.1327 81.1361 92.0049 83.4081 92.8142 88.3233C95.2038 89.4221 97.5425 90.6789 99.4979 92.438C101.492 94.2309 102.819 96.4835 103.365 99.0502C103.569 97.15 104.306 93.7809 106.981 92.0761C109.881 90.2277 113.847 91.1095 117.018 91.8145C118.136 92.0633 119.051 92.3527 119.696 92.5791C118.373 93.1823 116.515 94.2119 114.731 95.9689C113.32 97.3595 112.996 98.18 112.046 99.0833C110.715 100.35 108.324 101.615 103.685 101.387L103.644 101.281C103.785 104.071 103.281 106.864 102.912 109.62C102.637 111.676 102.456 113.744 102.366 115.815L102.402 115.661C102.829 115.031 105.829 110.738 110.059 110.821C113.497 110.889 116.311 113.82 118.561 116.163C119.353 116.989 119.955 117.737 120.366 118.282C118.931 118.052 116.814 117.88 114.355 118.355C112.409 118.731 111.685 119.235 110.395 119.461C108.612 119.773 105.976 119.514 102.328 116.872C102.292 118.176 102.292 119.48 102.333 120.784C102.375 122.121 102.485 123.435 102.73 124.703C102.768 124.726 102.806 124.747 102.845 124.77L102.807 125.073C103.223 126.997 103.969 128.812 105.293 130.439C106.613 132.061 108.245 133.378 109.946 134.596L110.072 133.73C110.449 133.069 113.106 128.556 117.33 128.31C120.763 128.11 123.796 130.814 126.221 132.976C127.076 133.738 127.734 134.437 128.186 134.949C126.737 134.83 124.613 134.824 122.198 135.488C120.288 136.014 119.605 136.572 118.336 136.897C116.854 137.278 114.734 137.298 111.794 135.877C112.06 136.058 112.325 136.239 112.589 136.419C115.114 138.144 117.678 139.923 119.615 142.326C120.149 142.988 120.626 143.69 121.057 144.419L121.09 144.438L121.086 144.467C122.458 146.797 123.356 149.416 124.067 152.005C126.015 159.094 126.289 166.59 124.911 173.808C124.847 174.141 124.33 174.04 124.394 173.706Z" fill="#232531"/>
<path fill-rule="evenodd" clip-rule="evenodd" d="M157.887 183.354C156.399 182.097 153.963 182.703 152.722 184.198C151.48 185.693 151.193 187.769 151.236 189.718C151.306 192.871 152.042 195.725 152.942 198.673C151.01 196.477 148.998 194.351 146.927 192.296C145.557 190.936 144.155 189.607 142.725 188.306C145.529 184.942 147.303 180.727 147.734 176.368C147.897 174.716 147.773 172.817 146.502 171.749C145.017 170.501 142.58 171.108 141.337 172.596C140.094 174.085 139.803 176.15 139.844 178.089C139.912 181.346 140.698 184.279 141.64 187.331C137.189 183.375 132.456 179.73 127.443 176.523C129.612 172.793 130.662 168.418 130.4 164.109C130.299 162.452 129.876 160.597 128.451 159.744C126.787 158.748 124.477 159.733 123.486 161.4C122.494 163.067 122.535 165.152 122.883 167.06C123.446 170.152 124.622 172.843 125.974 175.6C120.637 172.303 114.799 169.373 108.605 168.265C108.476 168.242 108.346 168.225 108.217 168.202C109.876 164.167 110.308 159.632 109.424 155.359C109.087 153.733 108.403 151.957 106.872 151.317C105.082 150.568 102.937 151.873 102.194 153.664C101.45 155.455 101.789 157.513 102.405 159.352C103.491 162.593 105.226 165.259 107.141 168.029C99.9517 166.945 92.5316 167.181 85.3909 165.851C87.1214 161.764 87.5859 157.148 86.6859 152.801C86.3497 151.175 85.6654 149.4 84.134 148.759C82.3447 148.01 80.1993 149.315 79.4562 151.107C78.7126 152.898 79.0509 154.955 79.6673 156.794C80.7826 160.122 82.5823 162.844 84.5588 165.695C82.7802 165.331 81.0203 164.863 79.2873 164.242C75.7786 162.986 72.5734 160.989 69.7566 158.502C72.5958 154.958 74.3044 150.52 74.561 145.985C74.6546 144.328 74.4505 142.436 73.1356 141.422C71.6001 140.238 69.1902 140.947 68.0111 142.486C66.8316 144.025 66.6284 146.101 66.7501 148.037C66.9737 151.586 68.036 154.716 69.2316 158.029C64.7695 153.921 61.3374 148.573 59.313 143.003C61.4778 139.498 62.6453 135.378 62.6159 131.256C62.6039 129.596 62.2797 127.722 60.9036 126.794C59.2952 125.709 56.9358 126.57 55.8565 128.181C54.7772 129.792 54.7064 131.876 54.9515 133.801C55.3423 136.87 56.3463 139.582 57.5245 142.362C57.5092 142.473 57.5166 142.594 57.5609 142.724C59.1772 147.503 61.7726 151.929 65.0324 155.772C65.7515 156.62 66.5046 157.445 67.2887 158.243C63.607 156.658 59.4898 156.087 55.5187 156.64C53.8743 156.869 52.058 157.437 51.3182 158.923C50.4538 160.659 51.6155 162.885 53.3547 163.744C55.0939 164.603 57.1693 164.4 59.0451 163.905C62.543 162.982 65.4472 161.292 68.5228 159.441C70.2401 161.039 72.1044 162.476 74.1454 163.626C77.2367 165.369 80.5334 166.444 83.9299 167.15C79.8011 167.357 75.7327 168.741 72.349 171.119C70.9907 172.074 69.6332 173.407 69.6535 175.067C69.6767 177.006 71.7268 178.457 73.666 178.428C75.6056 178.398 77.3593 177.27 78.8025 175.974C81.5672 173.49 83.4049 170.572 85.3532 167.425C90.9886 168.427 96.8575 168.533 102.496 169.051C104.271 169.215 106.028 169.427 107.765 169.732C103.275 169.731 98.7933 171.135 95.1162 173.711C93.7566 174.664 92.3979 175.996 92.4157 177.655C92.4364 179.595 94.4844 181.048 96.424 181.021C98.3632 180.994 100.119 179.868 101.563 178.574C104.395 176.037 106.257 173.045 108.259 169.819C110.107 170.165 111.93 170.627 113.723 171.273C117.004 172.455 120.146 174.008 123.167 175.74C123.971 176.201 124.766 176.677 125.555 177.163C121.502 176.774 117.341 177.522 113.688 179.322C112.199 180.056 110.652 181.164 110.416 182.807C110.141 184.727 111.943 186.477 113.864 186.746C115.784 187.015 117.692 186.171 119.317 185.112C122.32 183.157 124.533 180.669 126.848 177.976C131.745 181.109 136.356 184.71 140.695 188.578C136.695 187.146 132.277 186.889 128.143 187.876C126.528 188.262 124.774 188.999 124.18 190.549C123.486 192.36 124.855 194.465 126.668 195.154C128.481 195.842 130.528 195.442 132.348 194.77C135.8 193.495 138.566 191.489 141.506 189.309C142.077 189.826 142.645 190.347 143.207 190.872C146.29 193.759 149.253 196.797 152.038 199.988C148.122 198.652 143.825 198.435 139.798 199.396C138.183 199.782 136.43 200.52 135.835 202.07C135.141 203.881 136.51 205.986 138.323 206.675C140.136 207.363 142.183 206.962 144.003 206.29C147.361 205.05 150.068 203.119 152.919 201.01C156.05 204.685 158.941 208.564 161.496 212.654C162.028 213.505 163.313 212.621 162.781 211.771C160.201 207.641 157.274 203.73 154.11 200.021C156.923 196.638 158.701 192.392 159.126 187.999C159.288 186.338 159.16 184.43 157.887 183.354Z" fill="#232531"/>
<path fill-rule="evenodd" clip-rule="evenodd" d="M417.401 174.38C417.401 175.653 416.894 176.798 416.074 177.631C415.253 178.461 414.13 178.971 412.883 178.971C411.636 178.971 410.513 178.461 409.692 177.631C408.872 176.798 408.365 175.653 408.365 174.38C408.365 173.107 408.872 171.962 409.692 171.13C410.513 170.299 411.636 169.789 412.883 169.789C414.13 169.789 415.253 170.299 416.074 171.13C416.894 171.962 417.401 173.107 417.401 174.38H418.81C418.81 172.729 418.148 171.226 417.077 170.141C416.008 169.056 414.521 168.38 412.883 168.38C411.246 168.38 409.758 169.056 408.688 170.141C407.618 171.226 406.956 172.729 406.956 174.38C406.956 176.032 407.618 177.535 408.688 178.62C409.758 179.705 411.246 180.38 412.883 180.38C414.521 180.38 416.008 179.705 417.077 178.62C418.148 177.535 418.81 176.032 418.81 174.38H418.105H417.401Z" fill="#9060EB"/>
<path fill-rule="evenodd" clip-rule="evenodd" d="M142.753 28.8804C142.753 30.6838 142.035 32.3058 140.874 33.4849C139.71 34.6616 138.119 35.3842 136.353 35.3842C134.586 35.3842 132.995 34.6616 131.832 33.4849C130.671 32.3058 129.953 30.6838 129.953 28.8804C129.953 27.0769 130.671 25.4549 131.832 24.2759C132.995 23.0991 134.586 22.3766 136.353 22.3755C138.119 22.3766 139.71 23.0991 140.874 24.2759C142.035 25.4549 142.753 27.0769 142.753 28.8804H144.749C144.749 26.5404 143.811 24.4111 142.294 22.8748C140.78 21.3373 138.672 20.3792 136.353 20.3804C134.033 20.3792 131.925 21.3373 130.41 22.8748C128.894 24.4111 127.956 26.5404 127.956 28.8804C127.956 31.2204 128.894 33.3496 130.41 34.8859C131.925 36.4234 134.033 37.3804 136.353 37.3804C138.672 37.3804 140.78 36.4234 142.294 34.8859C143.811 33.3496 144.749 31.2204 144.749 28.8804H143.75H142.753Z" fill="#9060EB"/>
<path fill-rule="evenodd" clip-rule="evenodd" d="M40.6005 23.3287C42.7682 24.0257 43.8984 25.1709 44.5872 27.3675C45.276 25.1719 46.4062 24.0257 48.573 23.3287C46.4072 22.6297 45.276 21.4845 44.5872 19.2889C43.8984 21.4845 42.7682 22.6297 40.6005 23.3287ZM44.5872 30.0026C43.8745 30.0026 43.265 29.5098 43.1035 28.8041C42.5169 26.2426 41.7125 25.4255 39.1837 24.8321C38.4872 24.6695 38 24.0509 38 23.3287C38 22.6065 38.4872 21.9869 39.1837 21.8233C41.7125 21.2309 42.5169 20.4148 43.1035 17.8532C43.265 17.1466 43.8745 16.6528 44.5872 16.6528C45.2999 16.6528 45.9104 17.1466 46.0718 17.8532C46.6565 20.4138 47.4628 21.2309 49.9917 21.8233C50.6881 21.9869 51.1744 22.6065 51.1744 23.3287C51.1744 24.0509 50.6881 24.6695 49.9917 24.8321C47.4628 25.4255 46.6565 26.2426 46.0718 28.8032C45.9104 29.5098 45.2999 30.0026 44.5872 30.0026Z" fill="#F36A4E"/>
<path fill-rule="evenodd" clip-rule="evenodd" d="M90.3073 48.9029C88.7156 48.9029 87.4202 50.2156 87.4202 51.8284C87.4202 53.4422 88.7156 54.7549 90.3073 54.7549C91.8998 54.7549 93.1944 53.4422 93.1944 51.8284C93.1944 50.2156 91.8998 48.9029 90.3073 48.9029ZM90.3073 56.5836C87.7201 56.5836 85.6155 54.45 85.6155 51.8284C85.6155 49.2069 87.7201 47.0742 90.3073 47.0742C92.8953 47.0742 95 49.2069 95 51.8284C95 54.45 92.8953 56.5836 90.3073 56.5836Z" fill="#EE9C40"/>
<path fill-rule="evenodd" clip-rule="evenodd" d="M76.4756 17.8353C75.9778 17.8353 75.5737 17.4248 75.5737 16.9205V14.4983C75.5737 13.993 75.9778 13.5835 76.4756 13.5835C76.9743 13.5835 77.3784 13.993 77.3784 14.4983V16.9205C77.3784 17.4248 76.9743 17.8353 76.4756 17.8353Z" fill="#1A110F"/>
<path fill-rule="evenodd" clip-rule="evenodd" d="M76.4756 24.307C75.9778 24.307 75.5737 23.8975 75.5737 23.3912V20.969C75.5737 20.4647 75.9778 20.0552 76.4756 20.0552C76.9743 20.0552 77.3784 20.4647 77.3784 20.969V23.3912C77.3784 23.8975 76.9743 24.307 76.4756 24.307Z" fill="#1A110F"/>
<path fill-rule="evenodd" clip-rule="evenodd" d="M74.5898 19.6514H72.1994C71.7007 19.6514 71.2966 19.2419 71.2966 18.7376C71.2966 18.2313 71.7007 17.8218 72.1994 17.8218H74.5898C75.0885 17.8218 75.4926 18.2313 75.4926 18.7376C75.4926 19.2419 75.0885 19.6514 74.5898 19.6514Z" fill="#1A110F"/>
<path fill-rule="evenodd" clip-rule="evenodd" d="M80.7519 19.6514H78.3616C77.8629 19.6514 77.4587 19.2419 77.4587 18.7376C77.4587 18.2313 77.8629 17.8218 78.3616 17.8218H80.7519C81.2506 17.8218 81.6547 18.2313 81.6547 18.7376C81.6547 19.2419 81.2506 19.6514 80.7519 19.6514Z" fill="#1A110F"/>
<path fill-rule="evenodd" clip-rule="evenodd" d="M61.98 49.0628C61.4822 49.0628 61.0781 48.6533 61.0781 48.148V45.7259C61.0781 45.2205 61.4822 44.811 61.98 44.811C62.4787 44.811 62.8838 45.2205 62.8838 45.7259V48.148C62.8838 48.6533 62.4787 49.0628 61.98 49.0628Z" fill="#1A110F"/>
<path fill-rule="evenodd" clip-rule="evenodd" d="M61.98 55.5335C61.4822 55.5335 61.0781 55.124 61.0781 54.6197V52.1976C61.0781 51.6932 61.4822 51.2837 61.98 51.2837C62.4787 51.2837 62.8838 51.6932 62.8838 52.1976V54.6197C62.8838 55.124 62.4787 55.5335 61.98 55.5335Z" fill="#1A110F"/>
<path fill-rule="evenodd" clip-rule="evenodd" d="M60.0949 50.879H57.7046C57.2049 50.879 56.8008 50.4695 56.8008 49.9642C56.8008 49.4598 57.2049 49.0503 57.7046 49.0503H60.0949C60.5926 49.0503 60.9967 49.4598 60.9967 49.9642C60.9967 50.4695 60.5926 50.879 60.0949 50.879Z" fill="#1A110F"/>
<path fill-rule="evenodd" clip-rule="evenodd" d="M66.257 50.879H63.8667C63.368 50.879 62.9639 50.4695 62.9639 49.9642C62.9639 49.4598 63.368 49.0503 63.8667 49.0503H66.257C66.7547 49.0503 67.1589 49.4598 67.1589 49.9642C67.1589 50.4695 66.7547 50.879 66.257 50.879Z" fill="#1A110F"/>
<path fill-rule="evenodd" clip-rule="evenodd" d="M296.635 183.354C298.123 182.097 300.559 182.703 301.801 184.198C303.042 185.693 303.33 187.769 303.286 189.718C303.216 192.871 302.48 195.725 301.58 198.673C303.513 196.477 305.524 194.351 307.596 192.296C308.965 190.936 310.367 189.607 311.797 188.306C308.993 184.942 307.219 180.727 306.788 176.368C306.625 174.716 306.749 172.817 308.02 171.749C309.505 170.501 311.942 171.108 313.185 172.596C314.429 174.085 314.719 176.15 314.678 178.089C314.61 181.346 313.824 184.279 312.882 187.331C317.333 183.375 322.065 179.73 327.079 176.523C324.91 172.793 323.86 168.418 324.122 164.109C324.223 162.452 324.647 160.597 326.071 159.744C327.735 158.748 330.044 159.733 331.036 161.4C332.028 163.067 331.987 165.152 331.639 167.06C331.076 170.152 329.9 172.843 328.548 175.6C333.886 172.303 339.723 169.373 345.917 168.265C346.046 168.242 346.176 168.225 346.305 168.202C344.646 164.167 344.214 159.632 345.098 155.359C345.435 153.733 346.119 151.957 347.65 151.317C349.44 150.568 351.585 151.873 352.328 153.664C353.072 155.455 352.733 157.513 352.117 159.352C351.031 162.593 349.296 165.259 347.381 168.029C354.57 166.945 361.99 167.181 369.131 165.851C367.401 161.764 366.936 157.148 367.836 152.801C368.172 151.175 368.857 149.4 370.388 148.759C372.177 148.01 374.323 149.315 375.066 151.107C375.809 152.898 375.471 154.955 374.855 156.794C373.739 160.122 371.94 162.844 369.963 165.695C371.742 165.331 373.502 164.863 375.235 164.242C378.741 162.986 381.95 160.989 384.765 158.502C381.925 154.958 380.219 150.52 379.963 145.985C379.867 144.328 380.07 142.436 381.387 141.422C382.923 140.238 385.332 140.947 386.512 142.486C387.692 144.025 387.895 146.101 387.771 148.037C387.547 151.586 386.487 154.716 385.291 158.029C389.754 153.921 393.186 148.573 395.21 143.003C393.045 139.498 391.878 135.378 391.907 131.256C391.919 129.596 392.242 127.722 393.62 126.794C395.227 125.709 397.587 126.57 398.667 128.181C399.744 129.792 399.814 131.876 399.57 133.801C399.181 136.87 398.175 139.582 396.999 142.362C397.011 142.473 397.007 142.594 396.961 142.724C395.343 147.503 392.751 151.929 389.489 155.772C388.773 156.62 388.019 157.445 387.232 158.243C390.917 156.658 395.032 156.087 399.003 156.64C400.646 156.869 402.464 157.437 403.205 158.923C404.07 160.659 402.907 162.885 401.168 163.744C399.429 164.603 397.355 164.4 395.475 163.905C391.981 162.982 389.075 161.292 385.999 159.441C384.281 161.039 382.418 162.476 380.377 163.626C377.284 165.369 373.989 166.444 370.592 167.15C374.721 167.357 378.791 168.741 382.173 171.119C383.531 172.074 384.889 173.407 384.869 175.067C384.844 177.006 382.794 178.457 380.857 178.428C378.915 178.398 377.164 177.27 375.72 175.974C372.955 173.49 371.117 170.572 369.169 167.425C363.534 168.427 357.665 168.533 352.026 169.051C350.251 169.215 348.494 169.427 346.757 169.732C351.246 169.731 355.729 171.135 359.406 173.711C360.765 174.664 362.124 175.996 362.107 177.655C362.086 179.595 360.038 181.048 358.098 181.021C356.159 180.994 354.403 179.868 352.959 178.574C350.128 176.037 348.265 173.045 346.263 169.819C344.415 170.165 342.592 170.627 340.799 171.273C337.518 172.455 334.377 174.008 331.355 175.74C330.551 176.201 329.756 176.677 328.968 177.163C333.02 176.774 337.181 177.522 340.834 179.322C342.323 180.056 343.87 181.164 344.106 182.807C344.381 184.727 342.579 186.477 340.658 186.746C338.738 187.015 336.831 186.171 335.205 185.112C332.202 183.157 329.989 180.669 327.674 177.976C322.777 181.109 318.166 184.71 313.827 188.578C317.827 187.146 322.245 186.889 326.379 187.876C327.994 188.262 329.748 188.999 330.342 190.549C331.036 192.36 329.667 194.465 327.854 195.154C326.041 195.842 323.994 195.442 322.175 194.77C318.722 193.495 315.956 191.489 313.016 189.309C312.445 189.826 311.877 190.347 311.315 190.872C308.232 193.759 305.269 196.797 302.484 199.988C306.401 198.652 310.697 198.435 314.724 199.396C316.339 199.782 318.093 200.52 318.687 202.07C319.382 203.881 318.012 205.986 316.199 206.675C314.386 207.363 312.339 206.962 310.52 206.29C307.161 205.05 304.454 203.119 301.603 201.01C298.472 204.685 295.582 208.564 293.027 212.654C292.494 213.505 291.21 212.621 291.741 211.771C294.321 207.641 297.248 203.73 300.412 200.021C297.599 196.638 295.821 192.392 295.396 187.999C295.235 186.338 295.362 184.43 296.635 183.354Z" fill="#232531"/>
<path fill-rule="evenodd" clip-rule="evenodd" d="M385.391 60.3433L385.398 60.4394C385.413 60.5036 385.467 60.6574 385.654 60.7074L391.607 62.3305C391.797 62.3844 391.929 62.2812 391.979 62.236C392.028 62.1911 392.136 62.0627 392.095 61.8732L390.787 55.8932C390.746 55.7037 390.595 55.6439 390.534 55.6285C390.47 55.6091 390.308 55.5838 390.162 55.723L385.517 60.0801C385.421 60.168 385.393 60.2658 385.391 60.3433ZM393.518 61.9704C393.497 62.4362 393.292 62.8879 392.928 63.2293C392.444 63.6773 391.789 63.8468 391.174 63.6815L385.218 62.0551C384.6 61.8856 384.153 61.4178 384.016 60.7971C383.883 60.1793 384.087 59.5384 384.568 59.0868L389.214 54.7294C389.695 54.2775 390.353 54.1116 390.967 54.2772C391.585 54.4467 392.035 54.9181 392.168 55.5355L393.48 61.5194C393.51 61.6668 393.524 61.82 393.518 61.9704Z" fill="#FF91DA"/>
<path fill-rule="evenodd" clip-rule="evenodd" d="M100.367 228.449L100.378 228.544C100.397 228.608 100.459 228.758 100.649 228.799L106.678 230.108C106.871 230.152 106.998 230.042 107.045 229.994C107.092 229.947 107.193 229.813 107.142 229.626L105.522 223.722C105.472 223.535 105.318 223.483 105.256 223.471C105.191 223.455 105.028 223.438 104.89 223.585L100.479 228.179C100.387 228.272 100.365 228.371 100.367 228.449ZM108.568 229.648C108.572 230.115 108.39 230.576 108.045 230.936C107.584 231.409 106.94 231.613 106.317 231.48L100.283 230.167C99.6576 230.03 99.1871 229.587 99.0175 228.974C98.8523 228.364 99.023 227.713 99.4794 227.237L103.89 222.642C104.347 222.166 104.996 221.966 105.618 222.099C106.244 222.236 106.718 222.683 106.883 223.293L108.506 229.2C108.544 229.346 108.566 229.498 108.568 229.648Z" fill="#FF91DA"/>
<path fill-rule="evenodd" clip-rule="evenodd" d="M362.293 37.2199L365.201 36.5936C365.862 36.4514 366.282 35.8005 366.14 35.1405C365.998 34.4803 365.347 34.0598 364.687 34.2021L361.777 34.829L361.151 31.9194C361.009 31.2595 360.358 30.8387 359.698 30.9813C359.037 31.1235 358.617 31.7741 358.76 32.4344L359.386 35.344L356.482 35.9691C355.822 36.1114 355.401 36.7619 355.544 37.4222C355.615 37.7527 355.813 38.0224 356.076 38.1925C356.339 38.3623 356.667 38.4315 356.997 38.3607L359.901 37.7352L360.526 40.639C360.598 40.9692 360.795 41.2392 361.059 41.409C361.322 41.5791 361.649 41.6483 361.98 41.5772C362.64 41.4356 363.06 40.7847 362.918 40.1244L362.293 37.2199Z" fill="#FFB86B"/>
<path fill-rule="evenodd" clip-rule="evenodd" d="M26.9468 140.755C25.1577 141.376 24.2074 143.338 24.8286 145.127C25.4502 146.916 27.4116 147.866 29.2006 147.245C30.9897 146.624 31.9401 144.662 31.3184 142.873C30.6972 141.084 28.7354 140.134 26.9468 140.755ZM29.7138 148.723C27.1099 149.627 24.2553 148.245 23.3508 145.641C22.4464 143.036 23.8293 140.182 26.4332 139.277C29.0376 138.373 31.8922 139.756 32.7966 142.36C33.7011 144.964 32.3182 147.819 29.7138 148.723Z" fill="#736FC7"/>
<path fill-rule="evenodd" clip-rule="evenodd" d="M227.574 0L121.074 70.9978V213H334.074V70.9978L227.574 0Z" fill="#9AA4B6"/>
<g filter="url(#filter0_d_0_2415)">
<path fill-rule="evenodd" clip-rule="evenodd" d="M136.021 213H319.127V29.8911H136.021V213Z" fill="white"/>
</g>
<rect x="149.074" y="52" width="157" height="4" rx="2" fill="#3D138D"/>
<rect x="149.074" y="43" width="43" height="4" rx="2" fill="#3D138D"/>
<rect x="149.074" y="61" width="157" height="4" rx="2" fill="#3D138D"/>
<path fill-rule="evenodd" clip-rule="evenodd" d="M334.074 213H121.074V70.9976L334.074 213Z" fill="#E4E9F2"/>
<path fill-rule="evenodd" clip-rule="evenodd" d="M121.074 213H334.074V70.9976L121.074 213Z" fill="#E4E9F2"/>
<defs>
<filter id="filter0_d_0_2415" x="131.021" y="21.8911" width="193.105" height="193.109" filterUnits="userSpaceOnUse" color-interpolation-filters="sRGB">
<feFlood flood-opacity="0" result="BackgroundImageFix"/>
<feColorMatrix in="SourceAlpha" type="matrix" values="0 0 0 0 0 0 0 0 0 0 0 0 0 0 0 0 0 0 127 0" result="hardAlpha"/>
<feOffset dy="-3"/>
<feGaussianBlur stdDeviation="2.5"/>
<feColorMatrix type="matrix" values="0 0 0 0 0.1634 0 0 0 0 0.0600352 0 0 0 0 0.360734 0 0 0 0.286222 0"/>
<feBlend mode="normal" in2="BackgroundImageFix" result="effect1_dropShadow_0_2415"/>
<feBlend mode="normal" in="SourceGraphic" in2="effect1_dropShadow_0_2415" result="shape"/>
</filter>
</defs>
</svg>