<svg width="911" height="719" viewBox="0 0 911 719" fill="none" xmlns="http://www.w3.org/2000/svg">
<path fill-rule="evenodd" clip-rule="evenodd" d="M202.496 146.855H586.205V145.15H202.496V146.855Z" fill="#FFF7F4"/>
<path fill-rule="evenodd" clip-rule="evenodd" d="M581.395 338.095H207.307C206.212 338.094 205.228 337.653 204.508 336.934C203.791 336.213 203.35 335.226 203.349 334.127V115.369C203.35 114.269 203.791 113.283 204.508 112.562C205.228 111.842 206.212 111.401 207.307 111.4H581.395C582.49 111.401 583.474 111.843 584.192 112.562C584.911 113.283 585.352 114.269 585.353 115.369V334.127C585.352 335.226 584.911 336.213 584.192 336.934C583.474 337.653 582.49 338.094 581.395 338.095V339.801C584.525 339.8 587.057 337.259 587.058 334.127V115.369C587.057 112.236 584.525 109.696 581.395 109.695H207.307C204.177 109.696 201.645 112.236 201.644 115.369V334.127C201.645 337.259 204.177 339.8 207.307 339.801H581.395V338.948V338.095Z" fill="#FFF7F4"/>
<path fill-rule="evenodd" clip-rule="evenodd" d="M191.708 63.4742H137.917C136.586 63.4742 135.507 62.3951 135.507 61.0642V61.0593C135.507 59.7273 136.586 58.6482 137.917 58.6482H191.708C193.039 58.6482 194.118 59.7273 194.118 61.0593V61.0642C194.118 62.3951 193.039 63.4742 191.708 63.4742Z" fill="#D9A29D"/>
<path fill-rule="evenodd" clip-rule="evenodd" d="M712.168 170.339H688.964C687.633 170.339 686.554 169.26 686.554 167.929V167.923C686.554 166.593 687.633 165.513 688.964 165.513H712.168C713.5 165.513 714.578 166.593 714.578 167.923V167.929C714.578 169.26 713.5 170.339 712.168 170.339Z" fill="#D9A29D"/>
<path fill-rule="evenodd" clip-rule="evenodd" d="M123.541 345.179H100.337C99.0054 345.179 97.9263 344.1 97.9263 342.768V342.764C97.9263 341.433 99.0054 340.353 100.337 340.353H123.541C124.872 340.353 125.951 341.433 125.951 342.764V342.768C125.951 344.1 124.872 345.179 123.541 345.179Z" fill="#D9A29D"/>
<path fill-rule="evenodd" clip-rule="evenodd" d="M628.518 345.639H581.913C580.627 345.639 579.585 344.597 579.585 343.311V343.305C579.585 342.021 580.627 340.978 581.913 340.978H628.518C629.803 340.978 630.846 342.021 630.846 343.305V343.311C630.846 344.597 629.803 345.639 628.518 345.639Z" fill="#D9A29D"/>
<path fill-rule="evenodd" clip-rule="evenodd" d="M307.113 60.2242H302.752C301.603 60.2242 300.672 59.2931 300.672 58.1454V54.0329C300.672 52.8842 301.603 51.9531 302.752 51.9531H307.113C308.262 51.9531 309.193 52.8842 309.193 54.0329V58.1454C309.193 59.2931 308.262 60.2242 307.113 60.2242Z" fill="#D9A29D"/>
<path fill-rule="evenodd" clip-rule="evenodd" d="M237.516 60.6731H236.649C236.648 62.2412 236.023 63.6516 235.014 64.6758C234.003 65.7 232.62 66.3273 231.084 66.3283C229.547 66.3273 228.164 65.7 227.153 64.6758C226.143 63.6516 225.519 62.2412 225.519 60.6731C225.519 59.1049 226.143 57.6946 227.153 56.6694C228.164 55.6462 229.547 55.0179 231.084 55.0179C232.62 55.0179 234.003 55.6462 235.014 56.6694C236.023 57.6946 236.648 59.1049 236.649 60.6731H238.384C238.384 58.6384 237.569 56.787 236.25 55.4511C234.933 54.1133 233.1 53.2812 231.084 53.2822C229.067 53.2812 227.234 54.1133 225.917 55.4511C224.598 56.787 223.782 58.6384 223.783 60.6731C223.782 62.7078 224.598 64.5592 225.917 65.8951C227.234 67.2319 229.067 68.064 231.084 68.064C233.1 68.064 234.933 67.2319 236.25 65.8951C237.569 64.5592 238.384 62.7078 238.384 60.6731H237.516Z" fill="#FFF7F4"/>
<path fill-rule="evenodd" clip-rule="evenodd" d="M684.749 342.771C684.749 344.339 684.124 345.75 683.115 346.775C682.103 347.798 680.719 348.427 679.184 348.427C677.648 348.427 676.264 347.798 675.252 346.775C674.243 345.75 673.619 344.339 673.619 342.771C673.619 341.203 674.243 339.793 675.252 338.768C676.264 337.744 677.648 337.116 679.184 337.115C680.719 337.116 682.103 337.744 683.115 338.768C684.124 339.793 684.749 341.203 684.749 342.771H686.484C686.484 340.737 685.669 338.885 684.35 337.549C683.033 336.213 681.201 335.379 679.184 335.38C677.167 335.379 675.334 336.213 674.016 337.549C672.698 338.885 671.883 340.737 671.883 342.771C671.883 344.806 672.698 346.657 674.016 347.993C675.334 349.33 677.167 350.162 679.184 350.162C681.201 350.162 683.033 349.33 684.35 347.993C685.669 346.657 686.484 344.806 686.484 342.771H685.616H684.749Z" fill="#FFF7F4"/>
<path fill-rule="evenodd" clip-rule="evenodd" d="M109.127 224.507H108.259C108.259 226.074 107.634 227.485 106.625 228.509C105.613 229.534 104.229 230.162 102.694 230.162C101.158 230.162 99.7739 229.534 98.7624 228.509C97.7529 227.485 97.1286 226.074 97.1286 224.507C97.1286 222.938 97.7529 221.528 98.7624 220.503C99.7739 219.479 101.158 218.851 102.694 218.85C104.229 218.851 105.613 219.479 106.625 220.503C107.634 221.528 108.259 222.938 108.259 224.507H109.994C109.994 222.471 109.179 220.621 107.86 219.285C106.542 217.947 104.71 217.115 102.694 217.116C100.677 217.115 98.8438 217.947 97.5265 219.285C96.2083 220.621 95.3928 222.471 95.3928 224.507C95.3928 226.541 96.2083 228.392 97.5265 229.729C98.8438 231.065 100.677 231.898 102.694 231.898C104.71 231.898 106.542 231.065 107.86 229.729C109.179 228.392 109.994 226.541 109.994 224.507H109.127Z" fill="#FFF7F4"/>
<path fill-rule="evenodd" clip-rule="evenodd" d="M237.907 191.457H105.957C102.494 191.457 99.6855 188.649 99.6855 185.184V93.5104C99.6855 90.0467 102.494 87.2387 105.957 87.2387H237.907C241.371 87.2387 244.179 90.0467 244.179 93.5104V185.184C244.179 188.649 241.371 191.457 237.907 191.457Z" fill="#9060EB"/>
<path fill-rule="evenodd" clip-rule="evenodd" d="M187.343 24.8346H181.729C181.639 24.8346 181.563 24.8607 181.514 24.9039L181.478 24.9417C181.414 25.0074 181.374 25.0965 181.374 25.1901V42.9165C181.374 43.0119 181.414 43.1001 181.478 43.1676C181.547 43.2333 181.635 43.272 181.729 43.272H187.343C187.432 43.272 187.507 43.2486 187.554 43.2081L187.592 43.1676C187.659 43.101 187.698 43.0101 187.698 42.9165V25.1901C187.698 25.0956 187.658 25.0056 187.591 24.939C187.525 24.8733 187.436 24.8346 187.343 24.8346ZM190.836 39.8079C192.25 41.2344 194.626 43.1073 196.646 43.1073H208.995C210.79 43.1073 212.252 41.8824 212.593 40.1112C212.691 39.6405 212.997 39.2418 213.427 39.0258C214.568 38.4561 214.602 36.5814 214.437 35.5356C214.308 34.9335 214.546 34.3179 215.044 33.9507C216.533 32.8545 216.028 30.4713 215.391 29.0565C215.199 28.7028 215.155 28.2996 215.259 27.9108C215.41 27.351 215.524 26.7498 215.524 26.1684C215.524 25.6563 215.433 25.0902 215.082 24.6924C214.787 24.3558 214.342 24.1614 213.917 24.0471C213.443 23.9184 212.932 23.8725 212.442 23.8725H205.705C204.202 23.8725 202.985 23.3775 202.373 21.9024C201.669 20.2032 202.326 17.649 202.847 15.984C203.096 15.1857 203.23 14.3568 203.231 13.5198C203.233 12.3381 202.957 11.1213 202.37 10.0899C202.189 9.76678 201.682 9.00178 201.294 8.83798H200.246C200.208 10.8828 200.067 12.9987 199.518 14.9598C198.783 17.5788 197.38 19.6461 194.942 20.9583C192.619 22.2102 191.233 25.2477 190.836 27.7731V39.8079ZM189.43 22.3947C190.376 20.6613 191.691 19.1493 193.456 18.1989C195.11 17.3088 196.004 15.8841 196.499 14.1138C197.096 11.9835 197.121 9.47068 197.121 7.26838C197.121 6.40258 197.824 5.69968 198.69 5.69968H201.376C201.65 5.69968 201.923 5.74738 202.184 5.82838C203.425 6.21718 204.477 7.44928 205.097 8.54278C205.947 10.044 206.364 11.7999 206.367 13.5198C206.368 14.6745 206.183 15.8166 205.84 16.9164C205.601 17.6796 204.941 19.9089 205.247 20.6712C205.326 20.7252 205.615 20.7351 205.705 20.7351H212.442C213.21 20.7351 213.988 20.8188 214.73 21.0186C215.771 21.2985 216.72 21.8106 217.438 22.6278C218.312 23.6232 218.663 24.8598 218.663 26.1684C218.663 26.847 218.568 27.5292 218.42 28.1916C219.391 30.6936 219.585 33.8049 217.613 35.8524C217.737 37.9206 217.225 40.1769 215.47 41.4378C214.514 44.3556 212.169 46.2456 208.995 46.2456H196.646C194.537 46.2456 192.429 45.1287 190.713 43.8336C190.553 44.4177 190.239 44.9568 189.791 45.405L189.737 45.4554C189.088 46.0683 188.236 46.4103 187.343 46.4103H181.729C180.802 46.4103 179.917 46.0422 179.26 45.3852C178.605 44.7291 178.237 43.8453 178.237 42.9165V25.1901C178.237 24.2622 178.605 23.3775 179.283 22.6998L179.336 22.6539C179.983 22.0401 180.838 21.6963 181.729 21.6963H187.343C188.102 21.6963 188.83 21.9456 189.43 22.3947Z" fill="#FFFFFE"/>
<path fill-rule="evenodd" clip-rule="evenodd" d="M118.668 133.524H225.362V103.193H118.668V133.524Z" fill="#FFFEFB"/>
<path fill-rule="evenodd" clip-rule="evenodd" d="M118.668 173.4H225.362V143.069H118.668V173.4Z" fill="#FFFEFB"/>
<path fill-rule="evenodd" clip-rule="evenodd" d="M157.32 115.857H209.252V114.949H157.32V115.857Z" fill="#FFD6CF"/>
<path fill-rule="evenodd" clip-rule="evenodd" d="M157.32 122.675H190.988V121.768H157.32V122.675Z" fill="#FFD6CF"/>
<path fill-rule="evenodd" clip-rule="evenodd" d="M157.32 154.296H209.252V153.389H157.32V154.296Z" fill="#FFD6CF"/>
<path fill-rule="evenodd" clip-rule="evenodd" d="M157.32 161.115H190.988V160.207H157.32V161.115Z" fill="#FFD6CF"/>
<path fill-rule="evenodd" clip-rule="evenodd" d="M148.523 118.359C148.523 123.884 144.044 128.363 138.519 128.363C132.995 128.363 128.516 123.884 128.516 118.359C128.516 112.834 132.995 108.355 138.519 108.355C144.044 108.355 148.523 112.834 148.523 118.359Z" fill="#9060EB"/>
<path fill-rule="evenodd" clip-rule="evenodd" d="M133.56 119.557L137.305 122.292C137.679 122.565 138.204 122.494 138.492 122.129L142.947 116.471C143.241 116.097 143.177 115.554 142.802 115.26C142.429 114.965 141.886 115.029 141.591 115.404L137.651 120.408L134.578 118.163C134.193 117.883 133.653 117.966 133.373 118.351C133.091 118.735 133.176 119.275 133.56 119.557Z" fill="white"/>
<path fill-rule="evenodd" clip-rule="evenodd" d="M148.523 158.235C148.523 163.76 144.044 168.239 138.519 168.239C132.995 168.239 128.516 163.76 128.516 158.235C128.516 152.71 132.995 148.231 138.519 148.231C144.044 148.231 148.523 152.71 148.523 158.235Z" fill="#9060EB"/>
<path fill-rule="evenodd" clip-rule="evenodd" d="M133.56 159.433L137.305 162.168C137.679 162.442 138.204 162.37 138.492 162.006L142.947 156.348C143.241 155.973 143.177 155.43 142.802 155.136C142.429 154.841 141.886 154.906 141.591 155.28L137.651 160.285L134.578 158.04C134.193 157.759 133.653 157.842 133.373 158.227C133.091 158.613 133.176 159.152 133.56 159.433Z" fill="white"/>
<path fill-rule="evenodd" clip-rule="evenodd" d="M253.686 295.822H159.555C157.113 295.822 155.132 293.84 155.132 291.397V229.228C155.132 226.784 157.113 224.804 159.555 224.804H253.686C256.129 224.804 258.11 226.784 258.11 229.228V291.397C258.11 293.84 256.129 295.822 253.686 295.822Z" fill="#6FFFB0"/>
<path fill-rule="evenodd" clip-rule="evenodd" d="M253.686 295.822V294.969H159.555C158.566 294.969 157.679 294.57 157.03 293.922C156.383 293.273 155.985 292.386 155.984 291.397V229.228C155.985 228.239 156.383 227.351 157.03 226.702C157.679 226.054 158.566 225.656 159.555 225.656H253.686C254.675 225.656 255.562 226.054 256.212 226.702C256.859 227.351 257.256 228.239 257.257 229.228V291.397C257.256 292.386 256.859 293.273 256.212 293.922C255.562 294.57 254.675 294.969 253.686 294.969V296.674C256.601 296.673 258.962 294.311 258.963 291.397V229.228C258.962 226.313 256.601 223.952 253.686 223.951H159.555C156.641 223.952 154.279 226.313 154.279 229.228V291.397C154.279 294.311 156.641 296.673 159.555 296.674H253.686V295.822Z" fill="#FFF7F4"/>
<path fill-rule="evenodd" clip-rule="evenodd" d="M228.297 308.565H134.167C131.723 308.565 129.743 306.583 129.743 304.141V241.971C129.743 239.528 131.723 237.547 134.167 237.547H228.297C230.741 237.547 232.722 239.528 232.722 241.971V304.141C232.722 306.583 230.741 308.565 228.297 308.565Z" fill="#FFD6CF"/>
<path fill-rule="evenodd" clip-rule="evenodd" d="M228.297 308.565H134.167C131.723 308.565 129.743 306.583 129.743 304.141V241.971C129.743 239.528 131.723 237.547 134.167 237.547H228.297C230.741 237.547 232.722 239.528 232.722 241.971V304.141C232.722 306.583 230.741 308.565 228.297 308.565Z" fill="#232531"/>
<path fill-rule="evenodd" clip-rule="evenodd" d="M697.645 145.987H583.975C578.771 145.987 574.552 141.769 574.552 136.564V63.8143H707.067V136.564C707.067 141.769 702.848 145.987 697.645 145.987Z" fill="white"/>
<path fill-rule="evenodd" clip-rule="evenodd" d="M707.067 47.4711V63.8143H574.552V47.4711C574.552 44.2241 577.185 41.5925 580.432 41.5925H701.189C704.436 41.5925 707.067 44.2241 707.067 47.4711Z" fill="#232531"/>
<path fill-rule="evenodd" clip-rule="evenodd" d="M652.832 51.7405C652.832 54.4308 655.013 56.6115 657.704 56.6115C660.394 56.6115 662.576 54.4308 662.576 51.7405C662.576 49.0501 660.394 46.8694 657.704 46.8694C655.013 46.8694 652.832 49.0501 652.832 51.7405Z" fill="#FFE7E3"/>
<path fill-rule="evenodd" clip-rule="evenodd" d="M657.704 53.5693C659.246 53.5693 660.497 52.3197 660.497 50.778V38.1651C660.497 36.6234 659.246 35.3728 657.704 35.3728C656.162 35.3728 654.911 36.6234 654.911 38.1651V50.778C654.911 52.3197 656.162 53.5693 657.704 53.5693Z" fill="#9060EB"/>
<path fill-rule="evenodd" clip-rule="evenodd" d="M610.313 51.7405C610.313 54.4308 612.495 56.6115 615.185 56.6115C617.875 56.6115 620.057 54.4308 620.057 51.7405C620.057 49.0501 617.875 46.8694 615.185 46.8694C612.495 46.8694 610.313 49.0501 610.313 51.7405Z" fill="#FFE7E3"/>
<path fill-rule="evenodd" clip-rule="evenodd" d="M615.185 53.5693C616.727 53.5693 617.977 52.3197 617.977 50.778V38.1651C617.977 36.6234 616.727 35.3728 615.185 35.3728C613.643 35.3728 612.393 36.6234 612.393 38.1651V50.778C612.393 52.3197 613.643 53.5693 615.185 53.5693Z" fill="#9060EB"/>
<path fill-rule="evenodd" clip-rule="evenodd" d="M643.123 100.203V100.719H663.331V79.9958H642.607V100.719H643.123V100.203H643.638V81.0268H662.3V99.6879H643.123V100.203H643.638H643.123Z" fill="#FFD6CF"/>
<path fill-rule="evenodd" clip-rule="evenodd" d="M616.924 100.203V100.719H637.131V79.9958H616.408V100.719H616.924V100.203H617.438V81.0268H636.1V99.6879H616.924V100.203H617.438H616.924Z" fill="#FFD6CF"/>
<path fill-rule="evenodd" clip-rule="evenodd" d="M590.724 100.203V100.719H610.932V79.9958H590.208V100.719H590.724V100.203H591.239V81.0268H609.901V99.6879H590.724V100.203H591.239H590.724Z" fill="#FFD6CF"/>
<path fill-rule="evenodd" clip-rule="evenodd" d="M643.123 125.2V125.715H663.331V104.992H642.607V125.715H643.123V125.2H643.638V106.023H662.3V124.684H643.123V125.2H643.638H643.123Z" fill="#FFD6CF"/>
<path fill-rule="evenodd" clip-rule="evenodd" d="M616.924 125.2H636.616V105.508H616.924V125.2Z" fill="#232531"/>
<path fill-rule="evenodd" clip-rule="evenodd" d="M669.446 100.203V100.719H689.654V79.9958H668.931V100.719H669.446V100.203H669.962V81.0268H688.623V99.6879H669.446V100.203H669.962H669.446Z" fill="#FFD6CF"/>
<path fill-rule="evenodd" clip-rule="evenodd" d="M669.446 125.2V125.715H689.654V104.992H668.931V125.715H669.446V125.2H669.962V106.023H688.623V124.684H669.446V125.2H669.962H669.446Z" fill="#FFD6CF"/>
<path fill-rule="evenodd" clip-rule="evenodd" d="M590.724 125.2V125.715H610.932V104.992H590.208V125.715H590.724V125.2H591.239V106.023H609.901V124.684H590.724V125.2H591.239H590.724Z" fill="#FFD6CF"/>
<path fill-rule="evenodd" clip-rule="evenodd" d="M537.059 98.3844C537.059 118.089 521.086 134.062 501.382 134.062C481.677 134.062 465.703 118.089 465.703 98.3844C465.703 78.6805 481.677 62.7068 501.382 62.7068C521.086 62.7068 537.059 78.6805 537.059 98.3844Z" fill="#FFFEFB"/>
<path fill-rule="evenodd" clip-rule="evenodd" d="M483.508 109.457H519.255V87.0711H483.508V109.457Z" fill="#232531"/>
<path fill-rule="evenodd" clip-rule="evenodd" d="M483.185 87.5661L500.538 98.8793C500.729 99.0038 500.976 99.0077 501.171 98.8882L519.564 87.5749C519.843 87.4034 519.929 87.0397 519.758 86.7614C519.587 86.483 519.223 86.3968 518.945 86.5673L500.87 97.6846L483.831 86.5762C483.557 86.3978 483.191 86.4752 483.012 86.7487C482.834 87.0221 482.912 87.3877 483.185 87.5661Z" fill="white"/>
<path fill-rule="evenodd" clip-rule="evenodd" d="M482.835 70.6035C482.835 79.294 475.789 86.338 467.1 86.338C458.41 86.338 451.366 79.294 451.366 70.6035C451.366 61.9139 458.41 54.8689 467.1 54.8689C475.789 54.8689 482.835 61.9139 482.835 70.6035Z" fill="#9060EB"/>
<path fill-rule="evenodd" clip-rule="evenodd" d="M459.299 72.4872L465.189 76.7908C465.777 77.2211 466.605 77.1074 467.055 76.535L474.064 67.6347C474.528 67.0457 474.426 66.192 473.837 65.7284C473.249 65.2649 472.395 65.3668 471.931 65.9558L465.733 73.827L460.899 70.2967C460.295 69.8547 459.446 69.986 459.004 70.5917C458.562 71.1964 458.694 72.0452 459.299 72.4872Z" fill="white"/>
<path fill-rule="evenodd" clip-rule="evenodd" d="M288.789 206.361H334.142V183.416C334.142 181.514 332.6 179.972 330.698 179.972H288.789C286.888 179.972 285.345 181.514 285.345 183.416V202.917C285.345 204.819 286.888 206.361 288.789 206.361Z" fill="#FFFEFB"/>
<path fill-rule="evenodd" clip-rule="evenodd" d="M334.14 200.901L334.177 212.561L324.221 200.931L334.14 200.901Z" fill="#FFFEFB"/>
<path fill-rule="evenodd" clip-rule="evenodd" d="M301.517 192.866C301.521 194.08 300.539 195.066 299.327 195.07C298.114 195.074 297.127 194.093 297.123 192.881C297.119 191.667 298.1 190.68 299.312 190.676C300.526 190.674 301.513 191.654 301.517 192.866Z" fill="#F36A4F"/>
<path fill-rule="evenodd" clip-rule="evenodd" d="M310.939 192.838C310.943 194.05 309.963 195.037 308.75 195.041C307.537 195.045 306.55 194.065 306.546 192.851C306.542 191.638 307.523 190.651 308.736 190.647C309.949 190.643 310.936 191.624 310.939 192.838Z" fill="#F36A4F"/>
<path fill-rule="evenodd" clip-rule="evenodd" d="M320.362 192.808C320.366 194.022 319.386 195.009 318.173 195.011C316.959 195.015 315.972 194.034 315.969 192.822C315.965 191.609 316.945 190.622 318.159 190.619C319.372 190.615 320.359 191.595 320.362 192.808Z" fill="#F36A4F"/>
<path fill-rule="evenodd" clip-rule="evenodd" d="M407.136 82.9204H281.254C278.712 82.9204 276.651 80.8592 276.651 78.3169V25.2895C276.651 22.7481 278.712 20.687 281.254 20.687H407.136C409.678 20.687 411.739 22.7481 411.739 25.2895V78.3169C411.739 80.8592 409.678 82.9204 407.136 82.9204Z" fill="#6FFFB0"/>
<path fill-rule="evenodd" clip-rule="evenodd" d="M512.97 34.3818C510.97 34.8471 508.939 35.5221 507.106 36.4698C507.488 36.9252 507.89 37.3662 508.311 37.7865C510.703 40.1769 513.641 41.9274 516.862 42.8832C515.949 41.7438 515.212 40.4298 514.625 39.141C513.931 37.6164 513.391 36.0072 512.97 34.3818ZM538.151 36.4698C536.318 35.5239 534.286 34.848 532.289 34.3818C531.867 36.0072 531.328 37.6164 530.633 39.141C530.047 40.4316 529.307 41.7438 528.394 42.8832C531.615 41.9274 534.554 40.1769 536.945 37.7865C537.366 37.3662 537.768 36.9252 538.151 36.4698ZM532.552 13.644C534.682 13.1229 536.881 12.3597 538.793 11.2725C538.227 10.5246 537.608 9.81538 536.945 9.15208C534.554 6.76168 531.615 5.01028 528.397 4.05358C529.307 5.19478 530.047 6.50698 530.633 7.79578C531.48 9.65608 532.1 11.6469 532.552 13.644ZM506.467 11.2725C508.377 12.3597 510.574 13.1229 512.704 13.644C513.158 11.6469 513.776 9.65608 514.625 7.79578C515.212 6.50698 515.949 5.19478 516.862 4.05358C513.641 5.01028 510.703 6.76078 508.311 9.15208C507.647 9.81538 507.032 10.5246 506.467 11.2725ZM521.419 14.7681V3.44068C519.267 4.22098 517.68 6.90928 516.819 8.79748C516.046 10.4949 515.483 12.3165 515.067 14.1435C517.161 14.5125 519.294 14.7132 521.419 14.7681ZM521.419 43.497V33.3243C519.384 33.3774 517.347 33.5628 515.338 33.9021C515.719 35.3484 516.201 36.7821 516.821 38.1411C517.68 40.0311 519.267 42.7158 521.419 43.497ZM523.839 33.3243V43.497C525.99 42.7158 527.577 40.0302 528.437 38.1411C529.055 36.7821 529.537 35.3484 529.918 33.9021C527.912 33.5628 525.872 33.3774 523.839 33.3243ZM523.839 3.44068V14.7681C525.965 14.7132 528.097 14.5125 530.189 14.1435C529.776 12.3165 529.21 10.4949 528.437 8.79748C527.577 6.90928 525.99 4.22098 523.839 3.44068ZM533.588 22.2588H542.841C542.654 19.0926 541.73 16.029 540.136 13.2903C537.96 14.5557 535.453 15.4296 533.016 16.02C533.353 18.0801 533.539 20.1717 533.588 22.2588ZM530.648 16.5159C528.404 16.9155 526.117 17.1297 523.839 17.1864V22.2588H531.171C531.121 20.3382 530.955 18.4131 530.648 16.5159ZM514.608 16.5159C514.305 18.4131 514.136 20.3373 514.087 22.2588H521.419V17.1864C519.14 17.1297 516.855 16.9155 514.608 16.5159ZM502.418 22.2588H511.668C511.718 20.1717 511.905 18.0801 512.241 16.02C509.799 15.4296 507.289 14.553 505.123 13.2903C503.525 16.029 502.603 19.0926 502.418 22.2588ZM511.668 24.678H502.418C502.625 28.1862 503.732 31.5612 505.65 34.506C507.756 33.3666 510.117 32.5674 512.437 32.0247C511.975 29.6082 511.729 27.1368 511.668 24.678ZM521.419 24.678H514.087C514.145 26.9748 514.373 29.2851 514.805 31.5423C516.988 31.1643 519.206 30.9582 521.419 30.9051V24.678ZM531.171 24.678H523.839V30.9051C526.052 30.9582 528.27 31.1643 530.453 31.5423C530.883 29.2842 531.111 26.9748 531.171 24.678ZM542.841 24.678H533.591C533.53 27.1368 533.284 29.6082 532.819 32.0247C535.139 32.5674 537.5 33.3666 539.606 34.506C541.526 31.5612 542.634 28.1862 542.841 24.678ZM522.63 0.80368C528.661 0.80368 534.392 3.17788 538.654 7.44208C542.919 11.7054 545.294 17.4384 545.294 23.4693C545.294 29.5002 542.919 35.2314 538.654 39.4956C534.392 43.7607 528.661 46.1358 522.63 46.1358C516.598 46.1358 510.866 43.7607 506.602 39.4956C502.337 35.2314 499.961 29.5002 499.961 23.4693C499.961 17.4384 502.337 11.7054 506.602 7.44208C510.866 3.17788 516.598 0.80368 522.63 0.80368Z" fill="#FFFFFE"/>
<path fill-rule="evenodd" clip-rule="evenodd" d="M407.136 82.9204V82.0334H281.254C280.225 82.0324 279.302 81.6188 278.627 80.9445C277.952 80.2692 277.539 79.346 277.539 78.3169V25.2895C277.539 24.2614 277.952 23.3381 278.627 22.6629C279.302 21.9886 280.225 21.5749 281.254 21.574H407.136C408.164 21.5749 409.088 21.9886 409.763 22.6629C410.437 23.3381 410.851 24.2614 410.852 25.2895V78.3169C410.851 79.346 410.437 80.2692 409.763 80.9445C409.088 81.6188 408.164 82.0324 407.136 82.0334V83.8074C410.169 83.8064 412.625 81.3493 412.626 78.3169V25.2895C412.625 22.2571 410.169 19.801 407.136 19.8H281.254C278.222 19.801 275.765 22.2571 275.764 25.2895V78.3169C275.765 81.3493 278.222 83.8064 281.254 83.8074H407.136V82.9204Z" fill="#FFF7F4"/>
<path fill-rule="evenodd" clip-rule="evenodd" d="M338.458 50.1341C338.458 62.006 328.834 71.6306 316.961 71.6306C305.089 71.6306 295.466 62.006 295.466 50.1341C295.466 38.2621 305.089 28.6385 316.961 28.6385C328.834 28.6385 338.458 38.2621 338.458 50.1341Z" fill="#232531"/>
<path fill-rule="evenodd" clip-rule="evenodd" d="M316.476 46.4247C318.604 46.4247 320.338 44.689 320.338 42.5623C320.338 40.4352 318.604 38.7 316.476 38.7C314.349 38.7 312.614 40.4352 312.614 42.5623C312.614 44.689 314.349 46.4247 316.476 46.4247Z" fill="#FFFFFE"/>
<path fill-rule="evenodd" clip-rule="evenodd" d="M316.476 47.6491C319.488 47.6491 321.953 50.1129 321.953 53.1252V58.4667C321.953 58.8042 321.677 59.08 321.34 59.08H311.612C311.275 59.08 311 58.8042 311 58.4667V53.1252C311 50.1129 313.464 47.6491 316.476 47.6491Z" fill="#FFFFFE"/>
<path fill-rule="evenodd" clip-rule="evenodd" d="M345.782 38.0828H390.534V36.3088H345.782V38.0828Z" fill="#FFF7F4"/>
<path fill-rule="evenodd" clip-rule="evenodd" d="M345.782 47.8259H375.472V46.052H345.782V47.8259Z" fill="#FFF7F4"/>
<path fill-rule="evenodd" clip-rule="evenodd" d="M682.5 270.56H576.922C574.478 270.56 572.498 268.58 572.498 266.136V196.912C572.498 194.468 574.478 192.488 576.922 192.488H682.5C684.943 192.488 686.923 194.468 686.923 196.912V266.136C686.923 268.58 684.943 270.56 682.5 270.56Z" fill="#6FFFB0"/>
<path fill-rule="evenodd" clip-rule="evenodd" d="M682.5 270.56V269.708H576.922C574.95 269.704 573.354 268.108 573.35 266.136V196.912C573.351 195.923 573.749 195.036 574.396 194.386C575.045 193.739 575.933 193.341 576.922 193.34H682.5C683.489 193.341 684.376 193.739 685.025 194.386C685.673 195.036 686.071 195.923 686.071 196.912V266.136C686.068 268.108 684.472 269.704 682.5 269.708V271.412C685.415 271.412 687.776 269.051 687.776 266.136V196.912C687.776 193.998 685.415 191.636 682.5 191.635H576.922C574.007 191.636 571.646 193.998 571.645 196.912V266.136C571.646 269.051 574.007 271.412 576.922 271.412H682.5V270.56Z" fill="#FFF7F4"/>
<path fill-rule="evenodd" clip-rule="evenodd" d="M-0.324951 674.489C-0.324951 699.342 19.8222 719.489 44.675 719.489H910.675V385.489H-0.324951V674.489Z" fill="#202631"/>
<path fill-rule="evenodd" clip-rule="evenodd" d="M623.939 179.978C616.847 189.694 598.572 194.769 588.855 187.679C579.138 180.587 581.661 164.014 588.751 154.297C595.843 144.58 609.468 142.452 619.185 149.544C628.902 156.635 631.03 170.261 623.939 179.978Z" fill="#F1BA9C"/>
<path fill-rule="evenodd" clip-rule="evenodd" d="M605.921 145.677C605.921 145.677 596.687 138.75 589.262 147.437C581.837 156.126 575.138 172.02 591.778 186.285L605.921 145.677Z" fill="#F1BA9C"/>
<path fill-rule="evenodd" clip-rule="evenodd" d="M609.579 151.314L622.66 124.109C623.509 122.065 622.557 119.633 620.561 118.75C618.832 117.984 616.87 118.64 615.933 120.297L597.682 147.496L609.579 151.314Z" fill="#F1BA9C"/>
<path fill-rule="evenodd" clip-rule="evenodd" d="M589.051 155.063L595.684 152.467C598.103 151.521 600.66 151.044 603.222 151.044C605.239 151.044 607.259 151.339 609.216 151.932L612.792 153.014C614.178 153.434 615.115 154.714 615.115 156.144L615.106 156.391V156.39C614.98 158.101 613.552 159.419 611.845 159.419L611.773 159.418L604.072 159.256C603.727 159.249 603.416 159.456 603.29 159.777C603.163 160.098 603.25 160.462 603.507 160.691L603.655 160.526L603.506 160.69L603.507 160.691L603.655 160.526L603.506 160.69C603.528 160.709 604.566 161.656 605.587 163.414C606.609 165.175 607.617 167.735 607.617 171.03C607.616 173.937 606.837 177.432 604.53 181.499C604.306 181.894 604.445 182.396 604.839 182.62C605.234 182.845 605.736 182.705 605.96 182.31C608.39 178.032 609.262 174.236 609.261 171.03C609.261 167.336 608.109 164.449 606.955 162.496C605.801 160.54 604.647 159.505 604.602 159.464L604.055 160.078L604.037 160.9L611.739 161.063L611.845 161.064C614.413 161.063 616.554 159.083 616.745 156.511C616.755 156.389 616.759 156.266 616.759 156.144C616.759 153.992 615.353 152.072 613.268 151.44L609.693 150.358C607.58 149.719 605.4 149.401 603.222 149.401C600.456 149.401 597.695 149.914 595.084 150.936L588.452 153.532C588.028 153.697 587.82 154.174 587.985 154.597C588.151 155.019 588.628 155.228 589.051 155.063Z" fill="#E29C79"/>
<path fill-rule="evenodd" clip-rule="evenodd" d="M523.424 257.595L585.873 169.453L610.55 182.71L558.937 279.866C552.307 291.63 536.45 294.158 526.491 285.039H526.49C518.744 277.948 517.434 266.221 523.424 257.595Z" fill="#F1BA9C"/>
<path fill-rule="evenodd" clip-rule="evenodd" d="M448.741 260.831L536.2 250.547C548.75 250.805 560.054 255.059 560.675 267.597C561.325 280.744 551.222 291.942 538.078 292.645L449.028 310.468C436.467 311.14 425.748 306.189 422.565 294.02C418.117 277.012 431.164 260.468 448.741 260.831Z" fill="#F1BA9C"/>
<path fill-rule="evenodd" clip-rule="evenodd" d="M494.617 254.256L503.754 306.128L451.034 315.415L418.051 252.701C418.051 252.701 459.04 250.517 494.617 254.256Z" fill="#FFFEFB"/>
<path fill-rule="evenodd" clip-rule="evenodd" d="M384.558 252.504H384.553C384.324 252.497 331.805 251.06 306.398 286.457C281.7 320.865 281.784 381.786 281.811 385.417C281.812 385.515 281.892 385.588 281.989 385.588H483.971C484.086 385.588 484.171 385.479 484.145 385.367L461.578 290.87C457.158 272.364 441.205 256.587 422.468 253.28C412.458 251.514 400.717 251.981 384.558 252.504Z" fill="#FFFEFB"/>
<path fill-rule="evenodd" clip-rule="evenodd" d="M303.501 278.659L229.573 365.016C220.106 375.48 221.516 391.784 232.643 400.466C241.954 407.732 255.143 407.248 263.897 399.32L334.792 323.632L303.501 278.659Z" fill="#F1BA9C"/>
<path fill-rule="evenodd" clip-rule="evenodd" d="M247.955 405.608H362.497L360.257 383.227L267.171 367.82L247.955 405.608Z" fill="#F1BA9C"/>
<path fill-rule="evenodd" clip-rule="evenodd" d="M349.348 385.267C349.348 385.267 399.048 371.461 411.684 405.609H362.498L349.348 385.267Z" fill="#F1BA9C"/>
<path fill-rule="evenodd" clip-rule="evenodd" d="M384.906 392.701L384.938 392.708C385.315 392.798 388.847 393.687 392.67 395.772C394.581 396.814 396.562 398.153 398.262 399.825C399.965 401.498 401.383 403.497 402.206 405.877C402.355 406.306 402.823 406.534 403.252 406.385C403.681 406.237 403.909 405.768 403.761 405.339C402.808 402.587 401.155 400.321 399.237 398.478C393.473 392.964 385.338 391.123 385.274 391.098C384.832 390.996 384.391 391.272 384.289 391.715C384.187 392.157 384.462 392.599 384.906 392.701Z" fill="#E29C79"/>
<path fill-rule="evenodd" clip-rule="evenodd" d="M372.723 395.967L372.749 395.971C373.065 396.011 376.096 396.439 379.555 397.909C383.022 399.378 386.874 401.876 388.981 405.984C389.189 406.388 389.684 406.546 390.088 406.34C390.492 406.132 390.651 405.636 390.443 405.232C387.995 400.483 383.586 397.78 379.844 396.248C376.093 394.716 372.965 394.341 372.918 394.335C372.467 394.281 372.058 394.603 372.004 395.054C371.951 395.505 372.272 395.913 372.723 395.967Z" fill="#E29C79"/>
<path fill-rule="evenodd" clip-rule="evenodd" d="M290.127 370.649L256.009 364.987C255.561 364.913 255.137 365.216 255.064 365.664C254.989 366.111 255.292 366.535 255.74 366.609L289.857 372.271C290.305 372.346 290.729 372.043 290.803 371.595C290.878 371.147 290.575 370.724 290.127 370.649Z" fill="#E29C79"/>
<path fill-rule="evenodd" clip-rule="evenodd" d="M374.622 252.928C374.622 252.928 308.374 252.067 264.681 315.759L322.08 355.625L372.821 304.639L374.622 252.928Z" fill="#FFFEFB"/>
<path fill-rule="evenodd" clip-rule="evenodd" d="M348.71 317.901L316.131 350.394L312.141 347.622C311.731 347.338 311.169 347.439 310.884 347.848C310.599 348.259 310.7 348.822 311.11 349.107L315.72 352.308C316.078 352.557 316.564 352.514 316.874 352.206L349.986 319.18C350.339 318.828 350.34 318.256 349.988 317.903C349.635 317.549 349.063 317.548 348.71 317.901Z" fill="#D3D6DD"/>
<path fill-rule="evenodd" clip-rule="evenodd" d="M313.337 415.805H431.029V405.447H313.337C310.477 405.447 308.158 407.766 308.158 410.627C308.158 413.487 310.477 415.805 313.337 415.805Z" fill="#B5BCC9"/>
<path fill-rule="evenodd" clip-rule="evenodd" d="M420.214 415.805H585.86L615.679 298.375C617.102 292.772 612.868 287.326 607.085 287.326H459.735C455.679 287.326 452.14 290.079 451.142 294.01L420.214 415.805Z" fill="#B5BCC9"/>
<mask id="mask0_0_371" style="mask-type:alpha" maskUnits="userSpaceOnUse" x="420" y="287" width="196" height="129">
<path fill-rule="evenodd" clip-rule="evenodd" d="M420.214 415.805H585.86L615.679 298.375C617.102 292.772 612.868 287.326 607.085 287.326H459.735C455.679 287.326 452.14 290.079 451.142 294.01L420.214 415.805Z" fill="white"/>
</mask>
<g mask="url(#mask0_0_371)">
<path fill-rule="evenodd" clip-rule="evenodd" d="M427.935 415.805H593.582L623.4 298.375C624.823 292.772 620.588 287.326 614.807 287.326H467.456C463.4 287.326 459.861 290.079 458.862 294.01L427.935 415.805Z" fill="#D3D6DD"/>
</g>
<path fill-rule="evenodd" clip-rule="evenodd" d="M519.77 345.587C515.444 353.079 517.187 362.182 523.661 365.919C530.137 369.658 538.891 366.615 543.216 359.124C547.541 351.632 545.799 342.529 539.324 338.792C532.85 335.053 524.095 338.096 519.77 345.587Z" fill="#FEFFFF"/>
<path fill-rule="evenodd" clip-rule="evenodd" d="M363.457 167.984C363.457 167.984 359.255 192.68 388.998 217.916L392.047 206.007L363.457 167.984Z" fill="#470B09"/>
<path fill-rule="evenodd" clip-rule="evenodd" d="M436.879 154.946C436.879 154.946 455.737 155.133 453.73 142.764C450.367 122.026 407.634 123.286 392.515 129.219L436.879 154.946Z" fill="#470B09"/>
<path fill-rule="evenodd" clip-rule="evenodd" d="M448.944 173.895C447.327 197.961 426.508 216.16 402.442 214.543C378.377 212.927 361.841 192.051 363.457 167.984C365.073 143.919 384.23 125.778 408.296 127.394C432.361 129.011 450.559 149.83 448.944 173.895Z" fill="#470B09"/>
<path fill-rule="evenodd" clip-rule="evenodd" d="M437.454 195.844C439.317 202.061 445.866 205.592 452.084 203.728C458.301 201.866 461.831 195.315 459.969 189.099C458.106 182.882 451.555 179.351 445.338 181.214C439.121 183.077 435.591 189.627 437.454 195.844Z" fill="#E29C79"/>
<path fill-rule="evenodd" clip-rule="evenodd" d="M428.224 223.478L423.407 255.163C421.599 267.051 410.208 275.005 398.425 272.606C386.832 270.246 377.042 268.676 379.706 257.15L395.436 189.726L428.224 223.478Z" fill="#F1BA9C"/>
<path fill-rule="evenodd" clip-rule="evenodd" d="M424.669 246.811C424.669 246.811 390.221 238.589 390.987 209.49L427.583 228.003L424.669 246.811Z" fill="#E29C79"/>
<path fill-rule="evenodd" clip-rule="evenodd" d="M430.723 137.795C438.511 141.076 444.302 147.828 447.03 155.825C451.166 167.948 457.534 191.435 452.743 210.403C448.706 226.386 434.949 235.89 414.562 231.848C414.562 231.848 388.509 227.617 385.109 195.522C380.409 151.145 407.406 127.977 430.723 137.795Z" fill="#F1BA9C"/>
<path fill-rule="evenodd" clip-rule="evenodd" d="M445.593 185.701C445.967 187.137 447.434 188.001 448.872 187.627C450.309 187.255 451.171 185.787 450.799 184.35C450.426 182.912 448.958 182.05 447.521 182.422C446.083 182.796 445.221 184.263 445.593 185.701Z" fill="#101010"/>
<path fill-rule="evenodd" clip-rule="evenodd" d="M422.867 186.084C423.24 187.522 424.707 188.384 426.145 188.012C427.582 187.638 428.445 186.171 428.072 184.733C427.7 183.296 426.231 182.433 424.795 182.806C423.357 183.179 422.494 184.647 422.867 186.084Z" fill="#101010"/>
<path fill-rule="evenodd" clip-rule="evenodd" d="M439.076 188.657L442.627 195.564L440.017 197.17C439.653 197.394 439.539 197.871 439.764 198.236C439.988 198.602 440.465 198.715 440.83 198.491L444.051 196.509C444.396 196.296 444.519 195.853 444.334 195.494L440.455 187.949C440.259 187.568 439.791 187.418 439.411 187.614C439.03 187.81 438.88 188.277 439.076 188.657Z" fill="#470B09"/>
<path fill-rule="evenodd" clip-rule="evenodd" d="M429.533 160.853C429.837 163.028 428.206 164.983 426.012 165.071C422.701 165.205 417.886 165.707 413.47 167.331C411.826 167.936 410 167.192 409.333 165.574C408.693 164.023 409.444 162.409 410.845 161.485C413.712 159.593 418.248 156.81 426.079 157.657C427.837 157.847 429.289 159.103 429.533 160.853Z" fill="#470B09"/>
<path fill-rule="evenodd" clip-rule="evenodd" d="M440.617 168.815C440.841 170.945 442.273 172.734 443.71 172.672C445.879 172.579 449.091 172.745 452.264 174.026C453.444 174.502 454.481 173.659 454.6 172.044C454.716 170.496 453.917 168.981 452.833 168.178C450.613 166.534 447.141 164.138 442.237 165.483C441.136 165.785 440.437 167.1 440.617 168.815Z" fill="#470B09"/>
<path fill-rule="evenodd" clip-rule="evenodd" d="M421.066 198.816C413.734 198.816 407.579 192.962 407.144 185.389C406.692 177.544 412.549 170.828 420.226 170.385C420.493 170.37 420.758 170.363 421.021 170.363C428.352 170.363 434.508 176.217 434.943 183.79C435.395 191.635 429.536 198.352 421.86 198.794C421.595 198.808 421.329 198.816 421.066 198.816ZM425.472 182.719C425.249 182.719 425.021 182.747 424.795 182.806C423.357 183.179 422.494 184.647 422.867 186.084C423.181 187.295 424.272 188.098 425.468 188.098C425.692 188.098 425.919 188.07 426.145 188.012C427.582 187.638 428.446 186.171 428.072 184.733C427.759 183.523 426.667 182.719 425.472 182.719Z" fill="#F5CCB6"/>
<path fill-rule="evenodd" clip-rule="evenodd" d="M425.468 188.098C424.272 188.098 423.181 187.295 422.867 186.084C422.494 184.647 423.357 183.179 424.795 182.806C425.021 182.747 425.248 182.719 425.472 182.719C426.667 182.719 427.758 183.523 428.072 184.733C428.445 186.171 427.582 187.638 426.145 188.012C425.919 188.07 425.691 188.098 425.468 188.098Z" fill="#4E4E4E"/>
<path fill-rule="evenodd" clip-rule="evenodd" d="M460.188 195.007C460.608 193.113 460.564 191.088 459.968 189.099C458.936 185.653 456.464 183.033 453.407 181.699C453.022 179.04 452.551 176.438 452.027 173.932C452.106 173.963 452.184 173.994 452.264 174.026C452.485 174.116 452.702 174.158 452.908 174.158C453.801 174.158 454.503 173.356 454.6 172.044C454.686 170.902 454.273 169.777 453.614 168.943C453.879 168.907 454.147 168.882 454.417 168.866C454.621 168.855 454.823 168.849 455.025 168.849C461.342 168.849 466.693 174.521 467.113 181.821C467.448 187.638 464.553 192.788 460.188 195.007Z" fill="#FFE1DB"/>
<path fill-rule="evenodd" clip-rule="evenodd" d="M455.377 196.163C455.066 196.163 454.756 196.149 454.451 196.123C454.496 191.281 454.087 186.401 453.407 181.699C456.464 183.033 458.936 185.653 459.969 189.099C460.564 191.088 460.609 193.113 460.188 195.007C458.9 195.66 457.485 196.06 455.985 196.146C455.783 196.158 455.579 196.163 455.377 196.163Z" fill="#EAB69C"/>
<path fill-rule="evenodd" clip-rule="evenodd" d="M454.451 196.123C448.545 195.601 443.689 190.132 443.29 183.191C443.056 179.122 444.403 175.379 446.726 172.738C448.359 172.882 450.195 173.225 452.027 173.932C452.551 176.438 453.023 179.04 453.407 181.699C454.087 186.401 454.496 191.281 454.451 196.123ZM448.199 182.336C447.974 182.336 447.748 182.363 447.521 182.422C446.083 182.796 445.221 184.263 445.593 185.701C445.908 186.911 446.999 187.715 448.194 187.715C448.418 187.715 448.644 187.686 448.872 187.627C450.309 187.255 451.171 185.787 450.799 184.35C450.485 183.139 449.393 182.336 448.199 182.336Z" fill="#F5CCB6"/>
<path fill-rule="evenodd" clip-rule="evenodd" d="M448.193 187.715C446.999 187.715 445.908 186.911 445.593 185.701C445.221 184.263 446.083 182.796 447.521 182.422C447.748 182.363 447.974 182.336 448.198 182.336C449.393 182.336 450.485 183.139 450.799 184.35C451.171 185.787 450.309 187.255 448.872 187.627C448.644 187.686 448.418 187.715 448.193 187.715Z" fill="#4E4E4E"/>
<path fill-rule="evenodd" clip-rule="evenodd" d="M452.908 174.158C452.702 174.158 452.485 174.116 452.264 174.026C452.184 173.994 452.106 173.963 452.027 173.932C450.195 173.225 448.359 172.882 446.726 172.738C448.529 170.691 450.918 169.305 453.614 168.943C454.273 169.777 454.686 170.902 454.6 172.044C454.503 173.356 453.801 174.158 452.908 174.158Z" fill="#774A49"/>
<path fill-rule="evenodd" clip-rule="evenodd" d="M434.943 183.79L434.148 183.835C434.163 184.105 434.17 184.372 434.17 184.639C434.169 191.706 428.777 197.601 421.814 197.999C421.563 198.014 421.314 198.02 421.066 198.02C414.167 198.022 408.351 192.504 407.939 185.343C407.923 185.074 407.915 184.807 407.915 184.541C407.916 177.475 413.31 171.578 420.273 171.18C420.523 171.166 420.772 171.159 421.021 171.159C427.918 171.157 433.736 176.675 434.148 183.835L434.943 183.79L435.738 183.744C435.279 175.76 428.786 169.569 421.021 169.566C420.742 169.566 420.462 169.575 420.18 169.591C412.346 170.044 406.322 176.657 406.324 184.541C406.324 184.837 406.332 185.135 406.349 185.435C406.808 193.419 413.3 199.61 421.066 199.612C421.345 199.612 421.625 199.604 421.906 199.589C429.739 199.135 435.764 192.522 435.763 184.639C435.763 184.342 435.754 184.044 435.738 183.744L434.943 183.79Z" fill="white"/>
<path fill-rule="evenodd" clip-rule="evenodd" d="M467.113 181.821L466.319 181.866C466.335 182.156 466.343 182.446 466.343 182.732C466.344 186.117 465.192 189.203 463.316 191.47C461.437 193.738 458.856 195.183 455.94 195.352C455.751 195.362 455.564 195.367 455.377 195.367C452.462 195.367 449.755 194.062 447.703 191.871C445.655 189.682 444.284 186.613 444.085 183.145C444.068 182.854 444.06 182.566 444.06 182.279C444.059 178.894 445.211 175.808 447.087 173.541C448.967 171.274 451.547 169.83 454.462 169.661C454.651 169.65 454.839 169.645 455.025 169.645C457.941 169.646 460.648 170.95 462.699 173.141C464.747 175.33 466.12 178.399 466.319 181.867L467.113 181.821L467.908 181.775C467.687 177.943 466.173 174.525 463.861 172.054C461.553 169.583 458.427 168.052 455.025 168.053C454.808 168.053 454.59 168.059 454.371 168.071C450.975 168.266 447.98 169.962 445.86 172.527C443.738 175.093 442.469 178.533 442.468 182.279C442.468 182.597 442.477 182.916 442.495 183.238C442.716 187.069 444.23 190.487 446.541 192.959C448.849 195.429 451.976 196.96 455.377 196.96C455.594 196.96 455.813 196.953 456.031 196.941C459.428 196.746 462.424 195.051 464.544 192.485C466.665 189.919 467.935 186.479 467.936 182.732C467.936 182.415 467.927 182.097 467.908 181.775L467.113 181.821Z" fill="white"/>
<path fill-rule="evenodd" clip-rule="evenodd" d="M435.492 184.365L435.441 184.312L435.492 184.366V184.365L435.441 184.312L435.492 184.366C435.517 184.341 435.983 183.912 436.726 183.501C437.469 183.089 438.479 182.702 439.598 182.703C440.575 182.707 441.647 182.98 442.82 183.833C443.174 184.093 443.673 184.017 443.933 183.662C444.193 183.307 444.115 182.809 443.76 182.549C442.338 181.504 440.888 181.108 439.598 181.112C438.065 181.113 436.774 181.642 435.868 182.156C434.96 182.674 434.425 183.184 434.392 183.215C434.074 183.519 434.063 184.023 434.367 184.34C434.671 184.659 435.175 184.669 435.492 184.365Z" fill="white"/>
<path fill-rule="evenodd" clip-rule="evenodd" d="M406.975 184.611L393.058 187.644C392.628 187.738 392.356 188.162 392.449 188.592C392.544 189.021 392.967 189.294 393.397 189.199L407.314 186.167C407.743 186.073 408.015 185.649 407.922 185.219C407.828 184.79 407.404 184.518 406.975 184.611Z" fill="white"/>
<path fill-rule="evenodd" clip-rule="evenodd" d="M426.819 203.753L426.774 204.015C426.777 204.195 426.824 204.304 426.861 204.383C426.936 204.532 427.002 204.597 427.065 204.664C427.181 204.783 427.305 204.877 427.46 204.984C427.992 205.343 428.902 205.796 430.196 206.178C431.488 206.556 433.153 206.851 435.144 206.851C437.681 206.852 440.745 206.371 444.222 204.981C444.62 204.821 444.813 204.37 444.654 203.973C444.496 203.576 444.045 203.382 443.647 203.54C440.346 204.86 437.486 205.301 435.144 205.301C432.832 205.301 431.024 204.868 429.811 204.417C429.205 204.192 428.747 203.961 428.464 203.786C428.323 203.701 428.224 203.627 428.188 203.594L428.174 203.582L427.918 203.834L428.219 203.64L428.174 203.582L427.918 203.834L428.219 203.64L427.64 204.015H428.325C428.315 203.77 428.244 203.689 428.219 203.64L427.64 204.015H428.325H427.58L428.285 204.257L428.325 204.015H427.58L428.285 204.257C428.424 203.852 428.208 203.411 427.804 203.272C427.398 203.133 426.957 203.348 426.819 203.753Z" fill="#470B09"/>
<path fill-rule="evenodd" clip-rule="evenodd" d="M390.126 191.387C390.126 191.387 395.409 188.852 393.524 171.718C391.638 154.586 401.578 146.37 410.253 147.192C418.929 148.015 437.075 151.322 447.194 146.241C447.194 146.241 433.719 127.673 404.647 135.789C375.575 143.904 381.51 187.635 381.51 187.635L390.126 191.387Z" fill="#470B09"/>
<path fill-rule="evenodd" clip-rule="evenodd" d="M367.209 201.252C369.469 208.796 377.418 213.081 384.962 210.82C392.506 208.559 396.79 200.611 394.53 193.066C392.27 185.521 384.321 181.238 376.777 183.498C369.232 185.758 364.949 193.707 367.209 201.252Z" fill="#F1BA9C"/>
<path fill-rule="evenodd" clip-rule="evenodd" d="M374.663 193.719L374.667 193.717C374.762 193.691 375.866 193.403 377.37 193.404C378.927 193.403 380.889 193.711 382.649 194.872C384.408 196.037 386.029 198.049 386.905 201.697C387.004 202.113 387.422 202.37 387.839 202.271C388.256 202.172 388.512 201.754 388.413 201.337C387.478 197.389 385.609 194.958 383.502 193.577C381.398 192.193 379.121 191.854 377.37 191.854C375.558 191.855 374.285 192.214 374.238 192.227C373.827 192.344 373.587 192.773 373.705 193.185C373.822 193.596 374.25 193.835 374.663 193.719Z" fill="#470B09"/>
<path fill-rule="evenodd" clip-rule="evenodd" d="M392.108 252.029L419.971 252.471L429.821 252.278C429.821 252.278 438.135 280.147 403.099 280.663C368.064 281.179 370.163 253.111 370.163 253.111L392.108 252.029Z" fill="#F1BA9C"/>
<path fill-rule="evenodd" clip-rule="evenodd" d="M176.838 351.807L180.793 415.595C181.078 419.826 184.594 423.113 188.836 423.113H216.035C220.292 423.113 223.814 419.804 224.081 415.557L227.755 351.807H176.838Z" fill="white"/>
<path fill-rule="evenodd" clip-rule="evenodd" d="M173.739 351.807H230.853V341.332H173.739V351.807Z" fill="#441898"/>
<path fill-rule="evenodd" clip-rule="evenodd" d="M179.391 344.179L182.586 335.086H222.395L225.222 344.179H179.391Z" fill="#441898"/>
<path fill-rule="evenodd" clip-rule="evenodd" d="M180.9 341.295H223.717C224.003 341.295 224.234 341.064 224.234 340.779C224.234 340.494 224.003 340.262 223.717 340.262H180.9C180.614 340.262 180.382 340.494 180.382 340.779C180.382 341.064 180.614 341.295 180.9 341.295Z" fill="white"/>
<path fill-rule="evenodd" clip-rule="evenodd" d="M226.197 396.35H178.395L176.322 369.825H228.272L226.197 396.35Z" fill="#9060EB"/>
</svg>
