<svg width="626" height="462" viewBox="0 0 626 462" fill="none" xmlns="http://www.w3.org/2000/svg">
<path fill-rule="evenodd" clip-rule="evenodd" d="M113.496 146.855H497.205V145.15H113.496V146.855Z" fill="#FFF7F4"/>
<path fill-rule="evenodd" clip-rule="evenodd" d="M492.395 338.095H118.306C117.211 338.094 116.227 337.653 115.508 336.934C114.79 336.213 114.349 335.226 114.348 334.127V115.369C114.349 114.269 114.79 113.283 115.508 112.562C116.227 111.842 117.211 111.401 118.306 111.4H492.395C493.489 111.401 494.473 111.843 495.192 112.562C495.91 113.283 496.351 114.269 496.352 115.369V334.127C496.351 335.226 495.91 336.213 495.192 336.934C494.473 337.653 493.489 338.094 492.395 338.095V339.801C495.524 339.8 498.057 337.259 498.058 334.127V115.369C498.057 112.236 495.524 109.696 492.395 109.695H118.306C115.177 109.696 112.644 112.236 112.643 115.369V334.127C112.644 337.259 115.177 339.8 118.306 339.801H492.395V338.948V338.095Z" fill="#FFF7F4"/>
<path fill-rule="evenodd" clip-rule="evenodd" d="M102.708 63.4742H48.9174C47.5864 63.4742 46.5073 62.3951 46.5073 61.0642V61.0593C46.5073 59.7273 47.5864 58.6482 48.9174 58.6482H102.708C104.039 58.6482 105.118 59.7273 105.118 61.0593V61.0642C105.118 62.3951 104.039 63.4742 102.708 63.4742Z" fill="#D9A29D"/>
<path fill-rule="evenodd" clip-rule="evenodd" d="M623.168 170.339H599.964C598.633 170.339 597.554 169.26 597.554 167.929V167.923C597.554 166.593 598.633 165.513 599.964 165.513H623.168C624.5 165.513 625.578 166.593 625.578 167.923V167.929C625.578 169.26 624.5 170.339 623.168 170.339Z" fill="#D9A29D"/>
<path fill-rule="evenodd" clip-rule="evenodd" d="M34.5412 345.179H11.3373C10.0054 345.179 8.92627 344.1 8.92627 342.768V342.764C8.92627 341.433 10.0054 340.353 11.3373 340.353H34.5412C35.8722 340.353 36.9512 341.433 36.9512 342.764V342.768C36.9512 344.1 35.8722 345.179 34.5412 345.179Z" fill="#D9A29D"/>
<path fill-rule="evenodd" clip-rule="evenodd" d="M539.518 345.639H492.913C491.626 345.639 490.584 344.597 490.584 343.311V343.305C490.584 342.021 491.626 340.978 492.913 340.978H539.518C540.803 340.978 541.846 342.021 541.846 343.305V343.311C541.846 344.597 540.803 345.639 539.518 345.639Z" fill="#D9A29D"/>
<path fill-rule="evenodd" clip-rule="evenodd" d="M218.113 60.2242H213.751C212.602 60.2242 211.671 59.2931 211.671 58.1454V54.0329C211.671 52.8842 212.602 51.9531 213.751 51.9531H218.113C219.261 51.9531 220.192 52.8842 220.192 54.0329V58.1454C220.192 59.2931 219.261 60.2242 218.113 60.2242Z" fill="#D9A29D"/>
<path fill-rule="evenodd" clip-rule="evenodd" d="M148.516 60.6731H147.648C147.648 62.2412 147.023 63.6516 146.014 64.6758C145.003 65.7 143.619 66.3273 142.083 66.3283C140.547 66.3273 139.164 65.7 138.152 64.6758C137.143 63.6516 136.518 62.2412 136.518 60.6731C136.518 59.1049 137.143 57.6946 138.152 56.6694C139.164 55.6462 140.547 55.0179 142.083 55.0179C143.619 55.0179 145.003 55.6462 146.014 56.6694C147.023 57.6946 147.648 59.1049 147.648 60.6731H149.384C149.384 58.6384 148.569 56.787 147.25 55.4511C145.932 54.1133 144.1 53.2812 142.083 53.2822C140.066 53.2812 138.234 54.1133 136.916 55.4511C135.598 56.787 134.782 58.6384 134.783 60.6731C134.782 62.7078 135.598 64.5592 136.916 65.8951C138.234 67.2319 140.066 68.064 142.083 68.064C144.1 68.064 145.932 67.2319 147.25 65.8951C148.569 64.5592 149.384 62.7078 149.384 60.6731H148.516Z" fill="#FFF7F4"/>
<path fill-rule="evenodd" clip-rule="evenodd" d="M595.748 342.771C595.748 344.339 595.124 345.75 594.114 346.775C593.103 347.798 591.719 348.427 590.183 348.427C588.647 348.427 587.263 347.798 586.252 346.775C585.242 345.75 584.618 344.339 584.618 342.771C584.618 341.203 585.242 339.793 586.252 338.768C587.263 337.744 588.647 337.116 590.183 337.115C591.719 337.116 593.103 337.744 594.114 338.768C595.124 339.793 595.748 341.203 595.748 342.771H597.484C597.484 340.737 596.668 338.885 595.349 337.549C594.033 336.213 592.2 335.379 590.183 335.38C588.166 335.379 586.333 336.213 585.016 337.549C583.698 338.885 582.882 340.737 582.882 342.771C582.882 344.806 583.698 346.657 585.016 347.993C586.333 349.33 588.166 350.162 590.183 350.162C592.2 350.162 594.033 349.33 595.349 347.993C596.668 346.657 597.484 344.806 597.484 342.771H596.615H595.748Z" fill="#FFF7F4"/>
<path fill-rule="evenodd" clip-rule="evenodd" d="M20.1267 224.507H19.2584C19.2584 226.074 18.634 227.485 17.6245 228.509C16.6131 229.534 15.2292 230.162 13.6933 230.162C12.1575 230.162 10.7736 229.534 9.76216 228.509C8.75266 227.485 8.12834 226.074 8.12834 224.507C8.12834 222.938 8.75266 221.528 9.76216 220.503C10.7736 219.479 12.1575 218.851 13.6933 218.85C15.2292 218.851 16.6131 219.479 17.6245 220.503C18.634 221.528 19.2584 222.938 19.2584 224.507H20.9941C20.9941 222.471 20.1787 220.621 18.8595 219.285C17.5422 217.947 15.7094 217.115 13.6933 217.116C11.6763 217.115 9.84351 217.947 8.52626 219.285C7.20802 220.621 6.39258 222.471 6.39258 224.507C6.39258 226.541 7.20802 228.392 8.52626 229.729C9.84351 231.065 11.6763 231.898 13.6933 231.898C15.7094 231.898 17.5422 231.065 18.8595 229.729C20.1787 228.392 20.9941 226.541 20.9941 224.507H20.1267Z" fill="#FFF7F4"/>
<path fill-rule="evenodd" clip-rule="evenodd" d="M148.907 191.457H16.9572C13.4935 191.457 10.6855 188.649 10.6855 185.184V93.5104C10.6855 90.0467 13.4935 87.2387 16.9572 87.2387H148.907C152.371 87.2387 155.179 90.0467 155.179 93.5104V185.184C155.179 188.649 152.371 191.457 148.907 191.457Z" fill="#9060EB"/>
<path fill-rule="evenodd" clip-rule="evenodd" d="M98.3425 24.8346H92.7292C92.6392 24.8346 92.5627 24.8607 92.5141 24.9039L92.4781 24.9417C92.4133 25.0074 92.3737 25.0965 92.3737 25.1901V42.9165C92.3737 43.0119 92.4133 43.1001 92.4781 43.1676C92.5465 43.2333 92.6347 43.272 92.7292 43.272H98.3425C98.4316 43.272 98.5063 43.2486 98.554 43.2081L98.5918 43.1676C98.6584 43.101 98.698 43.0101 98.698 42.9165V25.1901C98.698 25.0956 98.6575 25.0056 98.5909 24.939C98.5243 24.8733 98.4361 24.8346 98.3425 24.8346ZM101.835 39.8079C103.25 41.2344 105.626 43.1073 107.646 43.1073H119.995C121.79 43.1073 123.252 41.8824 123.593 40.1112C123.691 39.6405 123.997 39.2418 124.427 39.0258C125.568 38.4561 125.602 36.5814 125.437 35.5356C125.307 34.9335 125.546 34.3179 126.044 33.9507C127.533 32.8545 127.028 30.4713 126.391 29.0565C126.198 28.7028 126.154 28.2996 126.259 27.9108C126.41 27.351 126.524 26.7498 126.524 26.1684C126.524 25.6563 126.432 25.0902 126.081 24.6924C125.787 24.3558 125.342 24.1614 124.917 24.0471C124.443 23.9184 123.932 23.8725 123.442 23.8725H116.705C115.202 23.8725 113.985 23.3775 113.373 21.9024C112.669 20.2032 113.326 17.649 113.847 15.984C114.096 15.1857 114.229 14.3568 114.231 13.5198C114.233 12.3381 113.957 11.1213 113.37 10.0899C113.189 9.76678 112.681 9.00178 112.293 8.83798H111.246C111.208 10.8828 111.067 12.9987 110.518 14.9598C109.782 17.5788 108.38 19.6461 105.942 20.9583C103.618 22.2102 102.232 25.2477 101.835 27.7731V39.8079ZM100.43 22.3947C101.376 20.6613 102.69 19.1493 104.456 18.1989C106.11 17.3088 107.004 15.8841 107.499 14.1138C108.096 11.9835 108.121 9.47068 108.121 7.26838C108.121 6.40258 108.824 5.69968 109.69 5.69968H112.376C112.65 5.69968 112.923 5.74738 113.184 5.82838C114.425 6.21718 115.477 7.44928 116.097 8.54278C116.946 10.044 117.364 11.7999 117.367 13.5198C117.368 14.6745 117.183 15.8166 116.84 16.9164C116.601 17.6796 115.941 19.9089 116.247 20.6712C116.325 20.7252 116.614 20.7351 116.705 20.7351H123.442C124.209 20.7351 124.988 20.8188 125.73 21.0186C126.771 21.2985 127.719 21.8106 128.438 22.6278C129.312 23.6232 129.663 24.8598 129.663 26.1684C129.663 26.847 129.568 27.5292 129.42 28.1916C130.391 30.6936 130.585 33.8049 128.613 35.8524C128.736 37.9206 128.225 40.1769 126.47 41.4378C125.514 44.3556 123.169 46.2456 119.995 46.2456H107.646C105.537 46.2456 103.428 45.1287 101.713 43.8336C101.553 44.4177 101.239 44.9568 100.791 45.405L100.737 45.4554C100.088 46.0683 99.2353 46.4103 98.3425 46.4103H92.7292C91.8013 46.4103 90.9166 46.0422 90.2596 45.3852C89.6044 44.7291 89.2363 43.8453 89.2363 42.9165V25.1901C89.2363 24.2622 89.6044 23.3775 90.283 22.6998L90.3361 22.6539C90.9832 22.0401 91.8373 21.6963 92.7292 21.6963H98.3425C99.1021 21.6963 99.8302 21.9456 100.43 22.3947Z" fill="#FFFFFE"/>
<path fill-rule="evenodd" clip-rule="evenodd" d="M29.668 133.524H136.362V103.193H29.668V133.524Z" fill="#FFFEFB"/>
<path fill-rule="evenodd" clip-rule="evenodd" d="M29.668 173.4H136.362V143.069H29.668V173.4Z" fill="#FFFEFB"/>
<path fill-rule="evenodd" clip-rule="evenodd" d="M68.3193 115.857H120.252V114.949H68.3193V115.857Z" fill="#FFD6CF"/>
<path fill-rule="evenodd" clip-rule="evenodd" d="M68.3193 122.675H101.988V121.768H68.3193V122.675Z" fill="#FFD6CF"/>
<path fill-rule="evenodd" clip-rule="evenodd" d="M68.3193 154.296H120.252V153.389H68.3193V154.296Z" fill="#FFD6CF"/>
<path fill-rule="evenodd" clip-rule="evenodd" d="M68.3193 161.115H101.988V160.207H68.3193V161.115Z" fill="#FFD6CF"/>
<path fill-rule="evenodd" clip-rule="evenodd" d="M59.5229 118.359C59.5229 123.884 55.0438 128.363 49.519 128.363C43.9952 128.363 39.5161 123.884 39.5161 118.359C39.5161 112.834 43.9952 108.355 49.519 108.355C55.0438 108.355 59.5229 112.834 59.5229 118.359Z" fill="#9060EB"/>
<path fill-rule="evenodd" clip-rule="evenodd" d="M44.5595 119.557L48.3045 122.292C48.6789 122.565 49.2042 122.494 49.4914 122.129L53.9469 116.471C54.241 116.097 54.1763 115.554 53.8019 115.26C53.4285 114.965 52.8855 115.029 52.5905 115.404L48.6505 120.408L45.5779 118.163C45.1927 117.883 44.6526 117.966 44.3723 118.351C44.091 118.735 44.1753 119.275 44.5595 119.557Z" fill="white"/>
<path fill-rule="evenodd" clip-rule="evenodd" d="M59.5229 158.235C59.5229 163.76 55.0438 168.239 49.519 168.239C43.9952 168.239 39.5161 163.76 39.5161 158.235C39.5161 152.71 43.9952 148.231 49.519 148.231C55.0438 148.231 59.5229 152.71 59.5229 158.235Z" fill="#9060EB"/>
<path fill-rule="evenodd" clip-rule="evenodd" d="M44.5595 159.433L48.3045 162.168C48.6789 162.442 49.2042 162.37 49.4914 162.006L53.9469 156.348C54.241 155.973 54.1763 155.43 53.8019 155.136C53.4285 154.841 52.8855 154.906 52.5905 155.28L48.6505 160.285L45.5779 158.04C45.1927 157.759 44.6526 157.842 44.3723 158.227C44.091 158.613 44.1753 159.152 44.5595 159.433Z" fill="white"/>
<path fill-rule="evenodd" clip-rule="evenodd" d="M164.686 295.822H70.555C68.1126 295.822 66.1318 293.84 66.1318 291.397V229.228C66.1318 226.784 68.1126 224.804 70.555 224.804H164.686C167.129 224.804 169.11 226.784 169.11 229.228V291.397C169.11 293.84 167.129 295.822 164.686 295.822Z" fill="#6FFFB0"/>
<path fill-rule="evenodd" clip-rule="evenodd" d="M164.685 295.822V294.969H70.5547C69.5658 294.969 68.6788 294.57 68.0299 293.922C67.3821 293.273 66.9842 292.386 66.9832 291.397V229.228C66.9842 228.239 67.3821 227.351 68.0299 226.702C68.6788 226.054 69.5658 225.656 70.5547 225.656H164.685C165.674 225.656 166.561 226.054 167.211 226.702C167.858 227.351 168.256 228.239 168.257 229.228V291.397C168.256 292.386 167.858 293.273 167.211 293.922C166.561 294.57 165.674 294.969 164.685 294.969V296.674C167.6 296.673 169.961 294.311 169.962 291.397V229.228C169.961 226.313 167.6 223.952 164.685 223.951H70.5547C67.6408 223.952 65.2788 226.313 65.2788 229.228V291.397C65.2788 294.311 67.6408 296.673 70.5547 296.674H164.685V295.822Z" fill="#FFF7F4"/>
<path fill-rule="evenodd" clip-rule="evenodd" d="M139.297 308.565H45.1664C42.723 308.565 40.7432 306.583 40.7432 304.141V241.971C40.7432 239.528 42.723 237.547 45.1664 237.547H139.297C141.741 237.547 143.721 239.528 143.721 241.971V304.141C143.721 306.583 141.741 308.565 139.297 308.565Z" fill="#FFD6CF"/>
<path fill-rule="evenodd" clip-rule="evenodd" d="M139.297 308.565H45.1664C42.723 308.565 40.7432 306.583 40.7432 304.141V241.971C40.7432 239.528 42.723 237.547 45.1664 237.547H139.297C141.741 237.547 143.721 239.528 143.721 241.971V304.141C143.721 306.583 141.741 308.565 139.297 308.565Z" fill="#232531"/>
<path fill-rule="evenodd" clip-rule="evenodd" d="M608.644 145.987H494.974C489.771 145.987 485.552 141.769 485.552 136.564V63.8143H618.067V136.564C618.067 141.769 613.848 145.987 608.644 145.987Z" fill="white"/>
<path fill-rule="evenodd" clip-rule="evenodd" d="M618.067 47.4711V63.8143H485.552V47.4711C485.552 44.2241 488.184 41.5925 491.431 41.5925H612.189C615.436 41.5925 618.067 44.2241 618.067 47.4711Z" fill="#232531"/>
<path fill-rule="evenodd" clip-rule="evenodd" d="M563.831 51.7405C563.831 54.4308 566.013 56.6115 568.703 56.6115C571.394 56.6115 573.575 54.4308 573.575 51.7405C573.575 49.0501 571.394 46.8694 568.703 46.8694C566.013 46.8694 563.831 49.0501 563.831 51.7405Z" fill="#FFE7E3"/>
<path fill-rule="evenodd" clip-rule="evenodd" d="M568.703 53.5693C570.246 53.5693 571.497 52.3197 571.497 50.778V38.1651C571.497 36.6234 570.246 35.3728 568.703 35.3728C567.162 35.3728 565.911 36.6234 565.911 38.1651V50.778C565.911 52.3197 567.162 53.5693 568.703 53.5693Z" fill="#9060EB"/>
<path fill-rule="evenodd" clip-rule="evenodd" d="M521.312 51.7405C521.312 54.4308 523.494 56.6115 526.185 56.6115C528.875 56.6115 531.057 54.4308 531.057 51.7405C531.057 49.0501 528.875 46.8694 526.185 46.8694C523.494 46.8694 521.312 49.0501 521.312 51.7405Z" fill="#FFE7E3"/>
<path fill-rule="evenodd" clip-rule="evenodd" d="M526.185 53.5693C527.727 53.5693 528.977 52.3197 528.977 50.778V38.1651C528.977 36.6234 527.727 35.3728 526.185 35.3728C524.643 35.3728 523.393 36.6234 523.393 38.1651V50.778C523.393 52.3197 524.643 53.5693 526.185 53.5693Z" fill="#9060EB"/>
<path fill-rule="evenodd" clip-rule="evenodd" d="M554.122 100.203V100.719H574.331V79.9958H553.607V100.719H554.122V100.203H554.638V81.0268H573.3V99.6879H554.122V100.203H554.638H554.122Z" fill="#FFD6CF"/>
<path fill-rule="evenodd" clip-rule="evenodd" d="M527.923 100.203V100.719H548.131V79.9958H527.408V100.719H527.923V100.203H528.438V81.0268H547.1V99.6879H527.923V100.203H528.438H527.923Z" fill="#FFD6CF"/>
<path fill-rule="evenodd" clip-rule="evenodd" d="M501.724 100.203V100.719H521.932V79.9958H501.208V100.719H501.724V100.203H502.239V81.0268H520.901V99.6879H501.724V100.203H502.239H501.724Z" fill="#FFD6CF"/>
<path fill-rule="evenodd" clip-rule="evenodd" d="M554.122 125.2V125.715H574.331V104.992H553.607V125.715H554.122V125.2H554.638V106.023H573.3V124.684H554.122V125.2H554.638H554.122Z" fill="#FFD6CF"/>
<path fill-rule="evenodd" clip-rule="evenodd" d="M527.923 125.2H547.616V105.508H527.923V125.2Z" fill="#232531"/>
<path fill-rule="evenodd" clip-rule="evenodd" d="M580.446 100.203V100.719H600.654V79.9958H579.931V100.719H580.446V100.203H580.962V81.0268H599.623V99.6879H580.446V100.203H580.962H580.446Z" fill="#FFD6CF"/>
<path fill-rule="evenodd" clip-rule="evenodd" d="M580.446 125.2V125.715H600.654V104.992H579.931V125.715H580.446V125.2H580.962V106.023H599.623V124.684H580.446V125.2H580.962H580.446Z" fill="#FFD6CF"/>
<path fill-rule="evenodd" clip-rule="evenodd" d="M501.724 125.2V125.715H521.932V104.992H501.208V125.715H501.724V125.2H502.239V106.023H520.901V124.684H501.724V125.2H502.239H501.724Z" fill="#FFD6CF"/>
<path fill-rule="evenodd" clip-rule="evenodd" d="M448.059 98.3844C448.059 118.089 432.085 134.062 412.381 134.062C392.676 134.062 376.703 118.089 376.703 98.3844C376.703 78.6805 392.676 62.7068 412.381 62.7068C432.085 62.7068 448.059 78.6805 448.059 98.3844Z" fill="#FFFEFB"/>
<path fill-rule="evenodd" clip-rule="evenodd" d="M394.507 109.457H430.255V87.0711H394.507V109.457Z" fill="#232531"/>
<path fill-rule="evenodd" clip-rule="evenodd" d="M394.185 87.5661L411.538 98.8793C411.729 99.0038 411.976 99.0077 412.171 98.8882L430.564 87.5749C430.843 87.4034 430.929 87.0397 430.758 86.7614C430.587 86.483 430.223 86.3968 429.945 86.5673L411.87 97.6846L394.831 86.5762C394.557 86.3978 394.191 86.4752 394.012 86.7487C393.834 87.0221 393.912 87.3877 394.185 87.5661Z" fill="white"/>
<path fill-rule="evenodd" clip-rule="evenodd" d="M393.835 70.6035C393.835 79.294 386.789 86.338 378.099 86.338C369.41 86.338 362.366 79.294 362.366 70.6035C362.366 61.9139 369.41 54.8689 378.099 54.8689C386.789 54.8689 393.835 61.9139 393.835 70.6035Z" fill="#9060EB"/>
<path fill-rule="evenodd" clip-rule="evenodd" d="M370.299 72.4872L376.189 76.7908C376.777 77.2211 377.605 77.1074 378.055 76.535L385.064 67.6347C385.528 67.0457 385.426 66.192 384.837 65.7284C384.249 65.2649 383.395 65.3668 382.931 65.9558L376.733 73.827L371.899 70.2967C371.295 69.8547 370.446 69.986 370.004 70.5917C369.562 71.1964 369.694 72.0452 370.299 72.4872Z" fill="white"/>
<path fill-rule="evenodd" clip-rule="evenodd" d="M199.789 206.361H245.142V183.416C245.142 181.514 243.6 179.972 241.698 179.972H199.789C197.887 179.972 196.345 181.514 196.345 183.416V202.917C196.345 204.819 197.887 206.361 199.789 206.361Z" fill="#FFFEFB"/>
<path fill-rule="evenodd" clip-rule="evenodd" d="M245.14 200.901L245.177 212.561L235.221 200.931L245.14 200.901Z" fill="#FFFEFB"/>
<path fill-rule="evenodd" clip-rule="evenodd" d="M212.516 192.866C212.52 194.08 211.539 195.066 210.327 195.07C209.113 195.074 208.126 194.093 208.123 192.881C208.119 191.667 209.1 190.68 210.312 190.676C211.525 190.674 212.512 191.654 212.516 192.866Z" fill="#F36A4F"/>
<path fill-rule="evenodd" clip-rule="evenodd" d="M221.939 192.838C221.943 194.05 220.963 195.037 219.75 195.041C218.536 195.045 217.549 194.065 217.545 192.851C217.542 191.638 218.523 190.651 219.736 190.647C220.948 190.643 221.935 191.624 221.939 192.838Z" fill="#F36A4F"/>
<path fill-rule="evenodd" clip-rule="evenodd" d="M231.362 192.808C231.365 194.022 230.385 195.009 229.172 195.011C227.959 195.015 226.972 194.034 226.969 192.822C226.965 191.609 227.945 190.622 229.158 190.619C230.372 190.615 231.359 191.595 231.362 192.808Z" fill="#F36A4F"/>
<path fill-rule="evenodd" clip-rule="evenodd" d="M318.136 82.9204H192.254C189.712 82.9204 187.65 80.8592 187.65 78.3168V25.2895C187.65 22.7481 189.712 20.687 192.254 20.687H318.136C320.677 20.687 322.739 22.7481 322.739 25.2895V78.3168C322.739 80.8592 320.677 82.9204 318.136 82.9204Z" fill="#6FFFB0"/>
<path fill-rule="evenodd" clip-rule="evenodd" d="M423.97 34.3818C421.97 34.8471 419.938 35.5221 418.105 36.4698C418.488 36.9252 418.89 37.3662 419.31 37.7865C421.702 40.1769 424.64 41.9274 427.861 42.8832C426.949 41.7438 426.211 40.4298 425.625 39.141C424.931 37.6164 424.391 36.0072 423.97 34.3818ZM449.151 36.4698C447.317 35.5239 445.285 34.848 443.288 34.3818C442.867 36.0072 442.328 37.6164 441.633 39.141C441.046 40.4316 440.306 41.7438 439.394 42.8832C442.615 41.9274 445.553 40.1769 447.945 37.7865C448.366 37.3662 448.767 36.9252 449.151 36.4698ZM443.552 13.644C445.681 13.1229 447.881 12.3597 449.792 11.2725C449.226 10.5246 448.608 9.81538 447.945 9.15208C445.553 6.76168 442.615 5.01028 439.396 4.05358C440.306 5.19478 441.046 6.50698 441.633 7.79578C442.48 9.65608 443.1 11.6469 443.552 13.644ZM417.466 11.2725C419.377 12.3597 421.574 13.1229 423.703 13.644C424.158 11.6469 424.776 9.65608 425.625 7.79578C426.211 6.50698 426.949 5.19478 427.861 4.05358C424.64 5.01028 421.702 6.76078 419.31 9.15208C418.647 9.81538 418.031 10.5246 417.466 11.2725ZM432.419 14.7681V3.44068C430.267 4.22098 428.679 6.90928 427.819 8.79748C427.046 10.4949 426.482 12.3165 426.067 14.1435C428.161 14.5125 430.294 14.7132 432.419 14.7681ZM432.419 43.497V33.3243C430.384 33.3774 428.346 33.5628 426.337 33.9021C426.718 35.3484 427.201 36.7821 427.821 38.1411C428.679 40.0311 430.267 42.7158 432.419 43.497ZM434.839 33.3243V43.497C436.99 42.7158 438.577 40.0302 439.437 38.1411C440.054 36.7821 440.537 35.3484 440.917 33.9021C438.911 33.5628 436.871 33.3774 434.839 33.3243ZM434.839 3.44068V14.7681C436.965 14.7132 439.097 14.5125 441.188 14.1435C440.775 12.3165 440.209 10.4949 439.437 8.79748C438.577 6.90928 436.99 4.22098 434.839 3.44068ZM444.588 22.2588H453.841C453.653 19.0926 452.73 16.029 451.135 13.2903C448.96 14.5557 446.452 15.4296 444.015 16.02C444.353 18.0801 444.538 20.1717 444.588 22.2588ZM441.647 16.5159C439.404 16.9155 437.117 17.1297 434.839 17.1864V22.2588H442.17C442.121 20.3382 441.954 18.4131 441.647 16.5159ZM425.608 16.5159C425.304 18.4131 425.135 20.3373 425.086 22.2588H432.419V17.1864C430.139 17.1297 427.855 16.9155 425.608 16.5159ZM413.417 22.2588H422.667C422.718 20.1717 422.905 18.0801 423.241 16.02C420.799 15.4296 418.289 14.553 416.122 13.2903C414.525 16.029 413.602 19.0926 413.417 22.2588ZM422.667 24.678H413.417C413.624 28.1862 414.731 31.5612 416.65 34.506C418.756 33.3666 421.117 32.5674 423.437 32.0247C422.974 29.6082 422.728 27.1368 422.667 24.678ZM432.419 24.678H425.086C425.144 26.9748 425.373 29.2851 425.805 31.5423C427.987 31.1643 430.206 30.9582 432.419 30.9051V24.678ZM442.17 24.678H434.839V30.9051C437.052 30.9582 439.27 31.1643 441.453 31.5423C441.882 29.2842 442.111 26.9748 442.17 24.678ZM453.841 24.678H444.59C444.529 27.1368 444.283 29.6082 443.818 32.0247C446.138 32.5674 448.499 33.3666 450.605 34.506C452.526 31.5612 453.634 28.1862 453.841 24.678ZM433.629 0.80368C439.66 0.80368 445.391 3.17788 449.654 7.44208C453.919 11.7054 456.294 17.4384 456.294 23.4693C456.294 29.5002 453.919 35.2314 449.654 39.4956C445.391 43.7607 439.66 46.1358 433.629 46.1358C427.597 46.1358 421.865 43.7607 417.601 39.4956C413.337 35.2314 410.961 29.5002 410.961 23.4693C410.961 17.4384 413.337 11.7054 417.601 7.44208C421.865 3.17788 427.597 0.80368 433.629 0.80368Z" fill="#FFFFFE"/>
<path fill-rule="evenodd" clip-rule="evenodd" d="M318.136 82.9204V82.0334H192.254C191.225 82.0324 190.301 81.6188 189.626 80.9445C188.952 80.2692 188.538 79.346 188.538 78.3169V25.2895C188.538 24.2614 188.952 23.3381 189.626 22.6629C190.301 21.9886 191.225 21.5749 192.254 21.574H318.136C319.164 21.5749 320.087 21.9886 320.762 22.6629C321.437 23.3381 321.85 24.2614 321.851 25.2895V78.3169C321.85 79.346 321.437 80.2692 320.762 80.9445C320.087 81.6188 319.164 82.0324 318.136 82.0334V83.8074C321.168 83.8064 323.624 81.3493 323.625 78.3169V25.2895C323.624 22.2571 321.168 19.801 318.136 19.8H192.254C189.221 19.801 186.764 22.2571 186.763 25.2895V78.3169C186.764 81.3493 189.221 83.8064 192.254 83.8074H318.136V82.9204Z" fill="#FFF7F4"/>
<path fill-rule="evenodd" clip-rule="evenodd" d="M249.457 50.1341C249.457 62.006 239.834 71.6306 227.961 71.6306C216.089 71.6306 206.465 62.006 206.465 50.1341C206.465 38.2621 216.089 28.6385 227.961 28.6385C239.834 28.6385 249.457 38.2621 249.457 50.1341Z" fill="#232531"/>
<path fill-rule="evenodd" clip-rule="evenodd" d="M227.476 46.4247C229.604 46.4247 231.338 44.689 231.338 42.5623C231.338 40.4352 229.604 38.7 227.476 38.7C225.349 38.7 223.614 40.4352 223.614 42.5623C223.614 44.689 225.349 46.4247 227.476 46.4247Z" fill="#FFFFFE"/>
<path fill-rule="evenodd" clip-rule="evenodd" d="M227.476 47.6491C230.488 47.6491 232.953 50.1129 232.953 53.1252V58.4667C232.953 58.8042 232.677 59.08 232.34 59.08H222.612C222.275 59.08 222 58.8042 222 58.4667V53.1252C222 50.1129 224.464 47.6491 227.476 47.6491Z" fill="#FFFFFE"/>
<path fill-rule="evenodd" clip-rule="evenodd" d="M256.782 38.0828H301.534V36.3088H256.782V38.0828Z" fill="#FFF7F4"/>
<path fill-rule="evenodd" clip-rule="evenodd" d="M256.782 47.8259H286.472V46.052H256.782V47.8259Z" fill="#FFF7F4"/>
<path fill-rule="evenodd" clip-rule="evenodd" d="M593.5 270.56H487.922C485.478 270.56 483.498 268.58 483.498 266.136V196.912C483.498 194.468 485.478 192.488 487.922 192.488H593.5C595.943 192.488 597.923 194.468 597.923 196.912V266.136C597.923 268.58 595.943 270.56 593.5 270.56Z" fill="#6FFFB0"/>
<path fill-rule="evenodd" clip-rule="evenodd" d="M593.5 270.56V269.708H487.921C485.949 269.704 484.354 268.108 484.35 266.136V196.912C484.351 195.923 484.749 195.036 485.396 194.386C486.044 193.739 486.932 193.341 487.921 193.34H593.5C594.489 193.341 595.376 193.739 596.024 194.386C596.672 195.036 597.07 195.923 597.07 196.912V266.136C597.067 268.108 595.472 269.704 593.5 269.708V271.412C596.415 271.412 598.776 269.051 598.776 266.136V196.912C598.776 193.998 596.415 191.636 593.5 191.635H487.921C485.007 191.636 482.646 193.998 482.645 196.912V266.136C482.646 269.051 485.007 271.412 487.921 271.412H593.5V270.56Z" fill="#FFF7F4"/>
<path fill-rule="evenodd" clip-rule="evenodd" d="M0 462H605V386H0V462Z" fill="#202631"/>
<path fill-rule="evenodd" clip-rule="evenodd" d="M534.939 179.978C527.847 189.694 509.572 194.769 499.855 187.679C490.138 180.587 492.661 164.014 499.751 154.297C506.843 144.58 520.468 142.452 530.185 149.544C539.902 156.635 542.03 170.261 534.939 179.978Z" fill="#F1BA9C"/>
<path fill-rule="evenodd" clip-rule="evenodd" d="M516.921 145.677C516.921 145.677 507.687 138.75 500.262 147.437C492.837 156.126 486.138 172.02 502.778 186.285L516.921 145.677Z" fill="#F1BA9C"/>
<path fill-rule="evenodd" clip-rule="evenodd" d="M520.579 151.314L533.66 124.109C534.509 122.065 533.557 119.633 531.561 118.75C529.832 117.984 527.87 118.64 526.933 120.297L508.682 147.496L520.579 151.314Z" fill="#F1BA9C"/>
<path fill-rule="evenodd" clip-rule="evenodd" d="M500.05 155.063L506.684 152.467C509.103 151.521 511.66 151.044 514.222 151.044C516.239 151.044 518.259 151.339 520.216 151.932L523.791 153.014C525.178 153.434 526.115 154.714 526.115 156.144L526.105 156.391V156.39C525.98 158.101 524.552 159.419 522.845 159.419L522.773 159.418L515.071 159.256C514.726 159.249 514.416 159.456 514.289 159.777C514.163 160.098 514.25 160.462 514.507 160.691L514.655 160.526L514.506 160.69L514.507 160.691L514.655 160.526L514.506 160.69C514.527 160.709 515.565 161.656 516.587 163.414C517.609 165.175 518.616 167.735 518.616 171.03C518.615 173.937 517.836 177.432 515.53 181.499C515.306 181.894 515.445 182.396 515.839 182.62C516.234 182.845 516.736 182.705 516.96 182.31C519.39 178.032 520.262 174.236 520.261 171.03C520.261 167.336 519.108 164.449 517.955 162.496C516.8 160.54 515.647 159.505 515.602 159.464L515.055 160.078L515.037 160.9L522.739 161.063L522.845 161.064C525.412 161.063 527.554 159.083 527.745 156.511C527.755 156.389 527.759 156.266 527.759 156.144C527.759 153.992 526.352 152.072 524.268 151.44L520.692 150.358C518.58 149.719 516.399 149.401 514.222 149.401C511.456 149.401 508.695 149.914 506.084 150.936L499.452 153.532C499.028 153.697 498.819 154.174 498.985 154.597C499.151 155.019 499.628 155.228 500.05 155.063Z" fill="#E29C79"/>
<path fill-rule="evenodd" clip-rule="evenodd" d="M434.424 257.595L496.873 169.453L521.55 182.71L469.937 279.866C463.306 291.63 447.45 294.158 437.49 285.039H437.489C429.744 277.948 428.433 266.221 434.424 257.595Z" fill="#F1BA9C"/>
<path fill-rule="evenodd" clip-rule="evenodd" d="M359.74 260.831L447.2 250.547C459.75 250.805 471.054 255.059 471.675 267.597C472.324 280.744 462.221 291.942 449.077 292.645L360.027 310.468C347.466 311.14 336.748 306.189 333.565 294.02C329.117 277.012 342.164 260.468 359.74 260.831Z" fill="#F1BA9C"/>
<path fill-rule="evenodd" clip-rule="evenodd" d="M405.617 254.256L414.754 306.128L362.034 315.415L329.05 252.701C329.05 252.701 370.04 250.517 405.617 254.256Z" fill="#FFFEFB"/>
<path fill-rule="evenodd" clip-rule="evenodd" d="M295.557 252.504H295.552C295.324 252.497 242.804 251.06 217.397 286.457C192.7 320.865 192.784 381.786 192.811 385.417C192.811 385.515 192.892 385.588 192.989 385.588H394.971C395.086 385.588 395.171 385.479 395.144 385.367L372.578 290.87C368.158 272.364 352.205 256.587 333.468 253.28C323.458 251.514 311.717 251.981 295.557 252.504Z" fill="#FFFEFB"/>
<path fill-rule="evenodd" clip-rule="evenodd" d="M214.501 278.659L140.573 365.016C131.106 375.48 132.516 391.784 143.643 400.466C152.954 407.732 166.143 407.248 174.897 399.32L245.792 323.632L214.501 278.659Z" fill="#F1BA9C"/>
<path fill-rule="evenodd" clip-rule="evenodd" d="M158.955 405.608H273.497L271.257 383.227L178.171 367.82L158.955 405.608Z" fill="#F1BA9C"/>
<path fill-rule="evenodd" clip-rule="evenodd" d="M260.347 385.267C260.347 385.267 310.047 371.461 322.683 405.609H273.497L260.347 385.267Z" fill="#F1BA9C"/>
<path fill-rule="evenodd" clip-rule="evenodd" d="M295.905 392.701L295.938 392.708C296.315 392.798 299.847 393.687 303.67 395.772C305.581 396.814 307.562 398.153 309.262 399.825C310.964 401.498 312.383 403.497 313.206 405.877C313.355 406.306 313.822 406.534 314.252 406.385C314.681 406.237 314.908 405.768 314.76 405.339C313.808 402.587 312.154 400.321 310.236 398.478C304.472 392.964 296.337 391.123 296.274 391.098C295.832 390.996 295.391 391.272 295.289 391.715C295.187 392.157 295.462 392.599 295.905 392.701Z" fill="#E29C79"/>
<path fill-rule="evenodd" clip-rule="evenodd" d="M283.723 395.967L283.749 395.971C284.065 396.011 287.096 396.439 290.555 397.909C294.022 399.378 297.874 401.876 299.981 405.984C300.189 406.388 300.684 406.546 301.088 406.34C301.492 406.132 301.651 405.636 301.443 405.232C298.995 400.483 294.586 397.78 290.844 396.248C287.093 394.716 283.965 394.341 283.918 394.335C283.467 394.281 283.058 394.603 283.004 395.054C282.951 395.505 283.272 395.913 283.723 395.967Z" fill="#E29C79"/>
<path fill-rule="evenodd" clip-rule="evenodd" d="M201.127 370.649L167.008 364.987C166.56 364.913 166.137 365.216 166.064 365.664C165.989 366.111 166.292 366.535 166.74 366.609L200.857 372.271C201.305 372.346 201.728 372.043 201.803 371.595C201.877 371.147 201.574 370.724 201.127 370.649Z" fill="#E29C79"/>
<path fill-rule="evenodd" clip-rule="evenodd" d="M285.622 252.928C285.622 252.928 219.373 252.067 175.68 315.759L233.08 355.625L283.82 304.639L285.622 252.928Z" fill="#FFFEFB"/>
<path fill-rule="evenodd" clip-rule="evenodd" d="M259.709 317.901L227.131 350.394L223.141 347.622C222.731 347.338 222.168 347.439 221.883 347.848C221.599 348.259 221.7 348.822 222.109 349.107L226.72 352.308C227.078 352.557 227.564 352.514 227.873 352.206L260.985 319.18C261.339 318.828 261.34 318.256 260.987 317.903C260.634 317.549 260.063 317.548 259.709 317.901Z" fill="#D3D6DD"/>
<path fill-rule="evenodd" clip-rule="evenodd" d="M224.337 415.805H342.029V405.447H224.337C221.477 405.447 219.158 407.766 219.158 410.627C219.158 413.487 221.477 415.805 224.337 415.805Z" fill="#B5BCC9"/>
<path fill-rule="evenodd" clip-rule="evenodd" d="M331.213 415.805H496.86L526.679 298.375C528.102 292.772 523.868 287.326 518.085 287.326H370.735C366.678 287.326 363.14 290.079 362.141 294.01L331.213 415.805Z" fill="#B5BCC9"/>
<mask id="mask0_0_586" style="mask-type:alpha" maskUnits="userSpaceOnUse" x="331" y="287" width="196" height="129">
<path fill-rule="evenodd" clip-rule="evenodd" d="M331.213 415.805H496.86L526.679 298.375C528.102 292.772 523.868 287.326 518.085 287.326H370.735C366.678 287.326 363.14 290.079 362.141 294.01L331.213 415.805Z" fill="white"/>
</mask>
<g mask="url(#mask0_0_586)">
<path fill-rule="evenodd" clip-rule="evenodd" d="M338.935 415.805H504.581L534.4 298.375C535.823 292.772 531.588 287.326 525.806 287.326H378.456C374.399 287.326 370.86 290.079 369.862 294.01L338.935 415.805Z" fill="#D3D6DD"/>
</g>
<path fill-rule="evenodd" clip-rule="evenodd" d="M430.77 345.587C426.444 353.079 428.186 362.182 434.661 365.919C441.136 369.658 449.891 366.615 454.216 359.124C458.541 351.632 456.798 342.529 450.324 338.792C443.849 335.053 435.095 338.096 430.77 345.587Z" fill="#FEFFFF"/>
<path fill-rule="evenodd" clip-rule="evenodd" d="M274.457 167.984C274.457 167.984 270.255 192.68 299.998 217.916L303.046 206.007L274.457 167.984Z" fill="#470B09"/>
<path fill-rule="evenodd" clip-rule="evenodd" d="M347.879 154.946C347.879 154.946 366.737 155.133 364.73 142.764C361.366 122.026 318.634 123.286 303.515 129.219L347.879 154.946Z" fill="#470B09"/>
<path fill-rule="evenodd" clip-rule="evenodd" d="M359.944 173.895C358.327 197.961 337.508 216.16 313.442 214.543C289.377 212.927 272.841 192.051 274.457 167.984C276.073 143.919 295.23 125.778 319.296 127.394C343.361 129.011 361.559 149.83 359.944 173.895Z" fill="#470B09"/>
<path fill-rule="evenodd" clip-rule="evenodd" d="M348.453 195.844C350.316 202.061 356.865 205.592 363.083 203.728C369.301 201.866 372.83 195.315 370.968 189.099C369.106 182.882 362.555 179.351 356.337 181.214C350.12 183.077 346.59 189.627 348.453 195.844Z" fill="#E29C79"/>
<path fill-rule="evenodd" clip-rule="evenodd" d="M339.224 223.478L334.407 255.163C332.599 267.051 321.208 275.005 309.425 272.606C297.832 270.246 288.042 268.676 290.706 257.15L306.436 189.726L339.224 223.478Z" fill="#F1BA9C"/>
<path fill-rule="evenodd" clip-rule="evenodd" d="M335.669 246.811C335.669 246.811 301.22 238.589 301.987 209.49L338.583 228.003L335.669 246.811Z" fill="#E29C79"/>
<path fill-rule="evenodd" clip-rule="evenodd" d="M341.723 137.795C349.511 141.076 355.301 147.828 358.03 155.825C362.166 167.948 368.533 191.435 363.743 210.403C359.706 226.386 345.948 235.89 325.562 231.848C325.562 231.848 299.509 227.617 296.109 195.522C291.408 151.145 318.405 127.977 341.723 137.795Z" fill="#F1BA9C"/>
<path fill-rule="evenodd" clip-rule="evenodd" d="M356.593 185.701C356.966 187.137 358.434 188.001 359.871 187.627C361.308 187.255 362.171 185.787 361.798 184.35C361.426 182.912 359.958 182.05 358.521 182.422C357.083 182.796 356.221 184.263 356.593 185.701Z" fill="#101010"/>
<path fill-rule="evenodd" clip-rule="evenodd" d="M333.866 186.084C334.24 187.522 335.707 188.384 337.145 188.012C338.582 187.638 339.445 186.171 339.072 184.733C338.699 183.296 337.231 182.433 335.794 182.806C334.356 183.179 333.494 184.647 333.866 186.084Z" fill="#101010"/>
<path fill-rule="evenodd" clip-rule="evenodd" d="M350.075 188.657L353.626 195.564L351.017 197.17C350.653 197.394 350.539 197.871 350.763 198.236C350.988 198.602 351.465 198.715 351.83 198.491L355.05 196.509C355.395 196.296 355.519 195.853 355.334 195.494L351.454 187.949C351.258 187.568 350.791 187.418 350.411 187.614C350.029 187.81 349.879 188.277 350.075 188.657Z" fill="#470B09"/>
<path fill-rule="evenodd" clip-rule="evenodd" d="M340.533 160.853C340.837 163.028 339.206 164.983 337.012 165.071C333.701 165.205 328.886 165.707 324.469 167.331C322.826 167.936 321 167.192 320.332 165.574C319.692 164.023 320.444 162.409 321.845 161.485C324.711 159.593 329.247 156.81 337.078 157.657C338.837 157.847 340.289 159.103 340.533 160.853Z" fill="#470B09"/>
<path fill-rule="evenodd" clip-rule="evenodd" d="M351.617 168.815C351.841 170.945 353.273 172.734 354.709 172.672C356.878 172.579 360.091 172.745 363.264 174.026C364.444 174.502 365.481 173.659 365.6 172.044C365.716 170.496 364.917 168.981 363.833 168.178C361.613 166.534 358.141 164.138 353.236 165.483C352.136 165.785 351.437 167.1 351.617 168.815Z" fill="#470B09"/>
<path fill-rule="evenodd" clip-rule="evenodd" d="M332.066 198.816C324.734 198.816 318.579 192.962 318.144 185.389C317.692 177.544 323.549 170.828 331.226 170.385C331.493 170.37 331.757 170.363 332.021 170.363C339.352 170.363 345.507 176.217 345.942 183.79C346.394 191.635 340.536 198.352 332.86 198.794C332.594 198.808 332.329 198.816 332.066 198.816ZM336.471 182.719C336.248 182.719 336.021 182.747 335.794 182.806C334.356 183.179 333.494 184.647 333.866 186.084C334.181 187.295 335.272 188.098 336.468 188.098C336.691 188.098 336.918 188.07 337.145 188.012C338.582 187.638 339.445 186.171 339.072 184.733C338.758 183.523 337.666 182.719 336.471 182.719Z" fill="#F5CCB6"/>
<path fill-rule="evenodd" clip-rule="evenodd" d="M336.468 188.098C335.272 188.098 334.181 187.295 333.866 186.084C333.494 184.647 334.356 183.179 335.794 182.806C336.021 182.747 336.248 182.719 336.472 182.719C337.666 182.719 338.758 183.523 339.072 184.733C339.445 186.171 338.582 187.638 337.145 188.012C336.918 188.07 336.691 188.098 336.468 188.098Z" fill="#4E4E4E"/>
<path fill-rule="evenodd" clip-rule="evenodd" d="M371.188 195.007C371.608 193.113 371.564 191.088 370.968 189.099C369.936 185.653 367.463 183.033 364.406 181.699C364.022 179.04 363.551 176.438 363.026 173.932C363.106 173.963 363.184 173.994 363.264 174.026C363.485 174.116 363.702 174.158 363.907 174.158C364.8 174.158 365.503 173.356 365.6 172.044C365.685 170.902 365.273 169.777 364.614 168.943C364.879 168.907 365.146 168.882 365.417 168.866C365.621 168.855 365.823 168.849 366.024 168.849C372.342 168.849 377.693 174.521 378.113 181.821C378.447 187.638 375.553 192.788 371.188 195.007Z" fill="#FFE1DB"/>
<path fill-rule="evenodd" clip-rule="evenodd" d="M366.376 196.163C366.066 196.163 365.756 196.149 365.45 196.123C365.495 191.281 365.086 186.401 364.406 181.699C367.463 183.033 369.936 185.653 370.968 189.099C371.564 191.088 371.608 193.113 371.188 195.007C369.9 195.66 368.484 196.06 366.985 196.146C366.782 196.158 366.578 196.163 366.376 196.163Z" fill="#EAB69C"/>
<path fill-rule="evenodd" clip-rule="evenodd" d="M365.45 196.123C359.544 195.601 354.689 190.132 354.29 183.191C354.056 179.122 355.402 175.379 357.726 172.738C359.359 172.882 361.195 173.225 363.027 173.932C363.551 176.438 364.022 179.04 364.407 181.699C365.087 186.401 365.495 191.281 365.45 196.123ZM359.198 182.336C358.974 182.336 358.747 182.363 358.521 182.422C357.083 182.796 356.221 184.263 356.593 185.701C356.908 186.911 357.999 187.715 359.193 187.715C359.418 187.715 359.644 187.686 359.872 187.627C361.308 187.255 362.171 185.787 361.799 184.35C361.485 183.139 360.393 182.336 359.198 182.336Z" fill="#F5CCB6"/>
<path fill-rule="evenodd" clip-rule="evenodd" d="M359.193 187.715C357.998 187.715 356.908 186.911 356.593 185.701C356.221 184.263 357.083 182.796 358.521 182.422C358.747 182.363 358.974 182.336 359.198 182.336C360.393 182.336 361.485 183.139 361.798 184.35C362.171 185.787 361.308 187.255 359.871 187.627C359.644 187.686 359.418 187.715 359.193 187.715Z" fill="#4E4E4E"/>
<path fill-rule="evenodd" clip-rule="evenodd" d="M363.908 174.158C363.702 174.158 363.485 174.116 363.264 174.026C363.184 173.994 363.106 173.963 363.026 173.932C361.195 173.225 359.359 172.882 357.726 172.738C359.528 170.691 361.918 169.305 364.614 168.943C365.273 169.777 365.685 170.902 365.6 172.044C365.503 173.356 364.8 174.158 363.908 174.158Z" fill="#774A49"/>
<path fill-rule="evenodd" clip-rule="evenodd" d="M345.942 183.79L345.147 183.835C345.163 184.105 345.17 184.372 345.17 184.639C345.169 191.706 339.776 197.601 332.814 197.999C332.563 198.014 332.314 198.02 332.066 198.02C325.167 198.022 319.35 192.504 318.938 185.343C318.923 185.074 318.915 184.807 318.915 184.541C318.916 177.475 324.309 171.578 331.272 171.18C331.523 171.166 331.772 171.159 332.021 171.159C338.918 171.157 344.736 176.675 345.147 183.835L345.942 183.79L346.737 183.744C346.278 175.76 339.785 169.569 332.021 169.566C331.741 169.566 331.461 169.575 331.18 169.591C323.346 170.044 317.321 176.657 317.323 184.541C317.323 184.837 317.331 185.135 317.349 185.435C317.807 193.419 324.3 199.61 332.066 199.612C332.344 199.612 332.625 199.604 332.906 199.589C340.739 199.135 346.763 192.522 346.763 184.639C346.763 184.342 346.754 184.044 346.737 183.744L345.942 183.79Z" fill="white"/>
<path fill-rule="evenodd" clip-rule="evenodd" d="M378.113 181.821L377.319 181.866C377.335 182.156 377.343 182.446 377.343 182.732C377.344 186.117 376.192 189.203 374.316 191.47C372.437 193.738 369.856 195.183 366.94 195.352C366.751 195.362 366.564 195.367 366.377 195.367C363.462 195.367 360.755 194.062 358.703 191.871C356.655 189.682 355.284 186.613 355.085 183.145C355.068 182.854 355.06 182.566 355.06 182.279C355.059 178.894 356.211 175.808 358.087 173.541C359.967 171.274 362.547 169.83 365.462 169.661C365.651 169.65 365.839 169.645 366.025 169.645C368.941 169.646 371.648 170.95 373.699 173.141C375.747 175.33 377.12 178.399 377.319 181.867L378.113 181.821L378.908 181.775C378.687 177.943 377.173 174.525 374.861 172.054C372.553 169.583 369.427 168.052 366.025 168.053C365.808 168.053 365.59 168.059 365.371 168.071C361.975 168.266 358.98 169.962 356.86 172.527C354.738 175.093 353.469 178.533 353.468 182.279C353.468 182.597 353.477 182.916 353.495 183.238C353.716 187.069 355.23 190.487 357.541 192.959C359.849 195.429 362.976 196.96 366.377 196.96C366.594 196.96 366.813 196.953 367.031 196.941C370.428 196.746 373.424 195.051 375.544 192.485C377.665 189.919 378.935 186.479 378.936 182.732C378.936 182.415 378.927 182.097 378.908 181.775L378.113 181.821Z" fill="white"/>
<path fill-rule="evenodd" clip-rule="evenodd" d="M346.492 184.365L346.441 184.312L346.492 184.366V184.365L346.441 184.312L346.492 184.366C346.517 184.341 346.983 183.912 347.726 183.501C348.469 183.089 349.478 182.702 350.598 182.703C351.575 182.707 352.647 182.98 353.819 183.833C354.174 184.093 354.673 184.017 354.933 183.662C355.192 183.307 355.115 182.809 354.76 182.549C353.338 181.504 351.888 181.108 350.598 181.112C349.065 181.113 347.774 181.642 346.867 182.156C345.96 182.674 345.425 183.184 345.391 183.215C345.074 183.519 345.063 184.023 345.367 184.34C345.671 184.659 346.175 184.669 346.492 184.365Z" fill="white"/>
<path fill-rule="evenodd" clip-rule="evenodd" d="M317.974 184.611L304.058 187.644C303.627 187.738 303.356 188.162 303.449 188.592C303.543 189.021 303.966 189.294 304.397 189.199L318.313 186.167C318.742 186.073 319.015 185.649 318.922 185.219C318.828 184.79 318.403 184.518 317.974 184.611Z" fill="white"/>
<path fill-rule="evenodd" clip-rule="evenodd" d="M337.819 203.753L337.774 204.015C337.777 204.195 337.824 204.304 337.861 204.383C337.936 204.532 338.002 204.597 338.065 204.664C338.181 204.783 338.305 204.877 338.46 204.984C338.992 205.343 339.902 205.796 341.196 206.178C342.488 206.556 344.153 206.851 346.144 206.851C348.681 206.852 351.745 206.371 355.222 204.981C355.62 204.821 355.813 204.37 355.654 203.973C355.496 203.576 355.045 203.382 354.647 203.54C351.346 204.86 348.486 205.301 346.144 205.301C343.832 205.301 342.024 204.868 340.811 204.417C340.205 204.192 339.747 203.961 339.464 203.786C339.323 203.701 339.224 203.627 339.188 203.594L339.174 203.582L338.918 203.834L339.219 203.64L339.174 203.582L338.918 203.834L339.219 203.64L338.64 204.015H339.325C339.315 203.77 339.244 203.689 339.219 203.64L338.64 204.015H339.325H338.58L339.285 204.257L339.325 204.015H338.58L339.285 204.257C339.424 203.852 339.208 203.411 338.804 203.272C338.398 203.133 337.957 203.348 337.819 203.753Z" fill="#470B09"/>
<path fill-rule="evenodd" clip-rule="evenodd" d="M301.126 191.387C301.126 191.387 306.409 188.852 304.524 171.718C302.638 154.586 312.578 146.37 321.253 147.192C329.929 148.015 348.075 151.322 358.194 146.241C358.194 146.241 344.719 127.673 315.647 135.789C286.575 143.904 292.51 187.635 292.51 187.635L301.126 191.387Z" fill="#470B09"/>
<path fill-rule="evenodd" clip-rule="evenodd" d="M278.209 201.252C280.469 208.796 288.417 213.081 295.962 210.82C303.506 208.559 307.79 200.611 305.53 193.066C303.27 185.521 295.321 181.238 287.776 183.498C280.232 185.758 275.948 193.707 278.209 201.252Z" fill="#F1BA9C"/>
<path fill-rule="evenodd" clip-rule="evenodd" d="M285.662 193.719L285.667 193.717C285.761 193.691 286.866 193.403 288.369 193.404C289.927 193.403 291.889 193.711 293.649 194.872C295.407 196.037 297.029 198.049 297.905 201.697C298.004 202.113 298.422 202.37 298.839 202.271C299.255 202.172 299.512 201.754 299.413 201.337C298.478 197.389 296.609 194.958 294.502 193.577C292.398 192.193 290.121 191.854 288.369 191.854C286.558 191.855 285.285 192.214 285.238 192.227C284.826 192.344 284.587 192.773 284.705 193.185C284.821 193.596 285.25 193.835 285.662 193.719Z" fill="#470B09"/>
<path fill-rule="evenodd" clip-rule="evenodd" d="M281.163 253.111L303.108 252.029L330.97 252.471L340.82 252.278C340.82 252.278 349.135 280.147 314.099 280.663C279.063 281.179 281.163 253.111 281.163 253.111Z" fill="#F1BA9C"/>
<path fill-rule="evenodd" clip-rule="evenodd" d="M87.8379 351.807L91.7926 415.595C92.0778 419.826 95.5934 423.113 99.8353 423.113H127.035C131.292 423.113 134.814 419.804 135.081 415.557L138.755 351.807H87.8379Z" fill="white"/>
<path fill-rule="evenodd" clip-rule="evenodd" d="M84.7388 351.807H141.853V341.332H84.7388V351.807Z" fill="#441898"/>
<path fill-rule="evenodd" clip-rule="evenodd" d="M90.3911 344.179L93.5862 335.086H133.395L136.222 344.179H90.3911Z" fill="#441898"/>
<path fill-rule="evenodd" clip-rule="evenodd" d="M91.8993 341.295H134.717C135.002 341.295 135.233 341.064 135.233 340.779C135.233 340.494 135.002 340.262 134.717 340.262H91.8993C91.6131 340.262 91.3818 340.494 91.3818 340.779C91.3818 341.064 91.6131 341.295 91.8993 341.295Z" fill="white"/>
<path fill-rule="evenodd" clip-rule="evenodd" d="M137.197 396.35H89.3952L87.3213 369.825H139.271L137.197 396.35Z" fill="#9060EB"/>
</svg>
