<svg width="820" height="524" viewBox="0 0 820 524" fill="none" xmlns="http://www.w3.org/2000/svg">
<path fill-rule="evenodd" clip-rule="evenodd" d="M160.301 368.443C155.146 381.029 132.367 402.896 130.7 400.028C129.034 397.16 139.596 364.169 146.882 361.854C154.168 359.538 160.301 368.443 160.301 368.443" fill="#DED8E3"/>
<path fill-rule="evenodd" clip-rule="evenodd" d="M194.921 377.394C194.476 390.987 180.745 419.422 178.185 417.316C175.622 415.208 174.025 380.604 180.047 375.895C186.069 371.186 194.921 377.394 194.921 377.394" fill="#DED8E3"/>
<path fill-rule="evenodd" clip-rule="evenodd" d="M69.3054 301.969L60.4712 308.137L55.7764 302.625L63.893 296.535L69.3054 301.969" fill="#EEA5A6"/>
<path fill-rule="evenodd" clip-rule="evenodd" d="M59.3217 304.65C62.4991 309.136 59.312 312.626 55.5344 314.635C51.8184 316.611 47.5617 316.807 47.3487 316.392C47.1345 315.978 49.4868 314.771 49.4868 314.771C49.4868 314.771 46.2379 315.263 44.3467 315.313C43.3714 315.337 47.5 312.651 47.3741 312.359C47.258 312.09 42.9649 313.983 42.6563 313.384C42.0223 312.602 46.2343 309.799 46.2343 309.799C46.2343 309.799 42.2824 310.953 42.62 309.906C42.9552 308.86 50.1583 306.21 50.1583 306.21C50.1583 306.21 46.6856 306.595 47.3669 305.196C48.0469 303.798 55.5828 299.373 59.3217 304.65" fill="#EEA5A6"/>
<path fill-rule="evenodd" clip-rule="evenodd" d="M230.204 89.5255L226.064 79.5781L219.143 81.7065L222.719 91.2037L230.204 89.5255" fill="#EEA5A6"/>
<path fill-rule="evenodd" clip-rule="evenodd" d="M223.221 81.9025C228.31 79.8249 227.497 75.1688 225.389 71.4457C223.315 67.7818 219.83 65.3315 219.427 65.5675C219.024 65.8022 220.359 68.0843 220.359 68.0843C220.359 68.0843 217.883 65.9232 216.315 64.8657C215.506 64.3212 217.546 68.8054 217.283 68.9833C217.041 69.1479 214.435 65.2456 213.854 65.5856C212.899 65.9039 214.946 70.5309 214.946 70.5309C214.946 70.5309 212.233 67.4345 211.954 68.4981C211.676 69.5617 216.33 75.6661 216.33 75.6661C216.33 75.6661 213.607 73.476 213.429 75.0212C213.253 76.5664 217.234 84.3455 223.221 81.9025" fill="#EEA5A6"/>
<path fill-rule="evenodd" clip-rule="evenodd" d="M213.356 281.6C213.356 281.6 278.107 333.976 271.013 360.401C266.749 376.287 194.769 390.779 194.769 390.779L191.452 376.683L230.652 360.401L194.136 320.039L191.252 285.445L213.356 281.6" fill="#202631"/>
<path fill-rule="evenodd" clip-rule="evenodd" d="M173.956 284.483C173.956 284.483 156.657 319.079 171.072 334.455C185.487 349.83 199.902 379.621 199.902 379.621L157.452 365.073L154.136 379.17C154.136 379.17 213.012 422.29 234.573 398.242C255.536 374.859 201.823 288.327 201.823 288.327L173.956 284.483" fill="#202631"/>
<path fill-rule="evenodd" clip-rule="evenodd" d="M179.968 169.577C185.176 179.257 182.121 187.088 175.466 190.668C168.812 194.249 161.077 192.222 155.87 182.543C150.662 172.864 152.525 163.614 159.18 160.032C165.834 156.452 174.76 159.898 179.968 169.577" fill="#EEA5A6"/>
<path fill-rule="evenodd" clip-rule="evenodd" d="M144.634 214.142C157.971 201.694 192.649 191.024 202.43 178.575C212.211 166.127 217.546 139.451 217.546 125.224C217.546 110.997 218.435 86.9893 218.435 86.9893L233.329 83.9595C233.329 83.9595 240.437 132.455 239.548 151.128C238.659 169.801 234.573 194.249 228.767 216.637C224.663 232.47 228.353 296.661 228.353 296.661C228.353 296.661 203.476 341.439 166.159 319.05C166.159 319.05 148.331 277.172 144.185 273.856C137.597 268.586 135.893 277.587 116.405 285.466C99.2985 292.381 66.6503 309.098 66.6503 309.098L59.187 297.904C59.187 297.904 93.8257 268.775 108.942 251.881C124.059 234.986 131.296 226.591 144.634 214.142" fill="#B5BCC9"/>
<path fill-rule="evenodd" clip-rule="evenodd" d="M172.69 203.371C169.302 202.099 162.21 187.275 162.21 187.275L174.012 181.68L183.275 191.055C183.275 191.055 189.252 197.857 184.994 201.941C180.736 206.024 177.665 205.237 172.69 203.371" fill="#EEA5A6"/>
<path fill-rule="evenodd" clip-rule="evenodd" d="M159.537 169.54C159.537 169.54 164.954 170.801 164.836 167.631C164.716 164.463 174.343 167.275 175.749 162.462C177.155 157.648 175.417 150.39 171.643 150.655C167.869 150.917 162.953 159.768 159.06 156.864C155.168 153.958 143.914 163.048 145.217 168.491C146.52 173.934 147.916 185.112 155.438 187.148C162.96 189.184 164.392 181.807 162.169 177.863C159.945 173.918 159.537 169.54 159.537 169.54" fill="#202631"/>
<path fill-rule="evenodd" clip-rule="evenodd" d="M162.948 178.246C163.428 180.25 162.192 182.264 160.187 182.744C158.183 183.223 156.17 181.988 155.69 179.983C155.21 177.979 156.446 175.965 158.451 175.485C160.455 175.006 162.468 176.241 162.948 178.246" fill="#EEA5A6"/>
<path fill-rule="evenodd" clip-rule="evenodd" d="M181.245 168.125C181.725 170.128 180.489 172.142 178.485 172.622C176.48 173.101 174.467 171.866 173.987 169.862C173.507 167.857 174.744 165.844 176.747 165.363C178.751 164.884 180.766 166.12 181.245 168.125" fill="#EEA5A6"/>
<path fill-rule="evenodd" clip-rule="evenodd" d="M169.909 174.664C170.231 175.342 170.052 176.101 169.509 176.359C168.966 176.616 168.265 176.275 167.943 175.596C167.621 174.919 167.8 174.16 168.344 173.902C168.887 173.645 169.588 173.986 169.909 174.664" fill="#000206"/>
<path fill-rule="evenodd" clip-rule="evenodd" d="M176.552 170.938C176.874 171.617 176.694 172.375 176.151 172.633C175.607 172.891 174.907 172.55 174.585 171.871C174.263 171.193 174.442 170.435 174.985 170.177C175.529 169.919 176.229 170.26 176.552 170.938" fill="#000206"/>
<path d="M173.319 174.134C173.319 174.134 176.324 175.38 176.324 176.186C176.324 176.992 175.37 177.797 175.37 177.797" stroke="#E47059" stroke-width="0.83732"/>
<path fill-rule="evenodd" clip-rule="evenodd" d="M173.392 182.487L178.668 178.97C178.668 178.97 179.4 181.535 178.155 182.854C176.909 184.173 173.392 182.487 173.392 182.487" fill="#DED8E3"/>
<path d="M171.072 334.455C171.327 335.253 171.327 335.253 171.327 335.252C171.327 335.252 171.328 335.252 171.328 335.252C171.329 335.252 171.33 335.252 171.331 335.251C171.332 335.251 171.334 335.25 171.337 335.249C171.342 335.248 171.348 335.246 171.357 335.243C171.373 335.237 171.395 335.23 171.423 335.22C171.479 335.2 171.558 335.172 171.658 335.133C171.857 335.056 172.138 334.94 172.48 334.778C173.163 334.454 174.095 333.946 175.104 333.205C177.124 331.721 179.467 329.288 180.725 325.514L179.136 324.984C178.013 328.352 175.927 330.522 174.113 331.855C173.205 332.523 172.369 332.977 171.763 333.264C171.461 333.407 171.217 333.508 171.053 333.571C170.971 333.603 170.908 333.626 170.868 333.64C170.848 333.647 170.834 333.652 170.825 333.655C170.821 333.656 170.818 333.657 170.817 333.657C170.816 333.658 170.816 333.658 170.816 333.658C170.816 333.658 170.817 333.658 170.817 333.657C170.817 333.657 170.817 333.657 170.817 333.657C170.818 333.657 170.818 333.657 171.072 334.455ZM226.588 301.444C226.194 302.182 226.194 302.183 226.195 302.183C226.195 302.183 226.195 302.183 226.195 302.183C226.196 302.183 226.196 302.183 226.197 302.184C226.198 302.184 226.2 302.185 226.202 302.187C226.206 302.189 226.212 302.192 226.22 302.196C226.235 302.204 226.257 302.215 226.285 302.23C226.342 302.259 226.425 302.302 226.53 302.354C226.742 302.459 227.046 302.607 227.425 302.779C228.18 303.122 229.234 303.565 230.43 303.964C231.623 304.362 232.974 304.721 234.319 304.886C235.657 305.05 237.045 305.03 238.279 304.618L237.749 303.029C236.841 303.332 235.73 303.372 234.523 303.224C233.325 303.077 232.088 302.751 230.959 302.375C229.834 302 228.835 301.581 228.118 301.254C227.759 301.091 227.473 300.952 227.277 300.855C227.179 300.806 227.104 300.768 227.054 300.742C227.029 300.729 227.01 300.72 226.998 300.713C226.992 300.71 226.988 300.708 226.985 300.706C226.984 300.706 226.983 300.705 226.982 300.705C226.982 300.705 226.982 300.705 226.982 300.705C226.982 300.705 226.982 300.705 226.982 300.705C226.982 300.705 226.982 300.705 226.588 301.444ZM214.436 313.287L221.765 326.03L223.217 325.195L215.888 312.452L214.436 313.287Z" fill="#000206"/>
<path fill-rule="evenodd" clip-rule="evenodd" d="M716.141 166.53L711.278 156.915L704.532 159.549L708.801 168.756L716.141 166.53" fill="#EEA5A6"/>
<path fill-rule="evenodd" clip-rule="evenodd" d="M708.613 159.444C713.536 156.995 712.38 152.413 710.002 148.855C707.665 145.356 704.007 143.17 703.622 143.433C703.239 143.698 704.738 145.875 704.738 145.875C704.738 145.875 702.11 143.903 700.466 142.965C699.619 142.481 701.985 146.803 701.737 146.999C701.507 147.181 698.62 143.482 698.065 143.864C697.137 144.253 699.52 148.716 699.52 148.716C699.52 148.716 696.586 145.828 696.388 146.91C696.188 147.991 701.28 153.735 701.28 153.735C701.28 153.735 698.403 151.752 698.34 153.306C698.279 154.859 702.824 162.324 708.613 159.444" fill="#EEA5A6"/>
<path fill-rule="evenodd" clip-rule="evenodd" d="M629.028 181.77L632.421 171.542L639.48 173.152L636.617 182.888L629.028 181.77" fill="#EEA5A6"/>
<path fill-rule="evenodd" clip-rule="evenodd" d="M635.428 173.65C630.198 171.954 630.665 167.251 632.491 163.383C634.288 159.576 637.584 156.874 638.003 157.079C638.421 157.284 637.259 159.658 637.259 159.658C637.259 159.658 639.567 157.319 641.054 156.149C641.821 155.546 640.118 160.169 640.394 160.327C640.647 160.473 642.958 156.389 643.563 156.685C644.538 156.932 642.839 161.698 642.839 161.698C642.839 161.698 645.315 158.408 645.672 159.449C646.027 160.49 641.838 166.922 641.838 166.922C641.838 166.922 644.393 164.536 644.683 166.064C644.974 167.591 641.579 175.645 635.428 173.65" fill="#EEA5A6"/>
<path fill-rule="evenodd" clip-rule="evenodd" d="M666.852 329.707C666.852 329.707 625.938 383.465 644.622 388.732C663.305 393.998 710.043 373.901 710.043 373.901L677.851 354.669L691.17 321.251L666.852 329.707" fill="#131924"/>
<path fill-rule="evenodd" clip-rule="evenodd" d="M727.837 355.949L735.647 352.035C738.801 350.454 742.635 351.86 744.018 355.105C744.018 355.105 762.588 381.644 755.559 382.165C748.529 382.687 730.671 366.134 730.671 366.134L727.837 355.949" fill="#DED8E3"/>
<path fill-rule="evenodd" clip-rule="evenodd" d="M720.487 368.968C720.487 368.968 731.975 389.32 728.024 392.108C724.074 394.894 710.042 373.901 710.042 373.901L720.487 368.968" fill="#DED8E3"/>
<path fill-rule="evenodd" clip-rule="evenodd" d="M690.133 363.321L727.485 356.807L731.942 366.455C731.942 366.455 642.877 398.839 636.029 379.391C630.412 363.437 683.666 320.977 683.666 320.977L712.709 317.367C712.709 317.367 740.364 356.684 690.133 363.321" fill="#202631"/>
<path fill-rule="evenodd" clip-rule="evenodd" d="M650.245 209.537C650.245 209.537 644.03 221.016 644.367 225.563C644.704 230.113 648.411 235.242 653.28 233.634C658.15 232.025 650.245 209.537 650.245 209.537" fill="#202631"/>
<path fill-rule="evenodd" clip-rule="evenodd" d="M707.272 165.602L717.012 162.384C717.012 162.384 731.729 195.772 727.671 231.018C725.935 246.086 710.485 268.816 709.55 274.778C708.616 280.739 715.826 317.343 715.826 317.343C701.145 329.525 674.873 337.528 664.677 334.027C661.691 333 657.395 328.79 650.133 303.3C649.484 301.02 645.24 292.101 644.543 289.578C643.871 287.15 612.225 257.467 610.63 235.966C608.455 206.634 625.563 177.657 625.563 177.657L637.777 181.567C637.777 181.567 621.593 221.612 631.396 230.06C642.722 239.822 660.914 250.273 673.925 242.912C716.221 218.987 707.272 165.602 707.272 165.602" fill="#9060EB"/>
<path fill-rule="evenodd" clip-rule="evenodd" d="M651.388 219.695C650.417 230.643 656.312 236.635 663.84 237.302C671.367 237.968 677.675 233.059 678.645 222.11C679.616 211.162 674.257 203.395 666.729 202.727C659.203 202.06 652.358 208.746 651.388 219.695" fill="#EEA5A6"/>
<path fill-rule="evenodd" clip-rule="evenodd" d="M675.235 246.074C677.19 243.03 674.006 226.908 674.006 226.908L661.202 229.483L659.323 245.035C659.323 245.035 658.664 251.561 664.519 252.287C670.374 253.013 672.363 250.545 675.235 246.074" fill="#EEA5A6"/>
<path fill-rule="evenodd" clip-rule="evenodd" d="M670.446 220.951C670.796 222.982 672.726 224.346 674.756 223.996C676.788 223.648 678.151 221.718 677.802 219.686C677.452 217.656 675.524 216.292 673.492 216.641C671.462 216.991 670.098 218.92 670.446 220.951" fill="#EEA5A6"/>
<path fill-rule="evenodd" clip-rule="evenodd" d="M649.641 218.862C649.99 220.894 651.92 222.256 653.951 221.908C655.982 221.558 657.346 219.63 656.997 217.598C656.646 215.568 654.718 214.204 652.687 214.552C650.656 214.902 649.292 216.832 649.641 218.862" fill="#EEA5A6"/>
<path fill-rule="evenodd" clip-rule="evenodd" d="M662.637 220.404C662.608 221.154 663.073 221.781 663.673 221.804C664.274 221.827 664.784 221.236 664.813 220.486C664.84 219.736 664.376 219.109 663.776 219.086C663.175 219.064 662.665 219.654 662.637 220.404" fill="#000206"/>
<path fill-rule="evenodd" clip-rule="evenodd" d="M655.064 219.599C655.036 220.349 655.499 220.975 656.101 220.998C656.701 221.021 657.21 220.432 657.239 219.682C657.267 218.93 656.804 218.303 656.202 218.282C655.602 218.259 655.093 218.849 655.064 219.599" fill="#000206"/>
<path d="M659.295 221.261C659.295 221.261 657.024 223.59 657.342 224.33C657.66 225.071 658.853 225.436 658.853 225.436" stroke="#E47059" stroke-width="0.83732"/>
<path fill-rule="evenodd" clip-rule="evenodd" d="M662.521 228.966L656.286 227.814C656.286 227.814 656.622 230.46 658.287 231.181C659.952 231.903 662.521 228.966 662.521 228.966" fill="#DED8E3"/>
<path fill-rule="evenodd" clip-rule="evenodd" d="M658.026 207.92C660.17 208.8 663.678 216.856 668.486 220.034C673.296 223.21 670.747 230.883 675.226 232.422C679.706 233.96 695.617 229.87 692.346 222.213C689.076 214.556 699.658 211.484 698.004 205.994C696.349 200.504 689.115 206.653 683.432 202.918C677.749 199.182 663.89 197.299 660.514 199.42C657.137 201.541 653.109 197.683 650.23 203.717C647.351 209.752 649.451 215.624 651.089 215.295C652.727 214.966 655.882 207.039 658.026 207.92" fill="#202631"/>
<path fill-rule="evenodd" clip-rule="evenodd" d="M316.733 334.947L311.013 328.343C308.702 325.676 304.623 325.509 302.104 327.98C302.104 327.98 274.799 345.403 281.095 348.573C287.39 351.742 310.221 343.273 310.221 343.273L316.733 334.947" fill="#DED8E3"/>
<path fill-rule="evenodd" clip-rule="evenodd" d="M349.899 405.374L342.289 409.665C339.216 411.398 338.24 415.363 340.158 418.324C340.158 418.324 351.794 448.551 356.154 443.012C360.514 437.474 356.763 413.415 356.763 413.415L349.899 405.374" fill="#DED8E3"/>
<path fill-rule="evenodd" clip-rule="evenodd" d="M391.977 141.426L384.064 134.114L378.662 138.937L385.875 146.075L391.977 141.426" fill="#EEA5A6"/>
<path fill-rule="evenodd" clip-rule="evenodd" d="M382.45 137.412C386.208 133.4 383.524 129.509 380.056 127.005C376.643 124.542 372.451 123.77 372.184 124.151C371.918 124.533 374.082 126.049 374.082 126.049C374.082 126.049 370.93 125.119 369.063 124.814C368.1 124.655 371.826 127.879 371.662 128.151C371.511 128.402 367.513 125.943 367.127 126.495C366.393 127.182 370.184 130.532 370.184 130.532C370.184 130.532 366.427 128.852 366.618 129.933C366.808 131.016 373.584 134.622 373.584 134.622C373.584 134.622 370.196 133.768 370.68 135.245C371.164 136.724 378.028 142.133 382.45 137.412" fill="#EEA5A6"/>
<path fill-rule="evenodd" clip-rule="evenodd" d="M383.937 291.961L352.088 287.815L342.744 296.938C342.744 296.938 332.041 314.601 337.531 330.107C342.079 342.96 344.957 355.528 344.957 355.528L316.147 333.838L307.708 344.619C307.708 344.619 341.387 387.032 362.552 381.52C378.476 377.374 372.179 341.922 372.179 341.922C372.179 341.922 381.466 368.941 383.287 375.161C378.036 382.025 348.228 406.478 348.228 406.478L356.095 413.526C356.095 413.526 408.857 390.189 408.528 376.095C407.618 337.121 383.937 291.961 383.937 291.961" fill="#202631"/>
<path fill-rule="evenodd" clip-rule="evenodd" d="M375.083 210.696C387.45 204.696 393.206 181.949 393.534 176.696C394.363 163.429 383.791 146.014 383.791 146.014L392.601 139.381C392.601 139.381 412.192 166.953 414.68 181.05C417.167 195.148 394.108 251.401 392.912 261.279C389.751 287.397 389.196 305.656 390.01 301.498C376.209 310.086 354.746 311.344 339.84 302.327C339.84 302.327 339.634 288.644 333.828 274.548C328.024 260.45 303.768 260.45 292.159 248.011C280.549 235.572 276.404 208.208 276.404 208.208L286.769 205.306C286.769 205.306 296.927 232.049 307.708 232.049C318.488 232.049 356.211 219.851 375.083 210.696" fill="#6FFFB0"/>
<path fill-rule="evenodd" clip-rule="evenodd" d="M331.622 204.594C334.453 215.215 342.042 218.83 349.343 216.885C356.644 214.938 360.895 208.167 358.065 197.547C355.233 186.926 347.542 181.459 340.241 183.406C332.939 185.351 328.791 193.973 331.622 204.594" fill="#EEA5A6"/>
<path fill-rule="evenodd" clip-rule="evenodd" d="M349.639 224.001C346.544 222.128 342.308 206.251 342.308 206.251L354.938 202.928L363.469 216.066C363.469 216.066 366.934 221.637 361.996 224.866C357.058 228.095 354.185 226.753 349.639 224.001" fill="#EEA5A6"/>
<path fill-rule="evenodd" clip-rule="evenodd" d="M331.134 203.648C331.134 203.648 335.28 196.598 335.28 192.453C335.28 192.453 357.65 209.571 359.743 198.671C361.835 187.773 354.352 179.599 346.889 178.355C339.426 177.111 333.206 178.355 328.232 188.306C323.256 198.257 331.134 203.648 331.134 203.648" fill="#202631"/>
<path fill-rule="evenodd" clip-rule="evenodd" d="M348.625 200.937C349.648 202.727 351.927 203.349 353.716 202.327C355.505 201.304 356.127 199.024 355.105 197.235C354.082 195.445 351.803 194.825 350.013 195.846C348.224 196.869 347.603 199.148 348.625 200.937" fill="#EEA5A6"/>
<path fill-rule="evenodd" clip-rule="evenodd" d="M342.436 201.415C342.666 202.131 343.317 202.561 343.888 202.376C344.462 202.192 344.739 201.464 344.509 200.75C344.279 200.035 343.629 199.604 343.056 199.789C342.485 199.972 342.206 200.701 342.436 201.415" fill="#000206"/>
<path fill-rule="evenodd" clip-rule="evenodd" d="M335.044 203.247C335.274 203.962 335.925 204.392 336.497 204.208C337.07 204.024 337.347 203.296 337.117 202.581C336.887 201.867 336.237 201.436 335.665 201.62C335.092 201.805 334.814 202.533 335.044 203.247" fill="#000206"/>
<path d="M339.589 203.363C339.589 203.363 338.252 206.328 338.803 206.915C339.355 207.503 340.601 207.438 340.601 207.438" stroke="#E47059" stroke-width="0.83732"/>
<path fill-rule="evenodd" clip-rule="evenodd" d="M345.254 209.502L339 210.551C339 210.551 340.222 212.921 342.033 213.03C343.844 213.139 345.254 209.502 345.254 209.502" fill="#DED8E3"/>
<path fill-rule="evenodd" clip-rule="evenodd" d="M341.499 179.184C341.499 179.184 336.109 176.696 336.938 168.404C337.768 160.112 343.157 160.112 343.157 154.306C343.157 148.502 343.157 144.357 354.352 141.039C354.352 141.039 347.718 147.673 353.938 152.649C360.156 157.624 350.207 162.185 353.938 168.404C357.67 174.624 350.62 177.526 346.889 178.355C343.157 179.184 341.499 179.184 341.499 179.184" fill="#202631"/>
<path fill-rule="evenodd" clip-rule="evenodd" d="M277.855 208.104L276.404 197.427L283.452 195.77L285.162 205.771L277.855 208.104" fill="#EEA5A6"/>
<path fill-rule="evenodd" clip-rule="evenodd" d="M280.032 197.998C274.589 198.775 272.941 194.345 272.879 190.068C272.819 185.858 274.589 181.983 275.056 181.983C275.522 181.983 275.522 184.627 275.522 184.627C275.522 184.627 276.568 181.511 277.388 179.806C277.811 178.926 278.316 183.828 278.632 183.849C278.925 183.868 279.202 179.184 279.876 179.184C280.861 178.977 281.431 184.005 281.431 184.005C281.431 184.005 282.209 179.962 282.985 180.739C283.763 181.517 282.83 189.135 282.83 189.135C282.83 189.135 284.074 185.871 285.007 187.114C285.94 188.358 286.434 197.084 280.032 197.998" fill="#EEA5A6"/>
<path fill-rule="evenodd" clip-rule="evenodd" d="M536.917 378.34C545.209 389.12 552.672 419.803 549.356 419.803C546.039 419.803 522.819 394.097 524.478 386.634C526.137 379.17 536.917 378.34 536.917 378.34" fill="#DED8E3"/>
<path fill-rule="evenodd" clip-rule="evenodd" d="M543.551 360.927C543.551 360.927 532.771 376.683 532.771 379.17C532.771 381.657 535.471 393.412 545.209 390.779C566.685 384.975 573.611 374.402 573.611 374.402C573.611 374.402 570.087 357.609 543.551 360.927" fill="#1F064F"/>
<path fill-rule="evenodd" clip-rule="evenodd" d="M485.834 375.853C477.541 386.634 470.079 417.316 473.395 417.316C476.712 417.316 499.931 391.608 498.272 384.145C496.614 376.683 485.834 375.853 485.834 375.853" fill="#DED8E3"/>
<path fill-rule="evenodd" clip-rule="evenodd" d="M479.2 358.438C479.2 358.438 489.98 374.194 489.98 376.683C489.98 379.17 487.492 389.95 477.541 388.291C467.59 386.634 449.14 371.914 449.14 371.914C449.14 371.914 452.664 355.122 479.2 358.438" fill="#1F064F"/>
<path fill-rule="evenodd" clip-rule="evenodd" d="M436.462 96.6742L432.563 86.63L439.03 83.3738L443.025 92.7029L436.462 96.6742" fill="#EEA5A6"/>
<path fill-rule="evenodd" clip-rule="evenodd" d="M436.224 86.3383C431.112 88.3627 428.477 84.4386 427.42 80.2932C426.381 76.2143 427.2 72.0325 427.654 71.9236C428.108 71.8147 428.723 74.386 428.723 74.386C428.723 74.386 429.014 71.1117 429.414 69.264C429.621 68.3093 431.254 72.9582 431.566 72.9049C431.855 72.8553 431.033 68.2355 431.689 68.0794C432.598 67.6475 434.325 72.404 434.325 72.404C434.325 72.404 434.138 68.2912 435.076 68.8659C436.012 69.4419 436.88 77.0673 436.88 77.0673C436.88 77.0673 437.329 73.6019 438.526 74.5953C439.724 75.5875 442.237 83.9571 436.224 86.3383" fill="#EEA5A6"/>
<path fill-rule="evenodd" clip-rule="evenodd" d="M585.461 104.706L581.322 94.7575L574.4 96.8859L577.976 106.383L585.461 104.706" fill="#EEA5A6"/>
<path fill-rule="evenodd" clip-rule="evenodd" d="M578.478 97.0819C583.567 95.0044 582.754 90.3483 580.646 86.6263C578.574 82.9624 575.088 80.511 574.685 80.7469C574.282 80.9829 575.618 83.2637 575.618 83.2637C575.618 83.2637 573.142 81.1027 571.573 80.0463C570.763 79.5006 572.803 83.9849 572.541 84.164C572.299 84.3273 569.692 80.4251 569.111 80.7651C568.157 81.0845 570.204 85.7104 570.204 85.7104C570.204 85.7104 567.49 82.614 567.212 83.6775C566.933 84.7423 571.587 90.8456 571.587 90.8456C571.587 90.8456 568.865 88.6555 568.688 90.2007C568.51 91.7458 572.491 99.5261 578.478 97.0819" fill="#EEA5A6"/>
<path fill-rule="evenodd" clip-rule="evenodd" d="M493.92 267.429C493.92 267.429 435.789 361.901 449.14 371.914C478.993 394.304 519.833 312.001 519.833 312.001C519.833 312.001 542.43 384.975 570.417 377.512C584.147 373.85 560.466 285.466 560.466 285.466L493.92 267.429" fill="#441898"/>
<path fill-rule="evenodd" clip-rule="evenodd" d="M585.344 101.373L573.734 103.032C573.734 103.032 581.238 146.899 577.88 153.616C573.56 162.257 501.915 174.211 472.566 140.348C464.294 130.802 441.884 87.2761 441.884 87.2761L432.763 92.2516C432.763 92.2516 439.811 183.467 480.859 202.126C480.648 241.045 486.914 258.23 487.988 273.286C509.724 296.364 538.807 296.49 562.189 287.266C562.189 287.266 565.548 250.1 570.417 222.028C577.319 215.712 597.184 191.993 604.002 180.981C620.171 154.859 585.344 101.373 585.344 101.373" fill="white"/>
<path fill-rule="evenodd" clip-rule="evenodd" d="M545.258 144.295C545.206 155.287 538.778 160.704 531.222 160.669C523.665 160.632 517.841 155.157 517.893 144.165C517.945 133.174 524.004 125.939 531.56 125.976C539.117 126.011 545.311 133.304 545.258 144.295" fill="#EEA5A6"/>
<path fill-rule="evenodd" clip-rule="evenodd" d="M522.713 170.5C520.345 167.764 525.451 152.266 525.451 152.266L538.491 152.994L537.896 164.742C537.896 164.742 539.895 173.575 534.203 175.126C528.51 176.677 526.192 174.516 522.713 170.5" fill="#EEA5A6"/>
<path fill-rule="evenodd" clip-rule="evenodd" d="M515.115 142.55C515.651 140.561 517.7 139.382 519.689 139.92C521.679 140.456 522.857 142.504 522.321 144.493C521.784 146.484 519.736 147.661 517.746 147.125C515.757 146.588 514.578 144.539 515.115 142.55" fill="#EEA5A6"/>
<path fill-rule="evenodd" clip-rule="evenodd" d="M547.82 144.493C547.283 146.484 545.234 147.661 543.245 147.125C541.256 146.588 540.077 144.539 540.614 142.55C541.151 140.561 543.199 139.382 545.189 139.92C547.179 140.456 548.356 142.504 547.82 144.493" fill="#EEA5A6"/>
<path fill-rule="evenodd" clip-rule="evenodd" d="M529.846 142.919C529.803 143.669 529.283 144.25 528.683 144.216C528.083 144.184 527.63 143.548 527.673 142.799C527.714 142.049 528.234 141.468 528.834 141.502C529.434 141.535 529.887 142.169 529.846 142.919" fill="#000206"/>
<path fill-rule="evenodd" clip-rule="evenodd" d="M537.46 142.822C537.418 143.571 536.899 144.152 536.299 144.118C535.697 144.086 535.245 143.452 535.287 142.701C535.328 141.951 535.849 141.37 536.449 141.404C537.049 141.438 537.501 142.072 537.46 142.822" fill="#000206"/>
<path d="M533.093 144.083C533.093 144.083 535.137 146.613 534.751 147.321C534.366 148.029 533.144 148.282 533.144 148.282" stroke="#E47059" stroke-width="0.83732"/>
<path fill-rule="evenodd" clip-rule="evenodd" d="M529.165 151.456L535.48 150.888C535.48 150.888 534.898 153.491 533.173 154.054C531.448 154.617 529.165 151.456 529.165 151.456" fill="#DED8E3"/>
<path fill-rule="evenodd" clip-rule="evenodd" d="M516.93 138.067L519.418 142.628C519.418 142.628 523.234 132.995 524.602 132.055C527.918 129.775 536.074 130.432 538.491 131.641C542.637 133.713 544.296 141.591 544.296 141.591C544.296 141.591 546.783 137.652 545.746 129.982C545.414 127.517 550.308 119.824 544.089 116.921C537.869 114.018 535.797 120.031 531.857 120.031C527.918 120.031 526.881 116.507 522.736 120.238C518.589 123.969 512.578 123.556 512.578 127.287C512.578 131.019 516.93 138.067 516.93 138.067" fill="#202631"/>
<path d="M520.669 312.041L521.547 293.867L519.874 293.786L518.997 311.961L520.669 312.041ZM481.446 290.088C481.676 290.893 481.676 290.893 481.676 290.893C481.676 290.893 481.677 290.893 481.677 290.893C481.678 290.892 481.678 290.892 481.679 290.892C481.681 290.891 481.684 290.891 481.688 290.89C481.695 290.887 481.705 290.885 481.718 290.881C481.745 290.873 481.783 290.862 481.833 290.847C481.933 290.817 482.077 290.773 482.261 290.715C482.629 290.599 483.153 290.428 483.784 290.206C485.044 289.761 486.74 289.107 488.47 288.271C490.195 287.439 491.988 286.41 493.421 285.208C494.838 284.019 496.012 282.57 496.294 280.877L494.643 280.602C494.457 281.713 493.644 282.835 492.345 283.925C491.061 285.002 489.406 285.96 487.742 286.763C486.084 287.564 484.45 288.195 483.227 288.626C482.616 288.842 482.11 289.007 481.759 289.118C481.583 289.173 481.445 289.215 481.353 289.242C481.307 289.256 481.272 289.266 481.248 289.273C481.237 289.277 481.228 289.279 481.223 289.281C481.22 289.281 481.218 289.282 481.217 289.282C481.216 289.283 481.216 289.283 481.216 289.283C481.216 289.283 481.216 289.283 481.216 289.283C481.216 289.283 481.216 289.283 481.446 290.088ZM549.69 291.023C549.122 291.638 549.122 291.639 549.122 291.639C549.122 291.639 549.123 291.639 549.123 291.639C549.123 291.64 549.124 291.64 549.125 291.641C549.126 291.643 549.129 291.645 549.132 291.648C549.138 291.654 549.148 291.662 549.16 291.673C549.184 291.695 549.219 291.727 549.265 291.769C549.356 291.851 549.489 291.971 549.659 292.121C549.998 292.421 550.482 292.843 551.067 293.331C552.232 294.304 553.806 295.553 555.419 296.628C557.005 297.685 558.727 298.644 560.169 298.942C560.893 299.091 561.677 299.103 562.348 298.736C563.06 298.348 563.459 297.643 563.604 296.769L561.952 296.494C561.864 297.022 561.679 297.194 561.546 297.266C561.375 297.36 561.055 297.415 560.508 297.302C559.408 297.074 557.917 296.28 556.348 295.234C554.805 294.206 553.283 293 552.14 292.046C551.57 291.57 551.098 291.159 550.769 290.867C550.604 290.722 550.476 290.606 550.388 290.527C550.345 290.488 550.312 290.457 550.29 290.437C550.279 290.427 550.271 290.42 550.265 290.415C550.262 290.412 550.26 290.41 550.259 290.409C550.259 290.409 550.258 290.408 550.258 290.408C550.258 290.408 550.258 290.408 550.258 290.408C550.258 290.408 550.258 290.408 549.69 291.023Z" fill="#000206"/>
<path d="M701.232 361.406L684.21 364.163" stroke="#000206" stroke-width="1.58389"/>
<path fill-rule="evenodd" clip-rule="evenodd" d="M103.273 63.1475L115.146 56.0254V69.4794L108.814 71.0621L103.273 63.1475" fill="#F56C51"/>
<path fill-rule="evenodd" clip-rule="evenodd" d="M299.885 117.852L294.369 109.627L303.981 109.143L305.34 113.609L299.885 117.852" fill="#425C9A"/>
<path fill-rule="evenodd" clip-rule="evenodd" d="M507.943 453.985L502.428 445.759L512.04 445.275L513.399 449.741L507.943 453.985" fill="white"/>
<path fill-rule="evenodd" clip-rule="evenodd" d="M170.946 12.1557V0L181.076 4.05229V14.1824L170.946 12.1557" fill="white"/>
<path fill-rule="evenodd" clip-rule="evenodd" d="M392.484 8.7108L385.108 6.89096L389.083 1.35037L395.231 2.8665L392.484 8.7108" fill="#ED9B38"/>
<path fill-rule="evenodd" clip-rule="evenodd" d="M603.799 353.798L596.422 351.978L600.398 346.438L606.545 347.955L603.799 353.798" fill="#ED9B38"/>
<path fill-rule="evenodd" clip-rule="evenodd" d="M282.04 49.7891L285.08 40.6717L294.197 46.7496L291.157 53.8402L282.04 49.7891" fill="#F56C51"/>
<path fill-rule="evenodd" clip-rule="evenodd" d="M370.849 87.6076L372.875 76.4648L380.979 80.517L370.849 87.6076" fill="#F56C51"/>
<path fill-rule="evenodd" clip-rule="evenodd" d="M599.401 496.278L611.273 489.155V502.609L604.941 504.191L599.401 496.278" fill="#F56C51"/>
<path fill-rule="evenodd" clip-rule="evenodd" d="M690.32 456.422V446.734L698.391 449.964V458.036L690.32 456.422" fill="white"/>
<path fill-rule="evenodd" clip-rule="evenodd" d="M730.809 519.831L733.848 510.713L742.965 516.791L739.926 523.883L730.809 519.831" fill="#ED9B38"/>
<path fill-rule="evenodd" clip-rule="evenodd" d="M793.954 462.763L798.006 454.66H805.098L806.11 461.751L793.954 462.763" fill="#F56C51"/>
<path fill-rule="evenodd" clip-rule="evenodd" d="M804.969 229.803L806.579 220.031L813.917 226.258L811.851 230.445L804.969 229.803" fill="#F56C51"/>
<path fill-rule="evenodd" clip-rule="evenodd" d="M809.9 120.717L805.769 114.34L812.459 113.024L815.903 118.337L809.9 120.717" fill="#F56C51"/>
<path fill-rule="evenodd" clip-rule="evenodd" d="M744.316 181.819L753.421 175.082L756.555 183.584L744.316 181.819" fill="#425C9A"/>
<path fill-rule="evenodd" clip-rule="evenodd" d="M807.716 386.711L816.82 379.974L819.954 388.475L807.716 386.711" fill="white"/>
<path fill-rule="evenodd" clip-rule="evenodd" d="M789.842 26.0961L798.344 22.961L803.513 27.8155L799.397 33.6779L789.842 26.0961" fill="white"/>
<path fill-rule="evenodd" clip-rule="evenodd" d="M37.7749 493.189L39.383 483.417L46.7229 489.643L44.6562 493.83L37.7749 493.189" fill="#ED9B38"/>
<path fill-rule="evenodd" clip-rule="evenodd" d="M69.7188 388.155L65.5879 381.778L72.278 380.462L75.7216 385.775L69.7188 388.155" fill="#F56C51"/>
<path fill-rule="evenodd" clip-rule="evenodd" d="M0 420.477L9.10525 413.741L12.2392 422.243L0 420.477" fill="white"/>
<path fill-rule="evenodd" clip-rule="evenodd" d="M13.5894 279.745L22.0908 276.61L27.2611 281.464L23.1447 287.327L13.5894 279.745" fill="white"/>
<path fill-rule="evenodd" clip-rule="evenodd" d="M667.326 74.288L661.811 66.0636L671.422 65.5796L672.781 70.0457L667.326 74.288" fill="#ED9B38"/>
<path fill-rule="evenodd" clip-rule="evenodd" d="M447.786 253.597L442.271 245.372L451.882 244.888L453.24 249.354L447.786 253.597" fill="#ED9B38"/>
<path fill-rule="evenodd" clip-rule="evenodd" d="M422.85 429.671L417.334 421.447L426.946 420.963L428.305 425.429L422.85 429.671" fill="#ED9B38"/>
<path fill-rule="evenodd" clip-rule="evenodd" d="M708.471 18.0278L701.093 16.2079L705.069 10.6674L711.216 12.1847L708.471 18.0278" fill="#F56C51"/>
<path fill-rule="evenodd" clip-rule="evenodd" d="M725.887 110.555L715.285 114.54L714.601 105.505L725.887 110.555" fill="#F56C51"/>
<path fill-rule="evenodd" clip-rule="evenodd" d="M773.162 317.888L762.56 321.871L761.875 312.836L773.162 317.888" fill="#F56C51"/>
<path fill-rule="evenodd" clip-rule="evenodd" d="M579.193 12.1556L583.245 4.05228H590.337L591.35 11.1429L579.193 12.1556" fill="white"/>
<path fill-rule="evenodd" clip-rule="evenodd" d="M425.552 346.605L429.603 338.5H436.695L437.708 345.591L425.552 346.605" fill="#425C9A"/>
<path fill-rule="evenodd" clip-rule="evenodd" d="M155.351 137.131L146.428 141.427L147.309 131.843L151.923 131.13L155.351 137.131" fill="white"/>
<path fill-rule="evenodd" clip-rule="evenodd" d="M41.9484 31.385L39.1025 38.4296L34.1802 33.7106L36.5518 27.8397L41.9484 31.385" fill="#F56C51"/>
<path fill-rule="evenodd" clip-rule="evenodd" d="M286.769 285.524L283.923 292.568L279 287.848L281.372 281.978L286.769 285.524" fill="#ED9B38"/>
<path fill-rule="evenodd" clip-rule="evenodd" d="M11.0715 129.556L0.32666 125.972L5.4861 118.523L11.0715 129.556" fill="white"/>
<path fill-rule="evenodd" clip-rule="evenodd" d="M83.8457 207.913L76.397 202.755L77.4013 195.736L84.5645 195.737L83.8457 207.913" fill="#F56C51"/>
<path fill-rule="evenodd" clip-rule="evenodd" d="M578.855 276.705L581.895 267.588L591.012 273.667L587.973 280.758L578.855 276.705" fill="#F56C51"/>
<path fill-rule="evenodd" clip-rule="evenodd" d="M503.323 95.469L505.918 81.1922L516.302 86.3843L503.323 95.469" fill="#ED9B38"/>
<path fill-rule="evenodd" clip-rule="evenodd" d="M472.827 27.0145L476.878 18.9099H483.968L484.982 26.0005L472.827 27.0145" fill="#F56C51"/>
<path fill-rule="evenodd" clip-rule="evenodd" d="M239.856 505.918L232.479 504.098L236.454 498.558L242.601 500.074L239.856 505.918" fill="#ED9B38"/>
<path fill-rule="evenodd" clip-rule="evenodd" d="M151.361 475.258L153.387 464.115L161.491 468.166L151.361 475.258" fill="white"/>
<path fill-rule="evenodd" clip-rule="evenodd" d="M287.105 438.79L291.157 430.685H298.249L299.262 437.776L287.105 438.79" fill="#F56C51"/>
</svg>
