<svg width="16" height="15" viewBox="0 0 16 15" fill="none" xmlns="http://www.w3.org/2000/svg">
    <path fill-rule="evenodd" clip-rule="evenodd" d="M0.907497 4.61465C2.07524 1.81285 4.81669 -0.0088026 7.85208 6.42156e-05C9.83857 0.00199847 11.7428 0.793482 13.1454 2.20019C14.548 3.6069 15.3339 5.51346 15.33 7.49994C15.33 10.5353 13.5004 13.2714 10.6952 14.431C7.88997 15.5905 4.66242 14.9448 2.51921 12.7954C0.375991 10.6459 -0.260248 7.41644 0.907497 4.61465ZM1.27965 7.49994C1.27965 11.1298 4.22223 14.0724 7.85208 14.0724C11.4819 14.0724 14.4245 11.1298 14.4245 7.49994C14.4245 5.75682 13.7321 4.0851 12.4995 2.85253C11.2669 1.61996 9.5952 0.927507 7.85208 0.927507C4.22223 0.927507 1.27965 3.87008 1.27965 7.49994Z" fill="black"/>
    <path d="M5.79211 6.99952C6.40642 7.01506 6.96808 6.65434 7.20946 6.08923C7.45085 5.52412 7.32313 4.86893 6.88717 4.43586C6.45121 4.00278 5.79519 3.87942 5.2317 4.12456C4.6682 4.36969 4.31122 4.93373 4.33085 5.54793C4.36097 6.34054 4.99932 6.97467 5.79211 6.99952Z" fill="black"/>
    <path d="M9.75322 6.99514C10.301 7.04047 10.8271 6.76582 11.1145 6.28451C11.4019 5.8032 11.4019 5.1968 11.1145 4.71549C10.8271 4.23418 10.301 3.95953 9.75322 4.00486C9.36437 4.00977 8.99395 4.176 8.72615 4.46577C8.45836 4.75554 8.31591 5.14424 8.33119 5.54355C8.33637 6.34681 8.97152 6.99516 9.75322 6.99514Z" fill="black"/>
    <path d="M7.82018 10.1375C6.42185 10.1057 5.12263 9.31001 4.33008 8C4.81179 9.74681 6.21697 10.9524 7.82678 11C9.45124 10.9961 10.8785 9.77389 11.3301 8C10.5586 9.34785 9.23468 10.1541 7.82018 10.1375Z" fill="black"/>
</svg>
