<svg width="16" height="20" viewBox="0 0 16 20" fill="none" xmlns="http://www.w3.org/2000/svg">
    <path
        d="M13.9503 7.37619H13.3856V4.59431C13.3856 2.06534 11.3359 0 8.82614 0H7.15294C4.64314 0 2.59346 2.06534 2.59346 4.59431V7.35511H2.02876C0.899346 7.35511 0 8.2824 0 9.39937V17.9557C0 19.0938 0.920261 20 2.02876 20H13.9712C15.1007 20 16 19.0727 16 17.9557V9.42044C16 8.2824 15.0797 7.37619 13.9503 7.37619ZM10.6458 7.37619H5.33333V4.59431C5.33333 3.58272 6.14902 2.7608 7.15294 2.7608H8.82614C9.83006 2.7608 10.6458 3.58272 10.6458 4.59431V7.37619Z"
        fill="#7D4CDB" />
</svg>