<svg width="44" height="44" viewBox="0 0 44 44" fill="none" xmlns="http://www.w3.org/2000/svg">
    <path d="M33 4.5375C29.7688 2.54375 26.0563 1.375 22 1.375V4.5375H33Z" fill="#ED4C5C" />
    <path d="M22 7.7001H36.85C35.6812 6.53135 34.375 5.43135 33 4.5376H22V7.7001Z" fill="white" />
    <path d="M22 10.8625H39.3937C38.6375 9.6937 37.8125 8.66245 36.9188 7.69995H22V10.8625Z" fill="#ED4C5C" />
    <path d="M22 14.025H41.0438C40.5625 12.925 40.0125 11.825 39.3937 10.8625H22V14.025Z" fill="white" />
    <path d="M22 17.1874H42.075C41.8 16.0874 41.4563 15.0562 41.0438 14.0249H22V17.1874Z" fill="#ED4C5C" />
    <path d="M22 20.4188H42.5563C42.4875 19.3188 42.2812 18.2876 42.075 17.2563H22V20.4188Z" fill="white" />
    <path
        d="M42.5563 20.4187H22V22H1.375C1.375 22.55 1.375 23.0312 1.44375 23.5812H42.5563C42.625 23.0312 42.625 22.55 42.625 22C42.625 21.45 42.625 20.9 42.5563 20.4187Z"
        fill="#ED4C5C" />
    <path
        d="M1.9251 26.7438H42.0751C42.3501 25.7126 42.4876 24.6813 42.5564 23.5813H1.44385C1.5126 24.6125 1.71885 25.7126 1.9251 26.7438Z"
        fill="white" />
    <path
        d="M2.9563 29.9062H41.0438C41.4563 28.8749 41.8 27.8437 42.0751 26.7437H1.92505C2.20005 27.8437 2.5438 28.8749 2.9563 29.9062Z"
        fill="#ED4C5C" />
    <path
        d="M4.6063 33.0687H39.3938C40.0126 32.0375 40.5625 31.0063 41.0438 29.9062H2.9563C3.43755 31.0063 3.98755 32.0375 4.6063 33.0687Z"
        fill="white" />
    <path
        d="M7.0812 36.2313H36.9187C37.8125 35.2688 38.7062 34.1688 39.3937 33.0688H4.6062C5.2937 34.2376 6.18745 35.2688 7.0812 36.2313Z"
        fill="#ED4C5C" />
    <path
        d="M10.9313 39.3937H33.0688C34.5125 38.5 35.75 37.4 36.9188 36.2312H7.0813C8.25005 37.4687 9.5563 38.5 10.9313 39.3937Z"
        fill="white" />
    <path
        d="M21.9999 42.625C26.0562 42.625 29.8374 41.4563 33.0686 39.3938H10.9312C14.1624 41.4563 17.9437 42.625 21.9999 42.625Z"
        fill="#ED4C5C" />
    <path
        d="M11 4.5375C9.55625 5.43125 8.25 6.53125 7.08125 7.7C6.11875 8.6625 5.29375 9.7625 4.60625 10.8625C3.9875 11.8938 3.36875 12.925 2.95625 14.025C2.54375 15.0562 2.2 16.0875 1.925 17.1875C1.65 18.2188 1.5125 19.25 1.44375 20.35C1.375 20.9 1.375 21.45 1.375 22H22V1.375C17.9438 1.375 14.2312 2.54375 11 4.5375Z"
        fill="#428BC1" />
    <path
        d="M17.1874 2.0625L17.5312 3.09375H18.5624L17.7374 3.78125L18.0124 4.8125L17.1874 4.19375L16.3624 4.8125L16.6374 3.78125L15.8124 3.09375H16.8437L17.1874 2.0625ZM19.9374 6.1875L20.2812 7.21875H21.3124L20.4874 7.90625L20.7624 8.9375L19.9374 8.31875L19.1124 8.9375L19.3874 7.90625L18.5624 7.21875H19.5937L19.9374 6.1875ZM14.4374 6.1875L14.7812 7.21875H15.8124L14.9874 7.90625L15.2624 8.9375L14.4374 8.31875L13.6124 8.9375L13.8874 7.90625L13.0624 7.21875H14.0937L14.4374 6.1875ZM17.1874 10.3125L17.5312 11.3438H18.5624L17.7374 12.0312L18.0124 13.0625L17.1874 12.4438L16.3624 13.0625L16.6374 12.0312L15.8124 11.3438H16.8437L17.1874 10.3125ZM11.6874 10.3125L12.0312 11.3438H13.0624L12.2374 12.0312L12.5124 13.0625L11.6874 12.4438L10.8624 13.0625L11.1374 12.0312L10.3124 11.3438H11.3437L11.6874 10.3125ZM6.1874 10.3125L6.53115 11.3438H7.5624L6.7374 12.0312L7.0124 13.0625L6.1874 12.4438L5.3624 13.0625L5.6374 12.0312L4.8124 11.3438H5.84365L6.1874 10.3125ZM19.9374 14.4375L20.2812 15.4688H21.3124L20.4874 16.1562L20.7624 17.1875L19.9374 16.5688L19.1124 17.1875L19.3874 16.1562L18.5624 15.4688H19.5937L19.9374 14.4375ZM14.4374 14.4375L14.7812 15.4688H15.8124L14.9874 16.1562L15.2624 17.1875L14.4374 16.5688L13.6124 17.1875L13.8874 16.1562L13.0624 15.4688H14.0937L14.4374 14.4375ZM8.9374 14.4375L9.28115 15.4688H10.3124L9.4874 16.1562L9.7624 17.1875L8.9374 16.5688L8.1124 17.1875L8.3874 16.1562L7.5624 15.4688H8.59365L8.9374 14.4375ZM17.1874 18.5625L17.5312 19.5938H18.5624L17.7374 20.2812L18.0124 21.3125L17.1874 20.6938L16.3624 21.3125L16.6374 20.2812L15.8124 19.5938H16.8437L17.1874 18.5625ZM11.6874 18.5625L12.0312 19.5938H13.0624L12.2374 20.2812L12.5124 21.3125L11.6874 20.6938L10.8624 21.3125L11.1374 20.2812L10.3124 19.5938H11.3437L11.6874 18.5625ZM6.1874 18.5625L6.53115 19.5938H7.5624L6.7374 20.2812L7.0124 21.3125L6.1874 20.6938L5.3624 21.3125L5.6374 20.2812L4.8124 19.5938H5.84365L6.1874 18.5625ZM8.1124 8.9375L8.9374 8.31875L9.7624 8.9375L9.41865 7.90625L10.2437 7.21875H9.2124L8.9374 6.1875L8.59365 7.21875H7.63115L8.45615 7.8375L8.1124 8.9375ZM2.6124 17.1875L3.4374 16.5688L4.2624 17.1875L3.91865 16.1562L4.74365 15.4688H3.78115L3.4374 14.4375L3.09365 15.4688H2.40615C2.40615 15.5375 2.3374 15.6062 2.3374 15.675L2.8874 16.0875L2.6124 17.1875Z"
        fill="white" />
</svg>