<svg width="793" height="449" viewBox="0 0 793 449" fill="none" xmlns="http://www.w3.org/2000/svg">
<path fill-rule="evenodd" clip-rule="evenodd" d="M511.475 367.308C509.331 356.078 509.494 344.439 512.047 333.288C513.244 328.059 514.829 322.712 517.418 317.967L517.479 318.465C518.162 319.722 522.973 328.302 530.895 328.932C537.335 329.443 543.139 324.485 547.779 320.522C549.414 319.126 550.678 317.838 551.548 316.894C548.822 317.059 544.832 316.988 540.324 315.645C536.756 314.581 535.496 313.505 533.125 312.844C530.064 311.989 525.514 311.93 518.96 315.411C521.972 310.922 526.197 307.584 530.602 304.515C534.976 301.467 539.587 298.638 543.379 294.85C546.276 291.957 548.367 288.603 549.522 284.78C550.832 287.041 555.458 294.143 562.639 294.713C569.079 295.225 574.883 290.268 579.522 286.304C581.158 284.907 582.42 283.62 583.291 282.677C580.566 282.841 576.575 282.77 572.067 281.427C568.5 280.364 567.239 279.287 564.869 278.626C561.741 277.752 557.059 277.708 550.274 281.423C551.191 275.656 550.949 269.575 550.565 263.779C550.376 260.925 550.015 258.094 549.64 255.266C551.409 258.068 555.8 263.874 562.265 264.388C568.705 264.899 574.509 259.942 579.148 255.978C580.783 254.582 582.047 253.294 582.917 252.35C580.191 252.516 576.201 252.445 571.693 251.101C568.126 250.038 566.865 248.962 564.495 248.3C561.252 247.394 556.341 247.381 549.149 251.521C548.964 250.061 548.793 248.601 548.659 247.136C548.073 240.759 548.736 234.381 552.869 229.256L552.997 230.294C553.679 231.552 558.491 240.132 566.413 240.761C572.853 241.272 578.657 236.315 583.296 232.351C584.932 230.954 586.195 229.667 587.065 228.723C584.339 228.888 580.35 228.817 575.841 227.474C572.274 226.41 571.013 225.334 568.643 224.672C565.658 223.839 561.26 223.762 554.972 226.981C558.324 223.805 562.503 221.56 566.729 219.623L568.16 220.526C569.62 220.807 579.691 222.596 585.42 216.641C590.076 211.8 589.916 203.866 589.788 197.523C589.743 195.287 589.541 193.424 589.356 192.101C587.692 194.401 585.004 197.562 580.952 200.301C577.745 202.469 576.049 202.772 573.954 204.241C571.082 206.256 567.825 210.209 566.417 218.761C562.26 220.672 558.191 222.859 554.788 225.919C551.32 229.039 549.01 232.958 548.06 237.423C547.705 234.117 546.423 228.256 541.77 225.29C536.725 222.074 529.824 223.608 524.307 224.835C522.362 225.267 520.77 225.771 519.648 226.165C521.949 227.214 525.182 229.005 528.286 232.062C530.742 234.482 531.306 235.909 532.957 237.481C535.274 239.685 539.432 241.886 547.504 241.489L547.575 241.305C547.33 246.159 548.207 251.017 548.849 255.813C549.327 259.389 549.641 262.987 549.798 266.591L549.736 266.322C548.993 265.226 543.775 257.758 536.416 257.902C530.433 258.019 525.537 263.119 521.623 267.195C520.244 268.632 519.198 269.935 518.482 270.883C520.979 270.483 524.662 270.184 528.94 271.01C532.325 271.663 533.585 272.54 535.83 272.934C538.932 273.477 543.518 273.026 549.865 268.429C549.927 270.698 549.927 272.967 549.856 275.236C549.784 277.562 549.592 279.847 549.165 282.054C549.098 282.093 549.033 282.131 548.966 282.17L549.031 282.697C548.307 286.044 547.009 289.203 544.707 292.033C542.41 294.855 539.57 297.146 536.61 299.265L536.392 297.759C535.736 296.608 531.113 288.758 523.765 288.329C517.791 287.982 512.515 292.686 508.296 296.447C506.809 297.772 505.664 298.989 504.877 299.879C507.398 299.673 511.094 299.662 515.294 300.818C518.619 301.732 519.807 302.703 522.014 303.269C524.592 303.931 528.282 303.966 533.396 301.495C532.934 301.809 532.472 302.124 532.013 302.437C527.619 305.439 523.16 308.534 519.79 312.713C518.86 313.866 518.031 315.087 517.279 316.355L517.222 316.388L517.229 316.439C514.844 320.493 513.28 325.049 512.043 329.553C508.656 341.886 508.178 354.929 510.576 367.486C510.687 368.066 511.586 367.889 511.475 367.308Z" fill="#171818"/>
<path fill-rule="evenodd" clip-rule="evenodd" d="M465.382 384.094C467.97 381.907 472.21 382.962 474.37 385.563C476.53 388.164 477.03 391.775 476.954 395.166C476.832 400.652 475.552 405.618 473.986 410.746C477.348 406.925 480.847 403.227 484.451 399.651C486.834 397.286 489.273 394.973 491.76 392.71C486.882 386.857 483.796 379.523 483.046 371.94C482.763 369.065 482.979 365.763 485.19 363.904C487.773 361.733 492.013 362.788 494.176 365.378C496.34 367.968 496.844 371.561 496.773 374.934C496.655 380.6 495.287 385.704 493.649 391.013C501.393 384.13 509.626 377.789 518.348 372.21C514.575 365.719 512.747 358.108 513.204 350.612C513.379 347.729 514.117 344.502 516.594 343.018C519.489 341.284 523.508 342.998 525.232 345.899C526.958 348.799 526.886 352.426 526.281 355.747C525.302 361.126 523.257 365.807 520.904 370.604C530.19 364.868 540.347 359.769 551.123 357.843C551.347 357.802 551.573 357.772 551.798 357.733C548.911 350.713 548.16 342.823 549.698 335.388C550.284 332.559 551.474 329.471 554.138 328.356C557.251 327.053 560.984 329.323 562.277 332.439C563.57 335.556 562.982 339.136 561.909 342.336C560.02 347.974 557.002 352.613 553.669 357.432C566.177 355.545 579.087 355.957 591.51 353.643C588.499 346.533 587.692 338.501 589.257 330.938C589.842 328.109 591.033 325.022 593.697 323.906C596.81 322.602 600.542 324.873 601.836 327.99C603.129 331.107 602.54 334.686 601.468 337.886C599.528 343.675 596.397 348.412 592.958 353.371C596.053 352.738 599.114 351.924 602.129 350.844C608.23 348.657 613.812 345.184 618.71 340.857C613.769 334.69 610.801 326.97 610.355 319.08C610.189 316.197 610.542 312.906 612.832 311.142C615.505 309.081 619.697 310.314 621.749 312.992C623.802 315.671 624.155 319.282 623.939 322.649C623.55 328.825 621.706 334.27 619.625 340.033C627.389 332.886 633.36 323.583 636.882 313.892C633.115 307.793 631.084 300.625 631.135 293.455C631.156 290.567 631.718 287.306 634.117 285.691C636.911 283.804 641.017 285.301 642.897 288.105C644.769 290.908 644.892 294.534 644.467 297.882C643.79 303.222 642.04 307.941 639.994 312.777C640.016 312.97 640.008 313.18 639.929 313.407C637.113 321.721 632.604 329.422 626.928 336.108C625.682 337.583 624.371 339.018 623.003 340.405C629.413 337.649 636.573 336.655 643.48 337.618C646.34 338.016 649.502 339.004 650.791 341.589C652.296 344.61 650.272 348.483 647.247 349.977C644.222 351.471 640.613 351.118 637.343 350.258C631.264 348.652 626.208 345.711 620.856 342.49C617.867 345.271 614.626 347.771 611.075 349.772C605.695 352.803 599.961 354.674 594.052 355.902C601.235 356.263 608.316 358.671 614.201 362.808C616.563 364.469 618.926 366.789 618.89 369.677C618.847 373.05 615.281 375.574 611.911 375.524C608.532 375.472 605.486 373.51 602.973 371.255C598.163 366.933 594.965 361.855 591.576 356.381C581.772 358.124 571.561 358.308 561.751 359.211C558.663 359.495 555.605 359.864 552.584 360.395C560.394 360.392 568.193 362.835 574.59 367.318C576.956 368.975 579.32 371.292 579.289 374.18C579.253 377.554 575.689 380.082 572.316 380.034C568.941 379.988 565.886 378.03 563.374 375.778C558.448 371.364 555.208 366.158 551.724 360.546C548.51 361.148 545.338 361.953 542.218 363.076C536.511 365.132 531.045 367.833 525.787 370.848C524.389 371.649 523.006 372.477 521.634 373.323C528.685 372.646 535.924 373.947 542.279 377.08C544.87 378.356 547.56 380.284 547.971 383.143C548.451 386.484 545.315 389.527 541.973 389.995C538.632 390.464 535.314 388.996 532.487 387.153C527.262 383.751 523.41 379.423 519.384 374.737C510.864 380.188 502.842 386.453 495.293 393.183C502.252 390.691 509.938 390.245 517.131 391.961C519.94 392.632 522.992 393.916 524.025 396.613C525.233 399.763 522.851 403.425 519.697 404.623C516.543 405.821 512.981 405.124 509.816 403.956C503.808 401.738 498.997 398.247 493.882 394.454C492.888 395.354 491.9 396.26 490.922 397.174C485.559 402.197 480.403 407.482 475.557 413.034C482.373 410.71 489.848 410.332 496.854 412.004C499.663 412.676 502.714 413.959 503.748 416.656C504.957 419.806 502.573 423.469 499.419 424.667C496.265 425.865 492.704 425.168 489.539 423.999C483.696 421.842 478.985 418.481 474.026 414.811C468.579 421.206 463.55 427.954 459.104 435.07C458.177 436.551 455.943 435.013 456.867 433.534C461.356 426.348 466.449 419.545 471.954 413.091C467.059 407.206 463.967 399.819 463.226 392.175C462.946 389.286 463.168 385.966 465.382 384.094Z" fill="#171818"/>
<path fill-rule="evenodd" clip-rule="evenodd" d="M245.749 367.308C247.892 356.078 247.73 344.439 245.177 333.288C243.98 328.059 242.395 322.712 239.806 317.967L239.745 318.465C239.062 319.722 234.25 328.302 226.329 328.932C219.888 329.443 214.084 324.485 209.445 320.522C207.81 319.126 206.546 317.838 205.676 316.894C208.402 317.059 212.391 316.988 216.9 315.645C220.467 314.581 221.728 313.505 224.098 312.844C227.16 311.989 231.711 311.93 238.262 315.411C235.252 310.922 231.026 307.584 226.622 304.515C222.248 301.467 217.636 298.638 213.844 294.85C210.947 291.957 208.856 288.603 207.702 284.78C206.391 287.041 201.766 294.143 194.585 294.713C188.145 295.225 182.341 290.268 177.702 286.304C176.066 284.907 174.803 283.62 173.932 282.677C176.659 282.841 180.648 282.77 185.156 281.427C188.725 280.364 189.984 279.287 192.355 278.626C195.484 277.752 200.165 277.708 206.95 281.423C206.033 275.656 206.274 269.575 206.658 263.779C206.848 260.925 207.208 258.094 207.584 255.266C205.815 258.068 201.423 263.874 194.959 264.388C188.519 264.899 182.715 259.942 178.075 255.978C176.44 254.582 175.177 253.294 174.306 252.35C177.032 252.516 181.022 252.445 185.53 251.101C189.098 250.038 190.358 248.962 192.729 248.3C195.972 247.394 200.882 247.381 208.075 251.521C208.259 250.061 208.431 248.601 208.565 247.136C209.15 240.759 208.488 234.381 204.355 229.256L204.226 230.294C203.544 231.552 198.734 240.132 190.811 240.761C184.371 241.272 178.567 236.315 173.927 232.351C172.292 230.954 171.029 229.667 170.158 228.723C172.884 228.888 176.874 228.817 181.382 227.474C184.95 226.41 186.21 225.334 188.581 224.672C191.565 223.839 195.963 223.762 202.251 226.981C198.9 223.805 194.722 221.56 190.494 219.623L189.065 220.526C187.603 220.807 177.532 222.596 171.804 216.641C167.147 211.8 167.307 203.866 167.435 197.523C167.48 195.287 167.683 193.424 167.867 192.101C169.532 194.401 172.22 197.562 176.272 200.301C179.479 202.469 181.174 202.772 183.269 204.241C186.142 206.256 189.399 210.209 190.807 218.761C194.964 220.672 199.033 222.859 202.435 225.919C205.904 229.039 208.213 232.958 209.163 237.423C209.518 234.117 210.8 228.256 215.453 225.29C220.5 222.074 227.4 223.608 232.917 224.835C234.861 225.267 236.454 225.771 237.575 226.165C235.275 227.214 232.042 229.005 228.938 232.062C226.482 234.482 225.918 235.909 224.267 237.481C221.95 239.685 217.791 241.886 209.719 241.489L209.649 241.305C209.894 246.159 209.016 251.017 208.375 255.813C207.897 259.389 207.582 262.987 207.426 266.591L207.487 266.322C208.23 265.226 213.45 257.758 220.809 257.902C226.79 258.019 231.686 263.119 235.6 267.195C236.979 268.632 238.026 269.935 238.742 270.883C236.245 270.483 232.561 270.184 228.284 271.01C224.898 271.663 223.639 272.54 221.393 272.934C218.291 273.477 213.705 273.026 207.36 268.429C207.297 270.698 207.296 272.967 207.368 275.236C207.44 277.562 207.633 279.847 208.058 282.054C208.125 282.093 208.191 282.131 208.258 282.17L208.192 282.697C208.916 286.044 210.214 289.203 212.517 292.033C214.814 294.855 217.654 297.146 220.613 299.265L220.832 297.759C221.488 296.608 226.111 288.758 233.459 288.329C239.433 287.982 244.709 292.686 248.927 296.447C250.415 297.772 251.559 298.989 252.347 299.879C249.826 299.673 246.13 299.662 241.929 300.818C238.605 301.732 237.417 302.703 235.21 303.269C232.632 303.931 228.942 303.966 223.828 301.495C224.29 301.809 224.751 302.124 225.211 302.437C229.605 305.439 234.065 308.534 237.434 312.713C238.363 313.866 239.193 315.087 239.944 316.355L240.001 316.388L239.995 316.439C242.38 320.493 243.943 325.049 245.181 329.553C248.569 341.886 249.046 354.929 246.648 367.486C246.537 368.066 245.637 367.889 245.749 367.308Z" fill="#171818"/>
<path fill-rule="evenodd" clip-rule="evenodd" d="M291.841 384.094C289.253 381.907 285.014 382.962 282.854 385.563C280.694 388.164 280.194 391.775 280.269 395.166C280.392 400.652 281.672 405.618 283.238 410.746C279.876 406.925 276.376 403.227 272.773 399.651C270.389 397.286 267.951 394.973 265.463 392.71C270.342 386.857 273.428 379.523 274.177 371.94C274.461 369.065 274.244 365.763 272.033 363.904C269.45 361.733 265.211 362.788 263.048 365.378C260.885 367.968 260.38 371.561 260.45 374.934C260.568 380.6 261.936 385.704 263.575 391.013C255.83 384.13 247.597 377.789 238.876 372.21C242.649 365.719 244.476 358.108 244.02 350.612C243.844 347.729 243.107 344.502 240.629 343.018C237.734 341.284 233.715 342.998 231.991 345.899C230.266 348.799 230.337 352.426 230.942 355.747C231.922 361.126 233.967 365.807 236.32 370.604C227.034 364.868 216.876 359.769 206.101 357.843C205.876 357.802 205.65 357.772 205.426 357.733C208.312 350.713 209.064 342.823 207.525 335.388C206.94 332.559 205.749 329.471 203.085 328.356C199.972 327.053 196.239 329.323 194.946 332.439C193.653 335.556 194.242 339.136 195.314 342.336C197.204 347.974 200.222 352.613 203.554 357.432C191.046 355.545 178.136 355.957 165.713 353.643C168.724 346.533 169.532 338.501 167.966 330.938C167.381 328.109 166.191 325.022 163.526 323.906C160.413 322.602 156.681 324.873 155.388 327.99C154.094 331.107 154.683 334.686 155.755 337.886C157.696 343.675 160.827 348.412 164.265 353.371C161.171 352.738 158.109 351.924 155.094 350.844C148.99 348.657 143.413 345.184 138.513 340.857C143.452 334.69 146.425 326.97 146.872 319.08C147.034 316.197 146.679 312.906 144.392 311.142C141.72 309.081 137.527 310.314 135.476 312.992C133.424 315.671 133.07 319.282 133.282 322.649C133.671 328.825 135.519 334.27 137.599 340.033C129.836 332.886 123.865 323.583 120.343 313.892C124.109 307.793 126.141 300.625 126.089 293.455C126.069 290.567 125.505 287.306 123.11 285.691C120.312 283.804 116.207 285.301 114.329 288.105C112.452 290.908 112.329 294.534 112.755 297.882C113.435 303.222 115.182 307.941 117.231 312.777C117.205 312.97 117.218 313.18 117.295 313.407C120.107 321.721 124.622 329.422 130.294 336.108C131.545 337.583 132.855 339.018 134.219 340.405C127.814 337.649 120.651 336.655 113.742 337.618C110.881 338.016 107.721 339.004 106.434 341.589C104.93 344.61 106.951 348.483 109.977 349.977C113.003 351.471 116.613 351.118 119.877 350.258C125.963 348.652 131.015 345.711 136.366 342.49C139.354 345.271 142.597 347.771 146.148 349.772C151.527 352.803 157.262 354.674 163.171 355.902C155.988 356.263 148.91 358.671 143.023 362.808C140.66 364.469 138.298 366.789 138.333 369.677C138.374 373.05 141.941 375.574 145.314 375.524C148.689 375.472 151.74 373.51 154.251 371.255C159.061 366.933 162.258 361.855 165.648 356.381C175.452 358.124 185.663 358.308 195.473 359.211C198.561 359.495 201.617 359.864 204.64 360.395C196.828 360.392 189.031 362.835 182.633 367.318C180.268 368.975 177.904 371.292 177.935 374.18C177.971 377.554 181.534 380.082 184.909 380.034C188.282 379.988 191.336 378.03 193.85 375.778C198.776 371.364 202.015 366.158 205.499 360.546C208.714 361.148 211.885 361.953 215.006 363.076C220.713 365.132 226.18 367.833 231.436 370.848C232.834 371.649 234.217 372.477 235.59 373.323C228.538 372.646 221.3 373.947 214.944 377.08C212.353 378.356 209.663 380.284 209.252 383.143C208.773 386.484 211.909 389.527 215.25 389.995C218.591 390.464 221.91 388.996 224.737 387.153C229.962 383.751 233.813 379.423 237.84 374.737C246.359 380.188 254.381 386.453 261.93 393.183C254.971 390.691 247.285 390.245 240.093 391.961C237.283 392.632 234.232 393.916 233.198 396.612C231.99 399.763 234.373 403.425 237.527 404.623C240.682 405.821 244.242 405.124 247.408 403.956C253.415 401.738 258.227 398.247 263.342 394.454C264.335 395.354 265.324 396.26 266.301 397.174C271.665 402.197 276.821 407.482 281.666 413.034C274.851 410.71 267.376 410.332 260.37 412.004C257.56 412.676 254.51 413.959 253.475 416.656C252.267 419.806 254.649 423.469 257.804 424.667C260.959 425.865 264.519 425.168 267.685 423.999C273.528 421.842 278.238 418.481 283.197 414.811C288.645 421.206 293.674 427.954 298.12 435.07C299.046 436.551 301.281 435.013 300.356 433.534C295.868 426.348 290.775 419.545 285.27 413.091C290.164 407.206 293.257 399.819 293.997 392.175C294.278 389.286 294.055 385.966 291.841 384.094Z" fill="#171818"/>
<path fill-rule="evenodd" clip-rule="evenodd" d="M518.438 298.706L518.432 298.713C509.439 304.602 498.861 308.811 488.267 311.201C491.527 310.18 494.8 309.108 498.008 307.916C498.434 307.754 498.861 307.592 499.281 307.43C499.592 307.314 499.904 307.191 500.216 307.068C502.782 306.07 505.301 304.965 507.75 303.738C508.609 303.319 509.442 302.886 510.243 302.454C512.952 300.971 515.557 299.304 518.022 297.401V297.395L518.029 297.388C520.386 294.816 522.457 292.24 524.242 289.665V289.659C556.03 244.079 502.669 198.704 466.748 172.6C460.408 167.325 453.393 159.047 448.868 146.679C472.411 185.339 526.269 198.049 540.531 243.36C548.565 267.815 536.79 286.721 518.438 298.706ZM294.364 177.641C331.213 152.345 322.663 129.683 329.947 83.8012C328.645 92.4139 328.664 102.13 330.367 112.913C337.515 158.125 297.85 176.933 269.645 207.111C276.196 196.006 284.724 186.17 294.364 177.641ZM545.564 252.082C538.11 197.113 467.707 183.765 446.35 138.293C444.27 129.464 446.428 118.796 447.573 106.331C452.844 48.7609 418.775 38.3885 396.911 42.0654C375.369 33.6053 342.427 39.1614 327.992 64.8175C311.14 94.7706 335.214 140.317 306.44 164.08C276.47 188.831 211.502 266.554 258.698 301.809C259.723 302.581 260.8 303.322 261.932 304.043H261.939C270.259 308.663 279.013 312.241 288.05 315.014L288.088 315.027C294.6 317.03 301.257 318.611 308.007 319.873C309.744 320.201 311.488 320.503 313.237 320.787C315.715 321.193 318.198 321.555 320.695 321.878C326.223 322.612 331.789 323.166 337.361 323.606L337.393 323.605C349.36 324.537 361.349 324.913 373.056 325.214H373.075C376.131 325.234 379.186 325.23 382.242 325.186C383.262 325.18 384.283 325.161 385.298 325.142C386.796 325.115 388.296 325.081 389.801 325.033C390.662 325.016 391.522 324.991 392.384 324.961C392.626 324.953 392.869 324.945 393.111 324.937C394.112 324.9 395.114 324.862 396.115 324.817C397.531 324.764 398.946 324.699 400.362 324.633C400.86 324.611 401.35 324.583 401.842 324.561C402.154 324.546 402.46 324.525 402.767 324.511C403.436 324.475 404.112 324.439 404.788 324.396C405.489 324.361 406.191 324.319 406.892 324.27C408.302 324.185 409.718 324.093 411.127 323.99C412.619 323.885 414.124 323.775 415.616 323.657C415.947 323.63 416.279 323.603 416.61 323.575C420.552 323.252 424.492 322.891 428.418 322.472C431.095 322.022 433.912 321.592 436.857 321.166H436.863C440.178 320.688 443.646 320.215 447.215 319.728C451.448 319.148 455.826 318.542 460.282 317.878H460.288C460.358 317.871 460.428 317.858 460.498 317.845C466.242 316.981 472.105 316.016 477.941 314.859C480.471 314.353 482.994 313.815 485.504 313.233H485.51C497.646 310.418 509.342 306.599 519.147 301.005C536.078 291.344 547.371 276.37 545.564 252.082Z" fill="#0D031F"/>
<path fill-rule="evenodd" clip-rule="evenodd" d="M458.492 226.62C464.985 228.568 528.094 313.107 518.134 342.128C509.972 365.908 454.139 428.69 454.139 428.69L427.846 412.673L470.479 343.642L416.432 268.112L458.492 226.62Z" fill="#441898"/>
<path fill-rule="evenodd" clip-rule="evenodd" d="M447.573 104.91C447.573 139.617 419.436 167.753 384.728 167.753C350.019 167.753 321.882 139.617 321.882 104.91C321.882 70.2021 350.019 42.0654 384.728 42.0654C419.436 42.0654 447.573 70.2021 447.573 104.91Z" fill="#0D031F"/>
<path fill-rule="evenodd" clip-rule="evenodd" d="M458.177 429.097L308.875 427.074C335.489 406.762 299.608 287.065 299.923 239.844C300.081 216.254 358.849 202.097 364.987 200.532C374.617 200.487 389.954 200.901 402.937 201.384C430.838 202.421 475.293 229.09 469.885 253.532C456.797 312.668 432.385 420.722 458.177 429.097Z" fill="#441898"/>
<path fill-rule="evenodd" clip-rule="evenodd" d="M403.874 201.915C403.715 204.9 384.047 232.579 384.047 232.579L362.475 200.516C364.042 192.378 369.052 166.359 370.526 158.673L398.37 159.24L398.544 160.577L403.874 201.915Z" fill="#F9CBCB"/>
<path fill-rule="evenodd" clip-rule="evenodd" d="M403.874 201.915C396.619 193.324 393.899 167.394 368.327 170.406L370.519 158.99L398.363 159.557L398.544 160.577L403.874 201.915Z" fill="#EBB0B0"/>
<path fill-rule="evenodd" clip-rule="evenodd" d="M338.982 114.15L342.365 136.429C342.068 136.354 341.908 136.255 341.632 136.304C341.632 136.304 341.632 136.304 341.61 136.181C304.643 130.652 308.31 95.2236 333.023 102.242C333.223 106.433 336.515 110.357 338.982 114.15Z" fill="#F9CBCB"/>
<path fill-rule="evenodd" clip-rule="evenodd" d="M425.409 142.708C424.609 142.912 423.835 142.995 422.913 143.173C423.038 142.837 426.693 124.141 426.879 123.231C429.165 119.661 431.092 115.741 432.71 111.516C452.443 105.298 457.337 135.144 425.409 142.708Z" fill="#F9CBCB"/>
<path fill-rule="evenodd" clip-rule="evenodd" d="M437.556 108.234C435.985 181.856 337.248 194.166 329.546 105.317C334.489 20.6343 442.617 36.9653 437.556 108.234Z" fill="#F9CBCB"/>
<path fill-rule="evenodd" clip-rule="evenodd" d="M438.417 83.0802C435.598 71.209 425.564 46.204 393.778 43.9309C386.9 43.4454 346.512 37.5581 330.924 75.9504C327.959 83.2358 322.607 117.513 342.774 142.969C327.137 91.173 353.292 90.3029 354.062 67.1165C359.157 66.0614 364.073 65.707 368.802 65.9259C372.263 66.4575 375.641 67.3016 378.831 68.5513C387.999 72.0956 395.136 78.9301 400.408 86.7304C405.801 94.53 409.675 103.234 413.71 111.89C415.715 116.229 417.765 120.582 420.142 124.807C422.575 128.968 425.301 133.18 429.248 136.251C425.864 132.686 423.554 128.489 421.641 124.15C419.657 119.838 417.958 115.404 416.164 110.985C412.623 102.142 408.833 93.2235 403.262 85.0522C400.438 81.0073 397.176 77.1518 393.253 73.8775C392.047 72.8793 390.763 71.9588 389.445 71.0808C413.979 82.6963 429.858 112.093 431.439 142.969C434.742 139.667 438.872 116.586 439.462 107.533C439.967 99.489 439.721 88.5599 438.417 83.0802Z" fill="#0D031F"/>
<path fill-rule="evenodd" clip-rule="evenodd" d="M378.611 299.286C378.496 291.351 390.961 291.351 390.844 299.286C390.96 307.221 378.494 307.221 378.611 299.286Z" fill="white"/>
<path fill-rule="evenodd" clip-rule="evenodd" d="M378.611 319.774C378.496 311.84 390.961 311.839 390.844 319.775C390.96 327.709 378.494 327.709 378.611 319.774Z" fill="white"/>
<path fill-rule="evenodd" clip-rule="evenodd" d="M378.611 253.532C378.496 245.597 390.961 245.596 390.844 253.533C390.96 261.467 378.494 261.467 378.611 253.532Z" fill="white"/>
<path fill-rule="evenodd" clip-rule="evenodd" d="M378.611 274.021C378.496 266.085 390.961 266.085 390.844 274.021C390.96 281.956 378.494 281.956 378.611 274.021Z" fill="white"/>
<path fill-rule="evenodd" clip-rule="evenodd" d="M449.056 268.112H413.873C410.675 268.161 410.662 262.878 413.873 262.926H449.056C452.254 262.878 452.267 268.161 449.056 268.112Z" fill="white"/>
<path fill-rule="evenodd" clip-rule="evenodd" d="M362.475 200.516C355.086 201.555 337.765 204.813 333.436 210.579C349.187 214.549 372.666 220.954 384.046 232.579L362.475 200.516Z" fill="white"/>
<path fill-rule="evenodd" clip-rule="evenodd" d="M403.809 201.409C411.523 201.409 427.336 204.227 434.868 210.404C419.117 214.374 395.427 220.954 384.046 232.579L403.809 201.409Z" fill="white"/>
<path fill-rule="evenodd" clip-rule="evenodd" d="M320.601 216.547C294.254 226.726 234.233 315.537 249.639 346.994C260.696 369.575 308.294 428.69 308.294 428.69L334.588 412.673L291.955 343.642L346.002 268.112L320.601 216.547Z" fill="#441898"/>
<path fill-rule="evenodd" clip-rule="evenodd" d="M473.899 294.337H283.322C273.173 294.337 265.265 303.14 266.349 313.23L278.706 428.27C279.637 436.942 286.957 443.518 295.679 443.518H461.542C470.265 443.518 477.584 436.942 478.515 428.27L490.872 313.23C491.956 303.14 484.049 294.337 473.899 294.337Z" fill="white"/>
<path fill-rule="evenodd" clip-rule="evenodd" d="M473.9 294.337H471.373C471.358 294.559 471.343 294.78 471.32 295.004L462.382 378.207C459.506 404.987 436.903 425.291 409.969 425.291H278.387L278.707 428.27C279.638 436.942 286.957 443.518 295.68 443.518H461.543C470.265 443.518 477.585 436.942 478.516 428.27L490.873 313.23C491.957 303.14 484.049 294.337 473.9 294.337Z" fill="#D8DCF5"/>
<path fill-rule="evenodd" clip-rule="evenodd" d="M386.189 351.524H368.759C365.658 351.524 363.144 354.039 363.144 357.139V374.569C363.144 377.669 365.658 380.184 368.759 380.184H386.189C389.29 380.184 391.804 377.669 391.804 374.569V357.139C391.804 354.039 389.29 351.524 386.189 351.524Z" fill="#D8DCF5"/>
<path fill-rule="evenodd" clip-rule="evenodd" d="M716.321 445.78C716.321 446.556 715.995 447.255 715.467 447.763C714.94 448.271 714.206 448.589 713.412 448.589H80.3411C78.7392 448.589 77.4375 447.333 77.4375 445.78C77.4375 445.011 77.7591 444.305 78.2855 443.796C78.8126 443.288 79.5438 442.971 80.3411 442.971H713.412C715.014 442.971 716.321 444.234 716.321 445.78Z" fill="#DED9FF"/>
<path fill-rule="evenodd" clip-rule="evenodd" d="M790.222 448.592H737.851C736.482 448.592 735.373 447.485 735.373 446.118V445.448C735.373 444.081 736.482 442.974 737.851 442.974H790.222C791.583 442.974 792.693 444.081 792.693 445.448V446.118C792.693 447.485 791.583 448.592 790.222 448.592Z" fill="#DED9FF"/>
<path fill-rule="evenodd" clip-rule="evenodd" d="M55.5413 448.592H3.17013C1.80161 448.592 0.692383 447.485 0.692383 446.118V445.448C0.692383 444.081 1.80161 442.974 3.17013 442.974H55.5413C56.9026 442.974 58.0119 444.081 58.0119 445.448V446.118C58.0119 447.485 56.9026 448.592 55.5413 448.592Z" fill="#DED9FF"/>
<path fill-rule="evenodd" clip-rule="evenodd" d="M693.28 421.784V439.479H641.845C636.969 439.479 632.993 435.515 632.993 430.634C632.993 425.755 636.969 421.784 641.845 421.784H693.28Z" fill="white"/>
<path fill-rule="evenodd" clip-rule="evenodd" d="M641.845 421.784C634.124 421.784 628.679 431.726 637.639 439.479H693.28V442.974H544.042V418.289H693.28V421.784H641.845Z" fill="#9060EB"/>
<path fill-rule="evenodd" clip-rule="evenodd" d="M632.993 430.634C632.993 435.515 636.969 439.479 641.845 439.479H693.28V442.974H641.845C635.038 442.974 629.5 437.437 629.5 430.634C629.5 423.825 635.038 418.289 641.845 418.289H693.28V421.784H641.845C636.969 421.784 632.993 425.755 632.993 430.634Z" fill="#9060EB"/>
<path fill-rule="evenodd" clip-rule="evenodd" d="M596.181 442.974H599.493V418.289H596.181V442.974Z" fill="white"/>
<path fill-rule="evenodd" clip-rule="evenodd" d="M587.9 442.974H591.212V418.289H587.9V442.974Z" fill="white"/>
<path fill-rule="evenodd" clip-rule="evenodd" d="M645.194 428.115V435.798L649.105 433.083L653.009 435.798V428.115H645.194Z" fill="#9060EB"/>
<path fill-rule="evenodd" clip-rule="evenodd" d="M606.674 431.956C606.674 427.995 609.887 424.783 613.848 424.783C617.81 424.783 621.022 427.995 621.022 431.956C621.022 435.918 617.81 439.13 613.848 439.13C609.887 439.13 606.674 435.918 606.674 431.956Z" fill="white"/>
<path fill-rule="evenodd" clip-rule="evenodd" d="M558.17 397.098V414.792H609.605C614.489 414.792 618.458 410.828 618.458 405.948C618.458 401.069 614.489 397.098 609.605 397.098H558.17Z" fill="white"/>
<path fill-rule="evenodd" clip-rule="evenodd" d="M609.605 397.098C617.327 397.098 622.772 407.04 613.812 414.792H558.17V418.289H707.412V393.602H558.17V397.098H609.605Z" fill="#6FFFB0"/>
<path fill-rule="evenodd" clip-rule="evenodd" d="M618.458 405.948C618.458 410.828 614.489 414.792 609.605 414.792H558.17V418.289H609.605C616.419 418.289 621.951 412.751 621.951 405.948C621.951 399.139 616.419 393.602 609.605 393.602H558.17V397.098H609.605C614.489 397.098 618.458 401.069 618.458 405.948Z" fill="#6FFFB0"/>
<path fill-rule="evenodd" clip-rule="evenodd" d="M651.958 418.289H655.271V393.602H651.958V418.289Z" fill="white"/>
<path fill-rule="evenodd" clip-rule="evenodd" d="M660.241 418.289H663.554V393.602H660.241V418.289Z" fill="white"/>
<path fill-rule="evenodd" clip-rule="evenodd" d="M606.256 403.429V411.112L602.349 408.396L598.441 411.112V403.429H606.256Z" fill="#6FFFB0"/>
<path fill-rule="evenodd" clip-rule="evenodd" d="M630.386 405.945C630.386 402.205 633.418 399.173 637.164 399.173C640.902 399.173 643.934 402.205 643.934 405.945C643.934 409.685 640.902 412.717 637.164 412.717C633.418 412.717 630.386 409.685 630.386 405.945Z" fill="white"/>
<path fill-rule="evenodd" clip-rule="evenodd" d="M675.785 125.577C676.087 125.577 676.087 126.051 675.785 126.051C675.475 126.051 675.475 125.577 675.785 125.577Z" fill="#D94559"/>
<path fill-rule="evenodd" clip-rule="evenodd" d="M651.641 1.0485C670.282 2.61288 688.872 8.14874 704.063 19.062C719.253 29.9753 730.756 46.6001 733.392 65.1178C736.021 83.6355 728.927 103.751 713.902 114.889C698.02 126.665 676.462 127.142 656.899 124.251C632.143 120.59 608.223 112.371 583.427 108.988C573.172 107.589 562.336 107.101 552.862 111.269C543.388 115.438 535.863 120.35 532.78 134.149C517.469 75.0775 546.708 40.841 569.737 23.3165C592.766 5.79136 622.801 -1.37155 651.641 1.0485Z" fill="#ADA1FF"/>
<path fill-rule="evenodd" clip-rule="evenodd" d="M611.248 125.963C613.632 126.497 615.836 127.648 618.119 128.499C620.417 129.356 622.75 130.129 625.077 130.904C629.752 132.459 634.419 134.011 639.194 135.246C648.695 137.704 658.462 139.169 668.279 139.328C685.558 139.609 702.91 135.734 717.776 126.761C725.836 121.897 733.226 115.431 738.96 107.954C739.233 107.596 739.846 107.917 739.586 108.319C734.984 115.489 729.265 121.451 722.401 126.502C715.464 131.611 707.7 135.539 699.561 138.347C681.143 144.701 661.444 144.6 642.565 140.337C636.983 139.075 631.408 137.523 626.028 135.543C623.377 134.564 620.77 133.43 618.198 132.25C615.548 131.034 612.623 129.997 610.29 128.237C609.202 127.415 609.793 125.638 611.248 125.963Z" fill="#ADA1FF"/>
<path fill-rule="evenodd" clip-rule="evenodd" d="M521.181 65.1351C523.473 55.5745 527.814 46.6073 533.819 38.8279C536.834 34.9205 540.278 31.3481 544.065 28.1826C545.835 26.7039 547.672 25.2972 549.581 24.0044C551.5 22.705 553.776 21.2177 556.003 20.5501C556.533 20.3909 556.978 21.1155 556.554 21.4972C554.901 22.9931 552.851 24.1859 551.059 25.5248C549.088 26.9992 547.18 28.5384 545.366 30.2043C541.946 33.3497 538.848 36.8422 536.115 40.5997C530.578 48.2106 526.632 56.8868 524.612 66.0815C524.123 68.3107 520.645 67.3693 521.181 65.1351Z" fill="#ADA1FF"/>
<path fill-rule="evenodd" clip-rule="evenodd" d="M588.975 119.902C589.99 119.369 591.405 119.552 592.521 119.656C593.641 119.76 594.758 119.937 595.848 120.215C596.903 120.484 597.928 120.845 598.916 121.302C599.968 121.788 601.157 122.315 601.821 123.295C602.378 124.116 601.654 125.53 600.611 125.404C600.207 125.356 599.879 125.318 599.508 125.142C599.28 125.033 599.061 124.907 598.835 124.796C598.438 124.603 598.188 124.492 597.833 124.354C596.926 124 596 123.682 595.055 123.444C594.597 123.329 594.135 123.231 593.669 123.15C593.164 123.063 593.058 123.051 592.521 123.005C592.051 122.963 591.578 122.941 591.107 122.938C590.535 122.932 589.9 123.048 589.358 122.838C588.752 122.602 588.288 122.183 588.208 121.502C588.135 120.892 588.4 120.203 588.975 119.902Z" fill="#ADA1FF"/>
<path fill-rule="evenodd" clip-rule="evenodd" d="M139.602 167.585H48.9226C44.9971 167.585 41.8149 164.402 41.8149 160.476V119.3C41.8149 115.373 44.9971 112.191 48.9226 112.191H139.602C143.527 112.191 146.71 115.373 146.71 119.3V160.476C146.71 164.402 143.527 167.585 139.602 167.585Z" fill="#6FFFB0"/>
<path fill-rule="evenodd" clip-rule="evenodd" d="M106.963 125.759H93.3492C93.0546 125.759 92.8154 125.306 92.8154 124.746C92.8154 124.187 93.0546 123.733 93.3492 123.733H106.963C107.258 123.733 107.497 124.187 107.497 124.746C107.497 125.306 107.258 125.759 106.963 125.759Z" fill="white"/>
<path fill-rule="evenodd" clip-rule="evenodd" d="M131.011 125.759H109.918C109.623 125.759 109.384 125.306 109.384 124.746C109.384 124.187 109.623 123.733 109.918 123.733H131.011C131.305 123.733 131.544 124.187 131.544 124.746C131.544 125.306 131.305 125.759 131.011 125.759Z" fill="white"/>
<path fill-rule="evenodd" clip-rule="evenodd" d="M138.904 125.759H134.478C134.222 125.759 134.014 125.365 134.014 124.878C134.014 124.391 134.222 123.996 134.478 123.996H138.904C139.161 123.996 139.369 124.391 139.369 124.878C139.369 125.365 139.161 125.759 138.904 125.759Z" fill="white"/>
<path fill-rule="evenodd" clip-rule="evenodd" d="M138.835 136.228H93.3492C93.0546 136.228 92.8154 135.776 92.8154 135.216C92.8154 134.657 93.0546 134.203 93.3492 134.203H138.835C139.13 134.203 139.369 134.657 139.369 135.216C139.369 135.776 139.13 136.228 138.835 136.228Z" fill="white"/>
<path fill-rule="evenodd" clip-rule="evenodd" d="M106.963 156.042H93.3492C93.0546 156.042 92.8154 155.589 92.8154 155.029C92.8154 154.47 93.0546 154.016 93.3492 154.016H106.963C107.258 154.016 107.497 154.47 107.497 155.029C107.497 155.589 107.258 156.042 106.963 156.042Z" fill="white"/>
<path fill-rule="evenodd" clip-rule="evenodd" d="M131.011 156.042H109.918C109.623 156.042 109.384 155.589 109.384 155.029C109.384 154.47 109.623 154.016 109.918 154.016H131.011C131.305 154.016 131.544 154.47 131.544 155.029C131.544 155.589 131.305 156.042 131.011 156.042Z" fill="white"/>
<path fill-rule="evenodd" clip-rule="evenodd" d="M115.984 145.573H93.3492C93.0546 145.573 92.8154 145.119 92.8154 144.559C92.8154 144 93.0546 143.547 93.3492 143.547H115.984C116.278 143.547 116.517 144 116.517 144.559C116.517 145.119 116.278 145.573 115.984 145.573Z" fill="white"/>
<path fill-rule="evenodd" clip-rule="evenodd" d="M138.836 145.573H121.408C121.113 145.573 120.874 145.119 120.874 144.559C120.874 144 121.113 143.547 121.408 143.547H138.836C139.13 143.547 139.369 144 139.369 144.559C139.369 145.119 139.13 145.573 138.836 145.573Z" fill="white"/>
<path fill-rule="evenodd" clip-rule="evenodd" d="M138.904 156.042H134.478C134.222 156.042 134.014 155.647 134.014 155.161C134.014 154.673 134.222 154.279 134.478 154.279H138.904C139.161 154.279 139.369 154.673 139.369 155.161C139.369 155.647 139.161 156.042 138.904 156.042Z" fill="white"/>
<path fill-rule="evenodd" clip-rule="evenodd" d="M48.1462 137.114C49.2238 126.225 58.9251 118.272 69.8143 119.351C80.7027 120.429 88.6559 130.13 87.5777 141.018C86.4994 151.907 76.7981 159.86 65.9097 158.782C55.0205 157.703 47.068 148.002 48.1462 137.114Z" fill="white"/>
<path fill-rule="evenodd" clip-rule="evenodd" d="M67.5668 141.153C71.8143 141.153 75.2579 137.71 75.2579 133.463C75.2579 129.215 71.8143 125.771 67.5668 125.771C63.3186 125.771 59.875 129.215 59.875 133.463C59.875 137.71 63.3186 141.153 67.5668 141.153Z" fill="#6FFFB0"/>
<path fill-rule="evenodd" clip-rule="evenodd" d="M74.6212 141.215C74.0025 140.731 73.1367 140.749 72.5281 141.245C71.2042 142.325 69.5123 142.976 67.6662 142.976C65.8806 142.976 64.2377 142.368 62.9347 141.346C62.3146 140.859 61.4351 140.869 60.8365 141.382C59.2851 142.712 58.3394 144.631 58.3394 147.125V147.35C58.3394 148.64 59.3852 149.685 60.6752 149.685H75.0483C76.3376 149.685 77.3834 148.64 77.3834 147.35V147.125C77.3834 144.524 76.3282 142.549 74.6212 141.215Z" fill="#6FFFB0"/>
<path fill-rule="evenodd" clip-rule="evenodd" d="M276.585 14.685H170.96C167.94 14.685 165.492 17.1339 165.492 20.1532V66.5057C165.492 69.525 167.94 71.9732 170.96 71.9732H276.585C279.605 71.9732 282.054 69.525 282.054 66.5057V20.1532C282.054 17.1339 279.605 14.685 276.585 14.685Z" fill="#ADA1FF"/>
<path fill-rule="evenodd" clip-rule="evenodd" d="M251.976 39.5791H179.907C177.892 39.5791 176.257 37.9456 176.257 35.9303V34.9407C176.257 32.9261 177.892 31.2919 179.907 31.2919H251.976C253.991 31.2919 255.624 32.9261 255.624 34.9407V35.9303C255.624 37.9456 253.991 39.5791 251.976 39.5791Z" fill="white"/>
<path fill-rule="evenodd" clip-rule="evenodd" d="M251.976 58.6536H180.124C178.109 58.6536 176.476 57.02 176.476 55.0048V54.0151C176.476 51.9999 178.109 50.3656 180.124 50.3656H251.976C253.991 50.3656 255.624 51.9999 255.624 54.0151V55.0048C255.624 57.02 253.991 58.6536 251.976 58.6536Z" fill="white"/>
<path fill-rule="evenodd" clip-rule="evenodd" d="M271.708 39.5791H263.483C261.468 39.5791 259.834 37.9456 259.834 35.9303V34.9407C259.834 32.9261 261.468 31.2919 263.483 31.2919H271.708C273.724 31.2919 275.357 32.9261 275.357 34.9407V35.9303C275.357 37.9456 273.724 39.5791 271.708 39.5791Z" fill="white"/>
<path fill-rule="evenodd" clip-rule="evenodd" d="M271.708 58.6536H263.483C261.468 58.6536 259.834 57.02 259.834 55.0048V54.0151C259.834 51.9999 261.468 50.3656 263.483 50.3656H271.708C273.724 50.3656 275.357 51.9999 275.357 54.0151V55.0048C275.357 57.02 273.724 58.6536 271.708 58.6536Z" fill="white"/>
<path fill-rule="evenodd" clip-rule="evenodd" d="M183.899 51.9199L184.141 53.614C184.152 53.6989 184.239 53.7515 184.32 53.722L185.927 53.1307C186.07 53.0781 186.177 53.269 186.056 53.3633L184.71 54.4192C184.642 54.4732 184.64 54.5741 184.706 54.6288L186.021 55.725C186.139 55.8237 186.027 56.0102 185.885 55.9533L184.297 55.3152C184.217 55.2835 184.128 55.3325 184.114 55.4167L183.822 57.1036C183.796 57.2548 183.577 57.2519 183.556 57.1L183.314 55.4059C183.303 55.3202 183.215 55.2684 183.135 55.2979L181.528 55.8885C181.384 55.9418 181.278 55.7509 181.398 55.6566L182.745 54.6C182.813 54.5474 182.815 54.4458 182.749 54.3904L181.434 53.2949C181.316 53.1962 181.428 53.0089 181.57 53.0666L183.158 53.7047C183.238 53.7364 183.327 53.6874 183.341 53.6032L183.633 51.9163C183.659 51.7651 183.878 51.7679 183.899 51.9199Z" fill="#ADA1FF"/>
<path fill-rule="evenodd" clip-rule="evenodd" d="M191.468 51.9199L191.709 53.614C191.721 53.6989 191.809 53.7515 191.889 53.722L193.496 53.1307C193.64 53.0781 193.745 53.269 193.625 53.3633L192.278 54.4192C192.211 54.4732 192.209 54.5741 192.275 54.6288L193.59 55.725C193.707 55.8237 193.596 56.0102 193.453 55.9533L191.865 55.3152C191.786 55.2835 191.697 55.3325 191.682 55.4167L191.391 57.1036C191.365 57.2548 191.146 57.2519 191.125 57.1L190.883 55.4059C190.871 55.3202 190.784 55.2684 190.704 55.2979L189.097 55.8885C188.953 55.9418 188.846 55.7509 188.967 55.6566L190.314 54.6C190.382 54.5474 190.383 54.4458 190.317 54.3904L189.002 53.2949C188.884 53.1962 188.996 53.0089 189.139 53.0666L190.727 53.7047C190.807 53.7364 190.895 53.6874 190.91 53.6032L191.201 51.9163C191.227 51.7651 191.446 51.7679 191.468 51.9199Z" fill="#ADA1FF"/>
<path fill-rule="evenodd" clip-rule="evenodd" d="M199.036 51.9199L199.277 53.614C199.289 53.6989 199.377 53.7515 199.457 53.722L201.063 53.1307C201.208 53.0781 201.314 53.269 201.194 53.3633L199.847 54.4192C199.779 54.4732 199.778 54.5741 199.843 54.6288L201.158 55.725C201.277 55.8237 201.164 56.0102 201.022 55.9533L199.434 55.3152C199.354 55.2835 199.266 55.3325 199.25 55.4167L198.959 57.1036C198.933 57.2548 198.715 57.2519 198.693 57.1L198.452 55.4059C198.439 55.3202 198.352 55.2684 198.272 55.2979L196.665 55.8885C196.521 55.9418 196.415 55.7509 196.536 55.6566L197.883 54.6C197.95 54.5474 197.952 54.4458 197.885 54.3904L196.571 53.2949C196.453 53.1962 196.564 53.0089 196.707 53.0666L198.295 53.7047C198.375 53.7364 198.464 53.6874 198.478 53.6032L198.77 51.9163C198.796 51.7651 199.014 51.7679 199.036 51.9199Z" fill="#ADA1FF"/>
<path fill-rule="evenodd" clip-rule="evenodd" d="M206.605 51.9199L206.847 53.614C206.858 53.6989 206.945 53.7515 207.026 53.722L208.633 53.1307C208.776 53.0781 208.883 53.269 208.762 53.3633L207.416 54.4192C207.348 54.4732 207.346 54.5741 207.412 54.6288L208.727 55.725C208.845 55.8237 208.733 56.0102 208.591 55.9533L207.002 55.3152C206.923 55.2835 206.834 55.3325 206.82 55.4167L206.528 57.1036C206.502 57.2548 206.283 57.2519 206.262 57.1L206.02 55.4059C206.009 55.3202 205.921 55.2684 205.841 55.2979L204.234 55.8885C204.09 55.9418 203.984 55.7509 204.105 55.6566L205.451 54.6C205.519 54.5474 205.521 54.4458 205.455 54.3904L204.14 53.2949C204.022 53.1962 204.134 53.0089 204.276 53.0666L205.864 53.7047C205.944 53.7364 206.033 53.6874 206.047 53.6032L206.339 51.9163C206.365 51.7651 206.583 51.7679 206.605 51.9199Z" fill="#ADA1FF"/>
<path fill-rule="evenodd" clip-rule="evenodd" d="M214.174 51.9199L214.415 53.614C214.427 53.6989 214.514 53.7515 214.595 53.722L216.202 53.1307C216.346 53.0781 216.452 53.269 216.331 53.3633L214.984 54.4192C214.917 54.4732 214.915 54.5741 214.981 54.6288L216.296 55.725C216.414 55.8237 216.302 56.0102 216.159 55.9533L214.571 55.3152C214.492 55.2835 214.403 55.3325 214.388 55.4167L214.097 57.1036C214.071 57.2548 213.852 57.2519 213.831 57.1L213.589 55.4059C213.578 55.3202 213.49 55.2684 213.41 55.2979L211.803 55.8885C211.659 55.9418 211.552 55.7509 211.673 55.6566L213.02 54.6C213.088 54.5474 213.089 54.4458 213.023 54.3904L211.708 53.2949C211.59 53.1962 211.702 53.0089 211.845 53.0666L213.433 53.7047C213.513 53.7364 213.601 53.6874 213.616 53.6032L213.907 51.9163C213.933 51.7651 214.152 51.7679 214.174 51.9199Z" fill="#ADA1FF"/>
<path fill-rule="evenodd" clip-rule="evenodd" d="M182.159 35.4355C182.159 34.8989 182.594 34.4639 183.13 34.4639C183.668 34.4639 184.103 34.8989 184.103 35.4355C184.103 35.9721 183.668 36.4078 183.13 36.4078C182.594 36.4078 182.159 35.9721 182.159 35.4355Z" fill="#ADA1FF"/>
<path fill-rule="evenodd" clip-rule="evenodd" d="M185.297 35.4355C185.297 34.8989 185.732 34.4639 186.269 34.4639C186.805 34.4639 187.24 34.8989 187.24 35.4355C187.24 35.9721 186.805 36.4078 186.269 36.4078C185.732 36.4078 185.297 35.9721 185.297 35.4355Z" fill="#ADA1FF"/>
<path fill-rule="evenodd" clip-rule="evenodd" d="M188.435 35.4355C188.435 34.8989 188.87 34.4639 189.407 34.4639C189.943 34.4639 190.378 34.8989 190.378 35.4355C190.378 35.9721 189.943 36.4078 189.407 36.4078C188.87 36.4078 188.435 35.9721 188.435 35.4355Z" fill="#ADA1FF"/>
<path fill-rule="evenodd" clip-rule="evenodd" d="M191.573 35.4355C191.573 34.8989 192.008 34.4639 192.545 34.4639C193.081 34.4639 193.517 34.8989 193.517 35.4355C193.517 35.9721 193.081 36.4078 192.545 36.4078C192.008 36.4078 191.573 35.9721 191.573 35.4355Z" fill="#ADA1FF"/>
<path fill-rule="evenodd" clip-rule="evenodd" d="M194.711 35.4355C194.711 34.8989 195.146 34.4639 195.683 34.4639C196.22 34.4639 196.655 34.8989 196.655 35.4355C196.655 35.9721 196.22 36.4078 195.683 36.4078C195.146 36.4078 194.711 35.9721 194.711 35.4355Z" fill="#ADA1FF"/>
<path fill-rule="evenodd" clip-rule="evenodd" d="M197.849 35.4355C197.849 34.8989 198.284 34.4639 198.821 34.4639C199.358 34.4639 199.793 34.8989 199.793 35.4355C199.793 35.9721 199.358 36.4078 198.821 36.4078C198.284 36.4078 197.849 35.9721 197.849 35.4355Z" fill="#ADA1FF"/>
<path fill-rule="evenodd" clip-rule="evenodd" d="M200.987 35.4355C200.987 34.8989 201.422 34.4639 201.96 34.4639C202.496 34.4639 202.931 34.8989 202.931 35.4355C202.931 35.9721 202.496 36.4078 201.96 36.4078C201.422 36.4078 200.987 35.9721 200.987 35.4355Z" fill="#ADA1FF"/>
<path fill-rule="evenodd" clip-rule="evenodd" d="M204.125 35.4355C204.125 34.8989 204.561 34.4639 205.097 34.4639C205.634 34.4639 206.07 34.8989 206.07 35.4355C206.07 35.9721 205.634 36.4078 205.097 36.4078C204.561 36.4078 204.125 35.9721 204.125 35.4355Z" fill="#ADA1FF"/>
<path fill-rule="evenodd" clip-rule="evenodd" d="M677.297 200.396L677.412 200.471C677.499 200.509 677.722 200.58 677.945 200.419L685.083 195.343C685.314 195.182 685.314 194.952 685.307 194.86C685.299 194.768 685.249 194.543 684.997 194.427L677.031 190.782C676.779 190.666 676.577 190.778 676.505 190.831C676.426 190.885 676.253 191.039 676.282 191.315L677.11 200.037C677.124 200.216 677.211 200.329 677.297 200.396ZM686.373 192.967C686.884 193.384 687.215 193.989 687.28 194.672C687.359 195.576 686.971 196.429 686.236 196.956L679.091 202.033C678.349 202.559 677.42 202.647 676.591 202.27C675.77 201.892 675.223 201.127 675.136 200.224L674.308 191.501C674.222 190.597 674.618 189.744 675.353 189.218C676.094 188.692 677.031 188.604 677.852 188.982L685.825 192.627C686.02 192.719 686.207 192.833 686.373 192.967Z" fill="#FF91DA"/>
<path fill-rule="evenodd" clip-rule="evenodd" d="M96.3018 59.6216L96.4199 59.6958C96.5035 59.7332 96.7239 59.806 96.9493 59.6446L104.09 54.5676C104.316 54.4077 104.32 54.1772 104.311 54.085C104.303 53.9935 104.256 53.7681 104.003 53.6521L96.0353 50.0062C95.7839 49.891 95.5822 50.0033 95.5073 50.0566C95.4317 50.1099 95.2596 50.2641 95.2855 50.5399L96.1124 59.2622C96.1297 59.4415 96.2182 59.5539 96.3018 59.6216ZM105.375 52.1922C105.889 52.6092 106.216 53.2142 106.282 53.8984C106.367 54.8016 105.977 55.6551 105.238 56.1817L98.096 61.2587C97.3563 61.7845 96.4221 61.8731 95.5967 61.4957C94.7719 61.1175 94.2274 60.3526 94.1417 59.4494L93.3155 50.7265C93.2291 49.8233 93.6202 48.969 94.3599 48.444C95.0997 47.9175 96.0339 47.8289 96.8593 48.207L104.827 51.8522C105.027 51.9444 105.211 52.0582 105.375 52.1922Z" fill="#FF91DA"/>
<path fill-rule="evenodd" clip-rule="evenodd" d="M545.504 172.269L547.412 168.332C547.845 167.438 547.471 166.362 546.577 165.929C545.684 165.496 544.607 165.87 544.175 166.763L542.267 170.702L538.329 168.794C537.436 168.361 536.359 168.734 535.927 169.628C535.493 170.522 535.867 171.598 536.761 172.031L540.699 173.939L538.795 177.869C538.362 178.763 538.735 179.839 539.629 180.272C540.076 180.489 540.568 180.503 541.003 180.352C541.438 180.201 541.815 179.884 542.032 179.438L543.936 175.507L547.867 177.411C548.314 177.627 548.806 177.642 549.241 177.491C549.676 177.34 550.053 177.023 550.27 176.576C550.703 175.683 550.329 174.607 549.435 174.174L545.504 172.269Z" fill="#FFB86B"/>
<path fill-rule="evenodd" clip-rule="evenodd" d="M69.9727 234.56L71.8807 230.622C72.3135 229.728 71.9404 228.653 71.0466 228.22C70.1527 227.786 69.0759 228.16 68.6437 229.054L66.7357 232.992L62.798 231.084C61.9041 230.651 60.828 231.025 60.3952 231.919C59.9623 232.812 60.3354 233.888 61.23 234.321L65.1677 236.228L63.2633 240.159C62.8304 241.053 63.2035 242.129 64.0981 242.562C64.5447 242.779 65.0373 242.793 65.4717 242.643C65.9067 242.492 66.2841 242.175 66.5002 241.727L68.4046 237.797L72.3359 239.701C72.7824 239.917 73.2751 239.932 73.7094 239.781C74.1445 239.631 74.5219 239.313 74.738 238.866C75.1716 237.973 74.7978 236.897 73.9039 236.464L69.9727 234.56Z" fill="#FFB86B"/>
<path fill-rule="evenodd" clip-rule="evenodd" d="M643.603 300.65C641.075 301.528 639.728 304.301 640.606 306.83C641.485 309.359 644.258 310.702 646.786 309.824C649.315 308.946 650.661 306.173 649.783 303.645C648.904 301.115 646.131 299.772 643.603 300.65ZM647.514 311.912C643.833 313.191 639.8 311.237 638.518 307.556C637.243 303.874 639.195 299.84 642.875 298.561C646.556 297.283 650.589 299.238 651.872 302.919C653.146 306.599 651.194 310.635 647.514 311.912Z" fill="#736FC7"/>
<path fill-rule="evenodd" clip-rule="evenodd" d="M226.303 147.335C223.774 148.214 222.431 150.987 223.309 153.515C224.187 156.045 226.96 157.387 229.489 156.509C232.018 155.631 233.361 152.858 232.483 150.33C231.605 147.801 228.832 146.458 226.303 147.335ZM230.215 158.598C226.533 159.876 222.498 157.922 221.22 154.241C219.941 150.56 221.896 146.525 225.577 145.247C229.259 143.969 233.294 145.923 234.572 149.604C235.85 153.285 233.895 157.32 230.215 158.598Z" fill="#736FC7"/>
<path fill-rule="evenodd" clip-rule="evenodd" d="M473.289 10.0985C470.76 10.9772 469.417 13.7501 470.295 16.2782C471.174 18.8078 473.946 20.1503 476.475 19.2723C479.004 18.3943 480.347 15.6214 479.468 13.0926C478.59 10.5638 475.817 9.2212 473.289 10.0985ZM477.2 21.3611C473.52 22.6395 469.485 20.6855 468.206 17.0042C466.928 13.323 468.882 9.28819 472.563 8.00974C476.244 6.73129 480.279 8.68606 481.558 12.3673C482.836 16.0478 480.882 20.0833 477.2 21.3611Z" fill="#736FC7"/>
</svg>
