<svg width="456" height="283" viewBox="0 0 456 283" fill="none" xmlns="http://www.w3.org/2000/svg">
<path fill-rule="evenodd" clip-rule="evenodd" d="M80.8575 257.886H18.9569C17.3508 257.886 16.0482 256.583 16.0482 254.977V214.094C16.0482 212.487 17.3508 211.184 18.9569 211.184H80.8575C82.4642 211.184 83.7668 212.487 83.7668 214.094V254.977C83.7668 256.583 82.4642 257.886 80.8575 257.886Z" fill="#6FFFB0"/>
<path d="M80.8575 257.886H18.9569C17.3508 257.886 16.0482 256.583 16.0482 254.977V214.094C16.0482 212.487 17.3508 211.184 18.9569 211.184H80.8575C82.4643 211.184 83.7668 212.487 83.7668 214.094V254.977C83.7668 256.583 82.4643 257.886 80.8575 257.886" stroke="white"/>
<path fill-rule="evenodd" clip-rule="evenodd" d="M65.4772 272.184H3.57667C1.96989 272.184 0.667969 270.881 0.667969 269.275V228.392C0.667969 226.785 1.96989 225.483 3.57667 225.483H65.4772C67.084 225.483 68.3866 226.785 68.3866 228.392V269.275C68.3866 270.881 67.084 272.184 65.4772 272.184Z" fill="#232531"/>
<path d="M65.4772 272.184H3.57667C1.96989 272.184 0.667969 270.881 0.667969 269.275V228.392C0.667969 226.785 1.96989 225.483 3.57667 225.483H65.4772C67.084 225.483 68.3866 226.785 68.3866 228.392V269.275C68.3866 270.881 67.084 272.184 65.4772 272.184" stroke="white"/>
<path fill-rule="evenodd" clip-rule="evenodd" d="M330.307 202.152C330.995 199.146 331.906 196.073 333.394 193.346L333.429 193.632C333.822 194.354 336.587 199.286 341.141 199.648C344.843 199.942 348.179 197.092 350.845 194.814C351.785 194.011 352.512 193.271 353.012 192.729C351.445 192.824 349.151 192.783 346.56 192.01C344.51 191.399 343.785 190.781 342.423 190.4C340.663 189.909 338.048 189.875 334.281 191.876C336.012 189.296 338.44 187.377 340.972 185.613C343.486 183.862 346.137 182.235 348.316 180.058C349.982 178.395 351.183 176.467 351.847 174.27C352.6 175.569 355.259 179.652 359.386 179.98C363.088 180.274 366.424 177.424 369.091 175.146C370.031 174.343 370.757 173.603 371.257 173.061C369.69 173.156 367.397 173.115 364.806 172.343C362.755 171.732 362.031 171.113 360.668 170.733C358.87 170.231 356.179 170.205 352.279 172.341C352.806 169.025 352.668 165.531 352.447 162.199C352.338 160.559 352.131 158.932 351.915 157.306C352.932 158.917 355.456 162.254 359.172 162.549C362.873 162.843 366.209 159.994 368.876 157.715C369.816 156.913 370.542 156.172 371.042 155.63C369.475 155.725 367.182 155.684 364.591 154.912C362.54 154.301 361.816 153.682 360.453 153.302C358.589 152.781 355.766 152.774 351.633 155.153C351.527 154.314 351.428 153.475 351.351 152.633C351.014 148.968 351.395 145.301 353.771 142.356L353.845 142.953C354.237 143.675 357.002 148.607 361.556 148.969C365.257 149.263 368.593 146.413 371.26 144.135C372.2 143.332 372.926 142.592 373.426 142.05C371.859 142.144 369.566 142.103 366.975 141.331C364.925 140.72 364.2 140.102 362.838 139.721C361.122 139.242 358.594 139.198 354.98 141.048C356.906 139.223 359.308 137.933 361.738 136.819L362.56 137.338C363.399 137.499 369.188 138.528 372.48 135.105C375.157 132.323 375.065 127.762 374.991 124.117C374.965 122.831 374.849 121.76 374.743 121C373.787 122.322 372.242 124.139 369.912 125.713C368.069 126.959 367.095 127.133 365.89 127.978C364.239 129.136 362.368 131.408 361.558 136.323C359.169 137.422 356.83 138.679 354.874 140.438C352.881 142.231 351.553 144.483 351.007 147.05C350.803 145.15 350.066 141.781 347.392 140.076C344.491 138.228 340.525 139.109 337.354 139.815C336.236 140.063 335.321 140.353 334.676 140.579C335.999 141.182 337.857 142.212 339.641 143.969C341.053 145.359 341.377 146.18 342.326 147.083C343.658 148.35 346.048 149.615 350.687 149.387L350.728 149.281C350.587 152.071 351.091 154.864 351.46 157.62C351.735 159.676 351.916 161.744 352.006 163.815L351.97 163.661C351.543 163.031 348.544 158.738 344.314 158.821C340.875 158.889 338.061 161.82 335.812 164.163C335.019 164.989 334.418 165.737 334.006 166.282C335.441 166.052 337.558 165.88 340.017 166.355C341.963 166.731 342.687 167.235 343.977 167.461C345.76 167.773 348.396 167.514 352.044 164.872C352.08 166.176 352.08 167.48 352.039 168.784C351.998 170.121 351.887 171.435 351.642 172.703C351.604 172.726 351.566 172.747 351.528 172.77L351.565 173.073C351.149 174.997 350.403 176.812 349.079 178.439C347.759 180.061 346.127 181.378 344.426 182.596L344.3 181.73C343.923 181.069 341.266 176.556 337.042 176.31C333.609 176.11 330.576 178.814 328.151 180.976C327.297 181.738 326.639 182.437 326.186 182.949C327.635 182.83 329.759 182.824 332.174 183.488C334.085 184.014 334.767 184.572 336.036 184.897C337.518 185.278 339.639 185.298 342.578 183.877C342.313 184.058 342.047 184.239 341.783 184.419C339.258 186.144 336.695 187.923 334.758 190.326C334.223 190.988 333.747 191.69 333.315 192.419L333.282 192.438L333.286 192.467C331.915 194.797 331.016 197.416 330.305 200.005C328.358 207.094 328.083 214.59 329.462 221.808C329.525 222.141 330.042 222.04 329.979 221.706C328.746 215.251 328.84 208.561 330.307 202.152Z" fill="#232531"/>
<path fill-rule="evenodd" clip-rule="evenodd" d="M104.394 191.706C105.626 185.251 105.532 178.561 104.065 172.152C103.377 169.146 102.466 166.073 100.978 163.346L100.943 163.632C100.55 164.354 97.7846 169.286 93.2314 169.648C89.5294 169.942 86.1934 167.092 83.5268 164.814C82.587 164.011 81.8608 163.271 81.3607 162.729C82.9273 162.824 85.2205 162.783 87.8117 162.01C89.8622 161.399 90.5867 160.781 91.9492 160.4C93.7091 159.909 96.3248 159.875 100.091 161.876C98.36 159.296 95.9315 157.377 93.3999 155.613C90.8857 153.862 88.2352 152.235 86.0555 150.058C84.3904 148.395 83.1885 146.467 82.5249 144.27C81.7714 145.569 79.1131 149.652 74.9855 149.98C71.284 150.274 67.9479 147.424 65.2814 145.146C64.3412 144.343 63.6154 143.603 63.1149 143.061C64.6819 143.156 66.975 143.115 69.5663 142.343C71.6172 141.732 72.3413 141.113 73.7038 140.733C75.5022 140.231 78.1928 140.205 82.0927 142.341C81.5657 139.025 81.7044 135.531 81.925 132.199C82.0343 130.559 82.2413 128.932 82.4574 127.306C81.4406 128.917 78.9161 132.254 75.2008 132.549C71.4988 132.843 68.1628 129.994 65.4962 127.715C64.5564 126.913 63.8303 126.172 63.3298 125.63C64.8968 125.725 67.1899 125.684 69.7811 124.912C71.8321 124.301 72.5562 123.682 73.9187 123.302C75.7829 122.781 78.6051 122.774 82.7394 125.153C82.8453 124.314 82.9439 123.475 83.0209 122.633C83.3575 118.968 82.9766 115.301 80.601 112.356L80.5274 112.953C80.1353 113.675 77.3702 118.607 72.8162 118.969C69.1146 119.263 65.7786 116.413 63.112 114.135C62.1722 113.332 61.4461 112.592 60.9455 112.05C62.5121 112.144 64.8057 112.103 67.3969 111.331C69.4474 110.72 70.172 110.102 71.5344 109.721C73.25 109.242 75.7775 109.198 79.3922 111.048C77.4658 109.223 75.0642 107.933 72.6344 106.819L71.8126 107.338C70.9726 107.499 65.1841 108.528 61.8915 105.105C59.2146 102.323 59.3069 97.7621 59.3806 94.1165C59.4063 92.8311 59.5226 91.7601 59.6286 91C60.5858 92.3219 62.1304 94.1389 64.4596 95.7128C66.3031 96.9589 67.2773 97.1332 68.4816 97.9778C70.1326 99.1361 72.0047 101.408 72.8141 106.323C75.2037 107.422 77.5424 108.679 79.4977 110.438C81.4916 112.231 82.8188 114.483 83.3649 117.05C83.569 115.15 84.3059 111.781 86.9804 110.076C89.8809 108.228 93.847 109.109 97.0182 109.815C98.1356 110.063 99.051 110.353 99.6956 110.579C98.3733 111.182 96.5152 112.212 94.7309 113.969C93.3196 115.359 92.9954 116.18 92.0461 117.083C90.7147 118.35 88.3242 119.615 83.6845 119.387L83.644 119.281C83.7847 122.071 83.2805 124.864 82.912 127.62C82.6371 129.676 82.4562 131.744 82.3663 133.815L82.4015 133.661C82.8288 133.031 85.8286 128.738 90.0585 128.821C93.4968 128.889 96.3107 131.82 98.5604 134.163C99.3532 134.989 99.9548 135.737 100.366 136.282C98.9309 136.052 96.8137 135.88 94.355 136.355C92.4092 136.731 91.6851 137.235 90.3946 137.461C88.6115 137.773 85.9756 137.514 82.3283 134.872C82.2922 136.176 82.2918 137.48 82.3328 138.784C82.3746 140.121 82.4852 141.435 82.7298 142.703C82.7683 142.726 82.806 142.747 82.8445 142.77L82.8068 143.073C83.2229 144.997 83.9689 146.812 85.2925 148.439C86.6128 150.061 88.2452 151.378 89.9463 152.596L90.0717 151.73C90.4489 151.069 93.1059 146.556 97.3296 146.31C100.763 146.11 103.796 148.814 106.221 150.976C107.076 151.738 107.733 152.437 108.186 152.949C106.737 152.83 104.613 152.824 102.198 153.488C100.288 154.014 99.6049 154.572 98.336 154.897C96.8543 155.278 94.7334 155.298 91.794 153.877C92.0598 154.058 92.3247 154.239 92.5889 154.419C95.1143 156.144 97.6778 157.923 99.6144 160.326C100.149 160.988 100.625 161.69 101.057 162.419L101.09 162.438L101.086 162.467C102.457 164.797 103.356 167.416 104.067 170.005C106.014 177.094 106.289 184.59 104.911 191.808C104.847 192.141 104.33 192.04 104.394 191.706Z" fill="#232531"/>
<path fill-rule="evenodd" clip-rule="evenodd" d="M137.887 201.354C136.399 200.097 133.963 200.703 132.721 202.198C131.48 203.693 131.192 205.769 131.236 207.718C131.306 210.871 132.042 213.725 132.942 216.673C131.009 214.477 128.998 212.351 126.927 210.296C125.557 208.936 124.155 207.607 122.725 206.306C125.529 202.942 127.303 198.727 127.734 194.368C127.897 192.716 127.772 190.817 126.501 189.749C125.017 188.501 122.58 189.108 121.337 190.596C120.094 192.085 119.803 194.15 119.844 196.089C119.912 199.346 120.698 202.279 121.64 205.331C117.188 201.375 112.456 197.73 107.443 194.523C109.612 190.793 110.662 186.418 110.4 182.109C110.299 180.452 109.876 178.597 108.451 177.744C106.787 176.748 104.477 177.733 103.486 179.4C102.494 181.067 102.535 183.152 102.883 185.06C103.446 188.152 104.622 190.843 105.974 193.6C100.637 190.303 94.7985 187.373 88.605 186.265C88.4759 186.242 88.3459 186.225 88.2167 186.202C89.876 182.167 90.3078 177.632 89.4235 173.359C89.0873 171.733 88.4026 169.957 86.8716 169.317C85.0823 168.568 82.9365 169.873 82.1934 171.664C81.4503 173.455 81.7885 175.513 82.405 177.352C83.4909 180.593 85.2255 183.259 87.1407 186.029C79.9516 184.945 72.5315 185.181 65.3908 183.851C67.1213 179.764 67.5858 175.148 66.6858 170.801C66.3496 169.175 65.6653 167.4 64.1339 166.759C62.3446 166.01 60.1992 167.315 59.4561 169.107C58.7125 170.898 59.0508 172.955 59.6672 174.794C60.7825 178.122 62.5822 180.844 64.5586 183.695C62.7801 183.331 61.0202 182.863 59.2872 182.242C55.7785 180.986 52.5733 178.989 49.7564 176.502C52.5957 172.958 54.3042 168.52 54.5609 163.985C54.6545 162.328 54.4504 160.436 53.1355 159.422C51.6 158.238 49.1901 158.947 48.011 160.486C46.8315 162.025 46.6283 164.101 46.75 166.037C46.9735 169.586 48.0359 172.716 49.2315 176.029C44.7694 171.921 41.3373 166.573 39.3129 161.003C41.4777 157.498 42.6452 153.378 42.6158 149.256C42.6038 147.596 42.2796 145.722 40.9034 144.794C39.2951 143.709 36.9357 144.57 35.8564 146.181C34.7771 147.792 34.7063 149.876 34.9514 151.801C35.3422 154.87 36.3461 157.582 37.5244 160.362C37.5091 160.473 37.5165 160.594 37.5608 160.724C39.1771 165.503 41.7724 169.929 45.0323 173.772C45.7514 174.62 46.5045 175.445 47.2886 176.243C43.6069 174.658 39.4896 174.087 35.5185 174.64C33.8741 174.869 32.0579 175.437 31.3181 176.923C30.4537 178.659 31.6153 180.885 33.3546 181.744C35.0938 182.603 37.1692 182.4 39.045 181.905C42.5429 180.982 45.4471 179.292 48.5227 177.441C50.24 179.039 52.1042 180.476 54.1453 181.626C57.2366 183.369 60.5333 184.444 63.9298 185.15C59.8009 185.357 55.7325 186.741 52.3489 189.119C50.9906 190.074 49.6331 191.407 49.6534 193.067C49.6765 195.006 51.7267 196.457 53.6659 196.428C55.6054 196.398 57.3592 195.27 58.8024 193.974C61.5671 191.49 63.4048 188.572 65.3531 185.425C70.9885 186.427 76.8574 186.533 82.496 187.051C84.2713 187.215 86.0279 187.427 87.765 187.732C83.2752 187.731 78.7932 189.135 75.1161 191.711C73.7565 192.664 72.3977 193.996 72.4155 195.655C72.4362 197.595 74.4843 199.048 76.4239 199.021C78.3631 198.994 80.1184 197.868 81.5633 196.574C84.3946 194.037 86.2564 191.045 88.2589 187.819C90.1066 188.165 91.9295 188.627 93.7233 189.273C97.0039 190.455 100.146 192.008 103.167 193.74C103.971 194.201 104.766 194.677 105.555 195.163C101.502 194.774 97.3409 195.522 93.6877 197.322C92.1986 198.056 90.6523 199.164 90.4163 200.807C90.141 202.727 91.9431 204.477 93.8637 204.746C95.7842 205.015 97.6915 204.171 99.3165 203.112C102.32 201.157 104.533 198.669 106.848 195.976C111.745 199.109 116.356 202.71 120.695 206.578C116.695 205.146 112.277 204.889 108.143 205.876C106.528 206.262 104.774 206.999 104.18 208.549C103.485 210.36 104.855 212.465 106.668 213.154C108.481 213.842 110.528 213.442 112.348 212.77C115.8 211.495 118.566 209.489 121.506 207.309C122.077 207.826 122.645 208.347 123.207 208.872C126.29 211.759 129.253 214.797 132.038 217.988C128.121 216.652 123.825 216.435 119.798 217.396C118.183 217.782 116.43 218.52 115.835 220.07C115.14 221.881 116.51 223.986 118.323 224.675C120.136 225.363 122.183 224.962 124.003 224.29C127.36 223.05 130.068 221.119 132.918 219.01C136.05 222.685 138.94 226.564 141.496 230.654C142.028 231.505 143.313 230.621 142.781 229.771C140.201 225.641 137.274 221.73 134.11 218.021C136.923 214.638 138.701 210.392 139.126 205.999C139.287 204.338 139.16 202.43 137.887 201.354Z" fill="#232531"/>
<path fill-rule="evenodd" clip-rule="evenodd" d="M417.401 222.38C417.401 223.653 416.894 224.798 416.074 225.631C415.253 226.461 414.13 226.971 412.883 226.971C411.636 226.971 410.513 226.461 409.692 225.631C408.872 224.798 408.365 223.653 408.365 222.38C408.365 221.107 408.872 219.962 409.692 219.13C410.513 218.3 411.636 217.79 412.883 217.789C414.13 217.79 415.253 218.3 416.074 219.13C416.894 219.962 417.401 221.107 417.401 222.38H418.81C418.81 220.729 418.148 219.226 417.077 218.141C416.008 217.056 414.521 216.38 412.883 216.38C411.246 216.38 409.758 217.056 408.688 218.141C407.618 219.226 406.956 220.729 406.956 222.38C406.956 224.032 407.618 225.535 408.688 226.62C409.758 227.705 411.246 228.38 412.883 228.38C414.521 228.38 416.008 227.705 417.077 226.62C418.148 225.535 418.81 224.032 418.81 222.38H418.105H417.401Z" fill="#9060EB"/>
<path fill-rule="evenodd" clip-rule="evenodd" d="M123.753 22.8804C123.753 24.6839 123.035 26.3059 121.874 27.4849C120.71 28.6617 119.119 29.3842 117.353 29.3842C115.586 29.3842 113.995 28.6617 112.832 27.4849C111.671 26.3059 110.953 24.6839 110.953 22.8804C110.953 21.077 111.671 19.455 112.832 18.2759C113.995 17.0992 115.586 16.3767 117.353 16.3755C119.119 16.3767 120.71 17.0992 121.874 18.2759C123.035 19.455 123.753 21.077 123.753 22.8804H125.749C125.749 20.5404 124.811 18.4112 123.294 16.8749C121.78 15.3374 119.672 14.3793 117.353 14.3804C115.033 14.3793 112.925 15.3374 111.41 16.8749C109.894 18.4112 108.956 20.5404 108.956 22.8804C108.956 25.2204 109.894 27.3497 111.41 28.886C112.925 30.4235 115.033 31.3804 117.353 31.3804C119.672 31.3804 121.78 30.4235 123.294 28.886C124.811 27.3497 125.749 25.2204 125.749 22.8804H124.75H123.753Z" fill="#9060EB"/>
<path fill-rule="evenodd" clip-rule="evenodd" d="M2.60049 52.3284C4.76821 53.0254 5.8984 54.1706 6.58721 56.3672C7.27603 54.1716 8.40622 53.0254 10.573 52.3284C8.40717 51.6294 7.27603 50.4842 6.58721 48.2886C5.8984 50.4842 4.76821 51.6294 2.60049 52.3284ZM6.58721 59.0023C5.87451 59.0023 5.26499 58.5095 5.10354 57.8038C4.51695 55.2423 3.71253 54.4252 1.18369 53.8318C0.487234 53.6692 0 53.0506 0 52.3284C0 51.6062 0.487234 50.9866 1.18369 50.823C3.71253 50.2306 4.51695 49.4145 5.10354 46.8529C5.26499 46.1462 5.87451 45.6525 6.58721 45.6525C7.29991 45.6525 7.91039 46.1462 8.07184 46.8529C8.65652 49.4135 9.46285 50.2306 11.9917 50.823C12.6881 50.9866 13.1744 51.6062 13.1744 52.3284C13.1744 53.0506 12.6881 53.6692 11.9917 53.8318C9.46285 54.4252 8.65652 55.2423 8.07184 57.8028C7.91039 58.5095 7.29991 59.0023 6.58721 59.0023Z" fill="#F36A4E"/>
<path fill-rule="evenodd" clip-rule="evenodd" d="M52.3073 77.9027C50.7156 77.9027 49.4202 79.2154 49.4202 80.8282C49.4202 82.442 50.7156 83.7547 52.3073 83.7547C53.8998 83.7547 55.1944 82.442 55.1944 80.8282C55.1944 79.2154 53.8998 77.9027 52.3073 77.9027ZM52.3073 85.5834C49.7201 85.5834 47.6155 83.4497 47.6155 80.8282C47.6155 78.2066 49.7201 76.074 52.3073 76.074C54.8953 76.074 57 78.2066 57 80.8282C57 83.4497 54.8953 85.5834 52.3073 85.5834Z" fill="#EE9C40"/>
<path fill-rule="evenodd" clip-rule="evenodd" d="M38.4756 46.8352C37.9778 46.8352 37.5737 46.4247 37.5737 45.9203V43.4982C37.5737 42.9929 37.9778 42.5834 38.4756 42.5834C38.9743 42.5834 39.3784 42.9929 39.3784 43.4982V45.9203C39.3784 46.4247 38.9743 46.8352 38.4756 46.8352Z" fill="#1A110F"/>
<path fill-rule="evenodd" clip-rule="evenodd" d="M38.4756 53.3067C37.9778 53.3067 37.5737 52.8972 37.5737 52.3909V49.9688C37.5737 49.4644 37.9778 49.0549 38.4756 49.0549C38.9743 49.0549 39.3784 49.4644 39.3784 49.9688V52.3909C39.3784 52.8972 38.9743 53.3067 38.4756 53.3067Z" fill="#1A110F"/>
<path fill-rule="evenodd" clip-rule="evenodd" d="M36.5896 48.6513H34.1993C33.7006 48.6513 33.2965 48.2418 33.2965 47.7374C33.2965 47.2311 33.7006 46.8216 34.1993 46.8216H36.5896C37.0883 46.8216 37.4925 47.2311 37.4925 47.7374C37.4925 48.2418 37.0883 48.6513 36.5896 48.6513Z" fill="#1A110F"/>
<path fill-rule="evenodd" clip-rule="evenodd" d="M42.7517 48.6513H40.3614C39.8627 48.6513 39.4586 48.2418 39.4586 47.7374C39.4586 47.2311 39.8627 46.8216 40.3614 46.8216H42.7517C43.2504 46.8216 43.6546 47.2311 43.6546 47.7374C43.6546 48.2418 43.2504 48.6513 42.7517 48.6513Z" fill="#1A110F"/>
<path fill-rule="evenodd" clip-rule="evenodd" d="M23.9799 78.0627C23.4821 78.0627 23.078 77.6532 23.078 77.1479V74.7257C23.078 74.2204 23.4821 73.8109 23.9799 73.8109C24.4786 73.8109 24.8836 74.2204 24.8836 74.7257V77.1479C24.8836 77.6532 24.4786 78.0627 23.9799 78.0627Z" fill="#1A110F"/>
<path fill-rule="evenodd" clip-rule="evenodd" d="M23.9799 84.5334C23.4821 84.5334 23.078 84.1239 23.078 83.6195V81.1974C23.078 80.693 23.4821 80.2835 23.9799 80.2835C24.4786 80.2835 24.8836 80.693 24.8836 81.1974V83.6195C24.8836 84.1239 24.4786 84.5334 23.9799 84.5334Z" fill="#1A110F"/>
<path fill-rule="evenodd" clip-rule="evenodd" d="M22.095 79.8788H19.7047C19.205 79.8788 18.8009 79.4693 18.8009 78.964C18.8009 78.4596 19.205 78.0501 19.7047 78.0501H22.095C22.5927 78.0501 22.9968 78.4596 22.9968 78.964C22.9968 79.4693 22.5927 79.8788 22.095 79.8788Z" fill="#1A110F"/>
<path fill-rule="evenodd" clip-rule="evenodd" d="M28.257 79.8788H25.8667C25.368 79.8788 24.9639 79.4693 24.9639 78.964C24.9639 78.4596 25.368 78.0501 25.8667 78.0501H28.257C28.7547 78.0501 29.1589 78.4596 29.1589 78.964C29.1589 79.4693 28.7547 79.8788 28.257 79.8788Z" fill="#1A110F"/>
<path fill-rule="evenodd" clip-rule="evenodd" d="M296.635 231.354C298.123 230.097 300.559 230.703 301.801 232.198C303.042 233.693 303.33 235.769 303.286 237.718C303.216 240.871 302.48 243.725 301.58 246.673C303.513 244.477 305.524 242.351 307.596 240.296C308.965 238.936 310.367 237.607 311.797 236.306C308.993 232.942 307.219 228.727 306.788 224.368C306.625 222.716 306.749 220.817 308.02 219.749C309.505 218.501 311.942 219.108 313.185 220.596C314.429 222.085 314.719 224.15 314.678 226.089C314.61 229.346 313.824 232.279 312.882 235.331C317.333 231.375 322.065 227.73 327.079 224.523C324.91 220.793 323.86 216.418 324.122 212.109C324.223 210.452 324.647 208.597 326.071 207.744C327.735 206.748 330.044 207.733 331.036 209.4C332.028 211.067 331.987 213.152 331.639 215.06C331.076 218.152 329.9 220.843 328.548 223.6C333.886 220.303 339.723 217.373 345.917 216.265C346.046 216.242 346.176 216.225 346.305 216.202C344.646 212.167 344.214 207.632 345.098 203.359C345.435 201.733 346.119 199.957 347.65 199.317C349.44 198.568 351.585 199.873 352.328 201.664C353.072 203.455 352.733 205.513 352.117 207.352C351.031 210.593 349.296 213.259 347.381 216.029C354.57 214.945 361.99 215.181 369.131 213.851C367.401 209.764 366.936 205.148 367.836 200.801C368.172 199.175 368.857 197.4 370.388 196.759C372.177 196.01 374.323 197.315 375.066 199.107C375.809 200.898 375.471 202.955 374.855 204.794C373.739 208.122 371.94 210.844 369.963 213.695C371.742 213.331 373.502 212.863 375.235 212.242C378.741 210.986 381.95 208.989 384.765 206.502C381.925 202.958 380.219 198.52 379.963 193.985C379.867 192.328 380.07 190.436 381.387 189.422C382.923 188.238 385.332 188.947 386.512 190.486C387.692 192.025 387.895 194.101 387.771 196.037C387.547 199.586 386.487 202.716 385.291 206.029C389.754 201.921 393.186 196.573 395.21 191.003C393.045 187.498 391.878 183.378 391.907 179.256C391.919 177.596 392.242 175.722 393.62 174.794C395.227 173.709 397.587 174.57 398.667 176.181C399.744 177.792 399.814 179.876 399.57 181.801C399.181 184.87 398.175 187.582 396.999 190.362C397.011 190.473 397.007 190.594 396.961 190.724C395.343 195.503 392.751 199.929 389.489 203.772C388.773 204.62 388.019 205.445 387.232 206.243C390.917 204.658 395.032 204.087 399.003 204.64C400.646 204.869 402.464 205.437 403.205 206.923C404.07 208.659 402.907 210.885 401.168 211.744C399.429 212.603 397.355 212.4 395.475 211.905C391.981 210.982 389.075 209.292 385.999 207.441C384.281 209.039 382.418 210.476 380.377 211.626C377.284 213.369 373.989 214.444 370.592 215.15C374.721 215.357 378.791 216.741 382.173 219.119C383.531 220.074 384.889 221.407 384.869 223.067C384.844 225.006 382.794 226.457 380.857 226.428C378.915 226.398 377.164 225.27 375.72 223.974C372.955 221.49 371.117 218.572 369.169 215.425C363.534 216.427 357.665 216.533 352.026 217.051C350.251 217.215 348.494 217.427 346.757 217.732C351.246 217.731 355.729 219.135 359.406 221.711C360.765 222.664 362.124 223.996 362.107 225.655C362.086 227.595 360.038 229.048 358.098 229.021C356.159 228.994 354.403 227.868 352.959 226.574C350.128 224.037 348.265 221.045 346.263 217.819C344.415 218.165 342.592 218.627 340.799 219.273C337.518 220.455 334.377 222.008 331.355 223.74C330.551 224.201 329.756 224.677 328.968 225.163C333.02 224.774 337.181 225.522 340.834 227.322C342.323 228.056 343.87 229.164 344.106 230.807C344.381 232.727 342.579 234.477 340.658 234.746C338.738 235.015 336.831 234.171 335.205 233.112C332.202 231.157 329.989 228.669 327.674 225.976C322.777 229.109 318.166 232.71 313.827 236.578C317.827 235.146 322.245 234.889 326.379 235.876C327.994 236.262 329.748 236.999 330.342 238.549C331.036 240.36 329.667 242.465 327.854 243.154C326.041 243.842 323.994 243.442 322.175 242.77C318.722 241.495 315.956 239.489 313.016 237.309C312.445 237.826 311.877 238.347 311.315 238.872C308.232 241.759 305.269 244.797 302.484 247.988C306.401 246.652 310.697 246.435 314.724 247.396C316.339 247.782 318.093 248.52 318.687 250.07C319.382 251.881 318.012 253.986 316.199 254.675C314.386 255.363 312.339 254.962 310.52 254.29C307.161 253.05 304.454 251.119 301.603 249.01C298.472 252.685 295.582 256.564 293.027 260.654C292.494 261.505 291.21 260.621 291.741 259.771C294.321 255.641 297.248 251.73 300.412 248.021C297.599 244.638 295.821 240.392 295.396 235.999C295.235 234.338 295.362 232.43 296.635 231.354Z" fill="#232531"/>
<path fill-rule="evenodd" clip-rule="evenodd" d="M438.391 104.343L438.397 104.439C438.412 104.504 438.467 104.657 438.654 104.707L444.607 106.331C444.797 106.384 444.929 106.281 444.979 106.236C445.028 106.191 445.136 106.063 445.095 105.873L443.787 99.8932C443.746 99.7037 443.595 99.6439 443.534 99.6285C443.47 99.6091 443.308 99.5838 443.162 99.723L438.517 104.08C438.421 104.168 438.393 104.266 438.391 104.343ZM446.518 105.97C446.497 106.436 446.292 106.888 445.928 107.229C445.444 107.677 444.789 107.847 444.174 107.682L438.217 106.055C437.6 105.886 437.153 105.418 437.016 104.797C436.883 104.179 437.087 103.538 437.568 103.087L442.213 98.7294C442.695 98.2775 443.353 98.1116 443.967 98.2772C444.585 98.4467 445.035 98.9181 445.168 99.5355L446.48 105.519C446.51 105.667 446.524 105.82 446.518 105.97Z" fill="#FF91DA"/>
<path fill-rule="evenodd" clip-rule="evenodd" d="M100.367 276.448L100.378 276.544C100.397 276.607 100.459 276.758 100.649 276.798L106.678 278.108C106.871 278.152 106.998 278.042 107.045 277.994C107.092 277.946 107.193 277.813 107.142 277.625L105.522 271.722C105.471 271.535 105.318 271.483 105.256 271.471C105.191 271.455 105.028 271.438 104.889 271.585L100.479 276.179C100.387 276.272 100.365 276.371 100.367 276.448ZM108.568 277.648C108.572 278.114 108.39 278.576 108.044 278.936C107.584 279.409 106.94 279.612 106.317 279.479L100.283 278.167C99.6575 278.03 99.187 277.586 99.0174 276.974C98.8522 276.364 99.0228 275.713 99.4793 275.237L103.89 270.642C104.347 270.166 104.996 269.966 105.618 270.099C106.244 270.236 106.718 270.683 106.883 271.293L108.506 277.2C108.544 277.345 108.566 277.498 108.568 277.648Z" fill="#FF91DA"/>
<path fill-rule="evenodd" clip-rule="evenodd" d="M415.293 98.2197L418.201 97.5934C418.862 97.4512 419.282 96.8003 419.14 96.1404C418.998 95.4802 418.347 95.0596 417.687 95.2019L414.777 95.8288L414.151 92.9192C414.009 92.2593 413.358 91.8385 412.698 91.9812C412.037 92.1233 411.617 92.7739 411.76 93.4342L412.386 96.3438L409.482 96.9689C408.822 97.1112 408.401 97.7617 408.544 98.422C408.615 98.7525 408.813 99.0222 409.076 99.1923C409.339 99.3621 409.667 99.4313 409.997 99.3605L412.901 98.735L413.526 101.639C413.598 101.969 413.795 102.239 414.059 102.409C414.322 102.579 414.649 102.648 414.98 102.577C415.64 102.435 416.06 101.785 415.918 101.124L415.293 98.2197Z" fill="#FFB86B"/>
<path fill-rule="evenodd" clip-rule="evenodd" d="M26.9467 188.755C25.1576 189.376 24.2073 191.338 24.8284 193.127C25.4501 194.916 27.4114 195.866 29.2005 195.245C30.9896 194.624 31.9399 192.662 31.3183 190.873C30.6971 189.084 28.7353 188.134 26.9467 188.755ZM29.7136 196.723C27.1098 197.627 24.2552 196.245 23.3507 193.641C22.4462 191.036 23.8292 188.182 26.4331 187.277C29.0375 186.373 31.892 187.756 32.7965 190.36C33.701 192.964 32.318 195.819 29.7136 196.723Z" fill="#736FC7"/>
<path fill-rule="evenodd" clip-rule="evenodd" d="M431.693 62.2334H311.484C309.056 62.2334 307.088 60.1723 307.088 57.6299V4.60255C307.088 2.06115 309.056 0 311.484 0H431.693C434.12 0 436.088 2.06115 436.088 4.60255V57.6299C436.088 60.1723 434.12 62.2334 431.693 62.2334Z" fill="#232531"/>
<path fill-rule="evenodd" clip-rule="evenodd" d="M450.693 76.2334H330.484C328.056 76.2334 326.088 74.1723 326.088 71.6299V18.6025C326.088 16.0612 328.056 14 330.484 14H450.693C453.12 14 455.088 16.0612 455.088 18.6025V71.6299C455.088 74.1723 453.12 76.2334 450.693 76.2334Z" fill="#6FFFB0"/>
<path fill-rule="evenodd" clip-rule="evenodd" d="M381.807 43.4471C381.807 55.319 372.183 64.9436 360.31 64.9436C348.439 64.9436 338.815 55.319 338.815 43.4471C338.815 31.5751 348.439 21.9515 360.31 21.9515C372.183 21.9515 381.807 31.5751 381.807 43.4471Z" fill="#232531"/>
<path fill-rule="evenodd" clip-rule="evenodd" d="M359.826 39.7377C361.953 39.7377 363.687 38.0021 363.687 35.8754C363.687 33.7482 361.953 32.013 359.826 32.013C357.698 32.013 355.964 33.7482 355.964 35.8754C355.964 38.0021 357.698 39.7377 359.826 39.7377Z" fill="#FFFFFE"/>
<path fill-rule="evenodd" clip-rule="evenodd" d="M359.826 40.9622C362.838 40.9622 365.302 43.4259 365.302 46.4382V51.7797C365.302 52.1172 365.027 52.3931 364.69 52.3931H354.962C354.625 52.3931 354.349 52.1172 354.349 51.7797V46.4382C354.349 43.4259 356.814 40.9622 359.826 40.9622Z" fill="#FFFFFE"/>
<path fill-rule="evenodd" clip-rule="evenodd" d="M389.131 31.3958H433.884V29.6218H389.131V31.3958Z" fill="#FFF7F4"/>
<path fill-rule="evenodd" clip-rule="evenodd" d="M389.131 41.139H418.822V39.365H389.131V41.139Z" fill="#FFF7F4"/>
<path fill-rule="evenodd" clip-rule="evenodd" d="M348.74 110.481C343.782 117.277 331.007 120.827 324.214 115.868C317.421 110.907 319.185 99.3145 324.141 92.5181C329.099 85.7217 338.624 84.2327 345.416 89.1933C352.21 94.1531 353.697 103.684 348.74 110.481Z" fill="#F1BA9C"/>
<path fill-rule="evenodd" clip-rule="evenodd" d="M336.144 86.4888C336.144 86.4888 329.69 81.6434 324.499 87.72C319.308 93.7973 314.625 104.915 326.258 114.892L336.144 86.4888Z" fill="#F1BA9C"/>
<path fill-rule="evenodd" clip-rule="evenodd" d="M338.701 90.4313L347.846 71.4029C348.439 69.9728 347.774 68.272 346.378 67.6543C345.17 67.1189 343.798 67.5776 343.143 68.7368L330.385 87.7612L338.701 90.4313Z" fill="#F1BA9C"/>
<path fill-rule="evenodd" clip-rule="evenodd" d="M324.351 93.0535L328.988 91.2382C330.679 90.576 332.466 90.2428 334.257 90.2428C335.667 90.2428 337.08 90.4491 338.448 90.8639L340.947 91.6207C341.917 91.9141 342.572 92.8094 342.572 93.8096L342.565 93.9824V93.9817C342.477 95.1787 341.479 96.1007 340.285 96.1007L340.235 96.1L334.851 95.9869C334.61 95.9814 334.393 96.1268 334.305 96.3509C334.216 96.5758 334.277 96.8301 334.457 96.9905L334.56 96.8747L334.456 96.9899L334.457 96.9905L334.56 96.8747L334.456 96.9899C334.471 97.0029 335.197 97.6651 335.911 98.895C336.625 100.127 337.33 101.917 337.33 104.222C337.329 106.256 336.784 108.7 335.172 111.545C335.015 111.821 335.113 112.172 335.388 112.329C335.664 112.486 336.015 112.388 336.172 112.112C337.87 109.12 338.48 106.465 338.479 104.222C338.479 101.638 337.674 99.6189 336.867 98.2526C336.06 96.885 335.254 96.161 335.222 96.1322L334.84 96.5614L334.827 97.1366L340.211 97.2504L340.285 97.251C342.08 97.2504 343.577 95.8656 343.711 94.0667C343.718 93.981 343.721 93.8953 343.721 93.8096C343.721 92.3049 342.737 90.9619 341.28 90.5197L338.781 89.7629C337.304 89.3159 335.78 89.0931 334.257 89.0931C332.324 89.0931 330.394 89.4524 328.569 90.1674L323.932 91.9827C323.636 92.0985 323.49 92.4317 323.606 92.7279C323.722 93.0233 324.056 93.1693 324.351 93.0535Z" fill="#E29C79"/>
<path fill-rule="evenodd" clip-rule="evenodd" d="M278.475 164.77L322.13 103.119L339.38 112.392L303.3 180.348C298.665 188.576 287.581 190.345 280.618 183.966H280.618C275.203 179.006 274.287 170.804 278.475 164.77Z" fill="#F1BA9C"/>
<path fill-rule="evenodd" clip-rule="evenodd" d="M226.267 167.034L287.405 159.841C296.179 160.021 304.081 162.997 304.515 171.766C304.969 180.962 297.907 188.795 288.718 189.287L226.468 201.753C217.687 202.223 210.194 198.76 207.969 190.248C204.86 178.352 213.98 166.78 226.267 167.034Z" fill="#F1BA9C"/>
<path fill-rule="evenodd" clip-rule="evenodd" d="M181.4 161.21H181.396C181.237 161.205 144.523 160.2 126.762 184.958C109.497 209.025 109.556 251.637 109.574 254.177C109.575 254.245 109.631 254.296 109.699 254.296H250.895C250.975 254.296 251.035 254.22 251.016 254.142L235.241 188.045C232.151 175.101 220.999 164.066 207.901 161.753C200.904 160.517 192.696 160.844 181.4 161.21Z" fill="#FFFEFB"/>
<path fill-rule="evenodd" clip-rule="evenodd" d="M124.737 179.504L73.0576 239.907C66.4391 247.226 67.4251 258.63 75.2035 264.703C81.7123 269.785 90.9323 269.447 97.0519 263.901L146.611 210.961L124.737 179.504Z" fill="#F1BA9C"/>
<path fill-rule="evenodd" clip-rule="evenodd" d="M85.9075 268.3H165.979L164.412 252.645L99.3404 241.868L85.9075 268.3Z" fill="#F1BA9C"/>
<path fill-rule="evenodd" clip-rule="evenodd" d="M156.786 254.071C156.786 254.071 191.529 244.415 200.362 268.3H165.979L156.786 254.071Z" fill="#F1BA9C"/>
<path fill-rule="evenodd" clip-rule="evenodd" d="M181.643 259.271L181.666 259.277C181.929 259.339 184.399 259.961 187.071 261.42C188.407 262.148 189.791 263.085 190.98 264.254C192.17 265.424 193.162 266.823 193.737 268.487C193.841 268.788 194.168 268.947 194.468 268.843C194.768 268.739 194.927 268.411 194.824 268.111C194.158 266.186 193.002 264.601 191.661 263.312C187.632 259.455 181.945 258.167 181.901 258.15C181.592 258.079 181.283 258.272 181.212 258.581C181.141 258.891 181.333 259.2 181.643 259.271Z" fill="#E29C79"/>
<path fill-rule="evenodd" clip-rule="evenodd" d="M173.127 261.556L173.145 261.559C173.366 261.587 175.485 261.886 177.903 262.914C180.326 263.942 183.019 265.689 184.492 268.562C184.637 268.845 184.984 268.956 185.266 268.811C185.548 268.666 185.659 268.319 185.514 268.036C183.802 264.714 180.721 262.824 178.105 261.752C175.483 260.681 173.296 260.419 173.263 260.415C172.948 260.377 172.662 260.602 172.624 260.917C172.587 261.232 172.811 261.518 173.127 261.556Z" fill="#E29C79"/>
<path fill-rule="evenodd" clip-rule="evenodd" d="M115.388 243.847L91.5372 239.887C91.2241 239.835 90.9282 240.047 90.8768 240.36C90.8247 240.673 91.0364 240.969 91.3495 241.021L115.199 244.982C115.512 245.034 115.808 244.822 115.86 244.509C115.913 244.195 115.701 243.899 115.388 243.847Z" fill="#E29C79"/>
<path fill-rule="evenodd" clip-rule="evenodd" d="M174.454 161.506C174.454 161.506 128.143 160.904 97.5994 205.454L137.725 233.339L173.195 197.676L174.454 161.506Z" fill="#FFFEFB"/>
<path fill-rule="evenodd" clip-rule="evenodd" d="M156.34 206.952L133.566 229.679L130.777 227.74C130.49 227.542 130.097 227.612 129.898 227.899C129.699 228.186 129.769 228.58 130.056 228.779L133.279 231.018C133.529 231.192 133.869 231.162 134.085 230.947L157.232 207.847C157.479 207.601 157.48 207.2 157.233 206.954C156.987 206.706 156.587 206.705 156.34 206.952Z" fill="#D3D6DD"/>
<path fill-rule="evenodd" clip-rule="evenodd" d="M131.612 275.432H213.886V268.187H131.612C129.613 268.187 127.992 269.809 127.992 271.81C127.992 273.81 129.613 275.432 131.612 275.432Z" fill="#B5BCC9"/>
<mask id="mask0_0_15113" style="mask-type:alpha" maskUnits="userSpaceOnUse" x="206" y="185" width="138" height="91">
<path fill-rule="evenodd" clip-rule="evenodd" d="M206.325 275.432H322.121L342.966 193.294C343.961 189.375 341.001 185.566 336.958 185.566H233.953C231.117 185.566 228.644 187.492 227.946 190.242L206.325 275.432Z" fill="white"/>
</mask>
<g mask="url(#mask0_0_15113)">
<path fill-rule="evenodd" clip-rule="evenodd" d="M211.723 275.432H327.519L348.363 193.294C349.358 189.375 346.398 185.566 342.356 185.566H239.35C236.515 185.566 234.041 187.492 233.342 190.242L211.723 275.432Z" fill="#D3D6DD"/>
</g>
<path fill-rule="evenodd" clip-rule="evenodd" d="M275.92 226.317C272.896 231.558 274.114 237.925 278.64 240.539C283.167 243.154 289.287 241.025 292.31 235.786C295.334 230.546 294.116 224.178 289.59 221.564C285.064 218.949 278.944 221.078 275.92 226.317Z" fill="#FEFFFF"/>
<path fill-rule="evenodd" clip-rule="evenodd" d="M217.975 92.9719C217.975 92.9719 231.158 93.1028 229.755 84.4514C227.404 69.9461 197.531 70.827 186.962 74.9772L217.975 92.9719Z" fill="#470B09"/>
<path fill-rule="evenodd" clip-rule="evenodd" d="M226.409 106.226C225.279 123.059 210.725 135.789 193.902 134.657C177.079 133.527 165.519 118.925 166.649 102.092C167.779 85.2589 181.171 72.5703 197.994 73.7008C214.817 74.8312 227.538 89.3934 226.409 106.226Z" fill="#470B09"/>
<path fill-rule="evenodd" clip-rule="evenodd" d="M218.377 121.578C219.679 125.927 224.257 128.396 228.604 127.093C232.95 125.791 235.418 121.209 234.116 116.86C232.814 112.512 228.235 110.043 223.888 111.345C219.542 112.648 217.074 117.23 218.377 121.578Z" fill="#E29C79"/>
<path fill-rule="evenodd" clip-rule="evenodd" d="M211.925 140.908L208.557 163.07C207.294 171.384 199.331 176.948 191.094 175.27C182.99 173.619 176.146 172.521 178.008 164.459L189.004 117.299L211.925 140.908Z" fill="#F1BA9C"/>
<path fill-rule="evenodd" clip-rule="evenodd" d="M209.44 157.227C209.44 157.227 185.358 151.476 185.894 131.123L211.477 144.072L209.44 157.227Z" fill="#E29C79"/>
<path fill-rule="evenodd" clip-rule="evenodd" d="M213.672 80.9757C219.116 83.2702 223.164 87.9928 225.071 93.5868C227.963 102.066 232.414 118.494 229.065 131.762C226.243 142.941 216.626 149.589 202.375 146.761C202.375 146.761 184.162 143.802 181.785 121.353C178.499 90.3134 197.372 74.108 213.672 80.9757Z" fill="#F1BA9C"/>
<path fill-rule="evenodd" clip-rule="evenodd" d="M219.511 116.552L221.993 121.383L220.169 122.506C219.914 122.663 219.835 122.996 219.992 123.251C220.148 123.507 220.482 123.587 220.737 123.43L222.988 122.044C223.23 121.895 223.316 121.585 223.186 121.333L220.475 116.056C220.338 115.789 220.011 115.684 219.745 115.822C219.478 115.959 219.374 116.286 219.511 116.552Z" fill="#470B09"/>
<path fill-rule="evenodd" clip-rule="evenodd" d="M209.998 116.16C209.162 116.16 208.4 115.599 208.18 114.751C207.919 113.746 208.522 112.72 209.528 112.459C209.686 112.418 209.845 112.398 210.001 112.398C210.836 112.398 211.599 112.96 211.819 113.807C212.08 114.812 211.476 115.839 210.472 116.1C210.313 116.141 210.154 116.16 209.998 116.16Z" fill="#4E4E4E"/>
<path fill-rule="evenodd" clip-rule="evenodd" d="M225.885 115.892C225.049 115.892 224.287 115.33 224.067 114.483C223.807 113.478 224.409 112.452 225.415 112.19C225.573 112.149 225.731 112.13 225.888 112.13C226.723 112.13 227.486 112.691 227.706 113.539C227.966 114.544 227.363 115.571 226.359 115.831C226.2 115.872 226.041 115.892 225.885 115.892Z" fill="#4E4E4E"/>
<path fill-rule="evenodd" clip-rule="evenodd" d="M216.621 113.147L216.066 113.179C216.077 113.367 216.082 113.555 216.082 113.741C216.081 118.684 212.311 122.807 207.444 123.086C207.269 123.096 207.095 123.101 206.921 123.101C202.099 123.102 198.032 119.242 197.744 114.233C197.734 114.045 197.728 113.858 197.728 113.672C197.729 108.73 201.499 104.606 206.366 104.327C206.542 104.317 206.716 104.312 206.89 104.312C211.711 104.311 215.778 108.17 216.066 113.179L216.621 113.147L217.177 113.115C216.856 107.531 212.317 103.2 206.89 103.198C206.694 103.198 206.499 103.204 206.302 103.215C200.826 103.533 196.614 108.158 196.615 113.672C196.615 113.879 196.621 114.088 196.633 114.298C196.954 119.882 201.492 124.213 206.921 124.214C207.116 124.214 207.312 124.208 207.508 124.198C212.984 123.88 217.196 119.255 217.195 113.741C217.195 113.533 217.189 113.325 217.177 113.115L216.621 113.147Z" fill="white"/>
<path fill-rule="evenodd" clip-rule="evenodd" d="M239.111 111.77L238.555 111.802C238.567 112.005 238.572 112.207 238.572 112.407C238.573 114.775 237.768 116.934 236.456 118.519C235.142 120.106 233.338 121.116 231.3 121.234C231.168 121.241 231.037 121.245 230.906 121.245C228.868 121.245 226.976 120.332 225.542 118.8C224.11 117.268 223.152 115.122 223.012 112.696C223.001 112.493 222.995 112.291 222.995 112.09C222.995 109.722 223.8 107.564 225.111 105.979C226.425 104.393 228.229 103.383 230.267 103.265C230.399 103.257 230.53 103.253 230.66 103.253C232.698 103.254 234.591 104.166 236.025 105.698C237.457 107.23 238.416 109.376 238.555 111.802L239.111 111.77L239.666 111.738C239.511 109.057 238.453 106.667 236.837 104.938C235.224 103.21 233.038 102.139 230.66 102.14C230.509 102.14 230.356 102.144 230.203 102.153C227.829 102.288 225.735 103.475 224.253 105.269C222.77 107.064 221.883 109.47 221.882 112.09C221.882 112.312 221.888 112.536 221.901 112.761C222.055 115.44 223.114 117.832 224.729 119.561C226.343 121.288 228.529 122.359 230.906 122.359C231.058 122.359 231.211 122.354 231.364 122.346C233.738 122.209 235.832 121.023 237.314 119.229C238.797 117.434 239.685 115.028 239.685 112.407C239.685 112.186 239.679 111.963 239.666 111.738L239.111 111.77Z" fill="white"/>
<path fill-rule="evenodd" clip-rule="evenodd" d="M217.006 113.549L216.97 113.512L217.006 113.55V113.549L216.97 113.512L217.006 113.55C217.023 113.533 217.349 113.232 217.868 112.945C218.388 112.656 219.093 112.386 219.876 112.387C220.559 112.39 221.309 112.58 222.128 113.178C222.376 113.359 222.725 113.306 222.906 113.058C223.088 112.809 223.034 112.461 222.786 112.279C221.792 111.548 220.778 111.271 219.876 111.274C218.804 111.274 217.902 111.645 217.268 112.005C216.634 112.367 216.26 112.723 216.236 112.745C216.014 112.957 216.007 113.31 216.219 113.532C216.432 113.755 216.784 113.762 217.006 113.549Z" fill="white"/>
<path fill-rule="evenodd" clip-rule="evenodd" d="M197.07 113.721L187.342 115.843C187.041 115.909 186.851 116.205 186.916 116.506C186.982 116.806 187.278 116.997 187.579 116.931L197.307 114.81C197.607 114.744 197.798 114.447 197.733 114.147C197.667 113.847 197.37 113.656 197.07 113.721Z" fill="white"/>
<path fill-rule="evenodd" clip-rule="evenodd" d="M210.942 127.11L210.911 127.293C210.914 127.419 210.946 127.496 210.972 127.551C211.025 127.655 211.07 127.701 211.114 127.748C211.196 127.831 211.282 127.897 211.39 127.971C211.762 128.222 212.399 128.54 213.303 128.806C214.206 129.071 215.37 129.277 216.763 129.277C218.536 129.278 220.678 128.941 223.108 127.969C223.387 127.858 223.522 127.542 223.411 127.264C223.3 126.986 222.984 126.851 222.706 126.962C220.399 127.884 218.399 128.193 216.763 128.193C215.146 128.193 213.882 127.89 213.034 127.575C212.611 127.417 212.291 127.256 212.093 127.134C211.994 127.074 211.925 127.022 211.899 126.999L211.89 126.991L211.711 127.167L211.921 127.031L211.89 126.991L211.711 127.167L211.921 127.031L211.516 127.293H211.995C211.989 127.122 211.939 127.066 211.921 127.031L211.516 127.293H211.995H211.475L211.967 127.463L211.995 127.293H211.475L211.967 127.463C212.065 127.18 211.914 126.871 211.631 126.774C211.347 126.676 211.039 126.827 210.942 127.11Z" fill="#470B09"/>
<path fill-rule="evenodd" clip-rule="evenodd" d="M185.292 118.461C185.292 118.461 188.986 116.687 187.667 104.704C186.349 92.7203 193.298 86.9735 199.362 87.5486C205.427 88.1238 218.112 90.4368 225.186 86.883C225.186 86.883 215.766 73.8954 195.443 79.5724C175.12 85.2486 179.269 115.837 179.269 115.837L185.292 118.461Z" fill="#470B09"/>
<path fill-rule="evenodd" clip-rule="evenodd" d="M169.272 125.361C170.852 130.637 176.408 133.635 181.683 132.053C186.956 130.472 189.951 124.913 188.371 119.635C186.791 114.358 181.235 111.362 175.96 112.943C170.686 114.524 167.692 120.084 169.272 125.361Z" fill="#F1BA9C"/>
<path fill-rule="evenodd" clip-rule="evenodd" d="M174.483 120.092L174.486 120.09C174.552 120.073 175.324 119.871 176.375 119.872C177.464 119.871 178.835 120.086 180.066 120.899C181.295 121.713 182.428 123.121 183.041 125.672C183.11 125.963 183.402 126.143 183.694 126.074C183.985 126.005 184.164 125.712 184.095 125.42C183.441 122.659 182.135 120.958 180.662 119.992C179.191 119.024 177.599 118.787 176.375 118.787C175.109 118.788 174.219 119.04 174.186 119.048C173.898 119.13 173.731 119.43 173.813 119.718C173.895 120.006 174.194 120.173 174.483 120.092Z" fill="#470B09"/>
<path fill-rule="evenodd" clip-rule="evenodd" d="M186.678 160.877L206.155 161.186L213.041 161.051C213.041 161.051 218.853 180.545 194.361 180.906C169.869 181.266 171.337 161.634 171.337 161.634L186.678 160.877Z" fill="#F1BA9C"/>
</svg>
