<svg width="339" height="261" viewBox="0 0 339 261" fill="none" xmlns="http://www.w3.org/2000/svg">
    <path fill-rule="evenodd" clip-rule="evenodd"
        d="M205.247 171.068L205.244 171.073C199.848 174.606 193.501 177.132 187.145 178.565C189.101 177.953 191.064 177.31 192.989 176.595C193.245 176.498 193.501 176.4 193.753 176.303C193.94 176.234 194.127 176.16 194.314 176.086C195.854 175.487 197.365 174.824 198.835 174.088C199.35 173.836 199.85 173.577 200.33 173.317C201.956 172.428 203.519 171.427 204.998 170.286V170.282L205.002 170.278C206.416 168.735 207.659 167.189 208.73 165.644V165.64C227.803 138.292 195.786 111.068 174.233 95.4052C170.429 92.2397 166.221 87.2734 163.506 79.8525C177.631 103.048 209.946 110.674 218.503 137.861C223.324 152.534 216.259 163.877 205.247 171.068ZM70.8032 98.4298C92.9124 83.2522 87.7821 69.655 92.1531 42.1257C91.3717 47.2934 91.3829 53.1231 92.4046 59.5928C96.6934 86.7198 72.8945 98.0046 55.9718 116.112C59.9019 109.448 65.0191 103.547 70.8032 98.4298ZM221.523 143.094C217.05 110.113 174.809 102.104 161.995 74.8205C160.747 69.5232 162.041 63.1226 162.729 55.6438C165.891 21.1015 145.45 14.8781 132.331 17.0842C119.406 12.0082 99.6407 15.3418 90.9797 30.7355C80.8688 48.7073 95.3131 76.0353 78.0485 90.2928C60.0665 105.143 21.0857 151.778 49.4033 172.931C50.0183 173.394 50.6644 173.838 51.3437 174.271H51.348C56.34 177.043 61.5925 179.19 67.0145 180.854L67.0374 180.861C70.9446 182.063 74.9386 183.012 78.9889 183.769C80.0313 183.966 81.0771 184.147 82.1268 184.317C83.6135 184.561 85.1031 184.778 86.6015 184.972C89.9183 185.412 93.2581 185.744 96.6009 186.008L96.6203 186.008C103.8 186.567 110.994 186.793 118.018 186.973H118.029C119.863 186.985 121.696 186.983 123.53 186.956C124.142 186.953 124.754 186.942 125.363 186.93C126.262 186.914 127.162 186.893 128.065 186.865C128.582 186.854 129.098 186.84 129.615 186.822C129.76 186.817 129.906 186.812 130.051 186.807C130.652 186.785 131.253 186.762 131.853 186.735C132.703 186.704 133.552 186.664 134.402 186.625C134.701 186.612 134.995 186.595 135.29 186.581C135.477 186.573 135.661 186.56 135.845 186.552C136.246 186.53 136.652 186.508 137.058 186.483C137.478 186.462 137.899 186.436 138.32 186.407C139.166 186.356 140.015 186.301 140.861 186.239C141.756 186.176 142.659 186.11 143.554 186.039C143.753 186.023 143.952 186.007 144.151 185.99C146.516 185.796 148.879 185.58 151.236 185.328C152.842 185.058 154.532 184.8 156.299 184.545H156.302C158.291 184.258 160.372 183.974 162.514 183.682C165.053 183.334 167.68 182.97 170.354 182.572H170.357C170.4 182.568 170.441 182.56 170.483 182.552C173.929 182.034 177.447 181.455 180.949 180.76C182.467 180.457 183.981 180.134 185.487 179.784H185.491C192.772 178.096 199.79 175.804 205.673 172.448C215.831 166.651 222.607 157.667 221.523 143.094Z"
        fill="#0D031F" />
    <path fill-rule="evenodd" clip-rule="evenodd"
        d="M169.28 127.817C173.175 128.986 211.041 179.709 205.065 197.122C200.167 211.39 166.668 249.059 166.668 249.059L150.892 239.449L176.472 198.03L144.043 152.712L169.28 127.817Z"
        fill="#441898" />
    <path fill-rule="evenodd" clip-rule="evenodd"
        d="M162.729 54.7907C162.729 75.6152 145.847 92.4968 125.021 92.4968C104.196 92.4968 87.3141 75.6152 87.3141 54.7907C87.3141 33.9662 104.196 17.0842 125.021 17.0842C145.847 17.0842 162.729 33.9662 162.729 54.7907Z"
        fill="#0D031F" />
    <path fill-rule="evenodd" clip-rule="evenodd"
        d="M169.091 249.303L79.5091 248.089C95.4776 235.902 73.9493 164.084 74.1382 135.751C74.2328 121.597 109.494 113.103 113.177 112.164C118.955 112.137 128.157 112.386 135.946 112.675C152.687 113.298 179.36 129.299 176.115 143.964C168.263 179.446 153.616 244.278 169.091 249.303Z"
        fill="#441898" />
    <path fill-rule="evenodd" clip-rule="evenodd"
        d="M136.509 112.994C136.414 114.785 124.612 131.393 124.612 131.393L111.67 112.155C112.61 107.272 115.616 91.6606 116.5 87.0487L133.206 87.3888L133.311 88.1913L136.509 112.994Z"
        fill="#F9CBCB" />
    <path fill-rule="evenodd" clip-rule="evenodd"
        d="M136.509 112.994C132.156 107.839 130.524 92.2816 115.18 94.0884L116.496 87.2388L133.202 87.5789L133.311 88.1913L136.509 112.994Z"
        fill="#EBB0B0" />
    <path fill-rule="evenodd" clip-rule="evenodd"
        d="M97.5741 60.3348L99.6035 73.7022C99.4255 73.6572 99.3295 73.598 99.164 73.6274C99.164 73.6274 99.164 73.6274 99.1506 73.5535C76.9702 70.2363 79.1708 48.9792 93.9984 53.1905C94.1185 55.7048 96.0935 58.0591 97.5741 60.3348Z"
        fill="#F9CBCB" />
    <path fill-rule="evenodd" clip-rule="evenodd"
        d="M149.43 77.4696C148.95 77.5919 148.486 77.642 147.932 77.7488C148.007 77.547 150.2 66.3296 150.312 65.7838C151.684 63.6416 152.84 61.2894 153.811 58.7544C165.65 55.0237 168.587 72.9311 149.43 77.4696Z"
        fill="#F9CBCB" />
    <path fill-rule="evenodd" clip-rule="evenodd"
        d="M156.718 56.7851C155.775 100.959 96.5329 108.345 91.9122 55.0349C94.8777 4.2256 159.754 14.0242 156.718 56.7851Z"
        fill="#F9CBCB" />
    <path fill-rule="evenodd" clip-rule="evenodd"
        d="M157.235 41.6931C155.543 34.5704 149.523 19.5674 130.451 18.2035C126.325 17.9123 102.092 14.3799 92.739 37.4153C90.9598 41.7865 87.7488 62.353 99.849 77.6265C90.4667 46.5488 106.16 46.0267 106.621 32.1149C109.679 31.4818 112.629 31.2692 115.466 31.4006C117.542 31.7195 119.569 32.226 121.483 32.9758C126.984 35.1024 131.266 39.2031 134.429 43.8833C137.665 48.563 139.99 53.7852 142.411 58.9792C143.613 61.5825 144.843 64.1944 146.27 66.7294C147.729 69.2259 149.365 71.7527 151.733 73.5958C149.703 71.4567 148.317 68.9385 147.169 66.3348C145.979 63.748 144.959 61.0872 143.883 58.436C141.758 53.1304 139.485 47.7791 136.142 42.8764C134.447 40.4494 132.49 38.1361 130.136 36.1715C129.413 35.5726 128.642 35.0203 127.852 34.4935C142.572 41.4628 152.099 59.101 153.048 77.6265C155.03 75.6451 157.508 61.7968 157.862 56.3647C158.164 51.5384 158.017 44.9809 157.235 41.6931Z"
        fill="#0D031F" />
    <path fill-rule="evenodd" clip-rule="evenodd"
        d="M121.351 171.416C121.282 166.655 128.761 166.655 128.691 171.417C128.761 176.178 121.281 176.178 121.351 171.416Z"
        fill="white" />
    <path fill-rule="evenodd" clip-rule="evenodd"
        d="M121.351 183.709C121.282 178.949 128.761 178.948 128.691 183.71C128.761 188.47 121.281 188.47 121.351 183.709Z"
        fill="white" />
    <path fill-rule="evenodd" clip-rule="evenodd"
        d="M121.351 143.964C121.282 139.203 128.761 139.203 128.691 143.965C128.761 148.725 121.281 148.725 121.351 143.964Z"
        fill="white" />
    <path fill-rule="evenodd" clip-rule="evenodd"
        d="M121.351 156.257C121.282 151.496 128.761 151.496 128.691 156.258C128.761 161.018 121.281 161.018 121.351 156.257Z"
        fill="white" />
    <path fill-rule="evenodd" clip-rule="evenodd"
        d="M163.618 152.712H142.508C140.59 152.741 140.582 149.572 142.508 149.601H163.618C165.537 149.572 165.545 152.741 163.618 152.712Z"
        fill="white" />
    <path fill-rule="evenodd" clip-rule="evenodd"
        d="M111.67 112.155C107.236 112.778 96.8437 114.733 94.246 118.193C103.697 120.575 117.784 124.418 124.612 131.393L111.67 112.155Z"
        fill="white" />
    <path fill-rule="evenodd" clip-rule="evenodd"
        d="M136.47 112.69C141.099 112.69 150.586 114.381 155.106 118.088C145.655 120.469 131.441 124.418 124.612 131.393L136.47 112.69Z"
        fill="white" />
    <path fill-rule="evenodd" clip-rule="evenodd"
        d="M86.5452 121.773C70.737 127.88 34.7247 181.167 43.9679 200.042C50.6025 213.59 79.1612 249.059 79.1612 249.059L94.9374 239.449L69.3576 198.03L101.786 152.712L86.5452 121.773Z"
        fill="#441898" />
    <path fill-rule="evenodd" clip-rule="evenodd"
        d="M178.524 168.447H64.1781C58.0885 168.447 53.3438 173.729 53.9942 179.783L61.4084 248.807C61.9672 254.01 66.3588 257.956 71.5924 257.956H171.11C176.344 257.956 180.735 254.01 181.294 248.807L188.708 179.783C189.359 173.729 184.614 168.447 178.524 168.447Z"
        fill="white" />
    <path fill-rule="evenodd" clip-rule="evenodd"
        d="M178.524 168.447H177.008C176.999 168.581 176.99 168.713 176.976 168.848L171.614 218.769C169.888 234.837 156.326 247.019 140.166 247.019H61.2164L61.4083 248.807C61.9671 254.01 66.3588 257.956 71.5923 257.956H171.11C176.343 257.956 180.735 254.01 181.294 248.807L188.708 179.783C189.359 173.729 184.614 168.447 178.524 168.447Z"
        fill="#D8DCF5" />
    <path fill-rule="evenodd" clip-rule="evenodd"
        d="M125.898 202.759H115.44C113.579 202.759 112.071 204.268 112.071 206.128V216.587C112.071 218.446 113.579 219.955 115.44 219.955H125.898C127.758 219.955 129.267 218.446 129.267 216.587V206.128C129.267 204.268 127.758 202.759 125.898 202.759Z"
        fill="#D8DCF5" />
    <path fill-rule="evenodd" clip-rule="evenodd"
        d="M308 259C308 259.553 307.842 260.05 307.588 260.412C307.334 260.774 306.98 261 306.598 261H1.39982C0.627538 261 0 260.106 0 259C0 258.452 0.155035 257.95 0.408816 257.588C0.662919 257.226 1.01545 257 1.39982 257H306.598C307.37 257 308 257.899 308 259Z"
        fill="#DED9FF" />
    <path fill-rule="evenodd" clip-rule="evenodd"
        d="M289.655 57.1909C289.837 57.1909 289.837 57.4757 289.655 57.4757C289.469 57.4757 289.469 57.1909 289.655 57.1909Z"
        fill="#D94559" />
    <path fill-rule="evenodd" clip-rule="evenodd"
        d="M233 162.988L233.07 163.032C233.121 163.055 233.255 163.098 233.389 163.002L237.672 159.956C237.81 159.859 237.81 159.721 237.806 159.666C237.802 159.611 237.772 159.476 237.62 159.406L232.841 157.219C232.689 157.149 232.568 157.217 232.525 157.249C232.478 157.281 232.374 157.373 232.391 157.539L232.888 162.772C232.897 162.879 232.949 162.947 233 162.988ZM238.446 158.53C238.753 158.78 238.951 159.143 238.99 159.553C239.038 160.096 238.804 160.608 238.364 160.923L234.077 163.97C233.631 164.286 233.074 164.338 232.577 164.112C232.084 163.885 231.756 163.426 231.704 162.885L231.207 157.651C231.155 157.108 231.393 156.596 231.834 156.281C232.279 155.965 232.841 155.912 233.333 156.139L238.117 158.326C238.234 158.381 238.346 158.45 238.446 158.53Z"
        fill="#FF91DA" />
    <path fill-rule="evenodd" clip-rule="evenodd"
        d="M24.8005 185.788L24.8697 185.832C24.9215 185.855 25.0555 185.898 25.1895 185.802L29.4722 182.756C29.6105 182.659 29.6105 182.521 29.6062 182.466C29.6019 182.411 29.5716 182.276 29.4204 182.206L24.6406 180.019C24.4894 179.949 24.3684 180.017 24.3251 180.049C24.2776 180.081 24.1739 180.173 24.1912 180.339L24.6882 185.572C24.6968 185.679 24.7487 185.747 24.8005 185.788ZM30.2458 181.33C30.5526 181.58 30.7514 181.943 30.7903 182.353C30.8379 182.896 30.6045 183.407 30.1637 183.723L25.8766 186.77C25.4315 187.086 24.874 187.138 24.377 186.912C23.8843 186.685 23.5559 186.226 23.504 185.685L23.007 180.451C22.9552 179.908 23.1929 179.396 23.6337 179.081C24.0788 178.765 24.6406 178.712 25.1333 178.939L29.9173 181.126C30.034 181.181 30.1464 181.25 30.2458 181.33Z"
        fill="#FF91DA" />
    <path fill-rule="evenodd" clip-rule="evenodd"
        d="M221.487 95.2064L222.631 92.8443C222.892 92.3076 222.667 91.6619 222.131 91.4026C221.595 91.1425 220.949 91.3668 220.689 91.9031L219.545 94.2661L217.182 93.1213C216.646 92.8616 216 93.0854 215.74 93.6217C215.48 94.1585 215.705 94.8037 216.241 95.0634L218.604 96.2082L217.461 98.5664C217.202 99.1027 217.425 99.7483 217.962 100.008C218.23 100.138 218.525 100.147 218.786 100.056C219.047 99.9657 219.273 99.7756 219.403 99.5076L220.546 97.149L222.904 98.2916C223.173 98.4212 223.468 98.4303 223.729 98.3395C223.99 98.2492 224.216 98.0591 224.346 97.7907C224.606 97.2548 224.382 96.6092 223.846 96.3495L221.487 95.2064Z"
        fill="#FFB86B" />
    <path fill-rule="evenodd" clip-rule="evenodd"
        d="M36.6547 42.9126L37.7995 40.5496C38.0593 40.0133 37.8354 39.3681 37.2991 39.1084C36.7628 38.8482 36.1167 39.0725 35.8574 39.6088L34.7126 41.9718L32.3499 40.8271C31.8136 40.5669 31.168 40.7916 30.9082 41.3279C30.6485 41.8638 30.8724 42.5094 31.4091 42.7691L33.7718 43.9135L32.6291 46.2722C32.3694 46.8085 32.5932 47.4541 33.13 47.7138C33.3979 47.8439 33.6935 47.8525 33.9541 47.7622C34.2152 47.6715 34.4416 47.4813 34.5713 47.213L35.7139 44.8547L38.0727 45.9973C38.3406 46.127 38.6362 46.136 38.8968 46.0453C39.1578 45.955 39.3843 45.7644 39.5139 45.4964C39.7741 44.9601 39.5498 44.3149 39.0135 44.0548L36.6547 42.9126Z"
        fill="#FFB86B" />
    <path fill-rule="evenodd" clip-rule="evenodd"
        d="M214.685 219.288C213.168 219.815 212.36 221.479 212.887 222.996C213.415 224.514 215.079 225.32 216.595 224.792C218.112 224.266 218.92 222.602 218.393 221.085C217.866 219.567 216.202 218.762 214.685 219.288ZM217.032 226.046C214.824 226.813 212.403 225.64 211.634 223.432C210.869 221.223 212.04 218.802 214.249 218.035C216.457 217.268 218.877 218.441 219.646 220.649C220.411 222.858 219.24 225.279 217.032 226.046Z"
        fill="#736FC7" />
    <path fill-rule="evenodd" clip-rule="evenodd"
        d="M43.0848 74.088C41.5675 74.6153 40.7615 76.2791 41.2888 77.7959C41.8156 79.3136 43.4794 80.1192 44.9967 79.5924C46.5141 79.0656 47.3201 77.4018 46.7928 75.8849C46.266 74.3672 44.6022 73.5617 43.0848 74.088ZM45.4319 80.8456C43.2231 81.6127 40.8021 80.4402 40.0351 78.2315C39.268 76.0228 40.4409 73.6019 42.6497 72.8348C44.8584 72.0682 47.2794 73.2406 48.0461 75.4493C48.8132 77.6576 47.6403 80.079 45.4319 80.8456Z"
        fill="#736FC7" />
    <path fill-rule="evenodd" clip-rule="evenodd"
        d="M160.085 1.48824C158.568 2.01546 157.762 3.67924 158.288 5.1961C158.816 6.71381 160.479 7.51934 161.996 6.99255C163.514 6.46576 164.32 4.80197 163.792 3.28469C163.266 1.76741 161.602 0.961876 160.085 1.48824ZM162.432 8.24579C160.223 9.01286 157.802 7.84043 157.035 5.63171C156.268 3.42298 157.441 1.00207 159.649 0.235C161.858 -0.532069 164.279 0.64079 165.046 2.84952C165.813 5.05781 164.64 7.47915 162.432 8.24579Z"
        fill="#736FC7" />
    <path fill-rule="evenodd" clip-rule="evenodd"
        d="M227.275 47H217V6H339V47H244.642C244.645 47.3126 244.505 47.6296 244.187 47.8373L224.852 60.4642C224.064 60.9785 223.067 60.2198 223.352 59.3235L227.275 47Z"
        fill="#FFFEFB" />
    <path fill-rule="evenodd" clip-rule="evenodd" d="M227 16.963H329V16.037H227V16.963Z" fill="#FFD6CF" />
    <path fill-rule="evenodd" clip-rule="evenodd" d="M227 30.963H329V30.037H227V30.963Z" fill="#FFD6CF" />
    <path fill-rule="evenodd" clip-rule="evenodd" d="M227 23.963H318V23.037H227V23.963Z" fill="#FFD6CF" />
    <path fill-rule="evenodd" clip-rule="evenodd" d="M227 37.963H293V37.037H227V37.963Z" fill="#FFD6CF" />
</svg>