<svg width="78" height="43" viewBox="0 0 78 43" fill="none" xmlns="http://www.w3.org/2000/svg">
    <rect x="1" y="1" width="76" height="41" rx="20.5" fill="#00C781" stroke="#00C781" stroke-width="1.5" />
    <rect x="39" y="4" width="35" height="35" rx="17.5" fill="white" />
    <path
        d="M51.2062 13.9L51.1708 13.8999C49.1322 13.8999 47.6986 15.8753 48.3653 17.7788C50.479 23.8133 56.0024 28.2471 62.437 29.0743C64.4771 29.3372 66.1656 27.5317 65.7313 25.5607L65.7167 25.4949C65.4393 24.2377 64.4245 23.2912 63.1315 23.0837L62.0093 22.9035C61.1411 22.7628 60.2506 23.1381 59.7323 23.8752C59.4921 24.2164 59.0135 24.3473 58.6427 24.1654C56.851 23.2865 55.2513 22.0027 54.0166 20.4526C53.7572 20.1269 53.7871 19.6496 54.1021 19.3263C54.7166 18.6953 54.9096 17.76 54.5936 16.9435L53.9827 15.3645C53.6467 14.4958 52.8183 13.9247 51.8726 13.9093C51.6612 13.9058 51.4369 13.9027 51.2062 13.9Z"
        fill="#00C781" />
    <path
        d="M51.2062 13.9L51.209 13.6501L51.2072 13.6501L51.2062 13.9ZM51.1708 13.8999L51.1718 13.6499H51.1708V13.8999ZM48.3653 17.7788L48.1293 17.8614L48.1293 17.8614L48.3653 17.7788ZM62.437 29.0743L62.469 28.8264L62.4689 28.8264L62.437 29.0743ZM65.7313 25.5607L65.9755 25.5069L65.9754 25.5066L65.7313 25.5607ZM65.7167 25.4949L65.4726 25.5487L65.4727 25.549L65.7167 25.4949ZM63.1315 23.0837L63.1712 22.8368L63.1712 22.8368L63.1315 23.0837ZM62.0093 22.9035L61.9693 23.1503L61.9697 23.1504L62.0093 22.9035ZM59.7323 23.8752L59.9367 24.0191L59.9368 24.019L59.7323 23.8752ZM58.6427 24.1654L58.7529 23.9409L58.7528 23.9409L58.6427 24.1654ZM54.0166 20.4526L54.2121 20.2968L54.2121 20.2968L54.0166 20.4526ZM54.1021 19.3263L54.2811 19.5007L54.2811 19.5007L54.1021 19.3263ZM54.5936 16.9435L54.3604 17.0337L54.3604 17.0337L54.5936 16.9435ZM53.9827 15.3645L53.7496 15.4547L53.7496 15.4547L53.9827 15.3645ZM51.8726 13.9093L51.8684 14.1593L51.8685 14.1593L51.8726 13.9093ZM51.2072 13.6501L51.1718 13.6499L51.1697 14.1499L51.2051 14.15L51.2072 13.6501ZM51.1708 13.6499C48.9656 13.6499 47.4039 15.7901 48.1293 17.8614L48.6012 17.6961C47.9933 15.9605 49.2988 14.1499 51.1708 14.1499V13.6499ZM48.1293 17.8614C50.2749 23.9869 55.8785 28.4833 62.4051 29.3223L62.4689 28.8264C56.1264 28.011 50.6831 23.6398 48.6012 17.6961L48.1293 17.8614ZM62.4051 29.3223C64.6101 29.6063 66.4485 27.6536 65.9755 25.5069L65.4872 25.6145C65.8828 27.4099 64.3442 29.068 62.469 28.8264L62.4051 29.3223ZM65.9754 25.5066L65.9608 25.4407L65.4727 25.549L65.4873 25.6149L65.9754 25.5066ZM65.9609 25.441C65.6608 24.0814 64.5631 23.0603 63.1712 22.8368L63.0919 23.3305C64.2859 23.5222 65.2178 24.394 65.4726 25.5487L65.9609 25.441ZM63.1712 22.8368L62.049 22.6567L61.9697 23.1504L63.0919 23.3305L63.1712 22.8368ZM62.0493 22.6567C61.0852 22.5005 60.1004 22.9171 59.5278 23.7314L59.9368 24.019C60.4008 23.3591 61.1969 23.0251 61.9693 23.1503L62.0493 22.6567ZM59.5279 23.7313C59.3555 23.9762 59.0087 24.0665 58.7529 23.9409L58.5326 24.3898C59.0184 24.6281 59.6287 24.4567 59.9367 24.0191L59.5279 23.7313ZM58.7528 23.9409C56.9941 23.0783 55.4237 21.8178 54.2121 20.2968L53.8211 20.6083C55.079 22.1876 56.708 23.4948 58.5327 24.3898L58.7528 23.9409ZM54.2121 20.2968C54.0372 20.0772 54.0472 19.7409 54.2811 19.5007L53.923 19.1518C53.5271 19.5582 53.4771 20.1766 53.8211 20.6083L54.2121 20.2968ZM54.2811 19.5007C54.9634 18.8002 55.1783 17.7617 54.8267 16.8533L54.3604 17.0337C54.6408 17.7583 54.4698 18.5904 53.923 19.1518L54.2811 19.5007ZM54.8267 16.8533L54.2159 15.2743L53.7496 15.4547L54.3604 17.0337L54.8267 16.8533ZM54.2159 15.2743C53.8424 14.3087 52.922 13.6763 51.8767 13.6593L51.8685 14.1593C52.7146 14.173 53.451 14.6829 53.7496 15.4547L54.2159 15.2743ZM51.8767 13.6593C51.6649 13.6558 51.4401 13.6527 51.209 13.6501L51.2033 14.15C51.4337 14.1527 51.6576 14.1557 51.8684 14.1593L51.8767 13.6593Z"
        fill="#00C781" />
</svg>