<svg width="33" height="33" viewBox="0 0 33 33" fill="none" xmlns="http://www.w3.org/2000/svg">
    <rect width="33" height="33" rx="16.5" fill="#00C781" />
    <path
        d="M11.873 10.5h-.028c-1.61 0-2.74 1.56-2.215 3.062 1.67 4.764 6.03 8.265 11.11 8.918 1.61.207 2.943-1.218 2.6-2.774l-.011-.052a2.468 2.468 0 00-2.041-1.904l-.886-.142a1.847 1.847 0 00-1.798.767.7.7 0 01-.86.23 10.746 10.746 0 01-3.652-2.932c-.205-.257-.181-.634.067-.889a1.782 1.782 0 00.389-1.881l-.483-1.247a1.804 1.804 0 00-1.666-1.149l-.526-.007z"
        fill="#fff" />
    <path
        d="M11.873 10.5l.003-.2h-.002v.2zm-.028 0l.001-.2v.2zM9.63 13.562l-.188.066.188-.066zm11.11 8.918l.025-.198-.025.198zm2.6-2.774l.196-.043-.196.043zm-.011-.052l-.195.043.195-.043zm-2.041-1.904l.032-.197-.032.197zm-.886-.142l-.032.197.032-.197zm-1.798.767l.164.115-.164-.115zm-.86.23l.088-.18-.088.18zm-3.652-2.932l.156-.124-.156.124zm.067-.889l.144.14-.144-.14zm.389-1.881l-.187.072.187-.072zm-.483-1.247l-.186.072.186-.072zM12.4 10.507l-.003.2.003-.2zm-.525-.207h-.028l-.002.4h.029l.001-.4zm-.029 0c-1.742 0-2.977 1.691-2.403 3.328l.377-.132c-.48-1.368.55-2.796 2.026-2.796v-.4zm-2.403 3.328c1.694 4.837 6.119 8.388 11.272 9.05l.051-.396c-5.006-.644-9.303-4.095-10.946-8.786l-.377.132zm11.272 9.05c1.743.225 3.196-1.319 2.822-3.015l-.39.086c.311 1.416-.902 2.723-2.38 2.533l-.052.396zm2.822-3.015l-.012-.052-.39.086.011.052.39-.086zm-.012-.052a2.668 2.668 0 00-2.204-2.058l-.064.395a2.268 2.268 0 011.878 1.749l.39-.086zm-2.204-2.058l-.886-.142-.064.395.886.142.064-.395zm-.886-.142a2.047 2.047 0 00-1.993.85l.327.23c.366-.52.993-.784 1.602-.686l.064-.394zm-1.993.85a.5.5 0 01-.609.164l-.176.359a.9.9 0 001.112-.294l-.327-.23zm-.609.164a10.546 10.546 0 01-3.584-2.877l-.312.25a10.947 10.947 0 003.72 2.986l.176-.36zm-3.584-2.877c-.137-.172-.13-.436.055-.624l-.287-.28c-.313.322-.353.812-.08 1.154l.313-.25zm.055-.624c.54-.554.709-1.375.431-2.093l-.373.144a1.582 1.582 0 01-.345 1.67l.287.279zm.431-2.093l-.482-1.247-.373.144.482 1.247.373-.144zm-.482-1.247a2.004 2.004 0 00-1.85-1.277l-.006.4c.667.011 1.247.413 1.483 1.021l.373-.144zm-1.85-1.277l-.526-.007-.005.4.525.007.007-.4z"
        fill="#fff" />
</svg>