<svg width="78" height="43" viewBox="0 0 78 43" fill="none" xmlns="http://www.w3.org/2000/svg">
    <g clip-path="url(#clip0_20_2)">
        <path
            d="M56.5 1H21.5C10.1782 1 1 10.1782 1 21.5C1 32.8218 10.1782 42 21.5 42H56.5C67.8218 42 77 32.8218 77 21.5C77 10.1782 67.8218 1 56.5 1Z"
            stroke="#ADA1FF" stroke-width="1.5" />
        <path
            d="M39 21.5C39 11.835 31.165 4 21.5 4C11.835 4 4 11.835 4 21.5C4 31.165 11.835 39 21.5 39C31.165 39 39 31.165 39 21.5Z"
            fill="#ADA1FF" />
        <path
            d="M49.2062 13.9L49.1708 13.8999C47.1322 13.8999 45.6986 15.8753 46.3653 17.7788C48.479 23.8133 54.0024 28.2471 60.437 29.0743C62.4771 29.3372 64.1656 27.5317 63.7313 25.5607L63.7167 25.4949C63.4393 24.2377 62.4245 23.2912 61.1315 23.0837L60.0093 22.9035C59.1411 22.7628 58.2506 23.1381 57.7323 23.8752C57.4921 24.2164 57.0135 24.3473 56.6427 24.1654C54.851 23.2865 53.2513 22.0027 52.0166 20.4526C51.7572 20.1269 51.7871 19.6496 52.1021 19.3263C52.7166 18.6953 52.9096 17.76 52.5936 16.9435L51.9827 15.3645C51.6467 14.4958 50.8183 13.9247 49.8726 13.9093C49.6612 13.9058 49.4369 13.9027 49.2062 13.9Z"
            fill="#ADA1FF" />
        <path
            d="M49.2062 13.9L49.209 13.6501H49.2072L49.2062 13.9ZM49.2072 13.6501L49.1718 13.6499L49.1697 14.1499L49.2051 14.15L49.2072 13.6501ZM49.1718 13.6499C46.9666 13.6499 45.4039 15.7901 46.1293 17.8614L46.6012 17.6961C45.9933 15.9605 47.2988 14.1499 49.1708 14.1499L49.1718 13.6499ZM46.1293 17.8614C48.2749 23.9869 53.8785 28.4833 60.4051 29.3223L60.469 28.8264C54.1265 28.011 48.6831 23.6398 46.6012 17.6961L46.1293 17.8614ZM60.4051 29.3223C62.6101 29.6063 64.4485 27.6536 63.9755 25.5069L63.4872 25.6145C63.8828 27.4099 62.3442 29.068 60.469 28.8264L60.4051 29.3223ZM63.9755 25.5069L63.9608 25.4407L63.4726 25.5487L63.4872 25.6145L63.9755 25.5069ZM63.9608 25.4407C63.6607 24.0811 62.5631 23.0603 61.1712 22.8368L61.0919 23.3305C62.2859 23.5222 63.2178 24.394 63.4726 25.5487L63.9608 25.4407ZM61.1712 22.8368L60.049 22.6567L59.9693 23.1503L61.0919 23.3305L61.1712 22.8368ZM60.049 22.6567C59.0849 22.5005 58.1004 22.9171 57.5278 23.7314L57.9367 24.0191C58.4007 23.3592 59.1969 23.0251 59.9693 23.1503L60.049 22.6567ZM57.5278 23.7314C57.3554 23.9763 57.0087 24.0665 56.7529 23.9409L56.5326 24.3898C57.0184 24.6281 57.6287 24.4567 57.9367 24.0191L57.5278 23.7314ZM56.7529 23.9409C54.9942 23.0783 53.4237 21.8178 52.2121 20.2968L51.8211 20.6083C53.079 22.1876 54.7079 23.4948 56.5326 24.3898L56.7529 23.9409ZM52.2121 20.2968C52.0372 20.0772 52.0472 19.7409 52.2811 19.5007L51.923 19.1518C51.5271 19.5582 51.4771 20.1766 51.8211 20.6083L52.2121 20.2968ZM52.2811 19.5007C52.9634 18.8002 53.1783 17.7617 52.8267 16.8533L52.3604 17.0337C52.6408 17.7583 52.4698 18.5904 51.923 19.1518L52.2811 19.5007ZM52.8267 16.8533L52.2159 15.2743L51.7496 15.4547L52.3604 17.0337L52.8267 16.8533ZM52.2159 15.2743C51.8424 14.3087 50.922 13.6763 49.8767 13.6593L49.8684 14.1593C50.7145 14.173 51.451 14.6829 51.7496 15.4547L52.2159 15.2743ZM49.8767 13.6593C49.6649 13.6558 49.4401 13.6527 49.209 13.6501L49.2033 14.15C49.4337 14.1527 49.6576 14.1557 49.8684 14.1593L49.8767 13.6593Z"
            fill="#ADA1FF" />
    </g>
    <defs>
        <clipPath id="clip0_20_2">
            <rect width="78" height="43" fill="white" />
        </clipPath>
    </defs>
</svg>