<?xml version="1.0" encoding="UTF-8"?>
<svg width="180px" height="180px" viewBox="0 0 180 180" version="1.1" xmlns="http://www.w3.org/2000/svg" xmlns:xlink="http://www.w3.org/1999/xlink">
    <title>logo-white</title>
    <g id="logo" stroke="none" stroke-width="1" fill="none" fill-rule="evenodd">
        <g id="LOGO-Copy" transform="translate(-448.000000, -113.000000)" fill="#FFFFFF">
            <path d="M505,131 C504.674149,131.378401 504.342867,131.751397 504.030594,132.143312 C495.080558,143.32507 491.841057,159.123323 495.580196,173.37013 C496.565894,177.137926 497.983345,180.657058 499.354634,184.057263 C500.220854,186.211448 501.040912,188.244003 501.744207,190.311696 C504.158219,197.374285 504.236966,202.796234 501.983164,206.877562 C500.918718,208.807409 499.270456,210.215602 497.456553,210.737255 C495.694243,211.245394 494.094859,211.018353 492.566075,210.039916 C489.961984,208.380356 487.830377,204.707161 487.257422,200.901525 C486.679037,197.060752 487.08092,192.971316 487.507241,188.644027 C487.773353,185.916835 488.053041,183.095043 488.093773,180.211085 C488.234975,170.1348 483.825127,161.696451 475,155.044698 C482.836713,144.776509 493.130883,136.47871 505,131 Z M601,154.885228 C589.392111,163.045181 587.870569,172.564676 587.976913,180.211085 C588.020542,183.095043 588.298673,185.914132 588.565897,188.641324 C588.994001,192.971316 589.397564,197.060752 588.819487,200.901525 C588.244137,204.707161 586.100891,208.380356 583.488638,210.039916 C581.950736,211.018353 580.341938,211.245394 578.57226,210.737255 C576.756226,210.215602 575.101073,208.807409 574.026722,206.877562 C571.766224,202.796234 571.845301,197.374285 574.269406,190.311696 C574.978368,188.244003 575.801854,186.211448 576.671696,184.057263 C578.048718,180.657058 579.469369,177.137926 580.461916,173.37013 C584.213961,159.123323 580.960916,143.32507 571.973459,132.143312 C571.65988,131.751397 571.327213,131.378401 571,131 C582.856026,136.446275 593.149609,144.69272 601,154.885228 Z M517.709839,280 C509.940948,277.919371 502.640753,274.704099 496,270.548231 C496.842016,270.580573 497.681307,270.610219 498.520598,270.610219 C507.389713,270.610219 519.417184,266.29355 534.603011,257.660211 L534.603012,257.660213 C537.026541,256.282406 539.992548,256.265592 542.431542,257.615836 C558.700008,266.622168 571.556161,270.933865 581,270.550926 C574.356522,274.706794 567.061777,277.922066 559.298336,280 C549.130798,282.211709 528.371315,282.211709 517.709839,280 Z M580.181344,247.516791 C591.258017,247.516791 601.451042,243.676648 609.544391,237.268256 C606.334074,244.114202 602.177958,250.424755 597.251689,256.039572 C578.141118,264.01609 556.493099,259.746547 541.773743,244.945825 C539.702884,242.861644 536.334559,242.850845 534.250378,244.921704 C534.242762,244.929271 534.23517,244.936861 534.2276,244.944474 L534.226257,244.945825 L534.226257,244.945825 C519.509603,259.746547 497.864287,264.021525 478.751013,256.039572 C473.822042,250.427473 469.668628,244.114202 466.458311,237.268256 C474.548958,243.676648 484.741983,247.516791 495.818656,247.516791 C503.976249,247.516791 514.387175,243.168364 527.051434,234.471508 C528.989406,233.140681 529.481571,230.490792 528.150727,228.552832 C527.955304,228.26826 527.72599,228.008516 527.467838,227.779325 C525.164058,225.734 521.767854,225.507725 519.213093,227.229339 C509.763029,233.597636 501.964884,236.781784 495.818656,236.781784 C476.121688,236.781784 459.983632,221.168463 459,201.603572 C459.316168,188.153559 462.961552,175.521581 469.149789,164.512084 C476.529734,170.387802 477.440404,176.412994 477.380954,180.671667 C477.348527,183.123053 477.108023,185.615206 476.848604,188.256833 C476.381108,193.067203 475.897399,198.040637 476.66755,203.215182 C477.697122,210.131788 481.558689,216.507567 486.744377,219.850367 C489.495305,221.625041 492.489439,222.521889 495.580855,222.521889 C497.148181,222.521889 498.74253,222.290883 500.342284,221.826152 C504.914553,220.494468 508.784228,217.287554 511.232499,212.797875 C514.996785,205.905729 515.164326,197.638414 511.745934,187.523048 C510.951461,185.172217 510.043493,182.894765 509.167952,180.693409 C507.870855,177.440294 506.641314,174.363831 505.830628,171.233014 C502.941884,160.11209 505.406369,147.830698 512.259368,139.180184 C518.901589,130.798725 526.671483,124.039241 537.960261,123.999741 C549.24904,123.960908 557.098411,130.798725 563.740632,139.180184 C570.593631,147.830698 573.058116,160.11209 570.169372,171.233014 C569.355984,174.363831 568.129145,177.440294 566.83475,180.693409 C565.959209,182.894765 565.048539,185.172217 564.256769,187.523048 C560.835674,197.638414 561.005918,205.905729 564.767501,212.800593 C567.215772,217.290272 571.088149,220.494468 575.657716,221.826152 C580.405634,223.209473 585.110315,222.524607 589.255623,219.853085 C594.444013,216.507567 598.302878,210.134506 599.33245,203.215182 C600.102601,198.040637 599.618892,193.064486 599.151396,188.251397 C598.894679,185.612488 598.651473,183.123053 598.619046,180.671667 C598.548787,175.603113 599.210847,169.855128 606.744822,164.327279 C612.997913,175.382977 616.683832,188.077463 617,201.603572 C616.016368,221.168463 599.878312,236.781784 580.181344,236.781784 C574.035534,236.781784 566.238716,233.598068 556.790889,227.230637 C554.235373,225.50832 550.83801,225.734631 548.533513,227.780684 C546.775097,229.3419 546.615233,232.032993 548.176449,233.79141 C548.405808,234.049741 548.665755,234.279198 548.950554,234.474723 C561.615425,243.169435 572.025689,247.516791 580.181344,247.516791 Z M627.905125,199.218601 C625.915456,151.339859 586.360616,113 538.001355,113 C489.642094,113 450.087255,151.339859 448.094875,199.218601 L448,199.218601 C448,199.8529 448.024396,200.481778 448.048793,201.110656 C448.035239,201.742244 448,202.365701 448,203 C448,252.627131 488.373477,293 538.001355,293 C587.629234,293 628,252.627131 628,203 C628,202.365701 627.964761,201.742244 627.953918,201.110656 C627.978314,200.481778 628,199.8529 628,199.218601 L627.905125,199.218601 Z" id="logo-white"></path>
        </g>
    </g>
</svg>