<?xml version="1.0" encoding="UTF-8"?>
<svg width="180px" height="180px" viewBox="0 0 180 180" version="1.1" xmlns="http://www.w3.org/2000/svg" xmlns:xlink="http://www.w3.org/1999/xlink">
    <title>logo-color</title>
    <defs>
        <linearGradient x1="50%" y1="0%" x2="50%" y2="129.003286%" id="linearGradient-1">
            <stop stop-color="#9060EB" offset="0%"></stop>
            <stop stop-color="#3D138D" offset="100%"></stop>
        </linearGradient>
    </defs>
    <g id="logo" stroke="none" stroke-width="1" fill="none" fill-rule="evenodd">
        <g id="LOGO-Copy" transform="translate(-103.000000, -113.000000)" fill="url(#linearGradient-1)">
            <path d="M160,131 C159.674149,131.378401 159.342867,131.751397 159.030594,132.143312 C150.080558,143.32507 146.841057,159.123323 150.580196,173.37013 C151.565894,177.137926 152.983345,180.657058 154.354634,184.057263 C155.220854,186.211448 156.040912,188.244003 156.744207,190.311696 C159.158219,197.374285 159.236966,202.796234 156.983164,206.877562 C155.918718,208.807409 154.270456,210.215602 152.456553,210.737255 C150.694243,211.245394 149.094859,211.018353 147.566075,210.039916 C144.961984,208.380356 142.830377,204.707161 142.257422,200.901525 C141.679037,197.060752 142.08092,192.971316 142.507241,188.644027 C142.773353,185.916835 143.053041,183.095043 143.093773,180.211085 C143.234975,170.1348 138.825127,161.696451 130,155.044698 C137.836713,144.776509 148.130883,136.47871 160,131 Z M256,154.885228 C244.392111,163.045181 242.870569,172.564676 242.976913,180.211085 C243.020542,183.095043 243.298673,185.914132 243.565897,188.641324 C243.994001,192.971316 244.397564,197.060752 243.819487,200.901525 C243.244137,204.707161 241.100891,208.380356 238.488638,210.039916 C236.950736,211.018353 235.341938,211.245394 233.57226,210.737255 C231.756226,210.215602 230.101073,208.807409 229.026722,206.877562 C226.766224,202.796234 226.845301,197.374285 229.269406,190.311696 C229.978368,188.244003 230.801854,186.211448 231.671696,184.057263 C233.048718,180.657058 234.469369,177.137926 235.461916,173.37013 C239.213961,159.123323 235.960916,143.32507 226.973459,132.143312 C226.65988,131.751397 226.327213,131.378401 226,131 C237.856026,136.446275 248.149609,144.69272 256,154.885228 Z M172.709839,280 C164.940948,277.919371 157.640753,274.704099 151,270.548231 C151.842016,270.580573 152.681307,270.610219 153.520598,270.610219 C162.389713,270.610219 174.417184,266.29355 189.603011,257.660211 L189.603012,257.660213 C192.026541,256.282406 194.992548,256.265592 197.431542,257.615836 C213.700008,266.622168 226.556161,270.933865 236,270.550926 C229.356522,274.706794 222.061777,277.922066 214.298336,280 C204.130798,282.211709 183.371315,282.211709 172.709839,280 Z M235.181344,247.516791 C246.258017,247.516791 256.451042,243.676648 264.544391,237.268256 C261.334074,244.114202 257.177958,250.424755 252.251689,256.039572 C233.141118,264.01609 211.493099,259.746547 196.773743,244.945825 C194.702884,242.861644 191.334559,242.850845 189.250378,244.921704 C189.242762,244.929271 189.23517,244.936861 189.2276,244.944474 L189.226257,244.945825 L189.226257,244.945825 C174.509603,259.746547 152.864287,264.021525 133.751013,256.039572 C128.822042,250.427473 124.668628,244.114202 121.458311,237.268256 C129.548958,243.676648 139.741983,247.516791 150.818656,247.516791 C158.976249,247.516791 169.387175,243.168364 182.051434,234.471508 C183.989406,233.140681 184.481571,230.490792 183.150727,228.552832 C182.955304,228.26826 182.72599,228.008516 182.467838,227.779325 C180.164058,225.734 176.767854,225.507725 174.213093,227.229339 C164.763029,233.597636 156.964884,236.781784 150.818656,236.781784 C131.121688,236.781784 114.983632,221.168463 114,201.603572 C114.316168,188.153559 117.961552,175.521581 124.149789,164.512084 C131.529734,170.387802 132.440404,176.412994 132.380954,180.671667 C132.348527,183.123053 132.108023,185.615206 131.848604,188.256833 C131.381108,193.067203 130.897399,198.040637 131.66755,203.215182 C132.697122,210.131788 136.558689,216.507567 141.744377,219.850367 C144.495305,221.625041 147.489439,222.521889 150.580855,222.521889 C152.148181,222.521889 153.74253,222.290883 155.342284,221.826152 C159.914553,220.494468 163.784228,217.287554 166.232499,212.797875 C169.996785,205.905729 170.164326,197.638414 166.745934,187.523048 C165.951461,185.172217 165.043493,182.894765 164.167952,180.693409 C162.870855,177.440294 161.641314,174.363831 160.830628,171.233014 C157.941884,160.11209 160.406369,147.830698 167.259368,139.180184 C173.901589,130.798725 181.671483,124.039241 192.960261,123.999741 C204.24904,123.960908 212.098411,130.798725 218.740632,139.180184 C225.593631,147.830698 228.058116,160.11209 225.169372,171.233014 C224.355984,174.363831 223.129145,177.440294 221.83475,180.693409 C220.959209,182.894765 220.048539,185.172217 219.256769,187.523048 C215.835674,197.638414 216.005918,205.905729 219.767501,212.800593 C222.215772,217.290272 226.088149,220.494468 230.657716,221.826152 C235.405634,223.209473 240.110315,222.524607 244.255623,219.853085 C249.444013,216.507567 253.302878,210.134506 254.33245,203.215182 C255.102601,198.040637 254.618892,193.064486 254.151396,188.251397 C253.894679,185.612488 253.651473,183.123053 253.619046,180.671667 C253.548787,175.603113 254.210847,169.855128 261.744822,164.327279 C267.997913,175.382977 271.683832,188.077463 272,201.603572 C271.016368,221.168463 254.878312,236.781784 235.181344,236.781784 C229.035534,236.781784 221.238716,233.598068 211.790889,227.230637 C209.235373,225.50832 205.83801,225.734631 203.533513,227.780684 C201.775097,229.3419 201.615233,232.032993 203.176449,233.79141 C203.405808,234.049741 203.665755,234.279198 203.950554,234.474723 C216.615425,243.169435 227.025689,247.516791 235.181344,247.516791 Z M282.905125,199.218601 C280.915456,151.339859 241.360616,113 193.001355,113 C144.642094,113 105.087255,151.339859 103.094875,199.218601 L103,199.218601 C103,199.8529 103.024396,200.481778 103.048793,201.110656 C103.035239,201.742244 103,202.365701 103,203 C103,252.627131 143.373477,293 193.001355,293 C242.629234,293 283,252.627131 283,203 C283,202.365701 282.964761,201.742244 282.953918,201.110656 C282.978314,200.481778 283,199.8529 283,199.218601 L282.905125,199.218601 Z" id="logo-color"></path>
        </g>
    </g>
</svg>