<svg width="187" height="53" viewBox="0 0 187 53" fill="none" xmlns="http://www.w3.org/2000/svg">
<path fill-rule="evenodd" clip-rule="evenodd" d="M107.415 32.24C105.982 33.0536 104.419 33.4604 102.726 33.4604C101.02 33.4604 99.6003 32.9571 98.4674 31.9504C98.1125 31.647 97.819 31.3057 97.5869 30.9265C97.3549 30.5473 97.1604 30.0509 97.0034 29.4372C96.8464 28.8236 96.768 27.6549 96.768 25.9312V17.4919H93.492V17.1195L100.494 10.1695V14.0996H106.452V17.4919H100.494V26.8206C100.494 28.9994 101.388 30.0888 103.177 30.0888C104.514 30.0888 105.927 29.6337 107.415 28.7236V32.24ZM86.4078 33.4604C88.1959 33.4604 90.025 33.1087 91.895 32.4055V28.6822C90.0386 29.5234 88.3938 29.944 86.9606 29.944C84.9814 29.944 83.4082 29.3717 82.2412 28.2272C81.0741 27.0826 80.4906 25.5382 80.4906 23.5938C80.4906 21.746 81.0297 20.2257 82.1081 19.0329C83.1864 17.84 84.565 17.2436 86.244 17.2436C87.8546 17.2436 89.6018 17.8504 91.4855 19.0639V15.0511C90.3526 14.5408 89.4005 14.1927 88.6293 14.0065C87.8581 13.8203 86.9879 13.7272 86.0187 13.7272C83.2342 13.7272 80.9888 14.6443 79.2826 16.4783C77.5763 18.3123 76.7232 20.7255 76.7232 23.7179C76.7232 26.6827 77.6002 29.0477 79.3542 30.8127C81.1082 32.5778 83.4594 33.4604 86.4078 33.4604ZM69.9905 30.7404C68.1502 32.5537 65.8336 33.4604 63.0407 33.4604C60.339 33.4604 58.0812 32.5399 56.267 30.699C54.4529 28.858 53.5459 26.5586 53.5459 23.8007C53.5459 21.0151 54.4627 18.695 56.2964 16.8403C58.1301 14.9856 60.4304 14.0582 63.1973 14.0582C65.938 14.0582 68.2155 14.9925 70.0296 16.861C71.8437 18.7295 72.7508 21.0772 72.7508 23.9041C72.7508 26.6482 71.8307 28.927 69.9905 30.7404ZM118.507 33.4604C121.3 33.4604 123.616 32.5537 125.456 30.7404C127.297 28.927 128.217 26.6482 128.217 23.9041C128.217 21.0772 127.31 18.7295 125.496 16.861C123.681 14.9925 121.404 14.0582 118.663 14.0582C115.896 14.0582 113.596 14.9856 111.762 16.8403C109.929 18.695 109.012 21.0151 109.012 23.8007C109.012 26.5586 109.919 28.858 111.733 30.699C113.547 32.5399 115.805 33.4604 118.507 33.4604ZM118.552 29.4076C120.178 29.4076 121.527 28.8797 122.598 27.8239C123.669 26.7681 124.205 25.4413 124.205 23.8436C124.205 22.1977 123.677 20.8308 122.621 19.7429C121.565 18.655 120.239 18.111 118.643 18.111C117.032 18.111 115.693 18.6509 114.625 19.7308C113.557 20.8107 113.023 22.1616 113.023 23.7834C113.023 25.3891 113.552 26.7279 114.608 27.7998C115.664 28.8716 116.979 29.4076 118.552 29.4076ZM63.0856 29.4076C64.7118 29.4076 66.0606 28.8797 67.132 27.8239C68.2035 26.7681 68.7392 25.4413 68.7392 23.8436C68.7392 22.1977 68.2111 20.8308 67.1548 19.7429C66.0986 18.655 64.7726 18.111 63.1768 18.111C61.5659 18.111 60.2266 18.6509 59.1589 19.7308C58.0913 20.8107 57.5575 22.1616 57.5575 23.7834C57.5575 25.3891 58.0856 26.7279 59.1418 27.7998C60.1981 28.8716 61.5127 29.4076 63.0856 29.4076ZM136.796 42.8305V32.6537C138.257 33.1915 139.587 33.4604 140.789 33.4604C143.505 33.4604 145.74 32.5434 147.494 30.7093C149.248 28.8753 150.125 26.531 150.125 23.6766C150.125 20.6566 149.193 18.3054 147.33 16.6231C145.467 14.9407 142.863 14.0996 139.519 14.0996H132.988V42.8305H136.796ZM136.796 29.3235C137.943 29.9164 139.144 30.2129 140.4 30.2129C142.147 30.2129 143.577 29.5992 144.689 28.372C145.801 27.1447 146.358 25.5657 146.358 23.6352C146.358 22.3941 146.095 21.2978 145.569 20.3463C145.044 19.3948 144.327 18.7019 143.42 18.2675C142.512 17.8331 141.184 17.616 139.437 17.616H136.796V29.3235ZM160.444 33.4604C161.454 33.4604 162.468 33.2191 163.485 32.7364C164.502 32.2538 165.406 31.5781 166.198 30.7093V33.1294H169.924V14.0996L166.198 16.8161V27.7101C164.956 29.4614 163.447 30.337 161.673 30.337C160.253 30.337 159.26 29.9405 158.694 29.1476C158.127 28.3547 157.844 26.9585 157.844 24.959V14.0996L154.118 16.8161V25.0004C154.118 27.386 154.374 29.0925 154.885 30.1198C155.397 31.1471 156.155 31.9607 157.158 32.5606C158.161 33.1605 159.257 33.4604 160.444 33.4604ZM185.188 31.9607C183.98 32.9605 182.427 33.4604 180.53 33.4604C179.411 33.4604 178.414 33.3397 177.541 33.0984C176.667 32.8571 175.568 32.4124 174.244 31.7642V27.7101C175.295 28.4547 176.37 29.058 177.469 29.52C178.568 29.9819 179.493 30.2129 180.243 30.2129C181.021 30.2129 181.69 30.0198 182.25 29.6337C182.81 29.2476 183.089 28.7857 183.089 28.2479C183.089 27.6963 182.908 27.2378 182.547 26.8723C182.185 26.5069 181.404 25.9794 180.202 25.29C177.8 23.9386 176.227 22.7837 175.483 21.8253C174.739 20.8669 174.367 19.8223 174.367 18.6916C174.367 17.2298 174.93 16.037 176.056 15.1131C177.182 14.1892 178.633 13.7272 180.407 13.7272C182.25 13.7272 184.14 14.2513 186.079 15.2993V19.0225C183.867 17.6711 182.059 16.9954 180.653 16.9954C179.929 16.9954 179.346 17.1506 178.902 17.4608C178.459 17.7711 178.237 18.1813 178.237 18.6916C178.237 19.1328 178.438 19.5534 178.841 19.9533C179.243 20.3532 179.95 20.8359 180.96 21.4012L182.291 22.1666C185.43 23.9592 187 25.945 187 28.1237C187 29.682 186.396 30.961 185.188 31.9607Z" fill="#491E9B"/>
<ellipse cx="15.2459" cy="19.0473" rx="2.90992" ry="2.86223" fill="#491E9B"/>
<ellipse cx="25.9156" cy="19.0473" rx="2.90992" ry="2.86223" fill="#491E9B"/>
<path d="M3 36.7231V20.5808C3 10.8712 10.8712 3 20.5808 3V3C30.2904 3 38.1616 10.8712 38.1616 20.5808V39.3402" stroke="#491E9B" stroke-width="4.32" stroke-linecap="round"/>
<path d="M29.17 30.4295V38.8705C29.17 43.5195 32.6743 47.421 37.2966 47.9183V47.9183" stroke="#491E9B" stroke-width="4.32" stroke-linecap="round"/>
<path d="M11.7904 30.4295L11.8838 37.0036C11.9353 40.6233 9.42843 43.7777 5.89059 44.5451V44.5451" stroke="#491E9B" stroke-width="4.32" stroke-linecap="round"/>
<path d="M20.5808 30.3422L20.4595 50" stroke="#491E9B" stroke-width="4.32" stroke-linecap="round"/>
</svg>
