<svg width="707" height="154" viewBox="0 0 707 154" fill="none" xmlns="http://www.w3.org/2000/svg">
<path d="M172.796 151.243V46.5281H191.63V62.9511C192.735 60.7413 194.141 58.6319 195.848 56.623C197.656 54.614 199.615 52.8562 201.724 51.3495C203.934 49.7424 206.245 48.4868 208.655 47.5828C211.166 46.5783 213.678 46.0259 216.189 45.9254C221.111 45.6241 225.731 46.277 230.05 47.8841C234.47 49.4913 238.337 51.9522 241.652 55.2669C244.967 58.4812 247.578 62.4991 249.487 67.3205C251.496 72.1419 252.5 77.566 252.5 83.5928C252.5 94.6419 249.537 103.582 243.611 110.412C237.684 117.242 229.448 120.909 218.901 121.411C216.088 121.612 213.326 121.26 210.614 120.356C207.902 119.452 205.341 118.247 202.93 116.74C200.519 115.233 198.36 113.476 196.451 111.467C194.643 109.458 193.187 107.399 192.082 105.289V151.243H172.796ZM212.422 105.591C215.636 105.591 218.499 105.038 221.01 103.933C223.521 102.728 225.681 101.171 227.489 99.2624C229.297 97.2535 230.653 94.893 231.557 92.1809C232.562 89.4689 233.064 86.6062 233.064 83.5928C233.064 80.5794 232.562 77.7167 231.557 75.0046C230.653 72.2926 229.297 69.9823 227.489 68.0738C225.681 66.0649 223.521 64.508 221.01 63.4031C218.499 62.1977 215.636 61.5951 212.422 61.5951C209.308 61.5951 206.496 62.1977 203.985 63.4031C201.473 64.508 199.314 66.0649 197.506 68.0738C195.698 70.0828 194.291 72.4433 193.287 75.1553C192.383 77.7669 191.931 80.5794 191.931 83.5928C191.931 89.72 193.739 94.9432 197.355 99.2624C201.072 103.481 206.094 105.591 212.422 105.591ZM327.197 120.657C323.48 120.557 320.015 119.452 316.801 117.343C313.687 115.233 312.08 111.818 311.979 107.097C310.272 111.818 307.509 115.384 303.692 117.795C299.875 120.205 295.456 121.662 290.433 122.164C286.817 122.566 283.201 122.415 279.585 121.712C275.969 121.109 272.654 119.954 269.641 118.247C266.628 116.539 264.117 114.329 262.108 111.617C260.099 108.805 258.944 105.44 258.642 101.522C258.341 96.3997 259.044 92.2312 260.752 89.0169C262.56 85.7022 265.021 83.1408 268.134 81.3328C271.248 79.4243 274.814 78.1185 278.832 77.4153C282.85 76.7122 286.868 76.3607 290.885 76.3607L311.979 76.5113V68.6765C311.979 65.5627 310.523 63.2524 307.61 61.7457C304.697 60.1386 300.729 59.2848 295.707 59.1843C291.086 59.1843 287.32 59.9879 284.407 61.5951C281.594 63.2022 280.188 65.7134 280.188 69.1285H262.861C262.761 64.6084 263.564 60.8417 265.272 57.8283C266.979 54.7145 269.29 52.2033 272.202 50.2949C275.216 48.2859 278.681 46.8797 282.599 46.0761C286.616 45.1721 290.835 44.7201 295.255 44.7201C306.505 44.7201 315.244 46.729 321.471 50.7469C327.799 54.7647 330.964 60.239 330.964 67.1698V101.974C330.964 103.682 331.315 105.038 332.018 106.043C332.822 107.047 334.077 107.549 335.785 107.549H336.84V120.657H327.197ZM277.024 98.0571C276.723 102.175 277.978 105.088 280.791 106.796C283.704 108.403 287.119 109.207 291.036 109.207C293.146 109.207 295.305 108.855 297.515 108.152C299.825 107.449 301.935 106.495 303.843 105.289C305.852 104.084 307.56 102.627 308.966 100.92C310.372 99.2122 311.326 97.3037 311.829 95.1943V87.2089L292.844 87.3595C291.036 87.3595 289.228 87.5102 287.42 87.8115C285.612 88.0124 283.955 88.5147 282.448 89.3182C281.042 90.0214 279.836 91.076 278.832 92.4823C277.827 93.8885 277.225 95.7468 277.024 98.0571ZM337.325 46.5281H356.761L378.608 107.549H380.416L402.263 46.5281H421.247L394.278 120.657H363.24L337.325 46.5281ZM427.563 27.8451C427.563 25.5348 428.517 23.2246 430.425 20.9143C432.434 18.5036 435.448 17.2982 439.466 17.2982C443.383 17.2982 446.346 18.4032 448.355 20.613C450.364 22.7223 451.368 25.0326 451.368 27.5438C451.368 29.9545 450.414 32.3652 448.506 34.7759C446.698 37.1866 443.684 38.392 439.466 38.392C435.448 38.392 432.434 37.2368 430.425 34.9266C428.517 32.6163 427.563 30.2558 427.563 27.8451ZM429.823 120.657V46.5281H449.108V120.657H429.823ZM465.913 120.657V12.7782H485.198V120.657H465.913ZM499.596 27.8451C499.596 25.5348 500.55 23.2246 502.458 20.9143C504.467 18.5036 507.481 17.2982 511.498 17.2982C515.416 17.2982 518.379 18.4032 520.388 20.613C522.397 22.7223 523.401 25.0326 523.401 27.5438C523.401 29.9545 522.447 32.3652 520.539 34.7759C518.731 37.1866 515.717 38.392 511.498 38.392C507.481 38.392 504.467 37.2368 502.458 34.9266C500.55 32.6163 499.596 30.2558 499.596 27.8451ZM501.856 120.657V46.5281H521.141V120.657H501.856ZM532.371 83.5928C532.371 71.6397 535.736 62.3986 542.466 55.8696C549.296 49.2402 559.24 45.9254 572.298 45.9254C585.356 45.9254 595.25 49.2402 601.98 55.8696C608.81 62.4991 612.226 71.7401 612.226 83.5928C612.226 90.3227 611.171 96.0984 609.062 100.92C607.053 105.741 604.24 109.659 600.624 112.672C597.008 115.685 592.789 117.895 587.968 119.301C583.146 120.708 577.923 121.411 572.298 121.411C566.774 121.411 561.551 120.708 556.629 119.301C551.807 117.895 547.588 115.685 543.972 112.672C540.356 109.659 537.494 105.741 535.384 100.92C533.375 96.0984 532.371 90.3227 532.371 83.5928ZM572.298 105.591C578.626 105.591 583.749 104.034 587.667 100.92C591.584 97.8059 593.543 92.0303 593.543 83.5928C593.543 75.1553 591.584 69.3796 587.667 66.2658C583.749 63.152 578.626 61.5951 572.298 61.5951C569.184 61.5951 566.322 61.9466 563.71 62.6497C561.099 63.3529 558.838 64.5582 556.93 66.2658C555.122 67.9734 553.665 70.2334 552.561 73.0459C551.556 75.8584 551.054 79.374 551.054 83.5928C551.054 87.8115 551.556 91.3272 552.561 94.1397C553.665 96.9521 555.122 99.2122 556.93 100.92C558.838 102.627 561.099 103.833 563.71 104.536C566.322 105.239 569.184 105.591 572.298 105.591ZM623.474 120.657V46.5281H642.308V66.4165C643.513 63.1018 645.12 60.1888 647.129 57.6777C649.138 55.066 651.348 52.9065 653.759 51.1989C656.169 49.4913 658.63 48.2357 661.141 47.4321C663.753 46.5281 666.264 46.0259 668.675 45.9254C674.702 45.825 679.573 46.6788 683.29 48.4868C687.006 50.2948 689.869 52.7558 691.878 55.8696C693.887 58.883 695.243 62.3986 695.946 66.4165C696.649 70.3339 697.001 74.3517 697.001 78.47V120.657H677.715V79.8261C677.715 74.2011 676.459 69.8317 673.948 66.7178C671.437 63.604 667.419 62.0471 661.895 62.0471C655.466 62.0471 650.645 63.9053 647.43 67.6218C644.317 71.2379 642.76 76.21 642.76 82.5381V120.657H623.474Z" fill="white"/>
<path fill-rule="evenodd" clip-rule="evenodd" d="M54.4593 18.186C53.0913 15.6871 54.8332 12.8325 57.7243 12.7686H81.2634C84.1545 12.8325 85.8873 15.6871 84.5102 18.186L72.6996 38.2868C72.0521 39.3904 70.8756 40.1291 69.4893 40.1291C68.1031 40.1291 66.9266 39.3812 66.279 38.2868L54.4593 18.186ZM110.052 24.6975C107.963 22.7002 104.707 23.4845 103.914 26.2206L98.0587 48.793C97.7395 50.0242 98.0587 51.3831 99.0254 52.3589C99.9921 53.3348 101.369 53.6449 102.591 53.3257L125.155 47.4614C127.891 46.668 128.684 43.4212 126.687 41.3327L110.052 24.6975ZM13.8065 47.4705C11.0705 46.677 10.2861 43.4211 12.2835 41.3326L28.9186 24.6974C31.0071 22.7001 34.2539 23.4936 35.0473 26.2296L40.9116 48.7929C41.2308 50.015 40.9207 51.3921 39.9449 52.3589C38.969 53.3256 37.6101 53.6448 36.3789 53.3256L13.8065 47.4705ZM5.77282 96.9388C3.2739 98.3069 0.419295 96.5649 0.355454 93.6738V70.1347C0.419295 67.2436 3.2739 65.5108 5.77282 66.8879L25.8736 78.6985C26.9772 79.3461 27.7159 80.5226 27.7159 81.9088C27.7159 83.2951 26.968 84.4716 25.8736 85.1191L5.77282 96.9388ZM28.919 139.11C31.0075 141.107 34.2634 140.323 35.0568 137.587L40.9119 115.014C41.2312 113.783 40.9119 112.424 39.9452 111.448C38.9785 110.473 37.6013 110.162 36.3792 110.482L13.816 116.346C11.08 117.139 10.2865 120.386 12.2838 122.475L28.919 139.11ZM84.5247 145.622C85.8928 148.121 84.1508 150.975 81.2597 151.039H57.7206C54.8296 150.975 53.0967 148.121 54.4739 145.622L66.2845 125.521C66.932 124.418 68.1085 123.679 69.4948 123.679C70.881 123.679 72.0575 124.427 72.705 125.521L84.5247 145.622ZM126.699 122.466C128.696 120.377 127.912 117.121 125.176 116.328L102.603 110.473C101.372 110.154 100.013 110.473 99.0373 111.44C98.0614 112.406 97.7513 113.783 98.0705 115.006L103.935 137.569C104.728 140.305 107.975 141.098 110.064 139.101L126.699 122.466ZM133.21 66.8696C135.709 65.5016 138.563 67.2435 138.627 70.1346V93.6737C138.563 96.5648 135.709 98.2976 133.21 96.9205L113.109 85.1099C112.005 84.4624 111.267 83.2859 111.267 81.8996C111.267 80.5133 112.015 79.3368 113.109 78.6893L133.21 66.8696Z" fill="white"/>
</svg>
