<svg width="708" height="153" viewBox="0 0 708 153" fill="none" xmlns="http://www.w3.org/2000/svg">
<path d="M173.253 150.586V45.8706H192.086V62.2936C193.191 60.0838 194.597 57.9744 196.305 55.9655C198.113 53.9566 200.072 52.1988 202.181 50.6921C204.391 49.0849 206.701 47.8293 209.112 46.9253C211.623 45.9209 214.134 45.3684 216.645 45.268C221.567 44.9666 226.188 45.6195 230.507 47.2267C234.927 48.8338 238.794 51.2947 242.109 54.6095C245.423 57.8238 248.035 61.8416 249.943 66.663C251.952 71.4844 252.957 76.9085 252.957 82.9353C252.957 93.9844 249.994 102.924 244.067 109.754C238.141 116.585 229.904 120.251 219.357 120.753C216.545 120.954 213.783 120.603 211.071 119.699C208.359 118.795 205.797 117.589 203.387 116.083C200.976 114.576 198.816 112.818 196.908 110.809C195.1 108.8 193.643 106.741 192.538 104.632V150.586H173.253ZM212.879 104.933C216.093 104.933 218.956 104.381 221.467 103.276C223.978 102.07 226.138 100.513 227.946 98.6049C229.754 96.596 231.11 94.2355 232.014 91.5235C233.018 88.8114 233.52 85.9487 233.52 82.9353C233.52 79.9219 233.018 77.0592 232.014 74.3472C231.11 71.6351 229.754 69.3249 227.946 67.4164C226.138 65.4074 223.978 63.8505 221.467 62.7456C218.956 61.5403 216.093 60.9376 212.879 60.9376C209.765 60.9376 206.952 61.5403 204.441 62.7456C201.93 63.8505 199.77 65.4074 197.962 67.4164C196.154 69.4253 194.748 71.7858 193.744 74.4978C192.84 77.1094 192.388 79.9219 192.388 82.9353C192.388 89.0625 194.196 94.2858 197.812 98.6049C201.528 102.824 206.551 104.933 212.879 104.933ZM327.653 120C323.937 119.9 320.472 118.795 317.257 116.685C314.143 114.576 312.536 111.161 312.436 106.44C310.728 111.161 307.966 114.727 304.149 117.137C300.332 119.548 295.912 121.004 290.89 121.507C287.274 121.908 283.658 121.758 280.042 121.055C276.426 120.452 273.111 119.297 270.098 117.589C267.084 115.882 264.573 113.672 262.564 110.96C260.555 108.147 259.4 104.782 259.099 100.865C258.798 95.7422 259.501 91.5737 261.208 88.3594C263.016 85.0447 265.477 82.4833 268.591 80.6753C271.705 78.7668 275.271 77.461 279.289 76.7579C283.306 76.0548 287.324 75.7032 291.342 75.7032L312.436 75.8539V68.019C312.436 64.9052 310.979 62.5949 308.066 61.0883C305.153 59.4811 301.186 58.6273 296.164 58.5269C291.543 58.5269 287.776 59.3304 284.863 60.9376C282.051 62.5447 280.645 65.0559 280.645 68.4711H263.318C263.217 63.951 264.021 60.1842 265.728 57.1708C267.436 54.057 269.746 51.5459 272.659 49.6374C275.673 47.6285 279.138 46.2222 283.055 45.4186C287.073 44.5146 291.292 44.0626 295.712 44.0626C306.962 44.0626 315.7 46.0715 321.928 50.0894C328.256 54.1072 331.42 59.5816 331.42 66.5124V101.317C331.42 103.025 331.772 104.381 332.475 105.385C333.278 106.39 334.534 106.892 336.242 106.892H337.296V120H327.653ZM277.481 97.3996C277.179 101.518 278.435 104.431 281.247 106.138C284.16 107.746 287.575 108.549 291.493 108.549C293.602 108.549 295.762 108.198 297.972 107.494C300.282 106.791 302.391 105.837 304.3 104.632C306.309 103.426 308.016 101.97 309.422 100.262C310.829 98.5547 311.783 96.6462 312.285 94.5369V86.5514L293.301 86.7021C291.493 86.7021 289.685 86.8527 287.877 87.1541C286.069 87.355 284.411 87.8572 282.905 88.6608C281.498 89.3639 280.293 90.4186 279.289 91.8248C278.284 93.2311 277.681 95.0893 277.481 97.3996ZM337.781 45.8706H357.218L379.065 106.892H380.873L402.72 45.8706H421.704L394.734 120H363.696L337.781 45.8706ZM428.019 27.1876C428.019 24.8774 428.974 22.5671 430.882 20.2568C432.891 17.8461 435.904 16.6408 439.922 16.6408C443.84 16.6408 446.803 17.7457 448.812 19.9555C450.821 22.0649 451.825 24.3751 451.825 26.8863C451.825 29.297 450.871 31.7077 448.962 34.1184C447.154 36.5291 444.141 37.7345 439.922 37.7345C435.904 37.7345 432.891 36.5794 430.882 34.2691C428.974 31.9588 428.019 29.5983 428.019 27.1876ZM430.279 120V45.8706H449.565V120H430.279ZM466.369 120V12.1207H485.655V120H466.369ZM500.052 27.1876C500.052 24.8774 501.007 22.5671 502.915 20.2568C504.924 17.8461 507.937 16.6408 511.955 16.6408C515.873 16.6408 518.836 17.7457 520.845 19.9555C522.854 22.0649 523.858 24.3751 523.858 26.8863C523.858 29.297 522.904 31.7077 520.995 34.1184C519.187 36.5291 516.174 37.7345 511.955 37.7345C507.937 37.7345 504.924 36.5794 502.915 34.2691C501.007 31.9588 500.052 29.5983 500.052 27.1876ZM502.312 120V45.8706H521.598V120H502.312ZM532.828 82.9353C532.828 70.9822 536.192 61.7412 542.922 55.2121C549.753 48.5827 559.697 45.268 572.755 45.268C585.813 45.268 595.707 48.5827 602.437 55.2121C609.267 61.8416 612.682 71.0827 612.682 82.9353C612.682 89.6652 611.628 95.4409 609.518 100.262C607.509 105.084 604.697 109.001 601.081 112.015C597.465 115.028 593.246 117.238 588.425 118.644C583.603 120.05 578.38 120.753 572.755 120.753C567.23 120.753 562.007 120.05 557.085 118.644C552.264 117.238 548.045 115.028 544.429 112.015C540.813 109.001 537.95 105.084 535.841 100.262C533.832 95.4409 532.828 89.6652 532.828 82.9353ZM572.755 104.933C579.083 104.933 584.206 103.376 588.123 100.262C592.041 97.1485 593.999 91.3728 593.999 82.9353C593.999 74.4978 592.041 68.7222 588.123 65.6083C584.206 62.4945 579.083 60.9376 572.755 60.9376C569.641 60.9376 566.778 61.2891 564.167 61.9923C561.555 62.6954 559.295 63.9007 557.387 65.6083C555.579 67.3159 554.122 69.576 553.017 72.3885C552.013 75.201 551.511 78.7166 551.511 82.9353C551.511 87.1541 552.013 90.6697 553.017 93.4822C554.122 96.2947 555.579 98.5547 557.387 100.262C559.295 101.97 561.555 103.175 564.167 103.878C566.778 104.581 569.641 104.933 572.755 104.933ZM623.931 120V45.8706H642.764V65.759C643.97 62.4443 645.577 59.5313 647.586 57.0202C649.595 54.4086 651.805 52.249 654.215 50.5414C656.626 48.8338 659.087 47.5782 661.598 46.7747C664.21 45.8706 666.721 45.3684 669.132 45.268C675.158 45.1675 680.03 46.0213 683.746 47.8293C687.463 49.6374 690.326 52.0983 692.335 55.2121C694.344 58.2255 695.7 61.7412 696.403 65.759C697.106 69.6764 697.457 73.6943 697.457 77.8126V120H678.172V79.1686C678.172 73.5436 676.916 69.1742 674.405 66.0603C671.894 62.9465 667.876 61.3896 662.351 61.3896C655.923 61.3896 651.101 63.2478 647.887 66.9644C644.773 70.5804 643.216 75.5525 643.216 81.8806V120H623.931Z" fill="#834BE6"/>
<path fill-rule="evenodd" clip-rule="evenodd" d="M54.916 17.5286C53.548 15.0297 55.2899 12.175 58.181 12.1112H81.7201C84.6112 12.175 86.344 15.0297 84.9669 17.5286L73.1563 37.6294C72.5088 38.7329 71.3323 39.4717 69.946 39.4717C68.5597 39.4717 67.3832 38.7238 66.7357 37.6294L54.916 17.5286ZM110.508 24.0401C108.42 22.0428 105.164 22.8271 104.37 25.5632L98.5154 48.1355C98.1962 49.3668 98.5154 50.7257 99.4821 51.7015C100.449 52.6774 101.826 52.9875 103.048 52.6683L125.611 46.804C128.347 46.0105 129.141 42.7638 127.144 40.6753L110.508 24.0401ZM14.2632 46.8131C11.5272 46.0196 10.7428 42.7637 12.7401 40.6752L29.3753 24.04C31.4638 22.0427 34.7106 22.8362 35.504 25.5722L41.3683 48.1355C41.6875 49.3576 41.3774 50.7347 40.4015 51.7015C39.4257 52.6682 38.0668 52.9874 36.8356 52.6682L14.2632 46.8131ZM6.2295 96.2814C3.73058 97.6495 0.875975 95.9075 0.812134 93.0164V69.4773C0.875975 66.5862 3.73058 64.8534 6.2295 66.2305L26.3303 78.0411C27.4338 78.6886 28.1726 79.8651 28.1726 81.2514C28.1726 82.6377 27.4247 83.8142 26.3303 84.4617L6.2295 96.2814ZM29.3756 138.452C31.4641 140.45 34.72 139.665 35.5135 136.929L41.3686 114.357C41.6878 113.126 41.3686 111.767 40.4019 110.791C39.4352 109.815 38.058 109.505 36.8359 109.824L14.2727 115.689C11.5366 116.482 10.7432 119.729 12.7405 121.817L29.3756 138.452ZM84.9814 144.964C86.3495 147.463 84.6075 150.318 81.7164 150.382H58.1773C55.2862 150.318 53.5534 147.463 54.9305 144.964L66.7411 124.864C67.3887 123.76 68.5652 123.021 69.9514 123.021C71.3377 123.021 72.5142 123.769 73.1617 124.864L84.9814 144.964ZM127.155 121.808C129.153 119.72 128.368 116.464 125.632 115.671L103.06 109.815C101.829 109.496 100.47 109.815 99.494 110.782C98.5181 111.749 98.208 113.126 98.5272 114.348L104.391 136.911C105.185 139.647 108.432 140.441 110.52 138.444L127.155 121.808ZM133.666 66.2122C136.165 64.8441 139.02 66.5861 139.084 69.4772V93.0163C139.02 95.9074 136.165 97.6402 133.666 96.2631L113.566 84.4525C112.462 83.8049 111.723 82.6284 111.723 81.2422C111.723 79.8559 112.471 78.6794 113.566 78.0319L133.666 66.2122Z" fill="url(#paint0_linear_215_2)"/>
<defs>
<linearGradient id="paint0_linear_215_2" x1="0.812134" y1="82.0586" x2="139.979" y2="82.0586" gradientUnits="userSpaceOnUse">
<stop stop-color="#8232FF"/>
<stop offset="1" stop-color="#6FFFB0"/>
</linearGradient>
</defs>
</svg>
