<svg width="217" height="249" viewBox="0 0 217 249" fill="none" xmlns="http://www.w3.org/2000/svg">
<path d="M35.36 200.51V216.1C35.36 228.27 30.11 231.69 22.6 231.69C17.85 231.69 15.01 229.11 14.01 227.77V241.45C14.01 245.79 11.68 248.12 7.34 248.12H6.67C2.33 248.12 0 245.79 0 241.45V191.5C0 187.16 2.33 184.83 6.59 184.83C10.17 184.83 12.39 186.49 13.01 189.6C13.87 187.77 17 184.83 22.6 184.83C30.1 184.84 35.36 188.34 35.36 200.51ZM21.18 201.18C21.18 198.01 19.18 197.26 17.59 197.26C16 197.26 14 198.01 14 201.18V215.44C14 218.61 16 219.36 17.59 219.36C19.18 219.36 21.18 218.61 21.18 215.44V201.18Z" fill="white"/>
<path d="M42.36 213.19V191.51C42.36 187.17 44.69 184.84 49.03 184.84H49.78C54.12 184.84 56.45 187.17 56.45 191.51V215.28C56.45 218.45 58.45 219.2 60.12 219.2C61.62 219.2 63.71 218.45 63.71 215.28V191.51C63.71 187.17 66.04 184.84 70.38 184.84H71.13C75.47 184.84 77.8 187.17 77.8 191.51V213.19C77.8 224.61 71.13 231.7 60.12 231.7C48.78 231.7 42.36 224.61 42.36 213.19Z" fill="white"/>
<path d="M110.4 190.67V191.17C110.4 195.59 107.65 197.17 103.9 198.76C101.15 199.93 99.73 202.6 99.73 207.27V225.03C99.73 229.37 97.4 231.7 93.06 231.7H92.39C88.05 231.7 85.72 229.37 85.72 225.03V191.51C85.72 187.17 88.05 184.84 92.31 184.84C95.86 184.84 98.08 186.47 98.71 189.53C99.32 187.42 101.17 184.84 104.82 184.84C108.49 184.84 110.4 187 110.4 190.67Z" fill="white"/>
<path d="M151.85 200.51V216.1C151.85 228.27 146.6 231.69 139.09 231.69C134.34 231.69 131.5 229.11 130.5 227.77V241.45C130.5 245.79 128.17 248.12 123.83 248.12H123.16C118.82 248.12 116.49 245.79 116.49 241.45V191.5C116.49 187.16 118.82 184.83 123.08 184.83C126.66 184.83 128.88 186.49 129.5 189.6C130.36 187.77 133.49 184.83 139.09 184.83C146.59 184.84 151.85 188.34 151.85 200.51ZM137.67 201.18C137.67 198.01 135.67 197.26 134.08 197.26C132.49 197.26 130.49 198.01 130.49 201.18V215.44C130.49 218.61 132.49 219.36 134.08 219.36C135.67 219.36 137.67 218.61 137.67 215.44V201.18Z" fill="white"/>
<path d="M158.43 171.99C158.43 167.4 162.18 163.65 166.77 163.65C171.44 163.65 175.19 167.4 175.19 171.99C175.19 176.58 171.44 180.24 166.77 180.24C162.18 180.25 158.43 176.58 158.43 171.99ZM166.44 231.7C162.1 231.7 159.77 229.37 159.77 225.03V191.51C159.77 187.17 162.1 184.84 166.44 184.84H167.11C171.45 184.84 173.78 187.17 173.78 191.51V225.03C173.78 229.37 171.45 231.7 167.11 231.7H166.44Z" fill="white"/>
<path d="M199.13 231.7C187.96 231.7 181.45 224.61 181.45 213.44V203.35C181.45 191.93 187.95 184.84 199.13 184.84C210.3 184.84 216.89 191.43 216.89 202.85V205.85C216.89 210.19 214.56 212.52 210.22 212.52H195.54V216.61C195.54 219.61 197.54 220.28 199.13 220.28C202.04 220.28 202.84 219.19 203.66 218.06C204.57 216.82 205.51 215.53 209.3 215.53H210.55C214.39 215.53 216.3 216.78 216.05 219.12C215.55 225.78 209.3 231.7 199.13 231.7ZM195.54 202.93H202.79V200.18C202.79 197.01 200.79 196.34 199.12 196.34C197.45 196.34 195.53 197.01 195.53 200.18V202.93H195.54Z" fill="white"/>
<path d="M112.756 0.998047C106.921 0.960287 100.755 1.00255 94.2968 1.07032C77.0257 1.24979 62.7403 9.32338 53.2558 20.0449L53.2148 20.0898L53.1757 20.1367C48.1808 26.0199 44.6967 35.6032 43.2714 45.6113C43.2711 45.6137 43.2718 45.6167 43.2714 45.6191C43.2712 45.6211 43.2698 45.6229 43.2695 45.625C41.9056 55.0822 42.331 67.9912 43.0038 82.4336C43.6323 95.9231 44.5404 110.615 44.7402 124.129V124.131C44.7897 127.378 45.708 132.407 49.4062 138.26C53.1043 144.113 59.93 150.116 70.4941 152.359L70.7284 152.408L70.9648 152.439C80.0386 153.621 92.7222 153.968 101.267 144.934C103.029 143.072 104.375 141.392 105.449 139.807L105.453 139.801C107.125 137.345 108.301 135.214 109.121 133.666C109.854 132.282 110.331 131.582 110.023 131.906C110.179 131.901 111.079 131.407 112.795 131.203C115.121 130.926 118.482 130.948 122.109 131.119C129.364 131.461 137.302 132.575 144.125 131.201H144.127C154.848 129.039 172.025 125.211 184.979 104.896L185.115 104.683L185.231 104.461C195.057 85.761 194.734 70.0121 194.076 60.4764V60.4744C193.118 46.6314 190.648 30.583 178.883 18.0723C172 10.7448 164.975 7.62842 155.277 4.89453C144.785 1.93667 130.261 1.11132 112.756 0.998047ZM112.729 13.0566C130.011 13.2565 143.944 14.1682 152.021 16.4453C161.124 19.0114 164.639 20.4346 170.137 26.2871L170.139 26.2891V26.2911C178.951 35.6599 181.202 48.2691 182.104 61.3048C182.723 70.2815 183.122 82.518 174.727 98.631C163.861 115.541 152.509 117.269 141.754 119.438C138.696 120.053 130.41 119.498 122.676 119.133C118.808 118.95 114.983 118.859 111.379 119.287C107.775 119.716 103.949 120.422 100.969 123.945C99.4463 125.745 99.2542 126.659 98.5176 128.049C97.7811 129.439 96.8666 131.092 95.5313 133.053L95.5253 133.061L95.5213 133.067C94.8371 134.078 93.9447 135.212 92.5506 136.686V136.688C88.6033 140.862 80.3816 141.509 72.7908 140.561C65.4243 138.942 61.7975 135.406 59.5506 131.85C57.2821 128.26 56.741 123.988 56.7401 123.952V123.95C56.5342 110.03 55.6142 95.2314 54.992 81.8774C54.3256 67.5729 54.0733 54.7713 55.1483 47.3285V47.3207L55.1503 47.3148C56.2624 39.4946 60.4285 30.1769 62.3007 27.9418C69.8345 19.453 80.8244 13.2096 94.4217 13.0687H94.4237C100.835 13.0015 106.968 12.99 112.729 13.0566Z" fill="white"/>
<path d="M118.72 82.88C127.01 82.88 133.73 76.1594 133.73 67.8696C133.73 59.5798 127.01 52.8596 118.72 52.8596C110.43 52.8596 103.71 59.5798 103.71 67.8696C103.71 76.1594 110.43 82.88 118.72 82.88Z" fill="white"/>
<path d="M94.59 72.6696C94.59 78.17 90.09 82.67 84.59 82.67H75C69.5 82.67 65 78.17 65 72.6696V63.0796C65 57.5796 69.5 53.0796 75 53.0796H84.59C90.09 53.0796 94.59 57.5796 94.59 63.0796V72.6696Z" fill="white"/>
<path d="M167.19 73.8695C172.91 70.5695 172.91 65.1695 167.19 61.8695L153.33 53.8695C147.61 50.5695 142.94 53.2695 142.94 59.8695V75.8795C142.94 82.48 147.62 85.18 153.33 81.88L167.19 73.8695Z" fill="white"/>
</svg>
