<svg width="217" height="250" viewBox="0 0 217 250" fill="none" xmlns="http://www.w3.org/2000/svg">
<g clip-path="url(#clip0_216_40)">
<path fill-rule="evenodd" clip-rule="evenodd" d="M93.4681 19.9174C92.1 17.4185 93.842 14.5638 96.7331 14.5H120.272C123.163 14.5638 124.896 17.4185 123.519 19.9174L111.708 40.0182C111.061 41.1217 109.884 41.8605 108.498 41.8605C107.112 41.8605 105.935 41.1126 105.288 40.0182L93.4681 19.9174ZM149.06 26.4289C146.972 24.4316 143.716 25.2159 142.923 27.952L137.067 50.5243C136.748 51.7556 137.067 53.1145 138.034 54.0903C139.001 55.0662 140.378 55.3763 141.6 55.0571L164.163 49.1928C166.899 48.3993 167.693 45.1526 165.696 43.0641L149.06 26.4289ZM52.8153 49.2019C50.0792 48.4084 49.2949 45.1525 51.2922 43.064L67.9273 26.4288C70.0159 24.4315 73.2626 25.225 74.0561 27.961L79.9203 50.5243C80.2395 51.7464 79.9295 53.1235 78.9536 54.0903C77.9777 55.057 76.6188 55.3762 75.3876 55.057L52.8153 49.2019ZM44.7816 98.6702C42.2827 100.038 39.428 98.2963 39.3642 95.4052V71.8661C39.428 68.975 42.2827 67.2422 44.7816 68.6193L64.8824 80.4299C65.9859 81.0774 66.7246 82.2539 66.7246 83.6402C66.7246 85.0265 65.9768 86.203 64.8824 86.8505L44.7816 98.6702ZM67.9277 140.841C70.0162 142.839 73.2721 142.054 74.0656 139.318L79.9207 116.746C80.2399 115.515 79.9207 114.156 78.954 113.18C77.9872 112.204 76.6101 111.894 75.388 112.213L52.8247 118.077C50.0887 118.871 49.2952 122.118 51.2926 124.206L67.9277 140.841ZM123.533 147.353C124.902 149.852 123.16 152.707 120.268 152.771H96.7294C93.8383 152.707 92.1055 149.852 93.4826 147.353L105.293 127.252C105.941 126.149 107.117 125.41 108.504 125.41C109.89 125.41 111.066 126.158 111.714 127.252L123.533 147.353ZM165.707 124.197C167.705 122.109 166.92 118.853 164.184 118.059L141.612 112.204C140.381 111.885 139.022 112.204 138.046 113.171C137.07 114.138 136.76 115.515 137.079 116.737L142.944 139.3C143.737 142.036 146.984 142.83 149.072 140.832L165.707 124.197ZM172.218 68.601C174.717 67.2329 177.572 68.9749 177.636 71.866V95.4051C177.572 98.2962 174.717 100.029 172.218 98.6519L152.118 86.8413C151.014 86.1937 150.275 85.0172 150.275 83.631C150.275 82.2447 151.023 81.0682 152.118 80.4207L172.218 68.601Z" fill="white"/>
<path d="M3.95685 225.005V183.119H11.4903V189.688C11.9323 188.805 12.4948 187.961 13.1778 187.157C13.901 186.354 14.6845 185.65 15.5283 185.048C16.4122 184.405 17.3363 183.903 18.3006 183.541C19.305 183.139 20.3095 182.918 21.314 182.878C23.2827 182.758 25.1309 183.019 26.8586 183.662C28.6265 184.305 30.1733 185.289 31.4992 186.615C32.8251 187.9 33.8698 189.508 34.6331 191.436C35.4367 193.365 35.8385 195.534 35.8385 197.945C35.8385 202.365 34.6532 205.941 32.2827 208.673C29.9122 211.405 26.6175 212.871 22.3988 213.072C21.2738 213.153 20.1689 213.012 19.0841 212.65C17.9992 212.289 16.9747 211.807 16.0104 211.204C15.0461 210.601 14.1823 209.898 13.4189 209.095C12.6957 208.291 12.1131 207.467 11.6711 206.624V225.005H3.95685ZM19.8073 206.744C21.093 206.744 22.2381 206.523 23.2425 206.081C24.247 205.599 25.1108 204.976 25.834 204.213C26.5573 203.409 27.0997 202.465 27.4613 201.38C27.8631 200.296 28.064 199.15 28.064 197.945C28.064 196.74 27.8631 195.595 27.4613 194.51C27.0997 193.425 26.5573 192.501 25.834 191.738C25.1108 190.934 24.247 190.311 23.2425 189.869C22.2381 189.387 21.093 189.146 19.8073 189.146C18.5617 189.146 17.4367 189.387 16.4323 189.869C15.4278 190.311 14.564 190.934 13.8408 191.738C13.1175 192.541 12.555 193.485 12.1533 194.57C11.7917 195.615 11.6109 196.74 11.6109 197.945C11.6109 200.396 12.3341 202.485 13.7805 204.213C15.2671 205.9 17.276 206.744 19.8073 206.744ZM65.7172 212.771C64.2306 212.731 62.8444 212.289 61.5587 211.445C60.3132 210.601 59.6703 209.235 59.6301 207.347C58.9471 209.235 57.8422 210.662 56.3154 211.626C54.7886 212.59 53.0208 213.173 51.0118 213.374C49.5654 213.534 48.119 213.474 46.6726 213.193C45.2261 212.952 43.9002 212.49 42.6949 211.807C41.4895 211.124 40.4851 210.24 39.6815 209.155C38.8779 208.03 38.4159 206.684 38.2953 205.117C38.1748 203.068 38.4561 201.4 39.1391 200.115C39.8623 198.789 40.8467 197.764 42.0922 197.041C43.3377 196.278 44.7641 195.755 46.3712 195.474C47.9784 195.193 49.5855 195.052 51.1926 195.052L59.6301 195.113V191.979C59.6301 190.733 59.0475 189.809 57.8824 189.206C56.7172 188.563 55.1301 188.222 53.1212 188.182C51.273 188.182 49.7663 188.503 48.6011 189.146C47.4761 189.789 46.9136 190.793 46.9136 192.159H39.9828C39.9427 190.351 40.2641 188.845 40.9471 187.639C41.6302 186.394 42.5543 185.389 43.7194 184.626C44.9248 183.822 46.311 183.26 47.8779 182.938C49.4851 182.577 51.1726 182.396 52.9404 182.396C57.4404 182.396 60.9359 183.2 63.427 184.807C65.9583 186.414 67.2239 188.604 67.2239 191.376V205.298C67.2239 205.981 67.3645 206.523 67.6457 206.925C67.9672 207.327 68.4694 207.528 69.1524 207.528H69.5743V212.771H65.7172ZM45.648 203.731C45.5275 205.378 46.0297 206.543 47.1547 207.226C48.3199 207.869 49.686 208.191 51.2529 208.191C52.0967 208.191 52.9605 208.05 53.8444 207.769C54.7685 207.488 55.6123 207.106 56.3757 206.624C57.1792 206.142 57.8623 205.559 58.4248 204.876C58.9873 204.193 59.369 203.429 59.5699 202.586V199.392L51.9761 199.452C51.2529 199.452 50.5297 199.512 49.8065 199.633C49.0833 199.713 48.4203 199.914 47.8177 200.235C47.2552 200.517 46.773 200.938 46.3712 201.501C45.9694 202.063 45.7284 202.807 45.648 203.731ZM69.7683 183.119H77.5428L86.2817 207.528H87.0049L95.7437 183.119H103.337L92.5495 212.771H80.1344L69.7683 183.119ZM105.864 175.646C105.864 174.722 106.245 173.798 107.009 172.874C107.812 171.909 109.018 171.427 110.625 171.427C112.192 171.427 113.377 171.869 114.18 172.753C114.984 173.597 115.386 174.521 115.386 175.526C115.386 176.49 115.004 177.454 114.241 178.418C113.518 179.383 112.312 179.865 110.625 179.865C109.018 179.865 107.812 179.403 107.009 178.479C106.245 177.555 105.864 176.61 105.864 175.646ZM106.768 212.771V183.119H114.482V212.771H106.768ZM121.204 212.771V169.619H128.918V212.771H121.204ZM134.677 175.646C134.677 174.722 135.058 173.798 135.822 172.874C136.625 171.909 137.831 171.427 139.438 171.427C141.005 171.427 142.19 171.869 142.994 172.753C143.797 173.597 144.199 174.521 144.199 175.526C144.199 176.49 143.817 177.454 143.054 178.418C142.331 179.383 141.125 179.865 139.438 179.865C137.831 179.865 136.625 179.403 135.822 178.479C135.058 177.555 134.677 176.61 134.677 175.646ZM135.581 212.771V183.119H143.295V212.771H135.581ZM147.787 197.945C147.787 193.164 149.133 189.467 151.825 186.856C154.557 184.204 158.535 182.878 163.758 182.878C168.981 182.878 172.939 184.204 175.631 186.856C178.363 189.508 179.729 193.204 179.729 197.945C179.729 200.637 179.307 202.947 178.463 204.876C177.66 206.804 176.535 208.371 175.088 209.577C173.642 210.782 171.954 211.666 170.026 212.229C168.097 212.791 166.008 213.072 163.758 213.072C161.548 213.072 159.459 212.791 157.49 212.229C155.561 211.666 153.874 210.782 152.427 209.577C150.981 208.371 149.836 206.804 148.992 204.876C148.189 202.947 147.787 200.637 147.787 197.945ZM163.758 206.744C166.289 206.744 168.338 206.121 169.905 204.876C171.472 203.63 172.256 201.32 172.256 197.945C172.256 194.57 171.472 192.26 169.905 191.014C168.338 189.769 166.289 189.146 163.758 189.146C162.512 189.146 161.367 189.287 160.323 189.568C159.278 189.849 158.374 190.331 157.61 191.014C156.887 191.697 156.305 192.601 155.863 193.726C155.461 194.851 155.26 196.258 155.26 197.945C155.26 199.633 155.461 201.039 155.863 202.164C156.305 203.289 156.887 204.193 157.61 204.876C158.374 205.559 159.278 206.041 160.323 206.322C161.367 206.604 162.512 206.744 163.758 206.744ZM184.228 212.771V183.119H191.762V191.075C192.244 189.749 192.887 188.584 193.69 187.579C194.494 186.534 195.378 185.671 196.342 184.988C197.306 184.305 198.291 183.802 199.295 183.481C200.34 183.119 201.344 182.918 202.308 182.878C204.719 182.838 206.668 183.18 208.154 183.903C209.641 184.626 210.786 185.61 211.59 186.856C212.393 188.061 212.936 189.467 213.217 191.075C213.498 192.642 213.639 194.249 213.639 195.896V212.771H205.924V196.438C205.924 194.188 205.422 192.441 204.418 191.195C203.413 189.95 201.806 189.327 199.596 189.327C197.025 189.327 195.096 190.07 193.811 191.557C192.565 193.003 191.942 194.992 191.942 197.523V212.771H184.228Z" fill="white"/>
</g>
<defs>
<clipPath id="clip0_216_40">
<rect width="217" height="249" fill="white" transform="translate(0 0.5)"/>
</clipPath>
</defs>
</svg>
