<svg width="168" height="168" viewBox="0 0 168 168" fill="none" xmlns="http://www.w3.org/2000/svg">
<path d="M77.8094 0.682202C71.4141 0.640816 64.6564 0.687133 57.5779 0.761411C38.6482 0.958113 22.9911 9.80697 12.5959 21.558L12.551 21.6073L12.5082 21.6586C7.03361 28.1068 3.21494 38.6103 1.65281 49.5794C1.65244 49.5821 1.65319 49.5854 1.65281 49.588C1.65249 49.5902 1.65095 49.5921 1.65062 49.5944C0.15579 59.9597 0.622022 74.1083 1.35949 89.9376C2.0483 104.722 3.04357 120.825 3.26255 135.637V135.639C3.3168 139.198 4.32332 144.709 8.37661 151.124C12.4299 157.54 19.911 164.119 31.4894 166.578L31.7463 166.631L32.0053 166.666C41.9505 167.961 55.852 168.341 65.2179 158.439C67.1485 156.398 68.6234 154.558 69.8011 152.82L69.8054 152.813C71.6381 150.121 72.9267 147.786 73.8256 146.089C74.6292 144.572 75.1517 143.806 74.8146 144.161C74.9849 144.155 75.9715 143.614 77.8522 143.39C80.4013 143.087 84.0855 143.11 88.0611 143.298C96.0122 143.673 104.712 144.894 112.191 143.388H112.193C123.943 141.018 142.77 136.823 156.967 114.557L157.117 114.324L157.243 114.08C168.013 93.5845 167.659 76.3233 166.939 65.8719V65.8697C165.889 50.6975 163.181 33.108 150.286 19.396C142.742 11.3648 135.043 7.94925 124.414 4.95284C112.914 1.71096 96.9951 0.806352 77.8094 0.682202ZM77.7795 13.8987C96.7209 14.1178 111.992 15.117 120.845 17.6128C130.822 20.4253 134.675 21.9852 140.7 28.3996L140.702 28.4018V28.404C150.361 38.6724 152.828 52.4925 153.816 66.7798C154.495 76.6185 154.932 90.03 145.731 107.69C133.822 126.224 121.38 128.118 109.592 130.495C106.241 131.169 97.1591 130.561 88.6819 130.161C84.4428 129.961 80.2506 129.86 76.3003 130.33C72.35 130.8 68.1573 131.574 64.8905 135.435C63.2218 137.408 63.0112 138.409 62.204 139.933C61.3967 141.457 60.3944 143.268 58.9309 145.417L58.9243 145.426L58.9199 145.433C58.17 146.541 57.1919 147.784 55.664 149.399V149.402C51.3377 153.976 42.3264 154.686 34.0068 153.647C25.9328 151.872 21.9579 147.997 19.4952 144.099C17.0088 140.164 16.4157 135.482 16.4147 135.442V135.44C16.1891 120.184 15.1807 103.964 14.4988 89.3279C13.7684 73.6498 13.4919 59.619 14.6701 51.4615V51.453L14.6723 51.4465C15.8912 42.8754 20.4573 32.663 22.5093 30.2132C30.7666 20.9092 42.8118 14.0663 57.7148 13.912H57.717C64.7443 13.8383 71.4656 13.8257 77.7795 13.8987Z" fill="#7D4CDB"/>
<path d="M84.3462 90.4268C93.4322 90.4268 100.798 83.0609 100.798 73.9751C100.798 64.8892 93.4322 57.5237 84.3462 57.5237C75.2602 57.5237 67.8949 64.8892 67.8949 73.9751C67.8949 83.0609 75.2602 90.4268 84.3462 90.4268Z" fill="#7D4CDB"/>
<path d="M57.8991 79.236C57.8991 85.2645 52.967 90.1966 46.9389 90.1966H36.428C30.3999 90.1966 25.4678 85.2645 25.4678 79.236V68.7251C25.4678 62.6969 30.3999 57.7648 36.428 57.7648H46.9389C52.967 57.7648 57.8991 62.6969 57.8991 68.7251V79.236Z" fill="#7D4CDB"/>
<path d="M137.47 80.5511C143.74 76.9342 143.74 71.0157 137.47 67.3988L122.28 58.6306C116.01 55.0137 110.892 57.973 110.892 65.2067V82.7541C110.892 89.9884 116.021 92.9476 122.28 89.3308L137.47 80.5511Z" fill="#7D4CDB"/>
</svg>
