<svg width="168" height="168" viewBox="0 0 168 168" fill="none" xmlns="http://www.w3.org/2000/svg">
<path fill-rule="evenodd" clip-rule="evenodd" d="M65.736 6.58214C64.0739 3.54593 66.1903 0.0775664 69.703 0H98.303C101.816 0.0775664 103.921 3.54593 102.248 6.58214L87.898 31.0048C87.1112 32.3456 85.6818 33.2431 83.9975 33.2431C82.3132 33.2431 80.8837 32.3345 80.0969 31.0048L65.736 6.58214ZM133.281 14.4935C130.743 12.0667 126.787 13.0197 125.823 16.344L118.709 43.7696C118.321 45.2656 118.709 46.9166 119.884 48.1023C121.058 49.288 122.732 49.6647 124.216 49.2769L151.631 42.1518C154.955 41.1877 155.919 37.2429 153.492 34.7053L133.281 14.4935ZM16.343 42.1631C13.0187 41.1991 12.0658 37.2432 14.4925 34.7056L34.7042 14.4938C37.2417 12.067 41.1866 13.0311 42.1506 16.3554L49.2757 43.7699C49.6635 45.2547 49.2868 46.928 48.1011 48.1026C46.9154 49.2772 45.2644 49.665 43.7684 49.2772L16.343 42.1631ZM6.5821 102.267C3.54591 103.93 0.0775668 101.813 0 98.3005V69.7003C0.0775668 66.1876 3.54591 64.0822 6.5821 65.7554L31.0046 80.1054C32.3454 80.8921 33.2429 82.3216 33.2429 84.0059C33.2429 85.6902 32.3343 87.1197 31.0046 87.9064L6.5821 102.267ZM34.7045 153.505C37.242 155.932 41.1979 154.979 42.162 151.655L49.276 124.229C49.6638 122.733 49.276 121.082 48.1014 119.896C46.9268 118.711 45.2536 118.334 43.7687 118.722L16.3544 125.847C13.0301 126.811 12.066 130.756 14.4928 133.293L34.7045 153.505ZM102.266 161.418C103.928 164.454 101.811 167.922 98.2987 168H69.6987C66.186 167.922 64.0807 164.454 65.7539 161.418L80.1038 136.995C80.8905 135.654 82.3199 134.757 84.0043 134.757C85.6886 134.757 87.118 135.666 87.9048 136.995L102.266 161.418ZM153.507 133.283C155.933 130.745 154.98 126.789 151.656 125.825L124.231 118.711C122.735 118.323 121.084 118.711 119.898 119.886C118.712 121.06 118.336 122.733 118.724 124.218L125.849 151.633C126.813 154.957 130.757 155.921 133.295 153.494L153.507 133.283ZM161.418 65.7331C164.454 64.0709 167.922 66.1874 168 69.7001V98.3003C167.922 101.813 164.454 103.918 161.418 102.245L136.995 87.8952C135.655 87.1084 134.757 85.679 134.757 83.9947C134.757 82.3103 135.666 80.8809 136.995 80.0941L161.418 65.7331Z" fill="url(#paint0_linear_215_15)"/>
<defs>
<linearGradient id="paint0_linear_215_15" x1="3.04003e-07" y1="84.9866" x2="169.088" y2="84.9866" gradientUnits="userSpaceOnUse">
<stop stop-color="#8232FF"/>
<stop offset="1" stop-color="#6FFFB0"/>
</linearGradient>
</defs>
</svg>
