<svg width="421" height="153" viewBox="0 0 421 153" fill="none" xmlns="http://www.w3.org/2000/svg">
<path d="M227.982 66.0679V82.5919C227.982 95.4909 222.417 99.1157 214.458 99.1157C209.423 99.1157 206.413 96.3812 205.353 94.9609V109.46C205.353 114.06 202.883 116.53 198.283 116.53H197.573C192.973 116.53 190.504 114.06 190.504 109.46V56.5182C190.504 51.9182 192.973 49.4487 197.489 49.4487C201.283 49.4487 203.636 51.2081 204.293 54.5044C205.205 52.5648 208.522 49.4487 214.458 49.4487C222.407 49.4593 227.982 53.1689 227.982 66.0679ZM212.953 66.7781C212.953 63.4182 210.833 62.6233 209.147 62.6233C207.462 62.6233 205.342 63.4182 205.342 66.7781V81.8923C205.342 85.2522 207.462 86.0471 209.147 86.0471C210.833 86.0471 212.953 85.2522 212.953 81.8923V66.7781Z" fill="#7D4CDB"/>
<path d="M235.401 79.5076V56.5288C235.401 51.9289 237.871 49.4593 242.471 49.4593H243.266C247.866 49.4593 250.335 51.9289 250.335 56.5288V81.7227C250.335 85.0826 252.455 85.8776 254.225 85.8776C255.815 85.8776 258.03 85.0826 258.03 81.7227V56.5288C258.03 51.9289 260.5 49.4593 265.1 49.4593H265.895C270.495 49.4593 272.964 51.9289 272.964 56.5288V79.5076C272.964 91.6116 265.895 99.1264 254.225 99.1264C242.206 99.1264 235.401 91.6116 235.401 79.5076Z" fill="#7D4CDB"/>
<path d="M307.517 55.6385V56.1685C307.517 60.8533 304.602 62.5279 300.628 64.2131C297.713 65.4532 296.208 68.2832 296.208 73.2329V92.0568C296.208 96.6568 293.738 99.1264 289.138 99.1264H288.428C283.828 99.1264 281.359 96.6568 281.359 92.0568V56.5288C281.359 51.9289 283.828 49.4593 288.343 49.4593C292.106 49.4593 294.459 51.1869 295.127 54.4302C295.773 52.1938 297.734 49.4593 301.603 49.4593C305.493 49.4593 307.517 51.7487 307.517 55.6385Z" fill="#7D4CDB"/>
<path d="M351.45 66.0679V82.5919C351.45 95.4909 345.886 99.1157 337.926 99.1157C332.891 99.1157 329.881 96.3812 328.821 94.9609V109.46C328.821 114.06 326.352 116.53 321.752 116.53H321.041C316.441 116.53 313.972 114.06 313.972 109.46V56.5182C313.972 51.9182 316.441 49.4487 320.957 49.4487C324.751 49.4487 327.104 51.2081 327.761 54.5044C328.673 52.5648 331.99 49.4487 337.926 49.4487C345.875 49.4593 351.45 53.1689 351.45 66.0679ZM336.421 66.7781C336.421 63.4182 334.301 62.6233 332.616 62.6233C330.93 62.6233 328.811 63.4182 328.811 66.7781V81.8923C328.811 85.2522 330.93 86.0471 332.616 86.0471C334.301 86.0471 336.421 85.2522 336.421 81.8923V66.7781Z" fill="#7D4CDB"/>
<path d="M358.424 35.8396C358.424 30.9746 362.399 27 367.264 27C372.214 27 376.188 30.9746 376.188 35.8396C376.188 40.7046 372.214 44.5838 367.264 44.5838C362.399 44.5944 358.424 40.7046 358.424 35.8396ZM366.914 99.1264C362.314 99.1264 359.845 96.6568 359.845 92.0569V56.5289C359.845 51.9289 362.314 49.4594 366.914 49.4594H367.624C372.224 49.4594 374.694 51.9289 374.694 56.5289V92.0569C374.694 96.6568 372.224 99.1264 367.624 99.1264H366.914Z" fill="#7D4CDB"/>
<path d="M401.562 99.1264C389.723 99.1264 382.823 91.6116 382.823 79.7725V69.0781C382.823 56.974 389.713 49.4593 401.562 49.4593C413.401 49.4593 420.386 56.4441 420.386 68.5482V71.7279C420.386 76.3278 417.917 78.7974 413.317 78.7974H397.757V83.1324C397.757 86.3121 399.877 87.0223 401.562 87.0223C404.647 87.0223 405.495 85.867 406.364 84.6693C407.328 83.355 408.325 81.9877 412.342 81.9877H413.666C417.736 81.9877 419.761 83.3126 419.496 85.7928C418.966 92.8517 412.342 99.1264 401.562 99.1264ZM397.757 68.6329H405.442V65.7182C405.442 62.3583 403.322 61.6482 401.552 61.6482C399.782 61.6482 397.747 62.3583 397.747 65.7182V68.6329H397.757Z" fill="#7D4CDB"/>
<path d="M70.3841 0.0141832C64.5492 -0.0235768 58.3835 0.0186827 51.9251 0.0864527C34.6539 0.265922 20.3686 8.33952 10.8841 19.0611L10.8431 19.106L10.804 19.1529C5.80913 25.0361 2.32502 34.6193 0.899746 44.6275C0.899403 44.6299 0.900089 44.6329 0.899746 44.6353C0.899456 44.6373 0.898047 44.6391 0.897747 44.6412C-0.466119 54.0983 -0.0407343 67.0073 0.632122 81.4498C1.26058 94.9392 2.16866 109.631 2.36845 123.145V123.147C2.41795 126.394 3.33629 131.423 7.03447 137.276C10.7326 143.129 17.5583 149.132 28.1223 151.376L28.3567 151.424L28.5931 151.456C37.6669 152.637 50.3505 152.985 58.8958 143.95C60.6572 142.088 62.003 140.409 63.0774 138.823L63.0814 138.817C64.7535 136.361 65.9293 134.23 66.7494 132.682C67.4826 131.298 67.9593 130.598 67.6518 130.922C67.8071 130.917 68.7073 130.423 70.4232 130.219C72.749 129.942 76.1104 129.964 79.7377 130.135C86.9922 130.478 94.9299 131.591 101.753 130.217H101.755C112.476 128.055 129.654 124.227 142.607 103.912L142.744 103.7L142.859 103.477C152.685 84.7772 152.362 69.0283 151.705 59.4925V59.4905C150.747 45.6476 148.276 29.5991 136.511 17.0884C129.628 9.7609 122.603 6.64456 112.906 3.91067C102.413 0.952809 87.889 0.127456 70.3841 0.0141832ZM70.3568 12.0728C87.6388 12.2726 101.572 13.1843 109.65 15.4614C118.752 18.0276 122.268 19.4508 127.765 25.3032L127.767 25.3052V25.3072C136.579 34.676 138.83 47.2853 139.732 60.3209C140.351 69.2976 140.75 81.5341 132.355 97.6471C121.489 114.557 110.137 116.285 99.3823 118.454C96.3247 119.069 88.0386 118.514 80.3041 118.149C76.4364 117.966 72.6115 117.875 69.0073 118.303C65.403 118.732 61.5776 119.438 58.5971 122.962C57.0746 124.761 56.8825 125.675 56.1459 127.065C55.4094 128.455 54.4949 130.108 53.1596 132.069L53.1536 132.077L53.1496 132.083C52.4654 133.094 51.573 134.229 50.1789 135.702V135.704C46.2316 139.878 38.0099 140.525 30.4191 139.577C23.0526 137.958 19.4258 134.423 17.1789 130.866C14.9104 127.276 14.3692 123.004 14.3684 122.968V122.966C14.1625 109.046 13.2425 94.2476 12.6203 80.8935C11.9539 66.589 11.7016 53.7875 12.7766 46.3447V46.3369L12.7786 46.331C13.8907 38.5108 18.0568 29.1931 19.929 26.9579C27.4628 18.4691 38.4527 12.2257 52.05 12.0849H52.052C58.4637 12.0176 64.5961 12.0062 70.3568 12.0728Z" fill="#7D4CDB"/>
<path d="M76.3483 81.8961C84.6383 81.8961 91.3582 75.1755 91.3582 66.8857C91.3582 58.5959 84.6383 51.8757 76.3483 51.8757C68.0583 51.8757 61.3383 58.5959 61.3383 66.8857C61.3383 75.1755 68.0583 81.8961 76.3483 81.8961Z" fill="#7D4CDB"/>
<path d="M52.2182 71.6857C52.2182 77.1861 47.7182 81.6861 42.2182 81.6861H32.6282C27.1282 81.6861 22.6282 77.1861 22.6282 71.6857V62.0957C22.6282 56.5957 27.1282 52.0957 32.6282 52.0957H42.2182C47.7182 52.0957 52.2182 56.5957 52.2182 62.0957V71.6857Z" fill="#7D4CDB"/>
<path d="M124.818 72.8856C130.538 69.5856 130.538 64.1856 124.818 60.8856L110.958 52.8856C105.238 49.5856 100.568 52.2856 100.568 58.8856V74.8956C100.568 81.4961 105.248 84.1961 110.958 80.8961L124.818 72.8856Z" fill="#7D4CDB"/>
</svg>
