<svg width="217" height="249" viewBox="0 0 217 249" fill="none" xmlns="http://www.w3.org/2000/svg">
<g clip-path="url(#clip0_216_38)">
<path fill-rule="evenodd" clip-rule="evenodd" d="M93.4681 19.4174C92.1 16.9185 93.842 14.0638 96.7331 14H120.272C123.163 14.0638 124.896 16.9185 123.519 19.4174L111.708 39.5182C111.061 40.6217 109.884 41.3605 108.498 41.3605C107.112 41.3605 105.935 40.6126 105.288 39.5182L93.4681 19.4174ZM149.06 25.9289C146.972 23.9316 143.716 24.7159 142.923 27.452L137.067 50.0243C136.748 51.2556 137.067 52.6145 138.034 53.5903C139.001 54.5662 140.378 54.8763 141.6 54.5571L164.163 48.6928C166.899 47.8993 167.693 44.6526 165.696 42.5641L149.06 25.9289ZM52.8153 48.7019C50.0792 47.9084 49.2949 44.6525 51.2922 42.564L67.9273 25.9288C70.0159 23.9315 73.2626 24.725 74.0561 27.461L79.9203 50.0243C80.2395 51.2464 79.9295 52.6235 78.9536 53.5903C77.9777 54.557 76.6188 54.8762 75.3876 54.557L52.8153 48.7019ZM44.7816 98.1702C42.2827 99.5382 39.428 97.7963 39.3642 94.9052V71.3661C39.428 68.475 42.2827 66.7422 44.7816 68.1193L64.8824 79.9299C65.9859 80.5774 66.7246 81.7539 66.7246 83.1402C66.7246 84.5265 65.9768 85.703 64.8824 86.3505L44.7816 98.1702ZM67.9277 140.341C70.0162 142.339 73.2721 141.554 74.0656 138.818L79.9207 116.246C80.2399 115.015 79.9207 113.656 78.954 112.68C77.9872 111.704 76.6101 111.394 75.388 111.713L52.8247 117.577C50.0887 118.371 49.2952 121.618 51.2926 123.706L67.9277 140.341ZM123.533 146.853C124.902 149.352 123.16 152.207 120.268 152.271H96.7294C93.8383 152.207 92.1055 149.352 93.4826 146.853L105.293 126.752C105.941 125.649 107.117 124.91 108.504 124.91C109.89 124.91 111.066 125.658 111.714 126.752L123.533 146.853ZM165.707 123.697C167.705 121.609 166.92 118.353 164.184 117.559L141.612 111.704C140.381 111.385 139.022 111.704 138.046 112.671C137.07 113.638 136.76 115.015 137.079 116.237L142.944 138.8C143.737 141.536 146.984 142.33 149.072 140.332L165.707 123.697ZM172.218 68.101C174.717 66.7329 177.572 68.4749 177.636 71.366V94.9051C177.572 97.7962 174.717 99.529 172.218 98.1519L152.118 86.3413C151.014 85.6937 150.275 84.5172 150.275 83.131C150.275 81.7447 151.023 80.5682 152.118 79.9207L172.218 68.101Z" fill="url(#paint0_linear_216_38)"/>
<path d="M3.95685 224.505V182.619H11.4903V189.188C11.9323 188.304 12.4948 187.461 13.1778 186.657C13.901 185.854 14.6845 185.15 15.5283 184.548C16.4122 183.905 17.3363 183.403 18.3006 183.041C19.305 182.639 20.3095 182.418 21.314 182.378C23.2827 182.258 25.1309 182.519 26.8586 183.162C28.6265 183.804 30.1733 184.789 31.4992 186.115C32.8251 187.4 33.8698 189.008 34.6331 190.936C35.4367 192.865 35.8385 195.034 35.8385 197.445C35.8385 201.865 34.6532 205.441 32.2827 208.173C29.9122 210.905 26.6175 212.371 22.3988 212.572C21.2738 212.653 20.1689 212.512 19.0841 212.15C17.9992 211.789 16.9747 211.307 16.0104 210.704C15.0461 210.101 14.1823 209.398 13.4189 208.595C12.6957 207.791 12.1131 206.967 11.6711 206.124V224.505H3.95685ZM19.8073 206.244C21.093 206.244 22.2381 206.023 23.2425 205.581C24.247 205.099 25.1108 204.476 25.834 203.713C26.5573 202.909 27.0997 201.965 27.4613 200.88C27.8631 199.796 28.064 198.65 28.064 197.445C28.064 196.24 27.8631 195.095 27.4613 194.01C27.0997 192.925 26.5573 192.001 25.834 191.237C25.1108 190.434 24.247 189.811 23.2425 189.369C22.2381 188.887 21.093 188.646 19.8073 188.646C18.5617 188.646 17.4367 188.887 16.4323 189.369C15.4278 189.811 14.564 190.434 13.8408 191.237C13.1175 192.041 12.555 192.985 12.1533 194.07C11.7917 195.115 11.6109 196.24 11.6109 197.445C11.6109 199.896 12.3341 201.985 13.7805 203.713C15.2671 205.4 17.276 206.244 19.8073 206.244ZM65.7172 212.271C64.2306 212.231 62.8444 211.789 61.5587 210.945C60.3132 210.101 59.6703 208.735 59.6301 206.847C58.9471 208.735 57.8422 210.162 56.3154 211.126C54.7886 212.09 53.0208 212.673 51.0118 212.874C49.5654 213.034 48.119 212.974 46.6726 212.693C45.2261 212.452 43.9002 211.99 42.6949 211.307C41.4895 210.624 40.4851 209.74 39.6815 208.655C38.8779 207.53 38.4159 206.184 38.2953 204.617C38.1748 202.568 38.4561 200.9 39.1391 199.615C39.8623 198.289 40.8467 197.264 42.0922 196.541C43.3377 195.778 44.7641 195.255 46.3712 194.974C47.9784 194.693 49.5855 194.552 51.1926 194.552L59.6301 194.612V191.479C59.6301 190.233 59.0475 189.309 57.8824 188.706C56.7172 188.063 55.1301 187.722 53.1212 187.682C51.273 187.682 49.7663 188.003 48.6011 188.646C47.4761 189.289 46.9136 190.293 46.9136 191.659H39.9828C39.9427 189.851 40.2641 188.345 40.9471 187.139C41.6302 185.894 42.5543 184.889 43.7194 184.126C44.9248 183.322 46.311 182.76 47.8779 182.438C49.4851 182.077 51.1726 181.896 52.9404 181.896C57.4404 181.896 60.9359 182.7 63.427 184.307C65.9583 185.914 67.2239 188.104 67.2239 190.876V204.798C67.2239 205.481 67.3645 206.023 67.6457 206.425C67.9672 206.827 68.4694 207.028 69.1524 207.028H69.5743V212.271H65.7172ZM45.648 203.231C45.5275 204.878 46.0297 206.043 47.1547 206.726C48.3199 207.369 49.686 207.691 51.2529 207.691C52.0967 207.691 52.9605 207.55 53.8444 207.269C54.7685 206.987 55.6123 206.606 56.3757 206.124C57.1792 205.641 57.8623 205.059 58.4248 204.376C58.9873 203.693 59.369 202.929 59.5699 202.086V198.891L51.9761 198.952C51.2529 198.952 50.5297 199.012 49.8065 199.133C49.0833 199.213 48.4203 199.414 47.8177 199.735C47.2552 200.016 46.773 200.438 46.3712 201.001C45.9694 201.563 45.7284 202.307 45.648 203.231ZM69.7683 182.619H77.5428L86.2817 207.028H87.0049L95.7437 182.619H103.337L92.5495 212.271H80.1344L69.7683 182.619ZM105.864 175.146C105.864 174.222 106.245 173.298 107.009 172.374C107.812 171.409 109.018 170.927 110.625 170.927C112.192 170.927 113.377 171.369 114.18 172.253C114.984 173.097 115.386 174.021 115.386 175.025C115.386 175.99 115.004 176.954 114.241 177.918C113.518 178.883 112.312 179.365 110.625 179.365C109.018 179.365 107.812 178.903 107.009 177.979C106.245 177.054 105.864 176.11 105.864 175.146ZM106.768 212.271V182.619H114.482V212.271H106.768ZM121.204 212.271V169.119H128.918V212.271H121.204ZM134.677 175.146C134.677 174.222 135.058 173.298 135.822 172.374C136.625 171.409 137.831 170.927 139.438 170.927C141.005 170.927 142.19 171.369 142.994 172.253C143.797 173.097 144.199 174.021 144.199 175.025C144.199 175.99 143.817 176.954 143.054 177.918C142.331 178.883 141.125 179.365 139.438 179.365C137.831 179.365 136.625 178.903 135.822 177.979C135.058 177.054 134.677 176.11 134.677 175.146ZM135.581 212.271V182.619H143.295V212.271H135.581ZM147.787 197.445C147.787 192.664 149.133 188.967 151.825 186.356C154.557 183.704 158.535 182.378 163.758 182.378C168.981 182.378 172.939 183.704 175.631 186.356C178.363 189.008 179.729 192.704 179.729 197.445C179.729 200.137 179.307 202.447 178.463 204.376C177.66 206.304 176.535 207.871 175.088 209.077C173.642 210.282 171.954 211.166 170.026 211.729C168.097 212.291 166.008 212.572 163.758 212.572C161.548 212.572 159.459 212.291 157.49 211.729C155.561 211.166 153.874 210.282 152.427 209.077C150.981 207.871 149.836 206.304 148.992 204.376C148.189 202.447 147.787 200.137 147.787 197.445ZM163.758 206.244C166.289 206.244 168.338 205.621 169.905 204.376C171.472 203.13 172.256 200.82 172.256 197.445C172.256 194.07 171.472 191.76 169.905 190.514C168.338 189.269 166.289 188.646 163.758 188.646C162.512 188.646 161.367 188.787 160.323 189.068C159.278 189.349 158.374 189.831 157.61 190.514C156.887 191.197 156.305 192.101 155.863 193.226C155.461 194.351 155.26 195.758 155.26 197.445C155.26 199.133 155.461 200.539 155.863 201.664C156.305 202.789 156.887 203.693 157.61 204.376C158.374 205.059 159.278 205.541 160.323 205.822C161.367 206.104 162.512 206.244 163.758 206.244ZM184.228 212.271V182.619H191.762V190.575C192.244 189.249 192.887 188.083 193.69 187.079C194.494 186.034 195.378 185.171 196.342 184.487C197.306 183.804 198.291 183.302 199.295 182.981C200.34 182.619 201.344 182.418 202.308 182.378C204.719 182.338 206.668 182.679 208.154 183.403C209.641 184.126 210.786 185.11 211.59 186.356C212.393 187.561 212.936 188.967 213.217 190.575C213.498 192.141 213.639 193.749 213.639 195.396V212.271H205.924V195.938C205.924 193.688 205.422 191.941 204.418 190.695C203.413 189.45 201.806 188.827 199.596 188.827C197.025 188.827 195.096 189.57 193.811 191.057C192.565 192.503 191.942 194.492 191.942 197.023V212.271H184.228Z" fill="#834BE6"/>
</g>
<defs>
<linearGradient id="paint0_linear_216_38" x1="39.3642" y1="83.9474" x2="178.531" y2="83.9474" gradientUnits="userSpaceOnUse">
<stop stop-color="#8232FF"/>
<stop offset="1" stop-color="#6FFFB0"/>
</linearGradient>
<clipPath id="clip0_216_38">
<rect width="217" height="249" fill="white"/>
</clipPath>
</defs>
</svg>
