<svg width="655" height="333" viewBox="0 0 655 333" fill="none" xmlns="http://www.w3.org/2000/svg">
<mask id="mask0_0_4418" style="mask-type:alpha" maskUnits="userSpaceOnUse" x="537" y="40" width="105" height="106">
<path fill-rule="evenodd" clip-rule="evenodd" d="M537.767 40.8154H642V145.257H537.767V40.8154Z" fill="white"/>
</mask>
<g mask="url(#mask0_0_4418)">
<path fill-rule="evenodd" clip-rule="evenodd" d="M600.086 112.864L600.078 112.868C589.068 118.514 575.603 114.304 569.722 103.457C564.318 92.3634 568.707 78.9257 579.68 73.2085L579.688 73.2043C590.699 67.5586 604.164 71.768 610.044 82.6153C615.449 93.7089 611.06 107.147 600.086 112.864ZM633.628 64.639C631.935 62.0108 630.037 59.5783 627.965 57.3537L620.975 62.1104L615.835 57.6461L619.583 50.0988C616.862 48.2109 613.977 46.595 610.973 45.2643L606.412 52.3964L599.934 50.3187L600.42 41.8741C597.521 41.2723 594.567 40.9161 591.589 40.8154L590.006 49.42L583.226 49.9523L580.391 41.6567C577.26 42.2395 574.149 43.1172 571.096 44.3042L572.937 52.7351L569.963 54.2721L569.936 54.2861L566.963 55.823L561.179 49.4298C558.444 51.2346 555.926 53.266 553.637 55.485L558.734 62.6112L554.369 67.8402L546.458 64.1425C544.813 66.6325 543.389 69.252 542.197 71.9686L549.341 76.4686L547.273 82.9639L538.831 82.5526C538.17 85.7776 537.811 89.0703 537.767 92.3876L546.074 93.7036L546.72 100.491L538.801 103.44C539.407 106.422 540.282 109.383 541.436 112.291L549.377 110.476L552.219 116L546.139 121.433C547.832 124.061 549.73 126.494 551.802 128.719L558.791 123.962L563.932 128.426L560.184 135.973C562.905 137.861 565.789 139.477 568.793 140.808L573.355 133.676L579.833 135.754L579.346 144.198C582.245 144.8 585.199 145.156 588.177 145.257L589.76 136.652L596.541 136.12L599.376 144.416C602.507 143.833 605.618 142.955 608.671 141.768L606.83 133.337L609.803 131.8L609.83 131.786L612.804 130.249L618.587 136.642C621.323 134.838 623.84 132.806 626.13 130.587L621.033 123.461L625.398 118.232L633.308 121.93C634.954 119.44 636.378 116.821 637.57 114.104L630.426 109.604L632.494 103.109L640.935 103.52C641.596 100.295 641.956 97.0019 642 93.6847L633.693 92.3686L633.047 85.5812L640.966 82.6322C640.36 79.6498 639.484 76.6888 638.331 73.7815L630.389 75.5965L627.548 70.0718L633.628 64.639Z" fill="#6FFFB0"/>
</g>
<mask id="mask1_0_4418" style="mask-type:alpha" maskUnits="userSpaceOnUse" x="83" y="210" width="102" height="102">
<path fill-rule="evenodd" clip-rule="evenodd" d="M83 210H185V312H83V210Z" fill="white"/>
</mask>
<g mask="url(#mask1_0_4418)">
<path fill-rule="evenodd" clip-rule="evenodd" d="M143.984 280.364L143.976 280.368C133.202 285.882 120.025 281.771 114.271 271.177C108.983 260.343 113.277 247.219 124.016 241.636L124.024 241.632C134.798 236.118 147.975 240.229 153.729 250.823C159.017 261.657 154.723 274.781 143.984 280.364ZM176.807 233.267C175.15 230.7 173.293 228.324 171.265 226.152L164.426 230.797L159.395 226.437L163.063 219.066C160.4 217.223 157.578 215.645 154.638 214.345L150.174 221.31L143.835 219.281L144.311 211.034C141.474 210.446 138.583 210.098 135.669 210L134.12 218.403L127.485 218.923L124.711 210.822C121.647 211.391 118.603 212.248 115.615 213.407L117.417 221.641L114.507 223.142L114.48 223.156L111.57 224.657L105.911 218.413C103.234 220.176 100.77 222.16 98.5305 224.327L103.518 231.286L99.2462 236.393L91.5054 232.782C89.8956 235.214 88.5021 237.772 87.3352 240.425L94.3267 244.82L92.3023 251.163L84.042 250.762C83.395 253.911 83.0431 257.127 83 260.367L91.1289 261.652L91.7611 268.281L84.0118 271.161C84.605 274.073 85.4618 276.965 86.5911 279.805L94.3619 278.032L97.1428 283.427L91.1926 288.733C92.8493 291.3 94.707 293.676 96.7348 295.848L103.574 291.203L108.605 295.563L104.937 302.934C107.599 304.777 110.422 306.355 113.362 307.655L117.826 300.69L124.165 302.719L123.688 310.966C126.525 311.554 129.416 311.902 132.33 312L133.88 303.597L140.515 303.077L143.289 311.178C146.353 310.609 149.397 309.752 152.385 308.593L150.583 300.359L153.493 298.858L153.519 298.844L156.43 297.343L162.089 303.587C164.766 301.824 167.229 299.84 169.47 297.673L164.482 290.714L168.753 285.607L176.494 289.218C178.104 286.786 179.498 284.229 180.664 281.575L173.673 277.18L175.698 270.837L183.958 271.238C184.605 268.089 184.957 264.873 185 261.633L176.871 260.348L176.239 253.719L183.988 250.839C183.395 247.927 182.538 245.035 181.409 242.195L173.638 243.968L170.857 238.573L176.807 233.267Z" fill="#6FFFB0"/>
</g>
<path fill-rule="evenodd" clip-rule="evenodd" d="M615.329 185.222C612.607 184.357 611.187 182.937 610.322 180.216C609.455 182.937 608.037 184.357 605.314 185.222C608.036 186.089 609.455 187.508 610.322 190.23C611.187 187.508 612.607 186.089 615.329 185.222ZM610.322 176.948C611.217 176.948 611.984 177.56 612.185 178.435C612.921 181.611 613.933 182.623 617.109 183.359C617.984 183.561 618.596 184.327 618.596 185.222C618.596 186.117 617.984 186.885 617.109 187.088C613.933 187.823 612.921 188.834 612.185 192.011C611.984 192.885 611.217 193.497 610.322 193.497C609.427 193.497 608.66 192.885 608.457 192.011C607.723 188.835 606.71 187.823 603.533 187.088C602.659 186.885 602.048 186.117 602.048 185.222C602.048 184.327 602.659 183.561 603.533 183.359C606.71 182.623 607.723 181.611 608.456 178.435C608.66 177.56 609.427 176.948 610.322 176.948Z" fill="#F36A4E"/>
<path fill-rule="evenodd" clip-rule="evenodd" d="M37.3295 224.222C34.6067 223.357 33.1871 221.937 32.3219 219.216C31.4555 221.937 30.0371 223.357 27.3143 224.222C30.0359 225.089 31.4555 226.508 32.3219 229.23C33.1871 226.508 34.6067 225.089 37.3295 224.222ZM32.3219 215.948C33.2171 215.948 33.9839 216.56 34.1855 217.435C34.9211 220.611 35.9327 221.623 39.1091 222.359C39.9839 222.561 40.5959 223.327 40.5959 224.222C40.5959 225.117 39.9839 225.885 39.1091 226.088C35.9327 226.823 34.9211 227.834 34.1855 231.011C33.9839 231.885 33.2171 232.497 32.3219 232.497C31.4267 232.497 30.6599 231.885 30.4571 231.011C29.7227 227.835 28.7099 226.823 25.5335 226.088C24.6587 225.885 24.0479 225.117 24.0479 224.222C24.0479 223.327 24.6587 222.561 25.5335 222.359C28.7099 221.623 29.7227 220.611 30.4559 217.435C30.6599 216.56 31.4267 215.948 32.3219 215.948Z" fill="#F36A4E"/>
<path fill-rule="evenodd" clip-rule="evenodd" d="M583.894 170.521C585.894 170.521 587.521 168.894 587.521 166.893C587.521 164.894 585.894 163.267 583.894 163.267C581.894 163.267 580.268 164.894 580.268 166.893C580.268 168.894 581.894 170.521 583.894 170.521ZM583.894 161C587.144 161 589.788 163.644 589.788 166.893C589.788 170.144 587.144 172.788 583.894 172.788C580.645 172.788 578 170.144 578 166.893C578 163.644 580.645 161 583.894 161Z" fill="#EE9C40"/>
<path fill-rule="evenodd" clip-rule="evenodd" d="M5.8944 209.521C7.8936 209.521 9.5208 207.894 9.5208 205.893C9.5208 203.894 7.8936 202.267 5.8944 202.267C3.894 202.267 2.268 203.894 2.268 205.893C2.268 207.894 3.894 209.521 5.8944 209.521ZM5.8944 200C9.144 200 11.7876 202.644 11.7876 205.893C11.7876 209.144 9.144 211.788 5.8944 211.788C2.6448 211.788 0 209.144 0 205.893C0 202.644 2.6448 200 5.8944 200Z" fill="#EE9C40"/>
<path fill-rule="evenodd" clip-rule="evenodd" d="M640.503 238.216C640.316 234.728 642.986 231.92 647.049 231.703C651.111 231.485 654.066 233.991 654.253 237.479C654.437 240.916 651.776 243.88 647.713 244.099C643.651 244.316 640.688 241.654 640.503 238.216ZM638.7 207.497L652.761 206.743L651.625 229.367L642.249 229.87L638.7 207.497Z" fill="#9060EB"/>
<path fill-rule="evenodd" clip-rule="evenodd" d="M626.474 208.921C630.536 208.702 633.499 211.365 633.682 214.802C633.871 218.292 631.201 221.098 627.139 221.317C623.075 221.534 620.121 219.028 619.934 215.54C619.749 212.102 622.411 209.139 626.474 208.921ZM622.562 223.651L631.937 223.148L635.487 245.522L621.425 246.276L622.562 223.651Z" fill="#9060EB"/>
<path fill-rule="evenodd" clip-rule="evenodd" d="M580.583 67.221C566.697 72.2484 559.573 87.9192 564.701 102.154C569.829 116.389 585.298 123.879 599.184 118.852C613.07 113.825 620.194 98.1536 615.065 83.9188C609.937 69.684 594.468 62.1936 580.583 67.221ZM600.298 121.943C584.712 127.586 567.36 119.21 561.618 103.27C555.875 87.3314 563.883 69.7728 579.469 64.1299C595.055 58.4867 612.407 66.8633 618.149 82.8026C623.892 98.7416 615.883 116.3 600.298 121.943Z" fill="white"/>
<path fill-rule="evenodd" clip-rule="evenodd" d="M578.52 61.4973C561.173 67.778 552.157 87.0363 558.422 104.427C564.688 121.818 583.898 130.856 601.246 124.575C618.593 118.294 627.609 99.0363 621.344 81.6456C615.079 64.2549 595.868 55.2166 578.52 61.4973ZM601.413 125.039C583.81 131.411 564.317 122.24 557.96 104.594C551.602 86.9479 560.751 67.4066 578.354 61.0337C595.956 54.6604 615.449 63.8316 621.807 81.478C628.164 99.124 619.015 118.665 601.413 125.039Z" fill="white"/>
<mask id="mask2_0_4418" style="mask-type:alpha" maskUnits="userSpaceOnUse" x="324" y="25" width="225" height="225">
<path fill-rule="evenodd" clip-rule="evenodd" d="M324 25H548.455V250H324V25Z" fill="white"/>
</mask>
<g mask="url(#mask2_0_4418)">
<path fill-rule="evenodd" clip-rule="evenodd" d="M450.884 193.206L450.862 193.212C419.955 201.27 388.359 183.107 379.588 152.464C372.154 121.467 390.717 90.0526 421.571 81.7938L421.593 81.7882C452.501 73.73 484.097 91.8929 492.868 122.536C500.301 153.533 481.738 184.947 450.884 193.206ZM541.387 98.2661C539.05 91.95 536.193 85.9499 532.872 80.3049L515.968 87.0352L507.24 75.248L518.63 61.137C513.789 55.8964 508.478 51.1516 502.783 46.95L489.877 59.8077L477.227 52.4115L482.179 34.8897C476.366 32.2692 470.322 30.1393 464.11 28.5357L456.779 45.8808L442.279 43.8291L440.18 25.068C433.328 24.8285 426.381 25.2188 419.411 26.2865L419.359 44.8677L412.393 46.7084L412.33 46.7248L405.364 48.5651L396.183 32.4231C389.594 34.9377 383.357 38.0305 377.513 41.6241L384.91 58.9857L373.303 67.935L358.396 56.4645C353.779 60.9291 349.568 65.7686 345.797 70.9212L358.721 83.7203L351.351 96.4055L333.799 91.5945C330.91 98.0638 328.621 104.817 326.986 111.768L343.834 118.419L342.034 132.988L324.017 135.483C323.903 142.035 324.366 148.668 325.439 155.318L342.975 155.217L346.377 168.158L331.069 176.734C333.405 183.05 336.263 189.05 339.583 194.695L356.487 187.965L365.215 199.752L353.825 213.863C358.666 219.103 363.977 223.849 369.672 228.05L382.579 215.192L395.228 222.588L390.276 240.11C396.089 242.731 402.133 244.861 408.346 246.465L415.676 229.119L430.176 231.171L432.275 249.932C439.127 250.172 446.074 249.781 453.044 248.714L453.096 230.132L460.062 228.291L460.125 228.275L467.091 226.435L476.272 242.577C482.861 240.062 489.098 236.969 494.942 233.376L487.545 216.014L499.153 207.065L514.059 218.536C518.676 214.071 522.887 209.231 526.658 204.079L513.734 191.28L521.105 178.595L538.656 183.405C541.546 176.936 543.834 170.183 545.47 163.232L528.621 156.581L530.421 142.012L548.438 139.517C548.552 132.964 548.089 126.332 547.017 119.682L529.48 119.783L526.078 106.842L541.387 98.2661Z" fill="#6FFFB0"/>
</g>
<path fill-rule="evenodd" clip-rule="evenodd" d="M216.567 60.9215C213.844 60.0563 212.424 58.6367 211.559 55.9151C210.693 58.6367 209.274 60.0563 206.552 60.9215C209.273 61.7879 210.693 63.2075 211.559 65.9291C212.424 63.2075 213.844 61.7879 216.567 60.9215ZM211.559 52.6475C212.454 52.6475 213.221 53.2595 213.423 54.1343C214.158 57.3107 215.17 58.3223 218.346 59.0579C219.221 59.2607 219.833 60.0263 219.833 60.9215C219.833 61.8167 219.221 62.5847 218.346 62.7875C215.17 63.5219 214.158 64.5335 213.423 67.7099C213.221 68.5847 212.454 69.1967 211.559 69.1967C210.664 69.1967 209.897 68.5847 209.694 67.7099C208.96 64.5347 207.947 63.5219 204.771 62.7875C203.896 62.5847 203.285 61.8167 203.285 60.9215C203.285 60.0263 203.896 59.2607 204.771 59.0579C207.947 58.3223 208.96 57.3107 209.693 54.1343C209.897 53.2595 210.664 52.6475 211.559 52.6475Z" fill="#F36A4E"/>
<path fill-rule="evenodd" clip-rule="evenodd" d="M185.132 46.2205C187.131 46.2205 188.758 44.5933 188.758 42.5929C188.758 40.5937 187.131 38.9665 185.132 38.9665C183.131 38.9665 181.505 40.5937 181.505 42.5929C181.505 44.5933 183.131 46.2205 185.132 46.2205ZM185.132 36.6997C188.381 36.6997 191.025 39.3433 191.025 42.5929C191.025 45.8437 188.381 48.4873 185.132 48.4873C181.882 48.4873 179.237 45.8437 179.237 42.5929C179.237 39.3433 181.882 36.6997 185.132 36.6997Z" fill="#EE9C40"/>
<path fill-rule="evenodd" clip-rule="evenodd" d="M181.505 78.731C182.13 78.731 182.638 79.2398 182.638 79.865V82.8674C182.638 83.4926 182.13 84.0014 181.505 84.0014C180.879 84.0014 180.371 83.4926 180.371 82.8674V79.865C180.371 79.2398 180.879 78.731 181.505 78.731Z" fill="#1A110F"/>
<path fill-rule="evenodd" clip-rule="evenodd" d="M181.505 70.71C182.13 70.71 182.638 71.2164 182.638 71.8428V74.8452C182.638 75.4716 182.13 75.9792 181.505 75.9792C180.879 75.9792 180.371 75.4716 180.371 74.8452V71.8428C180.371 71.2164 180.879 70.71 181.505 70.71Z" fill="#1A110F"/>
<path fill-rule="evenodd" clip-rule="evenodd" d="M183.874 76.4795H186.877C187.502 76.4795 188.011 76.9871 188.011 77.6135C188.011 78.2399 187.502 78.7463 186.877 78.7463H183.874C183.248 78.7463 182.74 78.2399 182.74 77.6135C182.74 76.9871 183.248 76.4795 183.874 76.4795Z" fill="#1A110F"/>
<path fill-rule="evenodd" clip-rule="evenodd" d="M176.134 76.4795H179.136C179.762 76.4795 180.27 76.9871 180.27 77.6135C180.27 78.2399 179.762 78.7463 179.136 78.7463H176.134C175.508 78.7463 175 78.2399 175 77.6135C175 76.9871 175.508 76.4795 176.134 76.4795Z" fill="#1A110F"/>
<path fill-rule="evenodd" clip-rule="evenodd" d="M211.712 26.022C212.338 26.022 212.846 26.5296 212.846 27.156V30.1584C212.846 30.7848 212.338 31.2924 211.712 31.2924C211.086 31.2924 210.578 30.7848 210.578 30.1584V27.156C210.578 26.5296 211.086 26.022 211.712 26.022Z" fill="#1A110F"/>
<path fill-rule="evenodd" clip-rule="evenodd" d="M211.712 18C212.338 18 212.846 18.5076 212.846 19.134V22.1364C212.846 22.7628 212.338 23.2704 211.712 23.2704C211.086 23.2704 210.578 22.7628 210.578 22.1364V19.134C210.578 18.5076 211.086 18 211.712 18Z" fill="#1A110F"/>
<path fill-rule="evenodd" clip-rule="evenodd" d="M214.08 23.771H217.083C217.709 23.771 218.217 24.2786 218.217 24.9038C218.217 25.5302 217.709 26.0378 217.083 26.0378H214.08C213.455 26.0378 212.946 25.5302 212.946 24.9038C212.946 24.2786 213.455 23.771 214.08 23.771Z" fill="#1A110F"/>
<path fill-rule="evenodd" clip-rule="evenodd" d="M206.34 23.771H209.343C209.968 23.771 210.477 24.2786 210.477 24.9038C210.477 25.5302 209.968 26.0378 209.343 26.0378H206.34C205.715 26.0378 205.208 25.5302 205.208 24.9038C205.208 24.2786 205.715 23.771 206.34 23.771Z" fill="#1A110F"/>
<path fill-rule="evenodd" clip-rule="evenodd" d="M112.741 96.916C112.553 93.4276 115.223 90.6196 119.287 90.4024C123.349 90.1852 126.303 92.6908 126.49 96.1792C126.674 99.616 124.013 102.58 119.95 102.798C115.888 103.016 112.925 100.354 112.741 96.916ZM110.937 66.1972L124.999 65.4424L123.862 88.0672L114.487 88.57L110.937 66.1972Z" fill="#9060EB"/>
<path fill-rule="evenodd" clip-rule="evenodd" d="M98.7112 67.6204C102.773 67.402 105.736 70.0648 105.92 73.5016C106.108 76.9912 103.438 79.798 99.376 80.0164C95.3128 80.2336 92.3584 77.728 92.1712 74.2396C91.9864 70.8016 94.648 67.8388 98.7112 67.6204ZM94.7992 82.3504L104.175 81.8476L107.724 104.222L93.6628 104.975L94.7992 82.3504Z" fill="#9060EB"/>
<path fill-rule="evenodd" clip-rule="evenodd" d="M449.884 322.869C449.282 324.774 448.292 325.767 446.394 326.373C448.291 326.978 449.282 327.972 449.884 329.876C450.488 327.972 451.477 326.978 453.374 326.373C451.477 325.767 450.488 324.774 449.884 322.869ZM444.118 326.373C444.118 325.746 444.544 325.211 445.153 325.069C447.366 324.553 448.072 323.846 448.585 321.623C448.725 321.011 449.26 320.583 449.884 320.583C450.508 320.583 451.043 321.011 451.184 321.623C451.696 323.846 452.401 324.553 454.614 325.069C455.225 325.211 455.651 325.746 455.651 326.373C455.651 326.999 455.225 327.536 454.614 327.678C452.402 328.192 451.696 328.9 451.184 331.123C451.043 331.735 450.508 332.162 449.884 332.162C449.26 332.162 448.725 331.735 448.585 331.123C448.072 328.9 447.366 328.192 445.154 327.678C444.544 327.536 444.118 326.999 444.118 326.373Z" fill="#F36A4E"/>
<path fill-rule="evenodd" clip-rule="evenodd" d="M482.327 310.098C482.327 309.66 482.681 309.305 483.117 309.305H485.21C485.646 309.305 486 309.66 486 310.098C486 310.536 485.646 310.891 485.21 310.891H483.117C482.681 310.891 482.327 310.536 482.327 310.098Z" fill="#1A110F"/>
<path fill-rule="evenodd" clip-rule="evenodd" d="M476.735 310.098C476.735 309.66 477.089 309.305 477.527 309.305H479.619C480.055 309.305 480.409 309.66 480.409 310.098C480.409 310.536 480.055 310.891 479.619 310.891H477.527C477.089 310.891 476.735 310.536 476.735 310.098Z" fill="#1A110F"/>
<path fill-rule="evenodd" clip-rule="evenodd" d="M480.758 308.44V306.339C480.758 305.901 481.111 305.546 481.547 305.546C481.985 305.546 482.338 305.901 482.338 306.339V308.44C482.338 308.879 481.985 309.234 481.547 309.234C481.111 309.234 480.758 308.879 480.758 308.44Z" fill="#1A110F"/>
<path fill-rule="evenodd" clip-rule="evenodd" d="M480.758 313.856V311.755C480.758 311.317 481.111 310.962 481.547 310.962C481.985 310.962 482.338 311.317 482.338 311.755V313.856C482.338 314.295 481.985 314.65 481.547 314.65C481.111 314.65 480.758 314.295 480.758 313.856Z" fill="#1A110F"/>
<path fill-rule="evenodd" clip-rule="evenodd" d="M435.59 294.96C435.59 294.523 435.944 294.167 436.381 294.167H438.473C438.91 294.167 439.264 294.523 439.264 294.96C439.264 295.398 438.91 295.755 438.473 295.755H436.381C435.944 295.755 435.59 295.398 435.59 294.96Z" fill="#1A110F"/>
<path fill-rule="evenodd" clip-rule="evenodd" d="M430 294.96C430 294.523 430.354 294.167 430.79 294.167H432.882C433.318 294.167 433.672 294.523 433.672 294.96C433.672 295.398 433.318 295.755 432.882 295.755H430.79C430.354 295.755 430 295.398 430 294.96Z" fill="#1A110F"/>
<path fill-rule="evenodd" clip-rule="evenodd" d="M434.021 293.303V291.203C434.021 290.763 434.375 290.408 434.812 290.408C435.247 290.408 435.601 290.763 435.601 291.203V293.303C435.601 293.741 435.247 294.096 434.812 294.096C434.375 294.096 434.021 293.741 434.021 293.303Z" fill="#1A110F"/>
<path fill-rule="evenodd" clip-rule="evenodd" d="M434.021 298.72V296.619C434.021 296.18 434.375 295.825 434.812 295.825C435.247 295.825 435.601 296.18 435.601 296.619V298.72C435.601 299.157 435.247 299.512 434.812 299.512C434.375 299.512 434.021 299.157 434.021 298.72Z" fill="#1A110F"/>
<path fill-rule="evenodd" clip-rule="evenodd" d="M427.345 68.4346C389.357 73.3446 362.435 108.322 367.333 146.405C372.231 184.487 407.122 211.475 445.11 206.565C483.099 201.656 510.02 166.678 505.123 128.596C500.225 90.5126 465.334 63.5247 427.345 68.4346ZM445.372 208.597C406.266 213.651 370.349 185.869 365.307 146.667C360.265 107.464 387.978 71.4577 427.084 66.4032C466.19 61.3488 502.107 89.1307 507.149 128.334C512.191 167.536 484.478 203.542 445.372 208.597Z" fill="#EFF9F8"/>
<path fill-rule="evenodd" clip-rule="evenodd" d="M427.933 73.0055C392.458 77.5904 367.319 110.253 371.893 145.815C376.466 181.377 409.048 206.58 444.522 201.995C479.997 197.41 505.136 164.747 500.563 129.185C495.989 93.6227 463.407 68.4203 427.933 73.0055ZM444.609 202.672C408.762 207.305 375.839 181.838 371.217 145.902C366.595 109.967 391.999 76.9617 427.846 72.3284C463.693 67.6951 496.616 93.1615 501.238 129.098C505.86 165.033 480.456 198.038 444.609 202.672Z" fill="#EFF9F8"/>
<path fill-rule="evenodd" clip-rule="evenodd" d="M426.243 59.8676C383.543 65.3867 353.282 104.703 358.787 147.51C364.293 190.316 403.511 220.651 446.212 215.132C488.913 209.613 519.174 170.298 513.668 127.491C508.163 84.6843 468.944 54.3486 426.243 59.8676ZM446.299 215.809C403.226 221.376 363.665 190.777 358.112 147.597C352.558 104.417 383.083 64.7576 426.156 59.1905C469.229 53.6234 508.79 84.2239 514.344 127.404C519.897 170.584 489.372 210.242 446.299 215.809Z" fill="#EFF9F8"/>
<path fill-rule="evenodd" clip-rule="evenodd" d="M324.31 142.691L303.702 209.582L303.161 211.351C301.72 215.996 297.891 219.757 292.796 220.896C280.391 223.664 267.689 225.04 255.139 224.999C242.579 224.978 230.209 223.567 218.267 221.222C212.63 220.12 208.582 214.96 209.034 209.107C209.52 202.802 215.038 198.082 221.362 198.568L221.431 198.572C232.381 199.414 243.198 199.34 253.743 198.114C260.953 197.282 268.028 195.908 274.937 194.017C274.937 194.017 284.585 137.826 293.134 121.216C301.684 104.607 329.733 113.883 324.31 142.691Z" fill="#7E4D44"/>
<path fill-rule="evenodd" clip-rule="evenodd" d="M186.406 195C186.406 195 179.462 195.157 175.502 197.965C171.541 200.776 160.915 201.96 162.09 205.318C163.079 208.149 179.07 201.251 184.824 201.293C190.886 201.337 186.406 195 186.406 195Z" fill="#E46E53"/>
<path fill-rule="evenodd" clip-rule="evenodd" d="M186 194C186 194 177.185 194.401 172.529 195.534C167.874 196.668 159.059 194.545 158.098 196.227C157.138 197.91 163.382 201.299 169.433 200.979C175.483 200.658 186 194 186 194Z" fill="#EBA682"/>
<path fill-rule="evenodd" clip-rule="evenodd" d="M218.546 216.829L218.138 216.968C216.846 216.972 214.504 217.209 213.848 217.342C204.926 219.146 192.332 219.955 186.398 217.267C180.688 214.676 171.366 212.252 175.971 209.787C180.572 207.318 193.907 211.254 194.138 208.719C194.364 206.194 182.902 200.936 170.684 203.602C158.468 206.274 154.789 199.182 160.901 199.425C167.011 199.664 174.232 195.473 183.466 194.276C197.663 192.432 212.665 200.439 212.665 200.439C212.665 200.439 213.275 200.617 214.347 200.812C222.099 202.233 224.737 211.903 218.617 216.774L218.546 216.829Z" fill="#EBA682"/>
<path fill-rule="evenodd" clip-rule="evenodd" d="M286.318 102.014C285.841 103.418 285.422 106.647 285.192 110.736C287.299 110.811 289.41 110.879 291.519 110.923C299.023 111.089 306.51 110.984 314 110.639C313.314 102.936 312.024 95.9957 310.049 90.8829C302.122 70.3925 283.106 63.5025 277 66.7776C277 66.7776 291.882 85.658 286.318 102.014Z" fill="#470B09"/>
<path fill-rule="evenodd" clip-rule="evenodd" d="M410.186 319.527C363.22 330.877 321.199 330.771 284 319.527C284.636 311.843 285.607 302.919 286.72 293.392C286.967 291.303 287.215 289.178 287.462 287.036C287.798 284.291 288.116 281.511 288.451 278.696C288.698 276.589 288.963 274.464 289.211 272.339C289.228 272.091 289.264 271.861 289.281 271.613L289.599 268.904C289.794 267.24 289.988 265.575 290.182 263.893C290.394 261.963 290.606 260.015 290.818 258.085C290.836 257.891 290.871 257.714 290.889 257.519C290.959 256.722 291.065 255.943 291.136 255.146C291.666 250.241 292.143 245.39 292.567 240.662C292.62 240.06 292.673 239.458 292.726 238.874C292.761 238.537 292.796 238.219 292.814 237.9C292.867 237.298 292.92 236.713 292.955 236.111C293.98 223.451 294.492 211.942 293.909 203.106C293.838 202.168 293.768 201.265 293.679 200.397C293.556 199.211 293.415 198.095 293.256 197.033C293.167 196.449 293.079 195.847 292.991 195.245C290.182 176.175 290.482 159.814 290.818 141.434C291.083 127.304 292.054 122.701 293.856 116.964C296.47 108.606 313.127 87.0217 327.558 84.5959C338.049 82.843 348.824 84.9855 357.85 90.6516C369.455 97.9113 384.804 109.668 391.551 124.117C394.183 129.766 395.543 136.299 396.126 143.453C397.221 156.927 395.561 172.58 394.572 188.658V188.675C393.795 201.477 393.441 214.527 395.225 226.939C395.914 231.632 396.886 236.82 398.052 242.291C398.246 243.247 398.458 244.186 398.652 245.142C398.811 245.868 398.97 246.594 399.147 247.337C399.429 248.665 399.747 250.011 400.065 251.375C400.683 254.084 401.319 256.828 401.99 259.608C402.503 261.662 402.997 263.734 403.509 265.805C404.181 268.515 404.852 271.224 405.505 273.933C406.035 276.004 406.548 278.076 407.042 280.148C411.264 297.235 411.741 310.497 410.186 319.527Z" fill="#9060EB"/>
<path fill-rule="evenodd" clip-rule="evenodd" d="M349.955 225.169C349.796 225.768 349.18 226.121 348.581 225.962C348.229 225.856 320.331 218.035 294.229 203.695C294.159 202.762 294.088 201.863 294 201C320.207 215.657 348.845 223.69 349.18 223.778C349.778 223.954 350.131 224.57 349.955 225.169Z" fill="#563933"/>
<path fill-rule="evenodd" clip-rule="evenodd" d="M299.711 125.982L299.921 126C300.874 125.963 323.347 124.921 331.901 108.287C332.126 107.853 331.954 107.321 331.518 107.097C331.081 106.875 330.546 107.046 330.321 107.481C322.245 123.184 300.077 124.223 299.853 124.232C299.363 124.25 298.981 124.662 299.001 125.15C299.017 125.567 299.319 125.905 299.711 125.982Z" fill="#563933"/>
<path fill-rule="evenodd" clip-rule="evenodd" d="M357.67 159.075C357.518 158.347 356.801 157.877 356.067 158.028C355.329 158.18 354.854 158.892 355.006 159.62C355.127 160.181 366.426 215.146 355.621 230.619C350.376 231.209 311.851 235.492 293.234 237.289C293.186 237.879 293.14 238.405 293.092 238.997C293.064 239.316 293.028 239.682 293 240C312.737 238.111 356.028 233.291 356.523 233.237C356.887 233.193 357.224 233.005 357.447 232.713C369.557 216.933 358.159 161.428 357.67 159.075Z" fill="#563933"/>
<path fill-rule="evenodd" clip-rule="evenodd" d="M299.364 302C298.73 302 298.162 301.56 298.028 300.921C297.877 300.188 298.349 299.47 299.089 299.317C299.424 299.247 332.886 292.005 349.426 260.726C349.777 260.064 350.601 259.808 351.27 260.155C351.936 260.504 352.194 261.324 351.843 261.986C342.875 278.946 329.174 288.911 319.259 294.283C308.518 300.104 299.999 301.898 299.643 301.972L299.364 302Z" fill="#563933"/>
<path fill-rule="evenodd" clip-rule="evenodd" d="M295 80.0002C295 80.0002 296.022 81.3383 297.765 83.4761L298.063 83.8391L298.123 83.9162C299.371 85.4227 300.941 87.2799 302.746 89.3212C303.397 90.0595 304.08 90.8276 304.795 91.6098C305.437 92.313 306.101 93.032 306.784 93.7528C311.623 98.8895 317.381 104.359 322.889 108C334.993 100.529 342.646 92.3411 344 83.1411C344 83.1411 326.248 69.05 322.444 53L295 80.0002Z" fill="#EBA682"/>
<path fill-rule="evenodd" clip-rule="evenodd" d="M298 83.6038L298.29 83.971L298.348 84.0491C299.561 85.573 301.087 87.4518 302.841 89.5169C303.474 90.2638 304.138 91.0408 304.833 91.8321C305.458 92.5435 306.103 93.2708 306.767 94C308.826 86.8415 307.674 76.2448 307.717 76L298 83.6038Z" fill="#E88071"/>
<path fill-rule="evenodd" clip-rule="evenodd" d="M273.56 83.5053C274.01 84.7032 274.473 85.8533 274.937 86.945C277.976 94.0423 281.389 95.9562 285.487 94.5881C292.844 92.132 321.78 66.7304 331.68 51.2864C341.583 35.8495 327.599 15.9841 312.503 16C301.759 16.0142 283.653 25.8955 274.118 31.5876C269.493 34.345 266.501 39.2502 266.276 44.6729C266.069 49.6773 266.587 55.3924 267.579 61.1908L267.581 61.2014L267.578 61.2085C267.458 61.5594 264.572 70.2853 264.029 72.0539C263.594 73.4485 268.186 73.5531 270.333 73.5265C270.578 74.409 270.834 75.2968 271.1 76.1634L273.56 83.5053Z" fill="#EBA682"/>
<path fill-rule="evenodd" clip-rule="evenodd" d="M275 78.7893C275 78.7893 282.402 70.5499 289 78.3704L276.308 82L275 78.7893Z" fill="#FFFFFE"/>
<path fill-rule="evenodd" clip-rule="evenodd" d="M280.156 69.6552C280.903 71.3084 284.126 71.4573 287.354 69.9911C290.581 68.5248 292.592 65.9957 291.844 64.3442C291.098 62.6927 287.875 62.5421 284.647 64.0083C281.42 65.4746 279.409 68.0037 280.156 69.6552Z" fill="#E88071"/>
<path fill-rule="evenodd" clip-rule="evenodd" d="M271.019 58.6242C271.151 60.0027 271.92 61.0655 272.74 60.9969C273.556 60.9298 274.112 59.7574 273.981 58.3773C273.849 56.9988 273.078 55.936 272.26 56.003C271.442 56.0717 270.888 57.2441 271.019 58.6242Z" fill="#171818"/>
<path fill-rule="evenodd" clip-rule="evenodd" d="M279.436 50.5134C279.593 50.6214 279.729 50.7691 279.83 50.9492C280.184 51.5813 279.967 52.3881 279.348 52.75C277.175 54.016 272.08 55.3252 268.346 51.2193C267.859 50.6845 267.89 49.8489 268.414 49.3536C268.937 48.8566 269.755 48.8872 270.242 49.4221C273.532 53.04 277.882 50.5638 278.064 50.4557C278.508 50.1982 279.039 50.2378 279.436 50.5134Z" fill="#DB3159"/>
<path fill-rule="evenodd" clip-rule="evenodd" d="M300.24 57.9716C300.681 57.8647 300.996 57.4767 300.973 57.029C300.64 50.7892 304.695 46.598 304.737 46.5563C305.105 46.1847 305.084 45.5991 304.691 45.2511C304.299 44.9012 303.682 44.9193 303.315 45.2909C303.123 45.4813 298.645 50.0714 299.023 57.1214C299.049 57.6326 299.507 58.0242 300.047 57.9988L300.24 57.9716Z" fill="#E88071"/>
<path fill-rule="evenodd" clip-rule="evenodd" d="M306.295 51.916C306.614 51.8451 306.88 51.6275 306.97 51.3277C307.1 50.8894 306.801 50.4397 306.302 50.3253C306.163 50.2931 302.859 49.5501 300.563 50.4236C300.09 50.6041 299.872 51.0892 300.077 51.505C300.283 51.9208 300.833 52.1126 301.308 51.9321C302.719 51.3938 305.05 51.7371 305.829 51.916H306.295Z" fill="#E88071"/>
<path fill-rule="evenodd" clip-rule="evenodd" d="M266.615 41.7677C272.615 45.7152 284.534 50.0457 293.572 48.1943C293.572 48.1943 298.175 35.8145 308.489 40.9537C318.804 46.0929 310.509 64.706 300.514 64.4702C300.514 64.4702 299.521 76.63 309.915 84.3388C334.858 91.5617 360 72.8918 360 72.8918C358.76 54.5465 351.624 38.0064 351.282 37.2226L351.271 37.196C344.472 15.6905 330.562 -13.5344 289.996 6.95675C269.79 17.1659 264.865 25.3801 264.168 31.6152C263.568 36.9849 264.616 40.4554 266.615 41.7677Z" fill="#470B09"/>
<path fill-rule="evenodd" clip-rule="evenodd" d="M336.384 112C357.973 105.656 376.896 94.306 387 81.5724C385.486 78.7756 379.273 75.328 371.779 68.1507C351.489 48.7222 342.413 17 342.413 17C342.413 17 336.839 56.7703 300.135 64.3448C300.135 64.3448 297.868 82.5638 311.899 89.1611C324.902 95.2796 334.449 97.8476 336.384 112Z" fill="#470B09"/>
<path fill-rule="evenodd" clip-rule="evenodd" d="M402.278 224.71C401.318 230.854 399.916 237.032 397.973 243.144C397 246.199 395.876 249.233 394.639 252.241C393.384 255.243 391.972 258.201 390.447 261.111L389.415 262.907C386.06 268.738 379.935 272 373.659 272C363.25 271.984 352.949 271.903 342.606 271.798C332.268 271.696 321.93 271.556 311.592 271.376C290.914 271.002 262.175 266.859 241.4 265.921C238.284 265.444 237.78 263.689 238.072 257.111C238.344 251.102 243.019 246.33 248.845 245.776L248.895 245.771C269.185 243.811 289.541 241.428 309.875 238.905C320.05 237.64 330.22 236.331 340.385 234.99C346.249 234.214 352.135 233.433 357.998 232.636L358.021 232.57C358.249 231.93 357.807 231.146 358.019 230.493C358.09 230.267 358.601 229.136 358.665 228.903C359.806 225.2 360.903 222.359 361.528 218.354C362.859 209.842 363.053 200.788 362.365 191.582C361.664 182.375 360.111 173.011 357.874 163.729C356.755 159.094 355.469 154.473 354.03 149.919C353.308 147.651 352.553 145.387 351.754 143.177C351.358 142.071 350.951 140.974 350.544 139.911L349.93 138.34L349.415 137.075L349.148 136.437C344.832 125.905 349.87 113.865 360.41 109.544C370.884 105.251 382.855 110.217 387.239 120.635L387.78 121.926L388.226 123.018L389.051 125.129C389.583 126.519 390.089 127.887 390.581 129.259C391.565 132.001 392.478 134.731 393.351 137.473C395.083 142.956 396.626 148.481 397.973 154.078C400.666 165.261 402.599 176.719 403.494 188.503C404.374 200.277 404.19 212.409 402.278 224.71Z" fill="#9060EB"/>
<path fill-rule="evenodd" clip-rule="evenodd" d="M349.397 133C348.713 133 348.131 132.476 348.065 131.778C348.022 131.308 347.081 120.212 354.091 112.957C358.383 108.516 364.659 106.541 372.751 107.09C373.488 107.14 374.047 107.785 373.997 108.528C373.947 109.273 373.295 109.819 372.57 109.785C365.303 109.284 359.74 110.987 356.021 114.827C349.873 121.175 350.723 131.425 350.732 131.527C350.798 132.269 350.257 132.926 349.521 132.995L349.397 133Z" fill="#563933"/>
<path fill-rule="evenodd" clip-rule="evenodd" d="M374.665 240.544C374.394 240.846 374.023 241 373.65 241C373.332 241 373.013 240.888 372.758 240.667C372.661 240.588 364.916 233.883 356 232.609C356.227 231.974 356.436 231.334 356.647 230.689C356.716 230.463 356.792 230.231 356.857 230C357.958 230.177 359.043 230.43 360.09 230.731C361.299 231.077 362.465 231.496 363.577 231.953C369.775 234.518 374.238 238.381 374.54 238.651C375.101 239.14 375.156 239.99 374.665 240.544Z" fill="#563933"/>
<path fill-rule="evenodd" clip-rule="evenodd" d="M360.395 233C359.966 233 359.541 232.821 359.268 232.484C358.814 231.923 358.952 231.136 359.571 230.728C364.211 227.675 373.122 227.03 373.5 227.004C374.264 226.948 374.936 227.468 374.996 228.162C375.054 228.854 374.48 229.457 373.713 229.511C373.627 229.516 365.211 230.127 361.214 232.757C360.967 232.921 360.68 233 360.395 233Z" fill="#563933"/>
<path fill-rule="evenodd" clip-rule="evenodd" d="M130 153L168.504 253L168.514 252.995V253H281V242.96H174.813L140.041 153H130Z" fill="#212F28"/>
<path fill-rule="evenodd" clip-rule="evenodd" d="M209.902 256.371C210.946 257.304 212.333 258.352 214.16 259.488C220.998 263.721 233.121 269.21 246.486 266.073C259.851 262.936 267 252.589 267 252.589C267 252.589 265.603 244.121 260.473 242.24C256.091 240.628 259.23 247.57 257.985 249.766C256.742 251.962 240.954 252.783 231.566 251.805C226.358 251.258 220.96 251.253 216.541 251.429C215.877 251.454 215.236 251.479 214.62 251.509C213.464 251.572 212.407 251.642 211.455 251.71C210.921 251.747 210.454 251.93 210.081 252.211C209.735 252.469 209.46 252.808 209.273 253.191C208.788 254.2 208.92 255.499 209.902 256.371Z" fill="#EBA682"/>
</svg>
