<svg width="576" height="279" viewBox="0 0 576 279" fill="none" xmlns="http://www.w3.org/2000/svg">
<path fill-rule="evenodd" clip-rule="evenodd" d="M482.395 277.095H108.307C107.212 277.094 106.228 276.653 105.508 275.934C104.791 275.213 104.35 274.226 104.349 273.127V54.3686C104.35 53.269 104.791 52.283 105.508 51.5616C106.228 50.8422 107.212 50.4012 108.307 50.4002H482.395C483.49 50.4012 484.474 50.8432 485.192 51.5616C485.911 52.283 486.352 53.269 486.353 54.3686V273.127C486.352 274.226 485.911 275.213 485.192 275.934C484.474 276.653 483.49 277.094 482.395 277.095V278.801C485.525 278.8 488.057 276.259 488.058 273.127V54.3686C488.057 51.2362 485.525 48.6958 482.395 48.6948H108.307C105.177 48.6958 102.645 51.2362 102.644 54.3686V273.127C102.645 276.259 105.177 278.8 108.307 278.801H482.395V277.948V277.095Z" fill="#FFF7F4"/>
<path fill-rule="evenodd" clip-rule="evenodd" d="M138.907 130.457H6.95721C3.49353 130.457 0.685547 127.649 0.685547 124.184V32.5104C0.685547 29.0468 3.49353 26.2388 6.95721 26.2388H138.907C142.371 26.2388 145.179 29.0468 145.179 32.5104V124.184C145.179 127.649 142.371 130.457 138.907 130.457Z" fill="#9060EB"/>
<path fill-rule="evenodd" clip-rule="evenodd" d="M19.668 72.5235H126.362V42.1924H19.668V72.5235Z" fill="#FFFEFB"/>
<path fill-rule="evenodd" clip-rule="evenodd" d="M19.668 112.4H126.362V82.0688H19.668V112.4Z" fill="#FFFEFB"/>
<path fill-rule="evenodd" clip-rule="evenodd" d="M58.3193 54.8564H110.252V53.9489H58.3193V54.8564Z" fill="#FFD6CF"/>
<path fill-rule="evenodd" clip-rule="evenodd" d="M58.3193 61.6753H91.9877V60.7677H58.3193V61.6753Z" fill="#FFD6CF"/>
<path fill-rule="evenodd" clip-rule="evenodd" d="M58.3193 93.2959H110.252V92.3883H58.3193V93.2959Z" fill="#FFD6CF"/>
<path fill-rule="evenodd" clip-rule="evenodd" d="M58.3193 100.115H91.9877V99.2072H58.3193V100.115Z" fill="#FFD6CF"/>
<path fill-rule="evenodd" clip-rule="evenodd" d="M49.5229 57.3589C49.5229 62.8837 45.0438 67.3627 39.519 67.3627C33.9952 67.3627 29.5161 62.8837 29.5161 57.3589C29.5161 51.834 33.9952 47.355 39.519 47.355C45.0438 47.355 49.5229 51.834 49.5229 57.3589Z" fill="#9060EB"/>
<path fill-rule="evenodd" clip-rule="evenodd" d="M34.5595 58.5565L38.3045 61.292C38.6789 61.5654 39.2042 61.4939 39.4914 61.1293L43.9469 55.4712C44.241 55.0968 44.1763 54.5538 43.8019 54.2598C43.4285 53.9648 42.8855 54.0295 42.5905 54.4039L38.6505 59.4082L35.5779 57.1628C35.1927 56.8825 34.6526 56.9658 34.3723 57.351C34.091 57.7352 34.1753 58.2752 34.5595 58.5565Z" fill="white"/>
<path fill-rule="evenodd" clip-rule="evenodd" d="M49.5229 97.2348C49.5229 102.76 45.0438 107.239 39.519 107.239C33.9952 107.239 29.5161 102.76 29.5161 97.2348C29.5161 91.71 33.9952 87.231 39.519 87.231C45.0438 87.231 49.5229 91.71 49.5229 97.2348Z" fill="#9060EB"/>
<path fill-rule="evenodd" clip-rule="evenodd" d="M34.5595 98.4325L38.3045 101.168C38.6789 101.441 39.2042 101.37 39.4914 101.005L43.9469 95.3472C44.241 94.9728 44.1763 94.4298 43.8019 94.1358C43.4285 93.8407 42.8855 93.9054 42.5905 94.2798L38.6505 99.2842L35.5779 97.0398C35.1927 96.7585 34.6526 96.8418 34.3723 97.227C34.091 97.6122 34.1753 98.1512 34.5595 98.4325Z" fill="white"/>
<path fill-rule="evenodd" clip-rule="evenodd" d="M135.307 215.86H70.1263C68.4351 215.86 67.0635 214.488 67.0635 212.797V169.748C67.0635 168.056 68.4351 166.684 70.1263 166.684H135.307C136.998 166.684 138.37 168.056 138.37 169.748V212.797C138.37 214.488 136.998 215.86 135.307 215.86Z" fill="#6FFFB0"/>
<path fill-rule="evenodd" clip-rule="evenodd" d="M118.726 234.684H53.5462C51.8543 234.684 50.4834 233.312 50.4834 231.621V188.572C50.4834 186.88 51.8543 185.508 53.5462 185.508H118.726C120.418 185.508 121.79 186.88 121.79 188.572V231.621C121.79 233.312 120.418 234.684 118.726 234.684Z" fill="#232531"/>
<path fill-rule="evenodd" clip-rule="evenodd" d="M91.3295 257.222C88.6067 256.357 87.1871 254.937 86.3219 252.215C85.4555 254.937 84.0371 256.357 81.3143 257.222C84.0359 258.088 85.4555 259.508 86.3219 262.229C87.1871 259.508 88.6067 258.088 91.3295 257.222ZM86.3219 248.948C87.2171 248.948 87.9839 249.56 88.1855 250.435C88.9211 253.611 89.9327 254.623 93.1091 255.358C93.9839 255.561 94.5959 256.327 94.5959 257.222C94.5959 258.117 93.9839 258.885 93.1091 259.088C89.9327 259.822 88.9211 260.834 88.1855 264.01C87.9839 264.885 87.2171 265.497 86.3219 265.497C85.4267 265.497 84.6599 264.885 84.4571 264.01C83.7227 260.835 82.7099 259.822 79.5335 259.088C78.6587 258.885 78.0479 258.117 78.0479 257.222C78.0479 256.327 78.6587 255.561 79.5335 255.358C82.7099 254.623 83.7227 253.611 84.4559 250.435C84.6599 249.56 85.4267 248.948 86.3219 248.948Z" fill="#F36A4E"/>
<path fill-rule="evenodd" clip-rule="evenodd" d="M572.329 169.222C569.607 168.357 568.187 166.937 567.322 164.215C566.455 166.937 565.037 168.357 562.314 169.222C565.036 170.088 566.455 171.508 567.322 174.229C568.187 171.508 569.607 170.088 572.329 169.222ZM567.322 160.948C568.217 160.948 568.984 161.56 569.185 162.435C569.921 165.611 570.933 166.623 574.109 167.358C574.984 167.561 575.596 168.327 575.596 169.222C575.596 170.117 574.984 170.885 574.109 171.088C570.933 171.822 569.921 172.834 569.185 176.01C568.984 176.885 568.217 177.497 567.322 177.497C566.427 177.497 565.66 176.885 565.457 176.01C564.723 172.835 563.71 171.822 560.533 171.088C559.659 170.885 559.048 170.117 559.048 169.222C559.048 168.327 559.659 167.561 560.533 167.358C563.71 166.623 564.723 165.611 565.456 162.435C565.66 161.56 566.427 160.948 567.322 160.948Z" fill="#F36A4E"/>
<path fill-rule="evenodd" clip-rule="evenodd" d="M543.894 195.521C545.894 195.521 547.521 193.894 547.521 191.893C547.521 189.894 545.894 188.267 543.894 188.267C541.894 188.267 540.268 189.894 540.268 191.893C540.268 193.894 541.894 195.521 543.894 195.521ZM543.894 186C547.144 186 549.788 188.644 549.788 191.893C549.788 195.144 547.144 197.788 543.894 197.788C540.645 197.788 538 195.144 538 191.893C538 188.644 540.645 186 543.894 186Z" fill="#EE9C40"/>
<path fill-rule="evenodd" clip-rule="evenodd" d="M394.884 32.8687C394.282 34.7739 393.292 35.7673 391.394 36.3727C393.291 36.9782 394.282 37.9715 394.884 39.876C395.488 37.9724 396.477 36.9782 398.374 36.3727C396.477 35.7673 395.488 34.7739 394.884 32.8687ZM389.118 36.3727C389.118 35.7463 389.544 35.2106 390.153 35.0687C392.366 34.5531 393.072 33.8461 393.585 31.6234C393.725 31.0113 394.26 30.583 394.884 30.583C395.508 30.583 396.043 31.0113 396.184 31.6234C396.696 33.8461 397.401 34.5531 399.614 35.0687C400.225 35.2106 400.651 35.7463 400.651 36.3727C400.651 36.9991 400.225 37.5357 399.614 37.6776C397.402 38.1915 396.696 38.9002 396.184 41.1229C396.043 41.7351 395.508 42.1625 394.884 42.1625C394.26 42.1625 393.725 41.7351 393.585 41.1229C393.072 38.9002 392.366 38.1915 390.154 37.6776C389.544 37.5357 389.118 36.9991 389.118 36.3727Z" fill="#F36A4E"/>
<path fill-rule="evenodd" clip-rule="evenodd" d="M427.327 20.0979C427.327 19.6604 427.681 19.3052 428.117 19.3052H430.21C430.646 19.3052 431 19.6604 431 20.0979C431 20.5362 430.646 20.8914 430.21 20.8914H428.117C427.681 20.8914 427.327 20.5362 427.327 20.0979Z" fill="#1A110F"/>
<path fill-rule="evenodd" clip-rule="evenodd" d="M421.735 20.0979C421.735 19.6604 422.089 19.3052 422.527 19.3052H424.619C425.055 19.3052 425.409 19.6604 425.409 20.0979C425.409 20.5362 425.055 20.8914 424.619 20.8914H422.527C422.089 20.8914 421.735 20.5362 421.735 20.0979Z" fill="#1A110F"/>
<path fill-rule="evenodd" clip-rule="evenodd" d="M425.758 18.4403V16.3394C425.758 15.9011 426.111 15.5459 426.547 15.5459C426.985 15.5459 427.338 15.9011 427.338 16.3394V18.4403C427.338 18.8787 426.985 19.2339 426.547 19.2339C426.111 19.2339 425.758 18.8787 425.758 18.4403Z" fill="#1A110F"/>
<path fill-rule="evenodd" clip-rule="evenodd" d="M425.758 23.8564V21.7554C425.758 21.3171 426.111 20.9619 426.547 20.9619C426.985 20.9619 427.338 21.3171 427.338 21.7554V23.8564C427.338 24.2947 426.985 24.6499 426.547 24.6499C426.111 24.6499 425.758 24.2947 425.758 23.8564Z" fill="#1A110F"/>
<path fill-rule="evenodd" clip-rule="evenodd" d="M380.59 4.96016C380.59 4.52267 380.944 4.16748 381.381 4.16748L383.473 4.16748C383.91 4.16748 384.264 4.52267 384.264 4.96016C384.264 5.39848 383.91 5.75451 383.473 5.75451H381.381C380.944 5.75451 380.59 5.39848 380.59 4.96016Z" fill="#1A110F"/>
<path fill-rule="evenodd" clip-rule="evenodd" d="M375 4.96016C375 4.52267 375.354 4.16748 375.79 4.16748L377.882 4.16748C378.318 4.16748 378.672 4.52267 378.672 4.96016C378.672 5.39848 378.318 5.75451 377.882 5.75451H375.79C375.354 5.75451 375 5.39848 375 4.96016Z" fill="#1A110F"/>
<path fill-rule="evenodd" clip-rule="evenodd" d="M379.021 3.30349V1.20256C379.021 0.763396 379.375 0.408203 379.812 0.408203C380.247 0.408203 380.601 0.763396 380.601 1.20256V3.30349C380.601 3.74097 380.247 4.09616 379.812 4.09616C379.375 4.09616 379.021 3.74097 379.021 3.30349Z" fill="#1A110F"/>
<path fill-rule="evenodd" clip-rule="evenodd" d="M379.021 8.71964V6.61871C379.021 6.18039 379.375 5.8252 379.812 5.8252C380.247 5.8252 380.601 6.18039 380.601 6.61871V8.71964C380.601 9.15712 380.247 9.51231 379.812 9.51231C379.375 9.51231 379.021 9.15712 379.021 8.71964Z" fill="#1A110F"/>
<path fill-rule="evenodd" clip-rule="evenodd" d="M544.726 161.684H479.546C477.854 161.684 476.483 160.312 476.483 158.621V115.572C476.483 113.88 477.854 112.508 479.546 112.508H544.726C546.418 112.508 547.79 113.88 547.79 115.572V158.621C547.79 160.312 546.418 161.684 544.726 161.684Z" fill="#232531"/>
<path fill-rule="evenodd" clip-rule="evenodd" d="M289.883 173.168L280.446 165.249L291.136 152.51C292.667 150.686 292.429 147.966 290.605 146.436C288.781 144.905 286.061 145.143 284.53 146.967L273.841 159.707L267.253 154.179C266.722 153.733 265.93 153.803 265.484 154.334L254.744 167.134C245.815 177.774 247.203 193.638 257.844 202.567C268.484 211.496 284.348 210.108 293.277 199.467L304.017 186.667C304.463 186.136 304.394 185.344 303.863 184.898L296.489 178.711L307.179 165.971C308.709 164.147 308.471 161.427 306.647 159.897C304.823 158.366 302.103 158.604 300.573 160.428L289.883 173.168Z" fill="#8F9BB3"/>
<path fill-rule="evenodd" clip-rule="evenodd" d="M327.803 158.32C327.358 158.851 326.565 158.921 326.034 158.475L289.425 127.756C288.894 127.31 288.824 126.518 289.27 125.987L300.01 113.187C308.939 102.546 324.803 101.158 335.444 110.087C346.084 119.016 347.472 134.88 338.544 145.52L327.803 158.32Z" fill="#8F9BB3"/>
<path fill-rule="evenodd" clip-rule="evenodd" d="M471.214 83.398C470.353 78.8833 470.418 74.204 471.444 69.7211C471.925 67.6189 472.563 65.4695 473.604 63.5619L473.628 63.762C473.903 64.2673 475.837 67.7168 479.022 67.9699C481.611 68.1754 483.944 66.1821 485.809 64.589C486.467 64.0275 486.975 63.5098 487.324 63.1305C486.229 63.1968 484.625 63.1681 482.812 62.6281C481.378 62.2004 480.871 61.7681 479.918 61.502C478.687 61.1583 476.858 61.1346 474.224 62.534C475.434 60.7295 477.133 59.3874 478.904 58.1536C480.662 56.9285 482.516 55.7911 484.041 54.2683C485.205 53.1052 486.046 51.7567 486.51 50.2197C487.037 51.1286 488.896 53.984 491.783 54.2133C494.372 54.4189 496.706 52.4261 498.571 50.8327C499.228 50.271 499.736 49.7535 500.086 49.3742C498.99 49.4405 497.386 49.4118 495.574 48.8718C494.139 48.4444 493.633 48.0115 492.68 47.7457C491.422 47.3945 489.54 47.3766 486.812 48.8704C487.181 46.5516 487.084 44.1072 486.93 41.7771C486.853 40.6296 486.708 39.4916 486.557 38.3545C487.268 39.4812 489.034 41.8153 491.633 42.0218C494.222 42.2274 496.555 40.2343 498.421 38.6409C499.078 38.0794 499.586 37.5617 499.936 37.1824C498.84 37.249 497.236 37.2203 495.423 36.68C493.989 36.2526 493.483 35.82 492.53 35.5539C491.226 35.19 489.252 35.1845 486.36 36.8488C486.286 36.2622 486.217 35.6753 486.163 35.086C485.928 32.5226 486.194 29.9582 487.856 27.898L487.907 28.3153C488.181 28.8209 490.115 32.2704 493.301 32.5231C495.89 32.7287 498.223 30.7357 500.088 29.1423C500.745 28.5805 501.253 28.0634 501.603 27.6838C500.508 27.7501 498.904 27.7214 497.091 27.1814C495.657 26.7537 495.15 26.3214 494.197 26.0553C492.997 25.7203 491.229 25.6893 488.701 26.9833C490.049 25.7067 491.728 24.8041 493.428 24.0252L494.003 24.3883C494.59 24.5012 498.639 25.2205 500.942 22.8264C502.814 20.8803 502.75 17.6906 502.698 15.1407C502.68 14.2416 502.599 13.4926 502.525 12.9609C501.855 13.8855 500.775 15.1564 499.146 16.2573C497.856 17.1288 497.175 17.2507 496.332 17.8414C495.178 18.6516 493.868 20.2407 493.302 23.6786C491.631 24.4471 489.995 25.3262 488.627 26.5565C487.233 27.8106 486.304 29.3861 485.923 31.1813C485.78 29.8523 485.264 27.4958 483.394 26.3034C481.365 25.0106 478.591 25.6273 476.373 26.1204C475.591 26.2945 474.951 26.4969 474.5 26.6553C475.425 27.0771 476.725 27.7973 477.973 29.0262C478.96 29.9988 479.187 30.5727 479.851 31.2045C480.782 32.0905 482.454 32.9754 485.699 32.8159L485.727 32.7417C485.629 34.6934 485.982 36.6464 486.239 38.5743C486.432 40.0122 486.558 41.4586 486.621 42.9075L486.596 42.7995C486.298 42.3588 484.199 39.3564 481.241 39.4143C478.836 39.4615 476.868 41.5116 475.294 43.1505C474.74 43.7281 474.319 44.2516 474.031 44.633C475.035 44.472 476.516 44.3518 478.236 44.684C479.597 44.9466 480.103 45.299 481.006 45.4574C482.253 45.6757 484.097 45.4944 486.648 43.6465C486.673 44.5586 486.673 45.4707 486.644 46.3828C486.615 47.3181 486.538 48.2368 486.367 49.1237C486.34 49.1397 486.313 49.1547 486.287 49.1706L486.313 49.3823C486.022 50.7282 485.5 51.9979 484.574 53.1356C483.651 54.2703 482.509 55.1914 481.319 56.043L481.232 55.4378C480.968 54.9751 479.109 51.8189 476.155 51.6467C473.754 51.5071 471.632 53.3982 469.936 54.9103C469.338 55.443 468.878 55.9321 468.562 56.29C469.575 56.2072 471.061 56.2025 472.75 56.6673C474.086 57.035 474.564 57.4253 475.451 57.6529C476.488 57.919 477.971 57.9332 480.027 56.9395C479.841 57.066 479.656 57.1925 479.471 57.3182C477.705 58.5251 475.912 59.7693 474.557 61.4496C474.184 61.9129 473.85 62.404 473.548 62.9136L473.525 62.9269L473.528 62.9475C472.569 64.5771 471.94 66.4089 471.443 68.2197C470.081 73.1778 469.889 78.4211 470.853 83.4696C470.898 83.7027 471.259 83.6314 471.214 83.398Z" fill="#232531"/>
<path fill-rule="evenodd" clip-rule="evenodd" d="M481.24 72.2255C482.281 71.3464 483.985 71.7706 484.853 72.8162C485.722 73.8618 485.923 75.3133 485.893 76.6769C485.843 78.8824 485.329 80.8786 484.699 82.9403C486.051 81.4042 487.458 79.9176 488.906 78.4796C489.865 77.529 490.845 76.599 491.845 75.6895C489.884 73.3365 488.643 70.388 488.342 67.3392C488.228 66.1836 488.315 64.856 489.204 64.1089C490.242 63.2359 491.947 63.6601 492.816 64.7013C493.686 65.7426 493.889 67.1872 493.86 68.5432C493.813 70.8209 493.263 72.8729 492.604 75.007C495.718 72.24 499.028 69.6907 502.534 67.4481C501.017 64.8386 500.282 61.7786 500.466 58.7651C500.536 57.606 500.832 56.3088 501.829 55.712C502.993 55.0151 504.608 55.7042 505.302 56.8703C505.995 58.036 505.966 59.4942 505.723 60.8294C505.329 62.9918 504.507 64.8736 503.561 66.8024C507.294 64.4963 511.378 62.4466 515.71 61.672C515.8 61.6555 515.891 61.6436 515.981 61.628C514.821 58.8057 514.519 55.6339 515.137 52.6448C515.372 51.5074 515.851 50.2658 516.922 49.8175C518.174 49.2937 519.675 50.2064 520.194 51.4593C520.714 52.7122 520.478 54.1516 520.046 55.4381C519.287 57.7045 518.074 59.5695 516.734 61.507C521.762 60.7483 526.952 60.9139 531.947 59.9836C530.736 57.1251 530.411 53.8962 531.041 50.8556C531.276 49.7185 531.755 48.4772 532.826 48.0286C534.077 47.5045 535.578 48.4175 536.098 49.6707C536.618 50.9236 536.381 52.3624 535.95 53.6489C535.17 55.9764 533.911 57.8805 532.529 59.8744C533.773 59.6196 535.004 59.2924 536.216 58.8584C538.67 57.9793 540.912 56.583 542.882 54.8434C540.896 52.3642 539.701 49.2604 539.521 46.0886C539.456 44.9295 539.599 43.6062 540.518 42.8971C541.592 42.0687 543.278 42.5644 544.103 43.641C544.928 44.7178 545.07 46.1697 544.985 47.5234C544.828 50.0063 544.085 52.1954 543.249 54.5121C546.37 51.6388 548.77 47.8986 550.186 44.0026C548.672 41.551 547.856 38.6693 547.876 35.7867C547.885 34.6256 548.111 33.3145 549.074 32.6653C550.199 31.9067 551.849 32.5087 552.604 33.6359C553.359 34.7629 553.408 36.2205 553.237 37.5664C552.964 39.7131 552.261 41.6103 551.437 43.5544C551.448 43.632 551.443 43.7166 551.412 43.8078C550.281 47.1504 548.466 50.2461 546.186 52.934C545.683 53.527 545.156 54.1041 544.608 54.6618C547.183 53.5537 550.063 53.1541 552.84 53.5412C553.99 53.7014 555.261 54.0983 555.778 55.1376C556.383 56.3523 555.57 57.9092 554.354 58.5097C553.137 59.1103 551.686 58.9684 550.374 58.6227C547.927 57.977 545.896 56.7947 543.745 55.4998C542.544 56.6181 541.24 57.6231 539.812 58.4275C537.65 59.646 535.344 60.3979 532.969 60.8919C535.856 61.037 538.702 62.005 541.069 63.6682C542.019 64.3359 542.968 65.2686 542.954 66.4297C542.938 67.7857 541.504 68.8003 540.147 68.78C538.791 68.7592 537.564 67.9704 536.555 67.0638C534.621 65.3265 533.336 63.2851 531.973 61.0845C528.031 61.7849 523.927 61.8591 519.983 62.2219C518.741 62.3362 517.512 62.4845 516.297 62.6982C519.438 62.697 522.573 63.6789 525.144 65.4811C526.095 66.1474 527.046 67.0789 527.033 68.2397C527.019 69.5963 525.586 70.6127 524.23 70.5935C522.873 70.575 521.646 69.7877 520.635 68.8823C518.655 67.1079 517.353 65.0149 515.952 62.7587C514.66 63.0008 513.385 63.3242 512.13 63.7759C509.835 64.6023 507.638 65.6884 505.525 66.9002C504.963 67.2222 504.407 67.5552 503.855 67.8955C506.69 67.6233 509.6 68.1462 512.155 69.4058C513.196 69.9189 514.278 70.694 514.443 71.8433C514.636 73.1862 513.375 74.4096 512.032 74.5978C510.688 74.7863 509.354 74.1962 508.218 73.4555C506.117 72.0877 504.569 70.3477 502.95 68.4639C499.525 70.6552 496.3 73.1741 493.265 75.8797C496.063 74.8775 499.153 74.6983 502.044 75.3883C503.174 75.6582 504.401 76.1742 504.816 77.258C505.302 78.5248 504.344 79.9972 503.076 80.4787C501.808 80.9603 500.376 80.6803 499.103 80.2106C496.688 79.3188 494.754 77.9153 492.698 76.3905C492.298 76.7524 491.901 77.1167 491.508 77.4841C489.352 79.5035 487.279 81.628 485.331 83.8602C488.071 82.9258 491.076 82.7738 493.892 83.4461C495.022 83.716 496.248 84.232 496.664 85.3161C497.15 86.5826 496.192 88.055 494.924 88.5368C493.656 89.0184 492.225 88.7381 490.952 88.2681C488.603 87.4009 486.709 86.0498 484.716 84.5745C482.525 87.1455 480.503 89.8581 478.716 92.7189C478.344 93.3145 477.445 92.6963 477.817 92.1016C479.622 89.2127 481.669 86.4775 483.882 83.8831C481.915 81.5171 480.671 78.5474 480.374 75.4743C480.261 74.3129 480.35 72.9781 481.24 72.2255Z" fill="#232531"/>
<path fill-rule="evenodd" clip-rule="evenodd" d="M521.81 146.56H444.728C442.944 146.56 441.498 145.114 441.498 143.33V92.7896C441.498 91.0057 442.944 89.5596 444.728 89.5596H521.81C523.594 89.5596 525.039 91.0057 525.039 92.7896V143.33C525.039 145.114 523.594 146.56 521.81 146.56Z" fill="#6FFFB0"/>
</svg>
