<svg width="67" height="51" viewBox="0 0 67 51" fill="none" xmlns="http://www.w3.org/2000/svg">
    <circle cx="4.5" cy="21.5" r="4.5" fill="#FFCA58" />
    <circle cx="53" cy="47" r="4" fill="#FFCA58" />
    <circle cx="64.5" cy="34.5" r="2.5" fill="#FFCA58" />
    <path fill-rule="evenodd" clip-rule="evenodd"
        d="M35.5 43.6607C47.3741 43.6607 57 33.887 57 21.8304C57 9.77379 47.3741 0 35.5 0C23.6259 0 14 9.77379 14 21.8304C14 27.7268 16.3024 33.0773 20.0441 37.0055L19.3894 45.9932C19.3304 46.8031 20.241 47.3159 20.9029 46.8455L27.5526 42.1208C30.0111 43.1144 32.6927 43.6607 35.5 43.6607Z"
        fill="#FFCA58" />
    <path fill-rule="evenodd" clip-rule="evenodd"
        d="M33 30.846C33 32.0356 34.1193 33 35.5 33C36.163 33 36.7989 32.7731 37.2678 32.3691C37.7366 31.9651 38 31.4173 38 30.846V30.3227C38 29.133 36.8807 28.1687 35.5 28.1687C34.1193 28.1687 33 29.133 33 30.3227V30.846ZM33 23.7472C33 25.2646 34.1197 26.4979 35.5 26.4979C36.8803 26.4979 38 25.2646 38 23.7472V14.7507C38 13.2311 36.8803 12 35.5 12C34.1197 12 33 13.2311 33 14.7507V23.7472Z"
        fill="#444444" />
</svg>