<svg width="24" height="24" viewBox="0 0 24 24" fill="none" xmlns="http://www.w3.org/2000/svg">
  <path d="M21.5335 2L13.1938 8.38196L14.5665 4.67339L21.5335 2Z" fill="#E2761B" stroke="#E2761B" stroke-width="0.1" stroke-linecap="round" stroke-linejoin="round"/>
  <path d="M2.45801 2L10.7294 8.44196L9.43343 4.67339L2.45801 2Z" fill="#E4761B" stroke="#E4761B" stroke-width="0.1" stroke-linecap="round" stroke-linejoin="round"/>
  <path d="M18.6665 16.1055L16.4908 19.4567L21.0908 20.7567L22.4001 16.1796L18.6665 16.1055Z" fill="#E4761B" stroke="#E4761B" stroke-width="0.1" stroke-linecap="round" stroke-linejoin="round"/>
  <path d="M1.60803 16.1796L2.90936 20.7567L7.50936 19.4567L5.33363 16.1055L1.60803 16.1796Z" fill="#E4761B" stroke="#E4761B" stroke-width="0.1" stroke-linecap="round" stroke-linejoin="round"/>
  <path d="M7.26667 10.5703L6.10667 12.5962L10.6667 12.7962L10.5067 7.88623L7.26667 10.5703Z" fill="#E4761B" stroke="#E4761B" stroke-width="0.1" stroke-linecap="round" stroke-linejoin="round"/>
  <path d="M16.7241 10.5703L13.4441 7.82623L13.3241 12.7962L17.8841 12.5962L16.7241 10.5703Z" fill="#E4761B" stroke="#E4761B" stroke-width="0.1" stroke-linecap="round" stroke-linejoin="round"/>
  <path d="M7.50934 19.4567L10.3893 18.0967L7.90934 16.2107L7.50934 19.4567Z" fill="#E4761B" stroke="#E4761B" stroke-width="0.1" stroke-linecap="round" stroke-linejoin="round"/>
  <path d="M13.6016 18.0967L16.4908 19.4567L16.0816 16.2107L13.6016 18.0967Z" fill="#E4761B" stroke="#E4761B" stroke-width="0.1" stroke-linecap="round" stroke-linejoin="round"/>
  <path d="M16.4908 19.4567L13.6016 18.0967L13.8216 19.9167L13.7916 20.6967L16.4908 19.4567Z" fill="#D7C1B3" stroke="#D7C1B3" stroke-width="0.1" stroke-linecap="round" stroke-linejoin="round"/>
  <path d="M7.50934 19.4567L10.2093 20.6967L10.1893 19.9167L10.3893 18.0967L7.50934 19.4567Z" fill="#D7C1B3" stroke="#D7C1B3" stroke-width="0.1" stroke-linecap="round" stroke-linejoin="round"/>
  <path d="M10.2493 15.0259L7.84937 14.3259L9.56937 13.5659L10.2493 15.0259Z" fill="#233447" stroke="#233447" stroke-width="0.1" stroke-linecap="round" stroke-linejoin="round"/>
  <path d="M13.7412 15.0259L14.4212 13.5659L16.1512 14.3259L13.7412 15.0259Z" fill="#233447" stroke="#233447" stroke-width="0.1" stroke-linecap="round" stroke-linejoin="round"/>
  <path d="M7.50936 19.4567L7.92936 16.1055L5.33363 16.1796L7.50936 19.4567Z" fill="#CD6116" stroke="#CD6116" stroke-width="0.1" stroke-linecap="round" stroke-linejoin="round"/>
  <path d="M16.0707 16.1055L16.4907 19.4567L18.6664 16.1796L16.0707 16.1055Z" fill="#CD6116" stroke="#CD6116" stroke-width="0.1" stroke-linecap="round" stroke-linejoin="round"/>
  <path d="M17.8841 12.5962L13.3241 12.7962L13.7441 15.0259L14.4241 13.5659L16.1541 14.3259L17.8841 12.5962Z" fill="#CD6116" stroke="#CD6116" stroke-width="0.1" stroke-linecap="round" stroke-linejoin="round"/>
  <path d="M7.84937 14.3259L9.56937 13.5659L10.2494 15.0259L10.6694 12.7962L6.10938 12.5962L7.84937 14.3259Z" fill="#CD6116" stroke="#CD6116" stroke-width="0.1" stroke-linecap="round" stroke-linejoin="round"/>
  <path d="M6.10938 12.5962L7.90938 16.2107L7.84938 14.3259L6.10938 12.5962Z" fill="#E4751F" stroke="#E4751F" stroke-width="0.1" stroke-linecap="round" stroke-linejoin="round"/>
  <path d="M16.1541 14.3259L16.0841 16.2107L17.8841 12.5962L16.1541 14.3259Z" fill="#E4751F" stroke="#E4751F" stroke-width="0.1" stroke-linecap="round" stroke-linejoin="round"/>
  <path d="M10.6694 12.7962L10.2494 15.0259L10.7694 17.7099L10.9094 14.0259L10.6694 12.7962Z" fill="#E4751F" stroke="#E4751F" stroke-width="0.1" stroke-linecap="round" stroke-linejoin="round"/>
  <path d="M13.3241 12.7962L13.0941 14.0159L13.2141 17.7099L13.7441 15.0259L13.3241 12.7962Z" fill="#E4751F" stroke="#E4751F" stroke-width="0.1" stroke-linecap="round" stroke-linejoin="round"/>
  <path d="M13.7441 15.0259L13.2141 17.7099L13.6041 18.0967L16.0841 16.2107L16.1541 14.3259L13.7441 15.0259Z" fill="#F6851B" stroke="#F6851B" stroke-width="0.1" stroke-linecap="round" stroke-linejoin="round"/>
  <path d="M7.84937 14.3259L7.90937 16.2107L10.3894 18.0967L10.7694 17.7099L10.2494 15.0259L7.84937 14.3259Z" fill="#F6851B" stroke="#F6851B" stroke-width="0.1" stroke-linecap="round" stroke-linejoin="round"/>
  <path d="M13.7916 20.6967L13.8216 19.9167L13.6216 19.7367H10.3693L10.1893 19.9167L10.2093 20.6967L7.50934 19.4567L8.40934 20.1767L10.3493 21.4967H13.6416L15.5916 20.1767L16.4908 19.4567L13.7916 20.6967Z" fill="#C0AD9E" stroke="#C0AD9E" stroke-width="0.1" stroke-linecap="round" stroke-linejoin="round"/>
  <path d="M13.6041 18.0967L13.2141 17.7099H10.7694L10.3894 18.0967L10.1894 19.9167L10.3694 19.7367H13.6216L13.8216 19.9167L13.6041 18.0967Z" fill="#161616" stroke="#161616" stroke-width="0.1" stroke-linecap="round" stroke-linejoin="round"/>
  <path d="M21.9335 8.48196L22.6335 5.18196L21.5335 2L13.6035 8.04196L16.7235 10.5703L20.9735 11.8903L21.8935 10.8303L21.4935 10.5503L22.1335 9.98196L21.6535 9.60196L22.2935 9.12196L21.9335 8.48196Z" fill="#763D16" stroke="#763D16" stroke-width="0.1" stroke-linecap="round" stroke-linejoin="round"/>
  <path d="M1.36646 5.18196L2.06646 8.48196L1.69646 9.12196L2.33646 9.60196L1.85646 9.98196L2.49646 10.5503L2.09646 10.8303L3.01646 11.8903L7.26646 10.5703L10.3865 8.04196L2.45646 2L1.36646 5.18196Z" fill="#763D16" stroke="#763D16" stroke-width="0.1" stroke-linecap="round" stroke-linejoin="round"/>
  <path d="M20.9735 11.8903L16.7235 10.5703L17.8835 12.5962L16.0835 16.2107L18.6635 16.1796H22.4001L20.9735 11.8903Z" fill="#F6851B" stroke="#F6851B" stroke-width="0.1" stroke-linecap="round" stroke-linejoin="round"/>
  <path d="M7.26667 10.5703L3.01667 11.8903L1.60803 16.1796H5.33363L7.90936 16.2107L6.10936 12.5962L7.26667 10.5703Z" fill="#F6851B" stroke="#F6851B" stroke-width="0.1" stroke-linecap="round" stroke-linejoin="round"/>
  <path d="M13.3241 12.7962L13.6041 8.04196L14.5741 4.67339H9.43408L10.3841 8.04196L10.6841 12.7962L10.7641 14.0359L10.7741 17.7099H13.2241L13.2441 14.0359L13.3241 12.7962Z" fill="#F6851B" stroke="#F6851B" stroke-width="0.1" stroke-linecap="round" stroke-linejoin="round"/>
</svg>