<svg width="146" height="149" viewBox="0 0 146 149" fill="none" xmlns="http://www.w3.org/2000/svg">
<mask id="mask0_3_22" style="mask-type:alpha" maskUnits="userSpaceOnUse" x="0" y="0" width="146" height="149">
<rect y="1.52588e-05" width="146" height="149" fill="#D9D9D9"/>
</mask>
<g mask="url(#mask0_3_22)">
<rect x="-90" y="160.215" width="368" height="47" transform="rotate(-45 -90 160.215)" fill="#FFCA58"/>
<path d="M37.8468 78.9574C36.9756 79.8286 36.0536 80.4678 35.0806 80.8751C34.1076 81.2824 33.1346 81.4182 32.1617 81.2824C31.2 81.1353 30.3175 80.6828 29.5143 79.9248L32.6029 76.8361C33.0894 77.2321 33.5815 77.4188 34.0793 77.3961C34.5658 77.3622 35.0184 77.1359 35.437 76.7173C35.8669 76.2874 36.1101 75.8518 36.1667 75.4106C36.212 74.958 36.0592 74.5564 35.7085 74.2057C35.4144 73.9115 35.0693 73.7701 34.6733 73.7814C34.2886 73.7814 33.887 73.8663 33.4684 74.036C33.0611 74.1944 32.5124 74.4602 31.8223 74.8336C30.8153 75.3653 29.9498 75.7557 29.2258 76.0046C28.5017 76.2535 27.7323 76.3213 26.9178 76.2082C26.1032 76.0951 25.3225 75.6651 24.5758 74.9184C23.4671 73.8097 23.0032 72.5426 23.1842 71.117C23.3539 69.6802 24.0837 68.3169 25.3734 67.0271C26.6858 65.7147 28.0604 64.9737 29.4973 64.804C30.9228 64.623 32.2239 65.0642 33.4005 66.1277L30.261 69.2672C29.8537 68.9052 29.4124 68.7468 28.9373 68.7921C28.4508 68.826 28.0039 69.0466 27.5966 69.4539C27.2459 69.8046 27.0592 70.1837 27.0366 70.5909C27.0026 70.9869 27.161 71.3603 27.5117 71.711C27.8964 72.0957 28.3772 72.2145 28.9542 72.0674C29.5312 71.9203 30.3288 71.5866 31.3471 71.0661C32.3766 70.557 33.2478 70.1837 33.9605 69.9461C34.6846 69.6972 35.4483 69.6236 36.2516 69.7254C37.0548 69.8273 37.8129 70.2346 38.5256 70.9473C39.2044 71.6262 39.6457 72.4181 39.8493 73.3232C40.0643 74.217 40.0077 75.156 39.6796 76.1403C39.3515 77.1246 38.7406 78.0637 37.8468 78.9574ZM49.6114 67.1929C48.4913 68.3129 47.2016 69.0822 45.7421 69.5009C44.2939 69.9081 42.8288 69.9251 41.3467 69.5518C39.8646 69.1558 38.5409 68.3751 37.3756 67.2098C36.2103 66.0445 35.4353 64.7265 35.0506 63.2557C34.6773 61.7736 34.6943 60.3085 35.1015 58.8603C35.5202 57.4008 36.2895 56.1111 37.4095 54.991C38.5296 53.871 39.8137 53.1073 41.2619 52.7C42.7213 52.2814 44.1808 52.2701 45.6403 52.6661C47.111 53.0507 48.4291 53.8257 49.5944 54.991C50.7597 56.1563 51.5404 57.48 51.9363 58.9621C52.321 60.4329 52.3097 61.8924 51.9024 63.3405C51.4951 64.7887 50.7314 66.0728 49.6114 67.1929ZM46.964 64.5454C47.9143 63.5951 48.3556 62.5203 48.2877 61.321C48.2311 60.1105 47.6824 58.9848 46.6415 57.9439C45.5894 56.8917 44.4636 56.343 43.2644 56.2978C42.0651 56.2299 40.9903 56.6711 40.04 57.6215C39.0783 58.5831 38.6201 59.6636 38.6654 60.8628C38.7219 62.0508 39.282 63.1765 40.3455 64.24C41.3976 65.2922 42.5233 65.8522 43.7226 65.9201C44.9218 65.9653 46.0023 65.5071 46.964 64.5454ZM62.9525 53.8517C61.8324 54.9718 60.5427 55.7411 59.0832 56.1597C57.6351 56.567 56.1699 56.584 54.6878 56.2106C53.2057 55.8147 51.882 55.034 50.7167 53.8687C49.5514 52.7034 48.7764 51.3854 48.3918 49.9146C48.0184 48.4325 48.0354 46.9673 48.4427 45.5192C48.8613 44.0597 49.6306 42.77 50.7507 41.6499C51.8707 40.5298 53.1548 39.7662 54.603 39.3589C56.0624 38.9403 57.5219 38.929 58.9814 39.3249C60.4522 39.7096 61.7702 40.4846 62.9355 41.6499C64.1008 42.8152 64.8815 44.1389 65.2775 45.621C65.6621 47.0918 65.6508 48.5513 65.2435 49.9994C64.8362 51.4476 64.0726 52.7317 62.9525 53.8517ZM60.3051 51.2043C61.2554 50.254 61.6967 49.1792 61.6288 47.9799C61.5722 46.7694 61.0235 45.6436 59.9826 44.6028C58.9305 43.5506 57.8048 43.0019 56.6055 42.9566C55.4062 42.8888 54.3314 43.33 53.3811 44.2803C52.4194 45.242 51.9612 46.3225 52.0065 47.5217C52.063 48.7097 52.6231 49.8354 53.6866 50.8989C54.7387 51.951 55.8645 52.5111 57.0637 52.5789C58.263 52.6242 59.3434 52.166 60.3051 51.2043ZM81.1981 35.3685L78.2961 38.2705L66.0943 35.7758L73.4426 43.1241L70.5406 46.0261L58.6273 34.1127L61.5292 31.2108L73.765 33.7394L66.3828 26.3572L69.2848 23.4552L81.1981 35.3685ZM74.7824 17.109L82.5719 25.5773L80.1112 28.0381L71.6429 20.2486L74.7824 17.109ZM85.7284 31.1097C85.2193 31.6188 84.6536 31.8904 84.0314 31.9243C83.4091 31.9356 82.8774 31.7207 82.4362 31.2794C81.9836 30.8269 81.763 30.2895 81.7743 29.6672C81.7969 29.0337 82.0628 28.4623 82.5719 27.9532C83.0697 27.4554 83.6298 27.2008 84.252 27.1895C84.8856 27.1669 85.4286 27.3819 85.8812 27.8344C86.3224 28.2756 86.5317 28.813 86.5091 29.4466C86.4865 30.0576 86.2263 30.6119 85.7284 31.1097Z" fill="white"/>
</g>
</svg>
